<?xml version="1.0" encoding="UTF-8" standalone="no"?>
<!-- Created with Inkscape (http://www.inkscape.org/) -->

<svg
   width="35.161999mm"
   height="18.114664mm"
   viewBox="0 0 35.161999 18.114664"
   version="1.1"
   id="svg1"
   xmlns="http://www.w3.org/2000/svg"
   xmlns:svg="http://www.w3.org/2000/svg"
   xmlns:ns5="http://www.iki.fi/pav/software/textext/">
  <defs
     id="defs1">
    <marker
       style="overflow:visible"
       id="marker3"
       refX="0"
       refY="0"
       orient="auto-start-reverse"
       markerWidth="1"
       markerHeight="1"
       viewBox="0 0 1 1"
       preserveAspectRatio="xMidYMid">
      <path
         transform="scale(0.7)"
         d="M -2,-4 9,0 -2,4 c 2,-2.33 2,-5.66 0,-8 z"
         style="fill:context-stroke;fill-rule:evenodd;stroke:none"
         id="path3" />
    </marker>
    <marker
       style="overflow:visible"
       id="marker3-6"
       refX="0"
       refY="0"
       orient="auto-start-reverse"
       markerWidth="1"
       markerHeight="1"
       viewBox="0 0 1 1"
       preserveAspectRatio="xMidYMid">
      <path
         transform="scale(0.7)"
         d="M -2,-4 9,0 -2,4 c 2,-2.33 2,-5.66 0,-8 z"
         style="fill:context-stroke;fill-rule:evenodd;stroke:none"
         id="path3-1" />
    </marker>
  </defs>
  <g
     transform="matrix(0.352778,0,0,0.352778,8.8884111e-5,-4.3251241e-5)"
     ns5:version="1.10.2"
     ns5:texconverter="lualatex"
     ns5:pdfconverter="inkscape"
     ns5:text="\\begin{center}\n\\begin{tabular}{ c c c c }\n $\\hat{\\mathcal{T}}_{1,1}$ &amp;  &amp;  &amp; \\\\ \n $\\hat{\\mathcal{T}}_{2,1}$ &amp; $\\hat{\\mathcal{T}}_{2,2}$ &amp;  \\\\  \n $\\hat{\\mathcal{T}}_{3,1}$ &amp; $\\hat{\\mathcal{T}}_{3,2}$ &amp; $\\hat{\\mathcal{T}}_{3,3}$ &amp; \\\\\n $\\hat{\\mathcal{T}}_{4,1}$ &amp; $\\hat{\\mathcal{T}}_{4,2}$ &amp; $\\hat{\\mathcal{T}}_{4,3}$ &amp; $\\hat{\\mathcal{T}}_{4,4}$    \n\\end{tabular}\n\\end{center}\n"
     ns5:preamble="/home/leo/.config/inkscape/extensions/textext/default_packages.tex"
     ns5:scale="1.0"
     ns5:alignment="middle center"
     ns5:stroke-to-path="0"
     id="g9720"
     ns5:jacobian_sqrt="0.352778"
     style="fill:#ffffff">
    <defs
       id="id-182db583-9ac3-464b-99a9-b98a1c097ff0" />
    <g
       id="id-2904eb9f-84ef-4418-8410-325a41432ead"
       transform="translate(-255.569,-124.798)"
       style="fill:#ffffff">
      <g
         style="fill:#ffffff;fill-opacity:1"
         id="id-21b11841-14e9-4ba1-9eff-05a4467fb659">
        <g
           transform="translate(256.991,131.72)"
           id="g1447"
           style="fill:#ffffff">
          <path
             style="fill:#ffffff;stroke:none;stroke-width:0"
             d="M 2.5,-6.921875 1.15625,-5.5625 1.328125,-5.390625 2.5,-6.40625 3.640625,-5.390625 3.8125,-5.5625 Z m 0,0"
             id="id-f85fca15-1bbc-4b44-812b-533bf7553379" />
        </g>
      </g>
      <g
         style="fill:#ffffff;fill-opacity:1"
         id="id-bcba5764-f93d-4146-9baf-4dcb43f18cb8">
        <g
           transform="translate(255.225,134.239)"
           id="g561"
           style="fill:#ffffff">
          <path
             style="fill:#ffffff;stroke:none;stroke-width:0"
             d="M 4.84375,-6.1875 H 6.5 c 1.3125,0 1.8125,-0.765625 1.8125,-0.890625 0,-0.046875 -0.03125,-0.0625 -0.09375,-0.0625 -0.109375,0 -0.359375,0.09375 -0.609375,0.265625 C 7.53125,-6.8125 7.5,-6.8125 7.3125,-6.8125 H 2.953125 c -1.234375,0 -2.609375,1.078125 -2.609375,1.890625 0,0.0625 0,0.109375 0.078125,0.109375 0.234375,0 0.859375,-0.328125 0.890625,-0.5625 0,-0.171875 0.015625,-0.359375 0.21875,-0.609375 0.109375,-0.125 0.1875,-0.203125 0.625,-0.203125 h 1.984375 c -0.171875,0.109375 -0.21875,0.25 -0.234375,0.359375 L 2.765625,-1.3125 C 2.65625,-0.828125 2.4375,-0.203125 2.15625,0.453125 2.09375,0.5625 2.09375,0.59375 2.09375,0.609375 c 0,0.0625 0.046875,0.0625 0.09375,0.0625 0.1875,0 0.6875,-0.265625 0.828125,-0.46875 0.0625,-0.109375 0.5,-1.125 0.71875,-1.953125 z m 0,0"
             id="id-919ab5de-0174-4024-82ea-9da3f53c38d9" />
        </g>
      </g>
      <g
         style="fill:#ffffff;fill-opacity:1"
         id="id-38ffe608-0fe6-41a2-923f-a356f46d4543">
        <g
           transform="translate(260.652,135.733)"
           id="g5557"
           style="fill:#ffffff">
          <path
             style="fill:#ffffff;stroke:none;stroke-width:0"
             d="m 2.328125,-4.4375 c 0,-0.1875 0,-0.1875 -0.203125,-0.1875 -0.453125,0.4375 -1.078125,0.4375 -1.359375,0.4375 v 0.25 c 0.15625,0 0.625,0 1,-0.1875 v 3.546875 c 0,0.234375 0,0.328125 -0.6875,0.328125 H 0.8125 V 0 c 0.125,0 0.984375,-0.03125 1.234375,-0.03125 0.21875,0 1.09375,0.03125 1.25,0.03125 V -0.25 H 3.03125 c -0.703125,0 -0.703125,-0.09375 -0.703125,-0.328125 z m 0,0"
             id="id-68022a5f-3d7a-4a75-9c7c-fad466699553" />
        </g>
      </g>
      <g
         style="fill:#ffffff;fill-opacity:1"
         id="id-51e24e57-4c2a-4ff4-a7eb-77974d87d3ff">
        <g
           transform="translate(264.623,135.733)"
           id="g9420"
           style="fill:#ffffff">
          <path
             style="fill:#ffffff;stroke:none;stroke-width:0"
             d="m 1.46875,-0.109375 c 0,0.375 -0.0625,0.828125 -0.546875,1.265625 C 0.90625,1.1875 0.875,1.21875 0.875,1.25 c 0,0.046875 0.0625,0.09375 0.09375,0.09375 0.109375,0 0.703125,-0.5625 0.703125,-1.390625 0,-0.421875 -0.171875,-0.75 -0.5,-0.75 -0.21875,0 -0.390625,0.171875 -0.390625,0.390625 C 0.78125,-0.1875 0.9375,0 1.1875,0 1.359375,0 1.46875,-0.109375 1.46875,-0.109375 Z m 0,0"
             id="id-eb4e14df-86aa-4cca-a2d4-ef2ba1f548da" />
        </g>
      </g>
      <g
         style="fill:#ffffff;fill-opacity:1"
         id="id-c5657e70-d7bb-4ac1-84d5-b859077058cf">
        <g
           transform="translate(266.989,135.733)"
           id="g4422"
           style="fill:#ffffff">
          <path
             style="fill:#ffffff;stroke:none;stroke-width:0"
             d="m 2.328125,-4.4375 c 0,-0.1875 0,-0.1875 -0.203125,-0.1875 -0.453125,0.4375 -1.078125,0.4375 -1.359375,0.4375 v 0.25 c 0.15625,0 0.625,0 1,-0.1875 v 3.546875 c 0,0.234375 0,0.328125 -0.6875,0.328125 H 0.8125 V 0 c 0.125,0 0.984375,-0.03125 1.234375,-0.03125 0.21875,0 1.09375,0.03125 1.25,0.03125 V -0.25 H 3.03125 c -0.703125,0 -0.703125,-0.09375 -0.703125,-0.328125 z m 0,0"
             id="id-7bd41f91-7db7-4593-bd71-e4d359aa0147" />
        </g>
      </g>
      <g
         style="fill:#ffffff;fill-opacity:1"
         id="id-b2030fdb-7432-4cf6-b7f4-f95cd8e30a21">
        <g
           transform="translate(256.991,144.744)"
           id="g9918"
           style="fill:#ffffff">
          <path
             style="fill:#ffffff;stroke:none;stroke-width:0"
             d="M 2.5,-6.921875 1.15625,-5.5625 1.328125,-5.390625 2.5,-6.40625 3.640625,-5.390625 3.8125,-5.5625 Z m 0,0"
             id="id-798846d2-062b-4863-a9e6-c9f75d4b9351" />
        </g>
      </g>
      <g
         style="fill:#ffffff;fill-opacity:1"
         id="id-e9ba3816-2222-4942-8345-3ee544a8d35d">
        <g
           transform="translate(255.225,147.262)"
           id="g3256"
           style="fill:#ffffff">
          <path
             style="fill:#ffffff;stroke:none;stroke-width:0"
             d="M 4.84375,-6.1875 H 6.5 c 1.3125,0 1.8125,-0.765625 1.8125,-0.890625 0,-0.046875 -0.03125,-0.0625 -0.09375,-0.0625 -0.109375,0 -0.359375,0.09375 -0.609375,0.265625 C 7.53125,-6.8125 7.5,-6.8125 7.3125,-6.8125 H 2.953125 c -1.234375,0 -2.609375,1.078125 -2.609375,1.890625 0,0.0625 0,0.109375 0.078125,0.109375 0.234375,0 0.859375,-0.328125 0.890625,-0.5625 0,-0.171875 0.015625,-0.359375 0.21875,-0.609375 0.109375,-0.125 0.1875,-0.203125 0.625,-0.203125 h 1.984375 c -0.171875,0.109375 -0.21875,0.25 -0.234375,0.359375 L 2.765625,-1.3125 C 2.65625,-0.828125 2.4375,-0.203125 2.15625,0.453125 2.09375,0.5625 2.09375,0.59375 2.09375,0.609375 c 0,0.0625 0.046875,0.0625 0.09375,0.0625 0.1875,0 0.6875,-0.265625 0.828125,-0.46875 0.0625,-0.109375 0.5,-1.125 0.71875,-1.953125 z m 0,0"
             id="id-92456db3-b498-41c8-b8c6-03b71e42a107" />
        </g>
      </g>
      <g
         style="fill:#ffffff;fill-opacity:1"
         id="id-1dd32204-0c7f-4c26-964b-bfc9afa6ef83">
        <g
           transform="translate(260.652,148.757)"
           id="g1281"
           style="fill:#ffffff">
          <path
             style="fill:#ffffff;stroke:none;stroke-width:0"
             d="M 3.515625,-1.265625 H 3.28125 c -0.015625,0.15625 -0.09375,0.5625 -0.1875,0.625 C 3.046875,-0.59375 2.515625,-0.59375 2.40625,-0.59375 H 1.125 c 0.734375,-0.640625 0.984375,-0.84375 1.390625,-1.171875 0.515625,-0.40625 1,-0.84375 1,-1.5 0,-0.84375 -0.734375,-1.359375 -1.625,-1.359375 -0.859375,0 -1.453125,0.609375 -1.453125,1.25 0,0.34375 0.296875,0.390625 0.375,0.390625 0.15625,0 0.359375,-0.125 0.359375,-0.375 0,-0.125 -0.046875,-0.375 -0.40625,-0.375 C 0.984375,-4.21875 1.453125,-4.375 1.78125,-4.375 c 0.703125,0 1.0625,0.546875 1.0625,1.109375 0,0.609375 -0.4375,1.078125 -0.65625,1.328125 L 0.515625,-0.265625 C 0.4375,-0.203125 0.4375,-0.1875 0.4375,0 h 2.875 z m 0,0"
             id="id-b266902d-a565-477d-b7d9-19c963a7efc6" />
        </g>
      </g>
      <g
         style="fill:#ffffff;fill-opacity:1"
         id="id-aee4d5bf-b3c8-4547-99d6-00247be7047a">
        <g
           transform="translate(264.623,148.757)"
           id="g7594"
           style="fill:#ffffff">
          <path
             style="fill:#ffffff;stroke:none;stroke-width:0"
             d="m 1.46875,-0.109375 c 0,0.375 -0.0625,0.828125 -0.546875,1.265625 C 0.90625,1.1875 0.875,1.21875 0.875,1.25 c 0,0.046875 0.0625,0.09375 0.09375,0.09375 0.109375,0 0.703125,-0.5625 0.703125,-1.390625 0,-0.421875 -0.171875,-0.75 -0.5,-0.75 -0.21875,0 -0.390625,0.171875 -0.390625,0.390625 C 0.78125,-0.1875 0.9375,0 1.1875,0 1.359375,0 1.46875,-0.109375 1.46875,-0.109375 Z m 0,0"
             id="id-92a240a9-dd9d-4505-87bb-f300226d7c8b" />
        </g>
      </g>
      <g
         style="fill:#ffffff;fill-opacity:1"
         id="id-8c0cddf4-80f9-4c56-868a-aa41ad9324c1">
        <g
           transform="translate(266.989,148.757)"
           id="g6272"
           style="fill:#ffffff">
          <path
             style="fill:#ffffff;stroke:none;stroke-width:0"
             d="m 2.328125,-4.4375 c 0,-0.1875 0,-0.1875 -0.203125,-0.1875 -0.453125,0.4375 -1.078125,0.4375 -1.359375,0.4375 v 0.25 c 0.15625,0 0.625,0 1,-0.1875 v 3.546875 c 0,0.234375 0,0.328125 -0.6875,0.328125 H 0.8125 V 0 c 0.125,0 0.984375,-0.03125 1.234375,-0.03125 0.21875,0 1.09375,0.03125 1.25,0.03125 V -0.25 H 3.03125 c -0.703125,0 -0.703125,-0.09375 -0.703125,-0.328125 z m 0,0"
             id="id-009204c7-5ecb-40a5-af13-a73903d51979" />
        </g>
      </g>
      <g
         style="fill:#ffffff;fill-opacity:1"
         id="id-76a60e21-f8b0-45e9-b4a2-1c2a50e0c3b1">
        <g
           transform="translate(285.179,144.744)"
           id="g6938"
           style="fill:#ffffff">
          <path
             style="fill:#ffffff;stroke:none;stroke-width:0"
             d="M 2.5,-6.921875 1.15625,-5.5625 1.328125,-5.390625 2.5,-6.40625 3.640625,-5.390625 3.8125,-5.5625 Z m 0,0"
             id="id-ed81e99b-767b-438c-a128-8f9543eb8d5b" />
        </g>
      </g>
      <g
         style="fill:#ffffff;fill-opacity:1"
         id="id-4d79fe65-2c01-4d1b-ad93-a0c7be2d0a21">
        <g
           transform="translate(283.413,147.262)"
           id="g6511"
           style="fill:#ffffff">
          <path
             style="fill:#ffffff;stroke:none;stroke-width:0"
             d="M 4.84375,-6.1875 H 6.5 c 1.3125,0 1.8125,-0.765625 1.8125,-0.890625 0,-0.046875 -0.03125,-0.0625 -0.09375,-0.0625 -0.109375,0 -0.359375,0.09375 -0.609375,0.265625 C 7.53125,-6.8125 7.5,-6.8125 7.3125,-6.8125 H 2.953125 c -1.234375,0 -2.609375,1.078125 -2.609375,1.890625 0,0.0625 0,0.109375 0.078125,0.109375 0.234375,0 0.859375,-0.328125 0.890625,-0.5625 0,-0.171875 0.015625,-0.359375 0.21875,-0.609375 0.109375,-0.125 0.1875,-0.203125 0.625,-0.203125 h 1.984375 c -0.171875,0.109375 -0.21875,0.25 -0.234375,0.359375 L 2.765625,-1.3125 C 2.65625,-0.828125 2.4375,-0.203125 2.15625,0.453125 2.09375,0.5625 2.09375,0.59375 2.09375,0.609375 c 0,0.0625 0.046875,0.0625 0.09375,0.0625 0.1875,0 0.6875,-0.265625 0.828125,-0.46875 0.0625,-0.109375 0.5,-1.125 0.71875,-1.953125 z m 0,0"
             id="id-7e6e3d9a-b15b-4e90-ac61-4fa8efb54f76" />
        </g>
      </g>
      <g
         style="fill:#ffffff;fill-opacity:1"
         id="id-4f5ebeb4-70f7-4a28-b131-d751ab414da5">
        <g
           transform="translate(288.84,148.757)"
           id="g2521"
           style="fill:#ffffff">
          <path
             style="fill:#ffffff;stroke:none;stroke-width:0"
             d="M 3.515625,-1.265625 H 3.28125 c -0.015625,0.15625 -0.09375,0.5625 -0.1875,0.625 C 3.046875,-0.59375 2.515625,-0.59375 2.40625,-0.59375 H 1.125 c 0.734375,-0.640625 0.984375,-0.84375 1.390625,-1.171875 0.515625,-0.40625 1,-0.84375 1,-1.5 0,-0.84375 -0.734375,-1.359375 -1.625,-1.359375 -0.859375,0 -1.453125,0.609375 -1.453125,1.25 0,0.34375 0.296875,0.390625 0.375,0.390625 0.15625,0 0.359375,-0.125 0.359375,-0.375 0,-0.125 -0.046875,-0.375 -0.40625,-0.375 C 0.984375,-4.21875 1.453125,-4.375 1.78125,-4.375 c 0.703125,0 1.0625,0.546875 1.0625,1.109375 0,0.609375 -0.4375,1.078125 -0.65625,1.328125 L 0.515625,-0.265625 C 0.4375,-0.203125 0.4375,-0.1875 0.4375,0 h 2.875 z m 0,0"
             id="id-51333dd4-1d7a-4231-9542-9ecbd158f252" />
        </g>
      </g>
      <g
         style="fill:#ffffff;fill-opacity:1"
         id="id-423fc749-14f0-4059-a4b8-1cca17cf4618">
        <g
           transform="translate(292.811,148.757)"
           id="g3842"
           style="fill:#ffffff">
          <path
             style="fill:#ffffff;stroke:none;stroke-width:0"
             d="m 1.46875,-0.109375 c 0,0.375 -0.0625,0.828125 -0.546875,1.265625 C 0.90625,1.1875 0.875,1.21875 0.875,1.25 c 0,0.046875 0.0625,0.09375 0.09375,0.09375 0.109375,0 0.703125,-0.5625 0.703125,-1.390625 0,-0.421875 -0.171875,-0.75 -0.5,-0.75 -0.21875,0 -0.390625,0.171875 -0.390625,0.390625 C 0.78125,-0.1875 0.9375,0 1.1875,0 1.359375,0 1.46875,-0.109375 1.46875,-0.109375 Z m 0,0"
             id="id-dbb2ff71-721c-4d1f-9efc-4f9389f8e140" />
        </g>
      </g>
      <g
         style="fill:#ffffff;fill-opacity:1"
         id="id-35949941-4819-4cdf-9b08-98992fb1a180">
        <g
           transform="translate(295.177,148.757)"
           id="g5418"
           style="fill:#ffffff">
          <path
             style="fill:#ffffff;stroke:none;stroke-width:0"
             d="M 3.515625,-1.265625 H 3.28125 c -0.015625,0.15625 -0.09375,0.5625 -0.1875,0.625 C 3.046875,-0.59375 2.515625,-0.59375 2.40625,-0.59375 H 1.125 c 0.734375,-0.640625 0.984375,-0.84375 1.390625,-1.171875 0.515625,-0.40625 1,-0.84375 1,-1.5 0,-0.84375 -0.734375,-1.359375 -1.625,-1.359375 -0.859375,0 -1.453125,0.609375 -1.453125,1.25 0,0.34375 0.296875,0.390625 0.375,0.390625 0.15625,0 0.359375,-0.125 0.359375,-0.375 0,-0.125 -0.046875,-0.375 -0.40625,-0.375 C 0.984375,-4.21875 1.453125,-4.375 1.78125,-4.375 c 0.703125,0 1.0625,0.546875 1.0625,1.109375 0,0.609375 -0.4375,1.078125 -0.65625,1.328125 L 0.515625,-0.265625 C 0.4375,-0.203125 0.4375,-0.1875 0.4375,0 h 2.875 z m 0,0"
             id="id-3f0662eb-14ba-451b-91b2-d5333e12b0f7" />
        </g>
      </g>
      <g
         style="fill:#ffffff;fill-opacity:1"
         id="id-c236adee-0781-4a34-9f91-01d5a193421c">
        <g
           transform="translate(256.991,157.767)"
           id="g67"
           style="fill:#ffffff">
          <path
             style="fill:#ffffff;stroke:none;stroke-width:0"
             d="M 2.5,-6.921875 1.15625,-5.5625 1.328125,-5.390625 2.5,-6.40625 3.640625,-5.390625 3.8125,-5.5625 Z m 0,0"
             id="id-2809c5d6-9e9e-4a2f-aae4-c4f9a2ce66ca" />
        </g>
      </g>
      <g
         style="fill:#ffffff;fill-opacity:1"
         id="id-0491e2c4-8178-42db-a470-a2f9a2f1c94b">
        <g
           transform="translate(255.225,160.286)"
           id="g1546"
           style="fill:#ffffff">
          <path
             style="fill:#ffffff;stroke:none;stroke-width:0"
             d="M 4.84375,-6.1875 H 6.5 c 1.3125,0 1.8125,-0.765625 1.8125,-0.890625 0,-0.046875 -0.03125,-0.0625 -0.09375,-0.0625 -0.109375,0 -0.359375,0.09375 -0.609375,0.265625 C 7.53125,-6.8125 7.5,-6.8125 7.3125,-6.8125 H 2.953125 c -1.234375,0 -2.609375,1.078125 -2.609375,1.890625 0,0.0625 0,0.109375 0.078125,0.109375 0.234375,0 0.859375,-0.328125 0.890625,-0.5625 0,-0.171875 0.015625,-0.359375 0.21875,-0.609375 0.109375,-0.125 0.1875,-0.203125 0.625,-0.203125 h 1.984375 c -0.171875,0.109375 -0.21875,0.25 -0.234375,0.359375 L 2.765625,-1.3125 C 2.65625,-0.828125 2.4375,-0.203125 2.15625,0.453125 2.09375,0.5625 2.09375,0.59375 2.09375,0.609375 c 0,0.0625 0.046875,0.0625 0.09375,0.0625 0.1875,0 0.6875,-0.265625 0.828125,-0.46875 0.0625,-0.109375 0.5,-1.125 0.71875,-1.953125 z m 0,0"
             id="id-74353db3-4011-4f4c-befd-bde3abfd044e" />
        </g>
      </g>
      <g
         style="fill:#ffffff;fill-opacity:1"
         id="id-2249ab2e-0da2-459c-8123-8736427c5491">
        <g
           transform="translate(260.652,161.78)"
           id="g4111"
           style="fill:#ffffff">
          <path
             style="fill:#ffffff;stroke:none;stroke-width:0"
             d="m 1.90625,-2.328125 c 0.546875,0 0.9375,0.375 0.9375,1.125 0,0.859375 -0.515625,1.125 -0.90625,1.125 -0.28125,0 -0.90625,-0.078125 -1.1875,-0.5 0.328125,0 0.40625,-0.234375 0.40625,-0.390625 0,-0.21875 -0.171875,-0.375 -0.390625,-0.375 -0.1875,0 -0.390625,0.125 -0.390625,0.40625 0,0.65625 0.71875,1.078125 1.5625,1.078125 0.96875,0 1.640625,-0.65625 1.640625,-1.34375 0,-0.546875 -0.4375,-1.09375 -1.203125,-1.25 0.71875,-0.265625 0.984375,-0.78125 0.984375,-1.21875 0,-0.546875 -0.625,-0.953125 -1.40625,-0.953125 -0.765625,0 -1.359375,0.375 -1.359375,0.9375 0,0.234375 0.15625,0.359375 0.359375,0.359375 0.21875,0 0.359375,-0.15625 0.359375,-0.34375 0,-0.203125 -0.140625,-0.359375 -0.359375,-0.375 0.25,-0.296875 0.71875,-0.375 0.984375,-0.375 0.3125,0 0.75,0.15625 0.75,0.75 0,0.296875 -0.09375,0.625 -0.28125,0.828125 -0.21875,0.265625 -0.421875,0.28125 -0.765625,0.3125 -0.171875,0.015625 -0.1875,0.015625 -0.21875,0.015625 -0.015625,0 -0.078125,0.015625 -0.078125,0.09375 0,0.09375 0.0625,0.09375 0.1875,0.09375 z m 0,0"
             id="id-bf433f46-83e8-4062-9a67-56587b4fa5f1" />
        </g>
      </g>
      <g
         style="fill:#ffffff;fill-opacity:1"
         id="id-561c1892-c1f8-48d2-9513-79bef6615fb7">
        <g
           transform="translate(264.623,161.78)"
           id="g2101"
           style="fill:#ffffff">
          <path
             style="fill:#ffffff;stroke:none;stroke-width:0"
             d="m 1.46875,-0.109375 c 0,0.375 -0.0625,0.828125 -0.546875,1.265625 C 0.90625,1.1875 0.875,1.21875 0.875,1.25 c 0,0.046875 0.0625,0.09375 0.09375,0.09375 0.109375,0 0.703125,-0.5625 0.703125,-1.390625 0,-0.421875 -0.171875,-0.75 -0.5,-0.75 -0.21875,0 -0.390625,0.171875 -0.390625,0.390625 C 0.78125,-0.1875 0.9375,0 1.1875,0 1.359375,0 1.46875,-0.109375 1.46875,-0.109375 Z m 0,0"
             id="id-cfa8e965-d00c-4a12-a0cf-7b263670c94f" />
        </g>
      </g>
      <g
         style="fill:#ffffff;fill-opacity:1"
         id="id-cc12c81e-ff7b-402e-9990-c0d2ff5da1fa">
        <g
           transform="translate(266.989,161.78)"
           id="g493"
           style="fill:#ffffff">
          <path
             style="fill:#ffffff;stroke:none;stroke-width:0"
             d="m 2.328125,-4.4375 c 0,-0.1875 0,-0.1875 -0.203125,-0.1875 -0.453125,0.4375 -1.078125,0.4375 -1.359375,0.4375 v 0.25 c 0.15625,0 0.625,0 1,-0.1875 v 3.546875 c 0,0.234375 0,0.328125 -0.6875,0.328125 H 0.8125 V 0 c 0.125,0 0.984375,-0.03125 1.234375,-0.03125 0.21875,0 1.09375,0.03125 1.25,0.03125 V -0.25 H 3.03125 c -0.703125,0 -0.703125,-0.09375 -0.703125,-0.328125 z m 0,0"
             id="id-afd037c0-103c-4243-a88a-91ac73cf1596" />
        </g>
      </g>
      <g
         style="fill:#ffffff;fill-opacity:1"
         id="id-fee01c0c-af03-44a4-9bf7-09469231a549">
        <g
           transform="translate(285.179,157.767)"
           id="g5194"
           style="fill:#ffffff">
          <path
             style="fill:#ffffff;stroke:none;stroke-width:0"
             d="M 2.5,-6.921875 1.15625,-5.5625 1.328125,-5.390625 2.5,-6.40625 3.640625,-5.390625 3.8125,-5.5625 Z m 0,0"
             id="id-a88f412d-3695-489e-b9c2-a5bc896ac87b" />
        </g>
      </g>
      <g
         style="fill:#ffffff;fill-opacity:1"
         id="id-f832d2c1-6cb8-455c-95b5-fd60eaa6bf79">
        <g
           transform="translate(283.413,160.286)"
           id="g6723"
           style="fill:#ffffff">
          <path
             style="fill:#ffffff;stroke:none;stroke-width:0"
             d="M 4.84375,-6.1875 H 6.5 c 1.3125,0 1.8125,-0.765625 1.8125,-0.890625 0,-0.046875 -0.03125,-0.0625 -0.09375,-0.0625 -0.109375,0 -0.359375,0.09375 -0.609375,0.265625 C 7.53125,-6.8125 7.5,-6.8125 7.3125,-6.8125 H 2.953125 c -1.234375,0 -2.609375,1.078125 -2.609375,1.890625 0,0.0625 0,0.109375 0.078125,0.109375 0.234375,0 0.859375,-0.328125 0.890625,-0.5625 0,-0.171875 0.015625,-0.359375 0.21875,-0.609375 0.109375,-0.125 0.1875,-0.203125 0.625,-0.203125 h 1.984375 c -0.171875,0.109375 -0.21875,0.25 -0.234375,0.359375 L 2.765625,-1.3125 C 2.65625,-0.828125 2.4375,-0.203125 2.15625,0.453125 2.09375,0.5625 2.09375,0.59375 2.09375,0.609375 c 0,0.0625 0.046875,0.0625 0.09375,0.0625 0.1875,0 0.6875,-0.265625 0.828125,-0.46875 0.0625,-0.109375 0.5,-1.125 0.71875,-1.953125 z m 0,0"
             id="id-e15e2d97-7cad-4b57-a740-6f2828fe2dae" />
        </g>
      </g>
      <g
         style="fill:#ffffff;fill-opacity:1"
         id="id-8caaac62-1a66-46c7-9253-58912e7ab8f4">
        <g
           transform="translate(288.84,161.78)"
           id="g4696"
           style="fill:#ffffff">
          <path
             style="fill:#ffffff;stroke:none;stroke-width:0"
             d="m 1.90625,-2.328125 c 0.546875,0 0.9375,0.375 0.9375,1.125 0,0.859375 -0.515625,1.125 -0.90625,1.125 -0.28125,0 -0.90625,-0.078125 -1.1875,-0.5 0.328125,0 0.40625,-0.234375 0.40625,-0.390625 0,-0.21875 -0.171875,-0.375 -0.390625,-0.375 -0.1875,0 -0.390625,0.125 -0.390625,0.40625 0,0.65625 0.71875,1.078125 1.5625,1.078125 0.96875,0 1.640625,-0.65625 1.640625,-1.34375 0,-0.546875 -0.4375,-1.09375 -1.203125,-1.25 0.71875,-0.265625 0.984375,-0.78125 0.984375,-1.21875 0,-0.546875 -0.625,-0.953125 -1.40625,-0.953125 -0.765625,0 -1.359375,0.375 -1.359375,0.9375 0,0.234375 0.15625,0.359375 0.359375,0.359375 0.21875,0 0.359375,-0.15625 0.359375,-0.34375 0,-0.203125 -0.140625,-0.359375 -0.359375,-0.375 0.25,-0.296875 0.71875,-0.375 0.984375,-0.375 0.3125,0 0.75,0.15625 0.75,0.75 0,0.296875 -0.09375,0.625 -0.28125,0.828125 -0.21875,0.265625 -0.421875,0.28125 -0.765625,0.3125 -0.171875,0.015625 -0.1875,0.015625 -0.21875,0.015625 -0.015625,0 -0.078125,0.015625 -0.078125,0.09375 0,0.09375 0.0625,0.09375 0.1875,0.09375 z m 0,0"
             id="id-2335f401-a391-4b56-9e9d-408f76f0a0f3" />
        </g>
      </g>
      <g
         style="fill:#ffffff;fill-opacity:1"
         id="id-497bd48f-0e72-491a-a0ee-31bc55e48020">
        <g
           transform="translate(292.811,161.78)"
           id="g5693"
           style="fill:#ffffff">
          <path
             style="fill:#ffffff;stroke:none;stroke-width:0"
             d="m 1.46875,-0.109375 c 0,0.375 -0.0625,0.828125 -0.546875,1.265625 C 0.90625,1.1875 0.875,1.21875 0.875,1.25 c 0,0.046875 0.0625,0.09375 0.09375,0.09375 0.109375,0 0.703125,-0.5625 0.703125,-1.390625 0,-0.421875 -0.171875,-0.75 -0.5,-0.75 -0.21875,0 -0.390625,0.171875 -0.390625,0.390625 C 0.78125,-0.1875 0.9375,0 1.1875,0 1.359375,0 1.46875,-0.109375 1.46875,-0.109375 Z m 0,0"
             id="id-3bc64a01-2003-4289-86ef-37e349a623a4" />
        </g>
      </g>
      <g
         style="fill:#ffffff;fill-opacity:1"
         id="id-7e996724-fa81-452c-9652-e6143be4c494">
        <g
           transform="translate(295.177,161.78)"
           id="g154"
           style="fill:#ffffff">
          <path
             style="fill:#ffffff;stroke:none;stroke-width:0"
             d="M 3.515625,-1.265625 H 3.28125 c -0.015625,0.15625 -0.09375,0.5625 -0.1875,0.625 C 3.046875,-0.59375 2.515625,-0.59375 2.40625,-0.59375 H 1.125 c 0.734375,-0.640625 0.984375,-0.84375 1.390625,-1.171875 0.515625,-0.40625 1,-0.84375 1,-1.5 0,-0.84375 -0.734375,-1.359375 -1.625,-1.359375 -0.859375,0 -1.453125,0.609375 -1.453125,1.25 0,0.34375 0.296875,0.390625 0.375,0.390625 0.15625,0 0.359375,-0.125 0.359375,-0.375 0,-0.125 -0.046875,-0.375 -0.40625,-0.375 C 0.984375,-4.21875 1.453125,-4.375 1.78125,-4.375 c 0.703125,0 1.0625,0.546875 1.0625,1.109375 0,0.609375 -0.4375,1.078125 -0.65625,1.328125 L 0.515625,-0.265625 C 0.4375,-0.203125 0.4375,-0.1875 0.4375,0 h 2.875 z m 0,0"
             id="id-c0e064c8-3810-4a9f-a9e9-fb73e5ba75ee" />
        </g>
      </g>
      <g
         style="fill:#ffffff;fill-opacity:1"
         id="id-f6dde4f4-9781-4583-a939-70c7b7fe854d">
        <g
           transform="translate(313.367,157.767)"
           id="g7009"
           style="fill:#ffffff">
          <path
             style="fill:#ffffff;stroke:none;stroke-width:0"
             d="M 2.5,-6.921875 1.15625,-5.5625 1.328125,-5.390625 2.5,-6.40625 3.640625,-5.390625 3.8125,-5.5625 Z m 0,0"
             id="id-149259f7-0381-4469-a3e4-d02ba42b6f33" />
        </g>
      </g>
      <g
         style="fill:#ffffff;fill-opacity:1"
         id="id-a370e415-f6d2-42ab-aff1-efd9d1af3da2">
        <g
           transform="translate(311.601,160.286)"
           id="g704"
           style="fill:#ffffff">
          <path
             style="fill:#ffffff;stroke:none;stroke-width:0"
             d="M 4.84375,-6.1875 H 6.5 c 1.3125,0 1.8125,-0.765625 1.8125,-0.890625 0,-0.046875 -0.03125,-0.0625 -0.09375,-0.0625 -0.109375,0 -0.359375,0.09375 -0.609375,0.265625 C 7.53125,-6.8125 7.5,-6.8125 7.3125,-6.8125 H 2.953125 c -1.234375,0 -2.609375,1.078125 -2.609375,1.890625 0,0.0625 0,0.109375 0.078125,0.109375 0.234375,0 0.859375,-0.328125 0.890625,-0.5625 0,-0.171875 0.015625,-0.359375 0.21875,-0.609375 0.109375,-0.125 0.1875,-0.203125 0.625,-0.203125 h 1.984375 c -0.171875,0.109375 -0.21875,0.25 -0.234375,0.359375 L 2.765625,-1.3125 C 2.65625,-0.828125 2.4375,-0.203125 2.15625,0.453125 2.09375,0.5625 2.09375,0.59375 2.09375,0.609375 c 0,0.0625 0.046875,0.0625 0.09375,0.0625 0.1875,0 0.6875,-0.265625 0.828125,-0.46875 0.0625,-0.109375 0.5,-1.125 0.71875,-1.953125 z m 0,0"
             id="id-61b1f3a5-bfd0-4d43-9d8a-8701fb39f70c" />
        </g>
      </g>
      <g
         style="fill:#ffffff;fill-opacity:1"
         id="id-27c82ab0-5dbe-4bde-aea1-8956884b8869">
        <g
           transform="translate(317.028,161.78)"
           id="g4836"
           style="fill:#ffffff">
          <path
             style="fill:#ffffff;stroke:none;stroke-width:0"
             d="m 1.90625,-2.328125 c 0.546875,0 0.9375,0.375 0.9375,1.125 0,0.859375 -0.515625,1.125 -0.90625,1.125 -0.28125,0 -0.90625,-0.078125 -1.1875,-0.5 0.328125,0 0.40625,-0.234375 0.40625,-0.390625 0,-0.21875 -0.171875,-0.375 -0.390625,-0.375 -0.1875,0 -0.390625,0.125 -0.390625,0.40625 0,0.65625 0.71875,1.078125 1.5625,1.078125 0.96875,0 1.640625,-0.65625 1.640625,-1.34375 0,-0.546875 -0.4375,-1.09375 -1.203125,-1.25 0.71875,-0.265625 0.984375,-0.78125 0.984375,-1.21875 0,-0.546875 -0.625,-0.953125 -1.40625,-0.953125 -0.765625,0 -1.359375,0.375 -1.359375,0.9375 0,0.234375 0.15625,0.359375 0.359375,0.359375 0.21875,0 0.359375,-0.15625 0.359375,-0.34375 0,-0.203125 -0.140625,-0.359375 -0.359375,-0.375 0.25,-0.296875 0.71875,-0.375 0.984375,-0.375 0.3125,0 0.75,0.15625 0.75,0.75 0,0.296875 -0.09375,0.625 -0.28125,0.828125 -0.21875,0.265625 -0.421875,0.28125 -0.765625,0.3125 -0.171875,0.015625 -0.1875,0.015625 -0.21875,0.015625 -0.015625,0 -0.078125,0.015625 -0.078125,0.09375 0,0.09375 0.0625,0.09375 0.1875,0.09375 z m 0,0"
             id="id-f8ef52bc-4738-421b-a083-190139cf8606" />
        </g>
      </g>
      <g
         style="fill:#ffffff;fill-opacity:1"
         id="id-f049f421-1a7d-49f7-b64b-b2644c04fc2d">
        <g
           transform="translate(320.999,161.78)"
           id="g9086"
           style="fill:#ffffff">
          <path
             style="fill:#ffffff;stroke:none;stroke-width:0"
             d="m 1.46875,-0.109375 c 0,0.375 -0.0625,0.828125 -0.546875,1.265625 C 0.90625,1.1875 0.875,1.21875 0.875,1.25 c 0,0.046875 0.0625,0.09375 0.09375,0.09375 0.109375,0 0.703125,-0.5625 0.703125,-1.390625 0,-0.421875 -0.171875,-0.75 -0.5,-0.75 -0.21875,0 -0.390625,0.171875 -0.390625,0.390625 C 0.78125,-0.1875 0.9375,0 1.1875,0 1.359375,0 1.46875,-0.109375 1.46875,-0.109375 Z m 0,0"
             id="id-f0413812-f4b1-46e0-955f-3da446ffd2af" />
        </g>
      </g>
      <g
         style="fill:#ffffff;fill-opacity:1"
         id="id-61dfefd9-e4e0-495a-9fcb-bef17f6801d6">
        <g
           transform="translate(323.365,161.78)"
           id="g84"
           style="fill:#ffffff">
          <path
             style="fill:#ffffff;stroke:none;stroke-width:0"
             d="m 1.90625,-2.328125 c 0.546875,0 0.9375,0.375 0.9375,1.125 0,0.859375 -0.515625,1.125 -0.90625,1.125 -0.28125,0 -0.90625,-0.078125 -1.1875,-0.5 0.328125,0 0.40625,-0.234375 0.40625,-0.390625 0,-0.21875 -0.171875,-0.375 -0.390625,-0.375 -0.1875,0 -0.390625,0.125 -0.390625,0.40625 0,0.65625 0.71875,1.078125 1.5625,1.078125 0.96875,0 1.640625,-0.65625 1.640625,-1.34375 0,-0.546875 -0.4375,-1.09375 -1.203125,-1.25 0.71875,-0.265625 0.984375,-0.78125 0.984375,-1.21875 0,-0.546875 -0.625,-0.953125 -1.40625,-0.953125 -0.765625,0 -1.359375,0.375 -1.359375,0.9375 0,0.234375 0.15625,0.359375 0.359375,0.359375 0.21875,0 0.359375,-0.15625 0.359375,-0.34375 0,-0.203125 -0.140625,-0.359375 -0.359375,-0.375 0.25,-0.296875 0.71875,-0.375 0.984375,-0.375 0.3125,0 0.75,0.15625 0.75,0.75 0,0.296875 -0.09375,0.625 -0.28125,0.828125 -0.21875,0.265625 -0.421875,0.28125 -0.765625,0.3125 -0.171875,0.015625 -0.1875,0.015625 -0.21875,0.015625 -0.015625,0 -0.078125,0.015625 -0.078125,0.09375 0,0.09375 0.0625,0.09375 0.1875,0.09375 z m 0,0"
             id="id-131effb2-a3fc-433b-a98e-df693fe95570" />
        </g>
      </g>
      <g
         style="fill:#ffffff;fill-opacity:1"
         id="id-97d04d0e-7e4a-43eb-8db0-faf64e913126">
        <g
           transform="translate(256.991,170.791)"
           id="g33"
           style="fill:#ffffff">
          <path
             style="fill:#ffffff;stroke:none;stroke-width:0"
             d="M 2.5,-6.921875 1.15625,-5.5625 1.328125,-5.390625 2.5,-6.40625 3.640625,-5.390625 3.8125,-5.5625 Z m 0,0"
             id="id-2add3dd8-cf9e-424c-9fa9-1d118d308ea6" />
        </g>
      </g>
      <g
         style="fill:#ffffff;fill-opacity:1"
         id="id-087c4c03-1d71-48a0-ae7f-6f077ed46319">
        <g
           transform="translate(255.225,173.309)"
           id="g9687"
           style="fill:#ffffff">
          <path
             style="fill:#ffffff;stroke:none;stroke-width:0"
             d="M 4.84375,-6.1875 H 6.5 c 1.3125,0 1.8125,-0.765625 1.8125,-0.890625 0,-0.046875 -0.03125,-0.0625 -0.09375,-0.0625 -0.109375,0 -0.359375,0.09375 -0.609375,0.265625 C 7.53125,-6.8125 7.5,-6.8125 7.3125,-6.8125 H 2.953125 c -1.234375,0 -2.609375,1.078125 -2.609375,1.890625 0,0.0625 0,0.109375 0.078125,0.109375 0.234375,0 0.859375,-0.328125 0.890625,-0.5625 0,-0.171875 0.015625,-0.359375 0.21875,-0.609375 0.109375,-0.125 0.1875,-0.203125 0.625,-0.203125 h 1.984375 c -0.171875,0.109375 -0.21875,0.25 -0.234375,0.359375 L 2.765625,-1.3125 C 2.65625,-0.828125 2.4375,-0.203125 2.15625,0.453125 2.09375,0.5625 2.09375,0.59375 2.09375,0.609375 c 0,0.0625 0.046875,0.0625 0.09375,0.0625 0.1875,0 0.6875,-0.265625 0.828125,-0.46875 0.0625,-0.109375 0.5,-1.125 0.71875,-1.953125 z m 0,0"
             id="id-b0a4ba20-5fa4-4f70-8377-a949101b2f16" />
        </g>
      </g>
      <g
         style="fill:#ffffff;fill-opacity:1"
         id="id-84d68cf7-cb6b-4510-a751-325e984688d5">
        <g
           transform="translate(260.652,174.803)"
           id="g849"
           style="fill:#ffffff">
          <path
             style="fill:#ffffff;stroke:none;stroke-width:0"
             d="m 3.6875,-1.140625 v -0.25 H 2.90625 V -4.5 c 0,-0.140625 0,-0.203125 -0.140625,-0.203125 -0.09375,0 -0.125,0 -0.1875,0.109375 l -2.3125,3.203125 v 0.25 h 2.0625 v 0.5625 c 0,0.25 0,0.328125 -0.578125,0.328125 H 1.5625 V 0 C 1.921875,-0.015625 2.359375,-0.03125 2.609375,-0.03125 2.875,-0.03125 3.3125,-0.015625 3.671875,0 v -0.25 h -0.1875 C 2.90625,-0.25 2.90625,-0.328125 2.90625,-0.578125 v -0.5625 z M 2.375,-3.9375 v 2.546875 H 0.53125 Z m 0,0"
             id="id-9fadd9d7-7883-40bd-bbda-1cbde67633f2" />
        </g>
      </g>
      <g
         style="fill:#ffffff;fill-opacity:1"
         id="id-1f798996-3742-496c-85e0-4baf342356aa">
        <g
           transform="translate(264.623,174.803)"
           id="g6094"
           style="fill:#ffffff">
          <path
             style="fill:#ffffff;stroke:none;stroke-width:0"
             d="m 1.46875,-0.109375 c 0,0.375 -0.0625,0.828125 -0.546875,1.265625 C 0.90625,1.1875 0.875,1.21875 0.875,1.25 c 0,0.046875 0.0625,0.09375 0.09375,0.09375 0.109375,0 0.703125,-0.5625 0.703125,-1.390625 0,-0.421875 -0.171875,-0.75 -0.5,-0.75 -0.21875,0 -0.390625,0.171875 -0.390625,0.390625 C 0.78125,-0.1875 0.9375,0 1.1875,0 1.359375,0 1.46875,-0.109375 1.46875,-0.109375 Z m 0,0"
             id="id-aaf7273a-d79b-4cb0-bfa4-25714f650482" />
        </g>
      </g>
      <g
         style="fill:#ffffff;fill-opacity:1"
         id="id-56be454d-7b47-42d8-ad33-b77214c5a0f2">
        <g
           transform="translate(266.989,174.803)"
           id="g3857"
           style="fill:#ffffff">
          <path
             style="fill:#ffffff;stroke:none;stroke-width:0"
             d="m 2.328125,-4.4375 c 0,-0.1875 0,-0.1875 -0.203125,-0.1875 -0.453125,0.4375 -1.078125,0.4375 -1.359375,0.4375 v 0.25 c 0.15625,0 0.625,0 1,-0.1875 v 3.546875 c 0,0.234375 0,0.328125 -0.6875,0.328125 H 0.8125 V 0 c 0.125,0 0.984375,-0.03125 1.234375,-0.03125 0.21875,0 1.09375,0.03125 1.25,0.03125 V -0.25 H 3.03125 c -0.703125,0 -0.703125,-0.09375 -0.703125,-0.328125 z m 0,0"
             id="id-1203a09a-c1f1-446f-939e-a0af4a21f065" />
        </g>
      </g>
      <g
         style="fill:#ffffff;fill-opacity:1"
         id="id-cbc44d9a-eb62-42a4-ba4c-2ba85b46abe3">
        <g
           transform="translate(285.179,170.791)"
           id="g1099"
           style="fill:#ffffff">
          <path
             style="fill:#ffffff;stroke:none;stroke-width:0"
             d="M 2.5,-6.921875 1.15625,-5.5625 1.328125,-5.390625 2.5,-6.40625 3.640625,-5.390625 3.8125,-5.5625 Z m 0,0"
             id="id-213af022-b2fb-4c87-af37-b500a4434c20" />
        </g>
      </g>
      <g
         style="fill:#ffffff;fill-opacity:1"
         id="id-fea7afdd-4f5a-4612-b77a-ad0e78232e9e">
        <g
           transform="translate(283.413,173.309)"
           id="g7067"
           style="fill:#ffffff">
          <path
             style="fill:#ffffff;stroke:none;stroke-width:0"
             d="M 4.84375,-6.1875 H 6.5 c 1.3125,0 1.8125,-0.765625 1.8125,-0.890625 0,-0.046875 -0.03125,-0.0625 -0.09375,-0.0625 -0.109375,0 -0.359375,0.09375 -0.609375,0.265625 C 7.53125,-6.8125 7.5,-6.8125 7.3125,-6.8125 H 2.953125 c -1.234375,0 -2.609375,1.078125 -2.609375,1.890625 0,0.0625 0,0.109375 0.078125,0.109375 0.234375,0 0.859375,-0.328125 0.890625,-0.5625 0,-0.171875 0.015625,-0.359375 0.21875,-0.609375 0.109375,-0.125 0.1875,-0.203125 0.625,-0.203125 h 1.984375 c -0.171875,0.109375 -0.21875,0.25 -0.234375,0.359375 L 2.765625,-1.3125 C 2.65625,-0.828125 2.4375,-0.203125 2.15625,0.453125 2.09375,0.5625 2.09375,0.59375 2.09375,0.609375 c 0,0.0625 0.046875,0.0625 0.09375,0.0625 0.1875,0 0.6875,-0.265625 0.828125,-0.46875 0.0625,-0.109375 0.5,-1.125 0.71875,-1.953125 z m 0,0"
             id="id-5bbe8fb7-c850-4ad2-970b-e5dc829ec14b" />
        </g>
      </g>
      <g
         style="fill:#ffffff;fill-opacity:1"
         id="id-7e27bfc1-80fa-46a4-a2ee-4249d9b453dc">
        <g
           transform="translate(288.84,174.803)"
           id="g7587"
           style="fill:#ffffff">
          <path
             style="fill:#ffffff;stroke:none;stroke-width:0"
             d="m 3.6875,-1.140625 v -0.25 H 2.90625 V -4.5 c 0,-0.140625 0,-0.203125 -0.140625,-0.203125 -0.09375,0 -0.125,0 -0.1875,0.109375 l -2.3125,3.203125 v 0.25 h 2.0625 v 0.5625 c 0,0.25 0,0.328125 -0.578125,0.328125 H 1.5625 V 0 C 1.921875,-0.015625 2.359375,-0.03125 2.609375,-0.03125 2.875,-0.03125 3.3125,-0.015625 3.671875,0 v -0.25 h -0.1875 C 2.90625,-0.25 2.90625,-0.328125 2.90625,-0.578125 v -0.5625 z M 2.375,-3.9375 v 2.546875 H 0.53125 Z m 0,0"
             id="id-3bf37305-503e-431b-88a1-fd8eac984f70" />
        </g>
      </g>
      <g
         style="fill:#ffffff;fill-opacity:1"
         id="id-0453aefc-d3ba-47c4-b2e2-93b54cab2096">
        <g
           transform="translate(292.811,174.803)"
           id="g9145"
           style="fill:#ffffff">
          <path
             style="fill:#ffffff;stroke:none;stroke-width:0"
             d="m 1.46875,-0.109375 c 0,0.375 -0.0625,0.828125 -0.546875,1.265625 C 0.90625,1.1875 0.875,1.21875 0.875,1.25 c 0,0.046875 0.0625,0.09375 0.09375,0.09375 0.109375,0 0.703125,-0.5625 0.703125,-1.390625 0,-0.421875 -0.171875,-0.75 -0.5,-0.75 -0.21875,0 -0.390625,0.171875 -0.390625,0.390625 C 0.78125,-0.1875 0.9375,0 1.1875,0 1.359375,0 1.46875,-0.109375 1.46875,-0.109375 Z m 0,0"
             id="id-34d63cd5-a4d6-4f92-8e4a-729c30b08b92" />
        </g>
      </g>
      <g
         style="fill:#ffffff;fill-opacity:1"
         id="id-17296c90-d8bc-4dfc-956c-f2fc8377a3ee">
        <g
           transform="translate(295.177,174.803)"
           id="g9073"
           style="fill:#ffffff">
          <path
             style="fill:#ffffff;stroke:none;stroke-width:0"
             d="M 3.515625,-1.265625 H 3.28125 c -0.015625,0.15625 -0.09375,0.5625 -0.1875,0.625 C 3.046875,-0.59375 2.515625,-0.59375 2.40625,-0.59375 H 1.125 c 0.734375,-0.640625 0.984375,-0.84375 1.390625,-1.171875 0.515625,-0.40625 1,-0.84375 1,-1.5 0,-0.84375 -0.734375,-1.359375 -1.625,-1.359375 -0.859375,0 -1.453125,0.609375 -1.453125,1.25 0,0.34375 0.296875,0.390625 0.375,0.390625 0.15625,0 0.359375,-0.125 0.359375,-0.375 0,-0.125 -0.046875,-0.375 -0.40625,-0.375 C 0.984375,-4.21875 1.453125,-4.375 1.78125,-4.375 c 0.703125,0 1.0625,0.546875 1.0625,1.109375 0,0.609375 -0.4375,1.078125 -0.65625,1.328125 L 0.515625,-0.265625 C 0.4375,-0.203125 0.4375,-0.1875 0.4375,0 h 2.875 z m 0,0"
             id="id-eb84de98-5bbf-4275-a544-a1605ebd6447" />
        </g>
      </g>
      <g
         style="fill:#ffffff;fill-opacity:1"
         id="id-5885342b-e5ed-4299-a423-0056a4583f92">
        <g
           transform="translate(313.367,170.791)"
           id="g1333"
           style="fill:#ffffff">
          <path
             style="fill:#ffffff;stroke:none;stroke-width:0"
             d="M 2.5,-6.921875 1.15625,-5.5625 1.328125,-5.390625 2.5,-6.40625 3.640625,-5.390625 3.8125,-5.5625 Z m 0,0"
             id="id-5a466c59-f074-4920-a08c-dcf77eb683df" />
        </g>
      </g>
      <g
         style="fill:#ffffff;fill-opacity:1"
         id="id-d91a6e45-7ef8-4a8b-88da-beb3d50814fd">
        <g
           transform="translate(311.601,173.309)"
           id="g106"
           style="fill:#ffffff">
          <path
             style="fill:#ffffff;stroke:none;stroke-width:0"
             d="M 4.84375,-6.1875 H 6.5 c 1.3125,0 1.8125,-0.765625 1.8125,-0.890625 0,-0.046875 -0.03125,-0.0625 -0.09375,-0.0625 -0.109375,0 -0.359375,0.09375 -0.609375,0.265625 C 7.53125,-6.8125 7.5,-6.8125 7.3125,-6.8125 H 2.953125 c -1.234375,0 -2.609375,1.078125 -2.609375,1.890625 0,0.0625 0,0.109375 0.078125,0.109375 0.234375,0 0.859375,-0.328125 0.890625,-0.5625 0,-0.171875 0.015625,-0.359375 0.21875,-0.609375 0.109375,-0.125 0.1875,-0.203125 0.625,-0.203125 h 1.984375 c -0.171875,0.109375 -0.21875,0.25 -0.234375,0.359375 L 2.765625,-1.3125 C 2.65625,-0.828125 2.4375,-0.203125 2.15625,0.453125 2.09375,0.5625 2.09375,0.59375 2.09375,0.609375 c 0,0.0625 0.046875,0.0625 0.09375,0.0625 0.1875,0 0.6875,-0.265625 0.828125,-0.46875 0.0625,-0.109375 0.5,-1.125 0.71875,-1.953125 z m 0,0"
             id="id-033c1cc5-67e9-43c9-8688-77fbff4ec7e1" />
        </g>
      </g>
      <g
         style="fill:#ffffff;fill-opacity:1"
         id="id-a92abeb3-fec9-4915-af5c-506c16677d51">
        <g
           transform="translate(317.028,174.803)"
           id="g7329"
           style="fill:#ffffff">
          <path
             style="fill:#ffffff;stroke:none;stroke-width:0"
             d="m 3.6875,-1.140625 v -0.25 H 2.90625 V -4.5 c 0,-0.140625 0,-0.203125 -0.140625,-0.203125 -0.09375,0 -0.125,0 -0.1875,0.109375 l -2.3125,3.203125 v 0.25 h 2.0625 v 0.5625 c 0,0.25 0,0.328125 -0.578125,0.328125 H 1.5625 V 0 C 1.921875,-0.015625 2.359375,-0.03125 2.609375,-0.03125 2.875,-0.03125 3.3125,-0.015625 3.671875,0 v -0.25 h -0.1875 C 2.90625,-0.25 2.90625,-0.328125 2.90625,-0.578125 v -0.5625 z M 2.375,-3.9375 v 2.546875 H 0.53125 Z m 0,0"
             id="id-6f3b569c-4a5d-4a1b-9252-a6ef54fbd06c" />
        </g>
      </g>
      <g
         style="fill:#ffffff;fill-opacity:1"
         id="id-5510618e-914d-4515-8b69-d63b4ca61225">
        <g
           transform="translate(320.999,174.803)"
           id="g8547"
           style="fill:#ffffff">
          <path
             style="fill:#ffffff;stroke:none;stroke-width:0"
             d="m 1.46875,-0.109375 c 0,0.375 -0.0625,0.828125 -0.546875,1.265625 C 0.90625,1.1875 0.875,1.21875 0.875,1.25 c 0,0.046875 0.0625,0.09375 0.09375,0.09375 0.109375,0 0.703125,-0.5625 0.703125,-1.390625 0,-0.421875 -0.171875,-0.75 -0.5,-0.75 -0.21875,0 -0.390625,0.171875 -0.390625,0.390625 C 0.78125,-0.1875 0.9375,0 1.1875,0 1.359375,0 1.46875,-0.109375 1.46875,-0.109375 Z m 0,0"
             id="id-080f34b9-c830-4883-8c6a-f7e9b637ffbf" />
        </g>
      </g>
      <g
         style="fill:#ffffff;fill-opacity:1"
         id="id-f95be7de-9a7d-4f9d-bc87-f544097f9bf0">
        <g
           transform="translate(323.365,174.803)"
           id="g6957"
           style="fill:#ffffff">
          <path
             style="fill:#ffffff;stroke:none;stroke-width:0"
             d="m 1.90625,-2.328125 c 0.546875,0 0.9375,0.375 0.9375,1.125 0,0.859375 -0.515625,1.125 -0.90625,1.125 -0.28125,0 -0.90625,-0.078125 -1.1875,-0.5 0.328125,0 0.40625,-0.234375 0.40625,-0.390625 0,-0.21875 -0.171875,-0.375 -0.390625,-0.375 -0.1875,0 -0.390625,0.125 -0.390625,0.40625 0,0.65625 0.71875,1.078125 1.5625,1.078125 0.96875,0 1.640625,-0.65625 1.640625,-1.34375 0,-0.546875 -0.4375,-1.09375 -1.203125,-1.25 0.71875,-0.265625 0.984375,-0.78125 0.984375,-1.21875 0,-0.546875 -0.625,-0.953125 -1.40625,-0.953125 -0.765625,0 -1.359375,0.375 -1.359375,0.9375 0,0.234375 0.15625,0.359375 0.359375,0.359375 0.21875,0 0.359375,-0.15625 0.359375,-0.34375 0,-0.203125 -0.140625,-0.359375 -0.359375,-0.375 0.25,-0.296875 0.71875,-0.375 0.984375,-0.375 0.3125,0 0.75,0.15625 0.75,0.75 0,0.296875 -0.09375,0.625 -0.28125,0.828125 -0.21875,0.265625 -0.421875,0.28125 -0.765625,0.3125 -0.171875,0.015625 -0.1875,0.015625 -0.21875,0.015625 -0.015625,0 -0.078125,0.015625 -0.078125,0.09375 0,0.09375 0.0625,0.09375 0.1875,0.09375 z m 0,0"
             id="id-f880dcca-b1bb-424e-9d56-d0307ff71dba" />
        </g>
      </g>
      <g
         style="fill:#ffffff;fill-opacity:1"
         id="id-faa5664e-6118-4994-a174-25d05bf60eba">
        <g
           transform="translate(341.555,170.791)"
           id="g6013"
           style="fill:#ffffff">
          <path
             style="fill:#ffffff;stroke:none;stroke-width:0"
             d="M 2.5,-6.921875 1.15625,-5.5625 1.328125,-5.390625 2.5,-6.40625 3.640625,-5.390625 3.8125,-5.5625 Z m 0,0"
             id="id-c4ddec06-14aa-4aba-b562-06c1889763cd" />
        </g>
      </g>
      <g
         style="fill:#ffffff;fill-opacity:1"
         id="id-6663c6ee-e388-4d29-94e3-6356dd0a1394">
        <g
           transform="translate(339.79,173.309)"
           id="g5108"
           style="fill:#ffffff">
          <path
             style="fill:#ffffff;stroke:none;stroke-width:0"
             d="M 4.84375,-6.1875 H 6.5 c 1.3125,0 1.8125,-0.765625 1.8125,-0.890625 0,-0.046875 -0.03125,-0.0625 -0.09375,-0.0625 -0.109375,0 -0.359375,0.09375 -0.609375,0.265625 C 7.53125,-6.8125 7.5,-6.8125 7.3125,-6.8125 H 2.953125 c -1.234375,0 -2.609375,1.078125 -2.609375,1.890625 0,0.0625 0,0.109375 0.078125,0.109375 0.234375,0 0.859375,-0.328125 0.890625,-0.5625 0,-0.171875 0.015625,-0.359375 0.21875,-0.609375 0.109375,-0.125 0.1875,-0.203125 0.625,-0.203125 h 1.984375 c -0.171875,0.109375 -0.21875,0.25 -0.234375,0.359375 L 2.765625,-1.3125 C 2.65625,-0.828125 2.4375,-0.203125 2.15625,0.453125 2.09375,0.5625 2.09375,0.59375 2.09375,0.609375 c 0,0.0625 0.046875,0.0625 0.09375,0.0625 0.1875,0 0.6875,-0.265625 0.828125,-0.46875 0.0625,-0.109375 0.5,-1.125 0.71875,-1.953125 z m 0,0"
             id="id-c04b9306-19b7-4a2e-9639-2d540ecad384" />
        </g>
      </g>
      <g
         style="fill:#ffffff;fill-opacity:1"
         id="id-a6b749f4-d575-4971-8c7f-0b2227d3c5bd">
        <g
           transform="translate(345.216,174.803)"
           id="g9188"
           style="fill:#ffffff">
          <path
             style="fill:#ffffff;stroke:none;stroke-width:0"
             d="m 3.6875,-1.140625 v -0.25 H 2.90625 V -4.5 c 0,-0.140625 0,-0.203125 -0.140625,-0.203125 -0.09375,0 -0.125,0 -0.1875,0.109375 l -2.3125,3.203125 v 0.25 h 2.0625 v 0.5625 c 0,0.25 0,0.328125 -0.578125,0.328125 H 1.5625 V 0 C 1.921875,-0.015625 2.359375,-0.03125 2.609375,-0.03125 2.875,-0.03125 3.3125,-0.015625 3.671875,0 v -0.25 h -0.1875 C 2.90625,-0.25 2.90625,-0.328125 2.90625,-0.578125 v -0.5625 z M 2.375,-3.9375 v 2.546875 H 0.53125 Z m 0,0"
             id="id-9e8939ac-08f0-4ca2-8d69-c0197045142b" />
        </g>
      </g>
      <g
         style="fill:#ffffff;fill-opacity:1"
         id="id-fd71de4c-469f-4a18-92be-ccf6c72f4ae7">
        <g
           transform="translate(349.187,174.803)"
           id="g3928"
           style="fill:#ffffff">
          <path
             style="fill:#ffffff;stroke:none;stroke-width:0"
             d="m 1.46875,-0.109375 c 0,0.375 -0.0625,0.828125 -0.546875,1.265625 C 0.90625,1.1875 0.875,1.21875 0.875,1.25 c 0,0.046875 0.0625,0.09375 0.09375,0.09375 0.109375,0 0.703125,-0.5625 0.703125,-1.390625 0,-0.421875 -0.171875,-0.75 -0.5,-0.75 -0.21875,0 -0.390625,0.171875 -0.390625,0.390625 C 0.78125,-0.1875 0.9375,0 1.1875,0 1.359375,0 1.46875,-0.109375 1.46875,-0.109375 Z m 0,0"
             id="id-eda7c1b7-5d6a-42d1-8822-f565b5773cf2" />
        </g>
      </g>
      <g
         style="fill:#ffffff;fill-opacity:1"
         id="id-fbce4299-d61e-4bf9-a725-84d155370da0">
        <g
           transform="translate(351.553,174.803)"
           id="g3211"
           style="fill:#ffffff">
          <path
             style="fill:#ffffff;stroke:none;stroke-width:0"
             d="m 3.6875,-1.140625 v -0.25 H 2.90625 V -4.5 c 0,-0.140625 0,-0.203125 -0.140625,-0.203125 -0.09375,0 -0.125,0 -0.1875,0.109375 l -2.3125,3.203125 v 0.25 h 2.0625 v 0.5625 c 0,0.25 0,0.328125 -0.578125,0.328125 H 1.5625 V 0 C 1.921875,-0.015625 2.359375,-0.03125 2.609375,-0.03125 2.875,-0.03125 3.3125,-0.015625 3.671875,0 v -0.25 h -0.1875 C 2.90625,-0.25 2.90625,-0.328125 2.90625,-0.578125 v -0.5625 z M 2.375,-3.9375 v 2.546875 H 0.53125 Z m 0,0"
             id="id-c0f30b59-d660-4244-9791-22f41349e9f8" />
        </g>
      </g>
    </g>
  </g>
  <path
     style="fill:none;stroke:#ffffff;stroke-width:0.248934px;stroke-linecap:butt;stroke-linejoin:miter;stroke-opacity:1"
     d="m 6.3642999,3.0952137 h 0.834177 v 4.782261 h -0.843916"
     id="path1" />
  <path
     style="fill:none;stroke:#ffffff;stroke-width:0.265;stroke-linecap:butt;stroke-linejoin:miter;stroke-dasharray:none;stroke-opacity:1;marker-start:url(#marker3)"
     d="M 8.0992599,6.9312797 H 7.1904569"
     id="path2" />
  <circle
     style="fill:#ffffff;stroke:#ffffff;stroke-width:0.123822;stroke-linejoin:bevel;stroke-dasharray:none;stroke-opacity:1"
     id="path4"
     cx="6.0064821"
     cy="3.0739903"
     r="0.46725553" />
  <circle
     style="fill:#ffffff;stroke:#ffffff;stroke-width:0.123822;stroke-linejoin:bevel;stroke-dasharray:none;stroke-opacity:1"
     id="path4-2"
     cx="6.0511217"
     cy="7.8924241"
     r="0.46725553" />
  <path
     style="fill:none;stroke:#ffffff;stroke-width:0.248934px;stroke-linecap:butt;stroke-linejoin:miter;stroke-opacity:1"
     d="m 16.510567,7.6856227 h 0.834177 v 4.7822613 h -0.843916"
     id="path1-7" />
  <path
     style="fill:none;stroke:#ffffff;stroke-width:0.265;stroke-linecap:butt;stroke-linejoin:miter;stroke-dasharray:none;stroke-opacity:1;marker-start:url(#marker3-6)"
     d="M 18.245527,11.521689 H 17.336724"
     id="path2-9" />
  <circle
     style="fill:#ffffff;stroke:#ffffff;stroke-width:0.123822;stroke-linejoin:bevel;stroke-dasharray:none;stroke-opacity:1"
     id="path4-20"
     cx="16.15275"
     cy="7.6643987"
     r="0.46725553" />
  <circle
     style="fill:#ffffff;stroke:#ffffff;stroke-width:0.123822;stroke-linejoin:bevel;stroke-dasharray:none;stroke-opacity:1"
     id="path4-2-2"
     cx="16.19739"
     cy="12.482835"
     r="0.46725553" />
</svg>
