<?xml version="1.0" standalone="no"?>
<!DOCTYPE svg PUBLIC "-//W3C//DTD SVG 20010904//EN"
 "http://www.w3.org/TR/2001/REC-SVG-20010904/DTD/svg10.dtd">
<svg version="1.0" xmlns="http://www.w3.org/2000/svg"
 width="700.000000pt" height="700.000000pt" viewBox="0 0 700.000000 700.000000"
 preserveAspectRatio="xMidYMid meet">
<metadata>
Created by potrace 1.14, written by Peter Selinger 2001-2017
</metadata>
<g transform="translate(0.000000,700.000000) scale(0.100000,-0.100000)"
fill="#000000" stroke="none">
<path d="M1600 5660 c-344 -36 -627 -169 -864 -405 -347 -345 -494 -875 -456
-1637 16 -309 47 -475 125 -660 85 -202 201 -327 337 -362 29 -7 55 -12 56
-11 2 2 -18 39 -44 82 -272 446 -418 1039 -375 1518 39 419 168 723 410 966
420 419 1126 524 1780 263 278 -111 406 -187 1056 -625 160 -108 356 -233 437
-278 l147 -83 -77 -66 c-42 -36 -86 -74 -98 -84 -21 -18 -21 -18 -59 43 -159
257 -489 526 -890 725 -276 136 -498 201 -720 211 -291 12 -526 -72 -712 -255
-407 -401 -350 -1141 132 -1694 460 -529 1303 -787 1780 -545 134 67 251 189
296 307 39 104 49 189 49 436 0 175 4 254 16 311 16 77 55 167 92 213 l20 25
11 -27 c28 -74 33 -156 25 -408 -11 -318 -7 -413 17 -507 25 -99 62 -165 126
-223 223 -204 585 -183 1077 61 505 251 957 693 1181 1153 120 248 158 402
158 641 1 249 -37 390 -127 480 -92 92 -205 129 -391 128 -303 -2 -678 -125
-1074 -353 -168 -96 -387 -242 -494 -329 -143 -115 -209 -141 -299 -115 -121
35 -225 103 -513 333 -207 166 -317 239 -544 362 -370 200 -773 341 -1124 393
-124 19 -360 27 -467 16z m4630 -447 c140 -38 244 -151 285 -310 20 -76 19
-253 -1 -351 -46 -226 -217 -557 -412 -802 -237 -296 -533 -537 -846 -690
-231 -113 -404 -160 -585 -160 -263 0 -419 128 -467 380 -24 125 -9 400 22
400 7 0 31 -36 53 -79 54 -110 93 -165 170 -241 73 -72 174 -131 267 -155 133
-35 327 -13 500 55 472 188 989 765 1080 1206 62 298 -102 524 -407 565 -107
15 -222 -2 -378 -53 -292 -97 -604 -289 -973 -600 -50 -43 -63 -42 -102 1 -18
19 -18 21 3 49 34 48 184 185 286 262 316 237 746 436 1115 515 167 36 280 39
390 8z m-3630 -103 c301 -78 575 -217 870 -443 319 -244 420 -367 420 -513 0
-88 -15 -124 -51 -124 -20 0 -33 8 -45 28 -114 186 -196 294 -309 407 -248
247 -609 452 -875 494 -426 69 -822 -155 -905 -512 -20 -88 -20 -252 0 -351
127 -616 807 -1160 1370 -1096 144 16 256 53 349 115 101 67 148 137 230 349
52 132 102 224 140 255 15 12 16 -4 16 -200 0 -246 -11 -316 -65 -425 -66
-134 -193 -231 -362 -275 -149 -39 -390 -36 -583 7 -478 107 -961 496 -1190
959 -38 77 -81 180 -95 228 -99 351 -23 689 210 922 167 167 306 217 590 211
141 -3 175 -8 285 -36z m3405 -184 c28 -13 64 -38 80 -57 62 -74 115 -239 115
-359 0 -50 -16 -69 -24 -27 -2 12 -9 51 -16 86 -32 177 -154 304 -328 343
l-57 12 40 12 c65 20 134 16 190 -10z m-3645 -78 c0 -8 -29 -20 -69 -30 -206
-49 -343 -187 -403 -405 -18 -65 -21 -107 -22 -251 -1 -188 -4 -194 -48 -83
-26 69 -35 213 -18 295 6 31 30 94 52 139 53 107 180 236 279 284 105 52 229
79 229 51z m336 -147 c271 -66 549 -261 744 -521 53 -70 115 -200 129 -268 49
-239 -56 -456 -272 -562 -190 -93 -391 -102 -612 -29 -333 111 -624 412 -702
725 -26 106 -23 300 6 384 58 167 158 252 334 286 93 18 266 11 373 -15z
m2838 -368 c-9 -53 -48 -137 -84 -183 -72 -91 -210 -147 -337 -137 -41 3 -78
8 -81 12 -11 11 50 116 100 171 95 104 235 169 371 173 l38 1 -7 -37z m-1189
-81 c0 -62 -4 -74 -50 -157 -45 -81 -53 -90 -81 -93 -30 -3 -32 0 -43 42 -17
67 -14 97 15 154 31 62 130 150 148 132 6 -6 11 -41 11 -78z m9 -375 c-15 -45
-31 -77 -39 -77 -9 0 -3 24 22 80 20 44 38 79 40 77 1 -2 -9 -38 -23 -80z
m-2378 -78 c36 -72 63 -133 61 -136 -8 -7 -86 90 -107 132 -20 41 -38 135 -26
135 3 0 35 -59 72 -131z m2568 -249 c86 -134 109 -180 90 -180 -14 0 -116 75
-140 103 -39 46 -64 106 -64 154 0 37 7 73 15 73 2 0 46 -68 99 -150z m-2115
-219 c92 -56 200 -103 293 -129 47 -13 101 -17 213 -17 129 0 161 3 230 24 85
25 286 116 336 152 46 33 45 17 -3 -42 -114 -140 -297 -207 -533 -195 -247 12
-560 132 -616 237 -5 10 -8 19 -6 19 2 0 41 -22 86 -49z m2709 17 c-3 -8 -70
-23 -184 -40 -229 -34 -224 -34 -224 -3 0 14 1 25 3 26 6 2 318 26 360 28 35
1 48 -3 45 -11z"/>
</g>
</svg>
