<svg xmlns="http://www.w3.org/2000/svg" width="57" height="33" fill="none"><path fill="#399CE3" d="M30 16.5c0-8.265-6.735-15-15-15-8.28 0-15 6.735-15 15 0 8.28 6.72 15 15 15 8.265 0 15-6.72 15-15Zm-18.33 8.055L6.555 10.83c.825-.03 1.755-.12 1.755-.12.75-.09.66-1.695-.09-1.665 0 0-2.175.165-3.555.165-.27 0-.555 0-.87-.015 2.385-3.66 6.51-6.03 11.205-6.03 3.495 0 6.675 1.305 9.075 3.51-1.02-.165-2.475.585-2.475 2.37 0 1.11.675 2.04 1.35 3.15.525.915.825 2.04.825 3.69 0 2.235-2.1 7.5-2.1 7.5L17.13 10.83c.81-.03 1.23-.255 1.23-.255.75-.075.66-1.875-.09-1.83 0 0-2.16.18-3.57.18-1.305 0-3.495-.18-3.495-.18-.75-.045-.84 1.8-.09 1.83l1.38.12 1.89 5.115-2.715 8.745ZM26.115 16.5c.36-.96 1.11-2.805.645-6.375 1.05 1.935 1.575 4.065 1.575 6.375 0 4.935-2.595 9.36-6.6 11.67 1.455-3.885 2.91-7.8 4.38-11.67ZM9.15 28.635c-4.47-2.16-7.485-6.84-7.485-12.135 0-1.95.345-3.72 1.08-5.385 2.13 5.835 4.26 11.685 6.405 17.52Zm6.045-9.945 3.87 10.47c-1.29.435-2.64.675-4.065.675-1.185 0-2.355-.165-3.435-.495 1.215-3.57 2.43-7.11 3.63-10.65Z"/><rect width="31" height="31" x="25.184" y="1" fill="#fff" rx="15.5"/><path fill="#069E08" d="M40.683 1.5c-8.263 0-15 6.718-15 15s6.718 15 15 15 15-6.718 15-15-6.718-15-15-15Zm-.773 17.485h-7.472l7.472-14.54v14.54Zm1.528 9.534v-14.54h7.454l-7.454 14.54Z"/><rect width="31" height="31" x="25.184" y="1" stroke="#2C3338" rx="15.5"/></svg>