<svg xmlns="http://www.w3.org/2000/svg" width="150" height="150" fill="none"><g clip-path="url(#a)"><rect width="150" height="150" fill="#F6F7F7" rx="5"/><path fill="#2C3338" d="M0 0h6v6H0V0Zm6 0h6v6H6V0Zm6 0h6v6h-6V0Zm6 0h6v6h-6V0Zm6 0h6v6h-6V0Zm6 0h6v6h-6V0Zm6 0h6v6h-6V0Zm18 0h6v6h-6V0Zm6 0h6v6h-6V0Zm24 0h6v6h-6V0Zm6 0h6v6h-6V0Zm6 0h6v6h-6V0Zm12 0h6v6h-6V0Zm6 0h6v6h-6V0Zm6 0h6v6h-6V0Zm6 0h6v6h-6V0Zm6 0h6v6h-6V0Zm6 0h6v6h-6V0Zm6 0h6v6h-6V0ZM0 6h6v6H0V6Zm36 0h6v6h-6V6Zm36 0h6v6h-6V6Zm6 0h6v6h-6V6Zm6 0h6v6h-6V6Zm24 0h6v6h-6V6Zm36 0h6v6h-6V6ZM0 12h6v6H0v-6Zm12 0h6v6h-6v-6Zm6 0h6v6h-6v-6Zm6 0h6v6h-6v-6Zm12 0h6v6h-6v-6Zm18 0h6v6h-6v-6Zm12 0h6v6h-6v-6Zm18 0h6v6h-6v-6Zm6 0h6v6h-6v-6Zm6 0h6v6h-6v-6Zm12 0h6v6h-6v-6Zm12 0h6v6h-6v-6Zm6 0h6v6h-6v-6Zm6 0h6v6h-6v-6Zm12 0h6v6h-6v-6ZM0 18h6v6H0v-6Zm12 0h6v6h-6v-6Zm6 0h6v6h-6v-6Zm6 0h6v6h-6v-6Zm12 0h6v6h-6v-6Zm12 0h6v6h-6v-6Zm6 0h6v6h-6v-6Zm30 0h6v6h-6v-6Zm12 0h6v6h-6v-6Zm12 0h6v6h-6v-6Zm12 0h6v6h-6v-6Zm6 0h6v6h-6v-6Zm6 0h6v6h-6v-6Zm12 0h6v6h-6v-6ZM0 24h6v6H0v-6Zm12 0h6v6h-6v-6Zm6 0h6v6h-6v-6Zm6 0h6v6h-6v-6Zm12 0h6v6h-6v-6Zm24 0h6v6h-6v-6Zm12 0h6v6h-6v-6Zm6 0h6v6h-6v-6Zm6 0h6v6h-6v-6Zm24 0h6v6h-6v-6Zm12 0h6v6h-6v-6Zm6 0h6v6h-6v-6Zm6 0h6v6h-6v-6Zm12 0h6v6h-6v-6ZM0 30h6v6H0v-6Zm36 0h6v6h-6v-6Zm12 0h6v6h-6v-6Zm6 0h6v6h-6v-6Zm54 0h6v6h-6v-6Zm36 0h6v6h-6v-6ZM0 36h6v6H0v-6Zm6 0h6v6H6v-6Zm6 0h6v6h-6v-6Zm6 0h6v6h-6v-6Zm6 0h6v6h-6v-6Zm6 0h6v6h-6v-6Zm6 0h6v6h-6v-6Zm12 0h6v6h-6v-6Zm12 0h6v6h-6v-6Zm12 0h6v6h-6v-6Zm12 0h6v6h-6v-6Zm12 0h6v6h-6v-6Zm12 0h6v6h-6v-6Zm6 0h6v6h-6v-6Zm6 0h6v6h-6v-6Zm6 0h6v6h-6v-6Zm6 0h6v6h-6v-6Zm6 0h6v6h-6v-6Zm6 0h6v6h-6v-6Zm-96 6h6v6h-6v-6Zm18 0h6v6h-6v-6Zm18 0h6v6h-6v-6ZM6 48h6v6H6v-6Zm6 0h6v6h-6v-6Zm24 0h6v6h-6v-6Zm30 0h6v6h-6v-6Zm12 0h6v6h-6v-6Zm6 0h6v6h-6v-6Zm6 0h6v6h-6v-6Zm18 0h6v6h-6v-6Zm6 0h6v6h-6v-6Zm12 0h6v6h-6v-6ZM0 54h6v6H0v-6Zm12 0h6v6h-6v-6Zm6 0h6v6h-6v-6Zm6 0h6v6h-6v-6Zm54 0h6v6h-6v-6Zm6 0h6v6h-6v-6Zm6 0h6v6h-6v-6Zm6 0h6v6h-6v-6Zm12 0h6v6h-6v-6Zm30 0h6v6h-6v-6Zm6 0h6v6h-6v-6ZM0 60h6v6H0v-6Zm6 0h6v6H6v-6Zm6 0h6v6h-6v-6Zm12 0h6v6h-6v-6Zm6 0h6v6h-6v-6Zm6 0h6v6h-6v-6Zm30 0h6v6h-6v-6Zm6 0h6v6h-6v-6Zm18 0h6v6h-6v-6Zm36 0h6v6h-6v-6Zm18 0h6v6h-6v-6ZM0 66h6v6H0v-6Zm6 0h6v6H6v-6Zm6 0h6v6h-6v-6Zm12 0h6v6h-6v-6Zm6 0h6v6h-6v-6Zm12 0h6v6h-6v-6Zm6 0h6v6h-6v-6Zm6 0h6v6h-6v-6Zm24 0h6v6h-6v-6Zm30 0h6v6h-6v-6Zm18 0h6v6h-6v-6Zm12 0h6v6h-6v-6Zm6 0h6v6h-6v-6ZM0 72h6v6H0v-6Zm6 0h6v6H6v-6Zm12 0h6v6h-6v-6Zm12 0h6v6h-6v-6Zm6 0h6v6h-6v-6Zm12 0h6v6h-6v-6Zm6 0h6v6h-6v-6Zm18 0h6v6h-6v-6Zm6 0h6v6h-6v-6Zm12 0h6v6h-6v-6Zm6 0h6v6h-6v-6Zm12 0h6v6h-6v-6Zm18 0h6v6h-6v-6ZM18 78h6v6h-6v-6Zm36 0h6v6h-6v-6Zm6 0h6v6h-6v-6Zm18 0h6v6h-6v-6Zm12 0h6v6h-6v-6Zm6 0h6v6h-6v-6Zm12 0h6v6h-6v-6Zm6 0h6v6h-6v-6Zm12 0h6v6h-6v-6Zm18 0h6v6h-6v-6ZM0 84h6v6H0v-6Zm6 0h6v6H6v-6Zm6 0h6v6h-6v-6Zm24 0h6v6h-6v-6Zm6 0h6v6h-6v-6Zm12 0h6v6h-6v-6Zm36 0h6v6h-6v-6Zm12 0h6v6h-6v-6Zm6 0h6v6h-6v-6Zm18 0h6v6h-6v-6Zm6 0h6v6h-6v-6Zm12 0h6v6h-6v-6ZM24 90h6v6h-6v-6Zm30 0h6v6h-6v-6Zm6 0h6v6h-6v-6Zm24 0h6v6h-6v-6Zm6 0h6v6h-6v-6Zm6 0h6v6h-6v-6Zm6 0h6v6h-6v-6Zm6 0h6v6h-6v-6Zm18 0h6v6h-6v-6Zm12 0h6v6h-6v-6Zm6 0h6v6h-6v-6ZM0 96h6v6H0v-6Zm6 0h6v6H6v-6Zm6 0h6v6h-6v-6Zm24 0h6v6h-6v-6Zm6 0h6v6h-6v-6Zm18 0h6v6h-6v-6Zm18 0h6v6h-6v-6Zm6 0h6v6h-6v-6Zm12 0h6v6h-6v-6Zm6 0h6v6h-6v-6Zm6 0h6v6h-6v-6Zm6 0h6v6h-6v-6Zm6 0h6v6h-6v-6Zm24 0h6v6h-6v-6Zm-96 6h6v6h-6v-6Zm6 0h6v6h-6v-6Zm12 0h6v6h-6v-6Zm6 0h6v6h-6v-6Zm6 0h6v6h-6v-6Zm6 0h6v6h-6v-6Zm12 0h6v6h-6v-6Zm24 0h6v6h-6v-6Zm18 0h6v6h-6v-6Zm6 0h6v6h-6v-6ZM0 108h6v6H0v-6Zm6 0h6v6H6v-6Zm6 0h6v6h-6v-6Zm6 0h6v6h-6v-6Zm6 0h6v6h-6v-6Zm6 0h6v6h-6v-6Zm6 0h6v6h-6v-6Zm18 0h6v6h-6v-6Zm12 0h6v6h-6v-6Zm18 0h6v6h-6v-6Zm12 0h6v6h-6v-6Zm12 0h6v6h-6v-6Zm12 0h6v6h-6v-6Zm6 0h6v6h-6v-6Zm6 0h6v6h-6v-6Zm12 0h6v6h-6v-6ZM0 114h6v6H0v-6Zm36 0h6v6h-6v-6Zm18 0h6v6h-6v-6Zm18 0h6v6h-6v-6Zm12 0h6v6h-6v-6Zm12 0h6v6h-6v-6Zm24 0h6v6h-6v-6Zm6 0h6v6h-6v-6Zm12 0h6v6h-6v-6ZM0 120h6v6H0v-6Zm12 0h6v6h-6v-6Zm6 0h6v6h-6v-6Zm6 0h6v6h-6v-6Zm12 0h6v6h-6v-6Zm18 0h6v6h-6v-6Zm12 0h6v6h-6v-6Zm24 0h6v6h-6v-6Zm6 0h6v6h-6v-6Zm6 0h6v6h-6v-6Zm6 0h6v6h-6v-6Zm6 0h6v6h-6v-6Zm6 0h6v6h-6v-6Zm18 0h6v6h-6v-6Zm6 0h6v6h-6v-6ZM0 126h6v6H0v-6Zm12 0h6v6h-6v-6Zm6 0h6v6h-6v-6Zm6 0h6v6h-6v-6Zm12 0h6v6h-6v-6Zm24 0h6v6h-6v-6Zm12 0h6v6h-6v-6Zm12 0h6v6h-6v-6Zm6 0h6v6h-6v-6Zm12 0h6v6h-6v-6Zm12 0h6v6h-6v-6Zm6 0h6v6h-6v-6Zm18 0h6v6h-6v-6ZM0 132h6v6H0v-6Zm12 0h6v6h-6v-6Zm6 0h6v6h-6v-6Zm6 0h6v6h-6v-6Zm12 0h6v6h-6v-6Zm12 0h6v6h-6v-6Zm6 0h6v6h-6v-6Zm6 0h6v6h-6v-6Zm6 0h6v6h-6v-6Zm6 0h6v6h-6v-6Zm30 0h6v6h-6v-6Zm18 0h6v6h-6v-6Zm6 0h6v6h-6v-6Zm12 0h6v6h-6v-6Zm6 0h6v6h-6v-6ZM0 138h6v6H0v-6Zm36 0h6v6h-6v-6Zm12 0h6v6h-6v-6Zm6 0h6v6h-6v-6Zm12 0h6v6h-6v-6Zm12 0h6v6h-6v-6Zm6 0h6v6h-6v-6Zm12 0h6v6h-6v-6Zm6 0h6v6h-6v-6Zm6 0h6v6h-6v-6Zm6 0h6v6h-6v-6Zm12 0h6v6h-6v-6ZM0 144h6v6H0v-6Zm6 0h6v6H6v-6Zm6 0h6v6h-6v-6Zm6 0h6v6h-6v-6Zm6 0h6v6h-6v-6Zm6 0h6v6h-6v-6Zm6 0h6v6h-6v-6Zm18 0h6v6h-6v-6Zm6 0h6v6h-6v-6Zm6 0h6v6h-6v-6Zm30 0h6v6h-6v-6Zm24 0h6v6h-6v-6Zm6 0h6v6h-6v-6Zm18 0h6v6h-6v-6Z"/></g><defs><clipPath id="a"><rect width="150" height="150" fill="#fff" rx="5"/></clipPath></defs></svg>