<svg version="1.1" xmlns="http://www.w3.org/2000/svg" viewBox="0 0 399.8974463134055 320.4265790896608" width="399.8974463134055" height="320.4265790896608" class="excalidraw-svg">
  <!-- svg-source:excalidraw -->
  
  <defs>
    <style class="style-fonts">
      
    </style>
    
  </defs>
  <rect x="0" y="0" width="399.8974463134055" height="320.4265790896608" fill="#ffffff"/><g stroke-linecap="round" transform="translate(82.66458601770637 45.934676604531234) rotate(0 27.333343505859375 54)"><path d="M0 0 C19.61 -0.03, 41.54 0.02, 54.67 0 M0 0 C18.89 0.03, 38.7 -0.64, 54.67 0 M54.67 0 C56.76 25.92, 56.47 47.07, 54.67 108 M54.67 0 C54.18 43.18, 54.5 86.46, 54.67 108 M54.67 108 C38.18 106.94, 18.71 106.65, 0 108 M54.67 108 C42.82 108.79, 29.54 107.24, 0 108 M0 108 C-1.16 68.36, -1.74 27.56, 0 0 M0 108 C-1.11 83.86, 0.1 58.27, 0 0" stroke="#f08c00" stroke-width="2" fill="none"/></g><g stroke-linecap="round" transform="translate(83.99786848840944 176.142346310668) rotate(0 27.67313016420252 65.80207850038293)"><path d="M0 0 C18.93 0.24, 39.7 -1.11, 55.35 0 M0 0 C12.9 0.93, 25.13 -0.56, 55.35 0 M55.35 0 C55.16 52.73, 55.8 105.67, 55.35 131.6 M55.35 0 C55.3 40.22, 54.09 81.09, 55.35 131.6 M55.35 131.6 C43.62 133.29, 29.04 130.18, 0 131.6 M55.35 131.6 C34.52 131.63, 14.01 130.96, 0 131.6 M0 131.6 C-1.8 102.92, 0.63 71.36, 0 0 M0 131.6 C-0.39 89.3, -0.3 45.39, 0 0" stroke="#1971c2" stroke-width="2" fill="none"/></g><g stroke-linecap="round"><g transform="translate(10 241.21907019126036) rotate(0 36.666656494140625 0.3333282470703125)"><path d="M0 0 C26.45 0.83, 56.69 -1.23, 73.33 0.67 M0 0 C26.97 -0.4, 52.29 0.64, 73.33 0.67" stroke="#1971c2" stroke-width="2" fill="none"/></g></g><mask/><g stroke-linecap="round" transform="translate(182.29090131787297 58.1168205027156) rotate(0 25.416870676720578 42.2513778199928)"><path d="M0 0 C12.45 -1.19, 23.24 -1.92, 50.83 0 M0 0 C10.51 0.58, 20.81 -0.55, 50.83 0 M50.83 0 C50.87 26.88, 51.78 52.87, 50.83 84.5 M50.83 0 C50.43 27.94, 50.32 58.49, 50.83 84.5 M50.83 84.5 C39.53 85.2, 31.21 83.08, 0 84.5 M50.83 84.5 C37.15 84.24, 22.64 84.72, 0 84.5 M0 84.5 C1.52 54.35, -0.23 20.68, 0 0 M0 84.5 C-1.05 63.71, -0.2 43.08, 0 0" stroke="#f08c00" stroke-width="2" fill="none"/></g><g stroke-linecap="round" transform="translate(136.73862374518393 70.66019121008509) rotate(0 23.106237827778443 26.73719884622406)"><path d="M0 0 C9.4 -0.31, 22.32 -1.92, 46.21 0 M0 0 C18.48 0.72, 36.4 0.6, 46.21 0 M46.21 0 C45.83 20.13, 48.01 37.54, 46.21 53.47 M46.21 0 C45.83 19.91, 47.1 38.8, 46.21 53.47 M46.21 53.47 C32.25 54.95, 20.52 53.82, 0 53.47 M46.21 53.47 C33.16 53.04, 21.03 54.39, 0 53.47 M0 53.47 C2.07 33.46, 1.74 10.19, 0 0 M0 53.47 C0.55 38.92, -0.35 25.43, 0 0" stroke="#f08c00" stroke-width="2" fill="none"/></g><g stroke-linecap="round"><g transform="translate(59.49783547291099 98.38766451520016) rotate(0 11.553118913889193 -0.3300839311601038)"><path d="M0 0 C8.66 -1.15, 15.1 0.25, 23.11 -0.66 M0 0 C7.89 -0.43, 16.93 -0.47, 23.11 -0.66" stroke="#f08c00" stroke-width="2" fill="none"/></g></g><mask/><g stroke-linecap="round"><g transform="translate(231.14404842271068 99.04784748779414) rotate(0 33.99920398962121 -0.000007555136903647508)"><path d="M0 0 C24.37 1.81, 48.59 -0.67, 68 0 M0 0 C26.98 0.25, 53.69 0.12, 68 0" stroke="#f08c00" stroke-width="2" fill="none"/></g></g><mask/><g stroke-linecap="round" transform="translate(184.27137468428606 195.43380597282908) rotate(0 27.067335663342476 47.532811380197245)"><path d="M0 0 C15.76 -0.08, 31.39 1.22, 54.13 0 M0 0 C19.64 -0.12, 40.64 0.19, 54.13 0 M54.13 0 C54.41 22.1, 53.99 41.88, 54.13 95.07 M54.13 0 C52.82 36.87, 54.14 73.31, 54.13 95.07 M54.13 95.07 C43.98 95.49, 31.75 93.56, 0 95.07 M54.13 95.07 C33.37 93.74, 10.71 95.18, 0 95.07 M0 95.07 C0.02 58.07, 1.65 22.1, 0 0 M0 95.07 C0.41 65.77, 1.27 38.15, 0 0" stroke="#1e1e1e" stroke-width="2" fill="none"/></g><g transform="translate(240.7166788599131 214.57899129586485) rotate(0 5.611502381090759 -6.93186832627876)" stroke="none"><path fill="#1e1e1e" d="M 0.59,0.39 Q 0.59,0.39 0.29,0.76 0.00,1.14 0.07,1.47 0.14,1.81 0.06,1.90 -0.01,1.99 -0.11,2.07 -0.21,2.14 -0.32,2.18 -0.44,2.23 -0.56,2.25 -0.68,2.26 -0.80,2.25 -0.93,2.24 -1.04,2.19 -1.16,2.15 -1.26,2.08 -1.36,2.02 -1.45,1.92 -1.53,1.83 -1.59,1.73 -1.65,1.62 -1.68,1.50 -1.71,1.38 -1.71,1.25 -1.72,1.13 -1.69,1.01 -1.66,0.89 -1.60,0.78 -1.55,0.67 -1.09,-0.17 -0.62,-1.03 -0.02,-1.46 0.57,-1.89 1.08,-2.36 1.59,-2.83 2.13,-3.54 2.67,-4.25 3.43,-5.39 4.18,-6.53 4.86,-7.56 5.53,-8.59 6.13,-9.24 6.73,-9.90 7.18,-10.36 7.62,-10.82 7.99,-11.21 8.37,-11.60 9.01,-12.51 9.66,-13.43 11.12,-14.80 12.58,-16.17 12.67,-16.23 12.76,-16.29 12.87,-16.31 12.97,-16.34 13.08,-16.33 13.18,-16.32 13.28,-16.28 13.38,-16.23 13.46,-16.16 13.54,-16.09 13.59,-16.00 13.64,-15.91 13.66,-15.80 13.68,-15.70 13.66,-15.59 13.65,-15.49 13.60,-15.39 13.55,-15.30 13.48,-15.22 13.40,-15.15 13.31,-15.10 13.21,-15.05 13.11,-15.04 13.00,-15.03 12.90,-15.05 12.79,-15.07 12.70,-15.12 12.61,-15.17 12.54,-15.25 12.47,-15.33 12.43,-15.43 12.38,-15.53 12.38,-15.63 12.37,-15.74 12.39,-15.84 12.42,-15.94 12.48,-16.03 12.53,-16.12 12.62,-16.19 12.70,-16.25 12.80,-16.29 12.90,-16.33 13.01,-16.33 13.11,-16.33 13.21,-16.30 13.32,-16.27 13.40,-16.21 13.49,-16.14 13.55,-16.06 13.61,-15.97 13.64,-15.87 13.67,-15.77 13.67,-15.66 13.67,-15.56 13.63,-15.46 13.59,-15.36 13.53,-15.27 13.46,-15.19 13.46,-15.19 13.46,-15.19 12.94,-13.81 12.41,-12.42 11.80,-11.71 11.19,-11.00 10.75,-10.35 10.32,-9.71 9.94,-9.33 9.57,-8.95 9.14,-8.50 8.71,-8.06 8.15,-7.47 7.60,-6.89 7.21,-6.46 6.82,-6.02 6.53,-5.45 6.23,-4.88 5.80,-4.39 5.37,-3.91 5.03,-3.28 4.69,-2.65 3.98,-1.79 3.26,-0.92 2.20,-0.16 1.14,0.60 0.64,1.20 0.14,1.81 0.06,1.90 -0.01,1.99 -0.11,2.07 -0.21,2.14 -0.32,2.18 -0.44,2.23 -0.56,2.25 -0.68,2.26 -0.80,2.25 -0.93,2.24 -1.04,2.19 -1.16,2.15 -1.26,2.08 -1.36,2.02 -1.45,1.92 -1.53,1.83 -1.59,1.73 -1.65,1.62 -1.68,1.50 -1.71,1.38 -1.71,1.25 -1.72,1.13 -1.69,1.01 -1.66,0.89 -1.60,0.78 -1.55,0.67 -1.54,0.90 -1.52,1.13 -1.05,0.37 -0.59,-0.39 -0.53,-0.45 -0.47,-0.52 -0.40,-0.57 -0.34,-0.62 -0.26,-0.65 -0.18,-0.68 -0.09,-0.69 -0.01,-0.71 0.07,-0.70 0.15,-0.69 0.23,-0.66 0.31,-0.63 0.39,-0.58 0.46,-0.53 0.52,-0.47 0.57,-0.41 0.61,-0.33 0.66,-0.26 0.68,-0.17 0.70,-0.09 0.70,-0.01 0.70,0.07 0.68,0.15 0.66,0.24 0.62,0.31 0.59,0.39 0.59,0.39 L 0.59,0.39 Z"/></g><g transform="translate(255.90075123711102 220.52059271838954) rotate(0 -7.592036188598968 11.223019872455296)" stroke="none"><path fill="#1e1e1e" d="M -0.52,-0.52 Q -0.52,-0.52 -0.05,-1.07 0.41,-1.61 0.34,-1.56 0.27,-1.50 0.38,-1.59 0.49,-1.67 0.61,-1.73 0.74,-1.78 0.87,-1.81 1.01,-1.83 1.15,-1.83 1.28,-1.82 1.41,-1.78 1.54,-1.74 1.66,-1.66 1.78,-1.59 1.88,-1.50 1.97,-1.40 2.04,-1.28 2.12,-1.16 2.16,-1.03 2.20,-0.90 2.21,-0.77 2.21,-0.63 2.19,-0.49 2.16,-0.36 2.11,-0.23 2.05,-0.11 1.97,-0.00 1.88,0.10 1.29,1.01 0.69,1.93 0.03,2.90 -0.61,3.88 -1.06,4.65 -1.51,5.41 -2.13,6.21 -2.76,7.00 -3.15,7.63 -3.54,8.26 -3.90,8.90 -4.25,9.54 -4.64,10.09 -5.03,10.63 -5.33,11.16 -5.62,11.68 -6.21,12.40 -6.79,13.12 -7.22,13.59 -7.65,14.07 -8.02,14.47 -8.40,14.87 -8.76,15.37 -9.13,15.87 -9.45,16.33 -9.77,16.79 -10.10,17.44 -10.43,18.09 -10.91,18.69 -11.39,19.29 -11.93,20.08 -12.46,20.88 -12.77,21.34 -13.08,21.80 -14.92,23.05 -16.75,24.30 -16.86,24.33 -16.96,24.35 -17.07,24.34 -17.17,24.34 -17.27,24.29 -17.37,24.25 -17.45,24.18 -17.53,24.11 -17.58,24.02 -17.63,23.92 -17.65,23.82 -17.67,23.71 -17.65,23.61 -17.64,23.50 -17.59,23.41 -17.55,23.31 -17.47,23.24 -17.39,23.16 -17.30,23.12 -17.20,23.07 -17.10,23.06 -16.99,23.04 -16.89,23.06 -16.78,23.08 -16.69,23.14 -16.60,23.19 -16.53,23.27 -16.46,23.35 -16.42,23.44 -16.38,23.54 -16.37,23.65 -16.36,23.75 -16.38,23.86 -16.41,23.96 -16.47,24.05 -16.53,24.14 -16.61,24.20 -16.69,24.27 -16.79,24.31 -16.89,24.34 -17.00,24.35 -17.10,24.35 -17.20,24.32 -17.31,24.29 -17.39,24.22 -17.48,24.16 -17.54,24.08 -17.60,23.99 -17.63,23.89 -17.66,23.79 -17.66,23.68 -17.66,23.57 -17.62,23.47 -17.58,23.37 -17.52,23.29 -17.45,23.21 -17.36,23.15 -17.27,23.09 -17.27,23.09 -17.27,23.09 -16.43,21.95 -15.60,20.81 -15.35,20.29 -15.11,19.77 -14.70,19.35 -14.29,18.92 -13.57,18.16 -12.86,17.41 -12.59,16.83 -12.32,16.24 -11.94,15.52 -11.56,14.80 -11.29,14.28 -11.02,13.75 -10.31,13.03 -9.61,12.30 -9.21,11.86 -8.82,11.43 -8.35,10.89 -7.89,10.36 -7.20,9.31 -6.51,8.27 -6.12,7.57 -5.72,6.87 -5.23,6.13 -4.75,5.39 -4.21,4.75 -3.68,4.11 -3.17,3.29 -2.67,2.46 -1.98,1.48 -1.29,0.50 -0.50,-0.50 0.27,-1.50 0.38,-1.59 0.49,-1.67 0.61,-1.73 0.74,-1.78 0.87,-1.81 1.01,-1.83 1.15,-1.83 1.28,-1.82 1.41,-1.78 1.54,-1.74 1.66,-1.66 1.78,-1.59 1.88,-1.50 1.97,-1.40 2.04,-1.28 2.12,-1.16 2.16,-1.03 2.20,-0.90 2.21,-0.77 2.21,-0.63 2.19,-0.49 2.16,-0.36 2.11,-0.23 2.05,-0.11 1.97,-0.00 1.88,0.10 1.49,0.09 1.10,0.09 0.81,0.31 0.52,0.52 0.45,0.58 0.38,0.64 0.30,0.67 0.22,0.71 0.13,0.73 0.04,0.74 -0.04,0.74 -0.13,0.73 -0.22,0.70 -0.30,0.68 -0.38,0.63 -0.46,0.58 -0.52,0.52 -0.58,0.46 -0.63,0.38 -0.68,0.30 -0.70,0.22 -0.73,0.13 -0.74,0.04 -0.74,-0.04 -0.73,-0.13 -0.71,-0.22 -0.67,-0.30 -0.64,-0.38 -0.58,-0.45 -0.52,-0.52 -0.52,-0.52 L -0.52,-0.52 Z"/></g><g transform="translate(258.54148312748697 244.28699840848816) rotate(0 -9.902669037541045 11.883202845049311)" stroke="none"><path fill="#1e1e1e" d="M 0.50,0.50 Q 0.50,0.50 -0.07,1.44 -0.65,2.37 -1.35,3.08 -2.04,3.79 -2.71,4.48 -3.38,5.16 -3.86,5.65 -4.33,6.13 -4.84,6.84 -5.36,7.56 -6.01,8.31 -6.67,9.06 -7.07,9.67 -7.47,10.28 -8.09,11.02 -8.71,11.75 -9.15,12.24 -9.60,12.73 -9.98,13.13 -10.36,13.53 -11.01,14.46 -11.66,15.39 -12.04,15.94 -12.42,16.50 -12.75,16.98 -13.08,17.46 -13.41,17.97 -13.75,18.48 -14.07,18.95 -14.39,19.42 -14.76,20.11 -15.12,20.80 -15.63,21.13 -16.14,21.46 -17.64,22.66 -19.13,23.87 -19.19,23.96 -19.24,24.05 -19.33,24.11 -19.41,24.18 -19.51,24.22 -19.61,24.25 -19.72,24.26 -19.82,24.26 -19.92,24.23 -20.02,24.20 -20.11,24.14 -20.20,24.08 -20.26,23.99 -20.32,23.90 -20.35,23.80 -20.39,23.70 -20.38,23.59 -20.38,23.49 -20.34,23.39 -20.31,23.29 -20.24,23.20 -20.18,23.12 -20.09,23.06 -20.00,23.01 -19.89,22.98 -19.79,22.95 -19.69,22.96 -19.58,22.97 -19.48,23.01 -19.38,23.05 -19.30,23.12 -19.23,23.20 -19.17,23.29 -19.12,23.38 -19.10,23.48 -19.08,23.59 -19.09,23.69 -19.11,23.80 -19.15,23.89 -19.20,23.99 -19.28,24.07 -19.35,24.14 -19.45,24.19 -19.54,24.24 -19.65,24.25 -19.75,24.27 -19.86,24.25 -19.96,24.23 -20.05,24.17 -20.14,24.12 -20.22,24.04 -20.29,23.96 -20.33,23.87 -20.37,23.77 -20.38,23.66 -20.39,23.56 -20.36,23.45 -20.34,23.35 -20.34,23.35 -20.34,23.35 -19.29,21.55 -18.24,19.76 -17.60,19.33 -16.96,18.89 -16.60,18.20 -16.24,17.50 -16.00,16.98 -15.76,16.47 -15.32,15.97 -14.88,15.47 -14.62,14.95 -14.37,14.42 -13.76,13.71 -13.14,12.99 -12.35,11.97 -11.55,10.94 -11.13,10.49 -10.71,10.03 -10.18,9.42 -9.65,8.82 -9.14,8.07 -8.63,7.32 -8.03,6.66 -7.43,5.99 -6.78,5.16 -6.13,4.33 -5.65,3.86 -5.16,3.38 -4.48,2.71 -3.79,2.04 -3.08,1.35 -2.37,0.65 -1.44,0.07 -0.50,-0.50 -0.43,-0.55 -0.37,-0.61 -0.29,-0.64 -0.21,-0.68 -0.12,-0.69 -0.04,-0.71 0.04,-0.70 0.12,-0.70 0.21,-0.67 0.29,-0.65 0.36,-0.60 0.44,-0.56 0.50,-0.50 0.56,-0.44 0.60,-0.36 0.65,-0.29 0.67,-0.21 0.70,-0.12 0.70,-0.04 0.71,0.04 0.69,0.12 0.68,0.21 0.64,0.29 0.61,0.37 0.55,0.43 0.50,0.50 0.50,0.50 L 0.50,0.50 Z"/></g><g transform="translate(259.2016812103548 266.73303815339875) rotate(0 -10.23276807897497 10.562852010135089)" stroke="none"><path fill="#1e1e1e" d="M 0.34,0.68 Q 0.34,0.68 -0.30,1.27 -0.96,1.87 -1.94,2.59 -2.92,3.32 -3.46,3.92 -3.99,4.52 -4.46,5.02 -4.93,5.51 -5.60,5.99 -6.28,6.47 -6.97,7.34 -7.65,8.21 -8.21,8.79 -8.77,9.37 -9.19,9.80 -9.61,10.23 -9.89,10.69 -10.18,11.15 -10.77,11.84 -11.36,12.53 -11.72,13.10 -12.07,13.66 -12.47,14.62 -12.87,15.57 -13.25,16.13 -13.63,16.69 -14.15,17.06 -14.67,17.43 -15.40,18.15 -16.14,18.86 -18.10,20.26 -20.05,21.66 -20.15,21.68 -20.25,21.71 -20.36,21.70 -20.47,21.69 -20.56,21.65 -20.66,21.61 -20.74,21.54 -20.82,21.46 -20.87,21.37 -20.92,21.28 -20.94,21.18 -20.96,21.07 -20.95,20.97 -20.93,20.86 -20.89,20.77 -20.84,20.67 -20.76,20.60 -20.69,20.52 -20.59,20.47 -20.50,20.43 -20.39,20.41 -20.29,20.40 -20.18,20.42 -20.08,20.44 -19.99,20.49 -19.89,20.54 -19.82,20.62 -19.75,20.70 -19.71,20.80 -19.67,20.90 -19.66,21.00 -19.65,21.11 -19.68,21.21 -19.70,21.32 -19.76,21.40 -19.82,21.49 -19.90,21.56 -19.98,21.63 -20.08,21.66 -20.18,21.70 -20.29,21.70 -20.40,21.70 -20.50,21.67 -20.60,21.64 -20.68,21.58 -20.77,21.52 -20.83,21.43 -20.89,21.34 -20.93,21.24 -20.96,21.14 -20.95,21.04 -20.95,20.93 -20.91,20.83 -20.88,20.73 -20.81,20.65 -20.74,20.56 -20.65,20.51 -20.56,20.45 -20.56,20.45 -20.56,20.45 -19.74,19.30 -18.91,18.15 -18.61,17.63 -18.32,17.10 -17.63,16.42 -16.95,15.74 -16.17,15.07 -15.39,14.40 -15.14,13.87 -14.89,13.34 -14.65,12.75 -14.41,12.16 -13.93,11.44 -13.46,10.72 -12.97,10.17 -12.49,9.63 -12.04,8.97 -11.59,8.30 -11.17,7.88 -10.75,7.45 -9.88,6.52 -9.01,5.59 -8.43,4.91 -7.85,4.23 -7.37,3.92 -6.88,3.61 -6.42,3.14 -5.96,2.67 -5.20,1.89 -4.43,1.11 -3.25,0.38 -2.07,-0.35 -1.20,-0.51 -0.34,-0.68 -0.25,-0.71 -0.16,-0.74 -0.07,-0.75 0.01,-0.76 0.10,-0.75 0.19,-0.73 0.28,-0.70 0.36,-0.67 0.44,-0.61 0.51,-0.56 0.57,-0.49 0.63,-0.42 0.67,-0.33 0.72,-0.25 0.74,-0.16 0.76,-0.07 0.75,0.01 0.75,0.10 0.73,0.19 0.71,0.28 0.66,0.36 0.62,0.44 0.55,0.51 0.49,0.58 0.41,0.63 0.34,0.68 0.34,0.68 L 0.34,0.68 Z"/></g><g stroke-linecap="round"><g transform="translate(263.8228864671441 77.92214346752397) rotate(0 17.16466662580126 0.27709715700004267)"><path d="M0 0 C9.92 -0.47, 19.96 -0.16, 34.33 0.55 M0 0 C11.86 0.39, 24.02 0.6, 34.33 0.55" stroke="#2f9e44" stroke-width="2" fill="none"/></g></g><mask/><g stroke-linecap="round"><g transform="translate(263.16274882537135 122.15403998475122) rotate(0 17.824804267573995 -0.000015110273793084161)"><path d="M0 0 C8.32 -0.75, 16.78 -0.65, 35.65 0 M0 0 C12.18 -0.24, 23.83 -0.41, 35.65 0" stroke="#2f9e44" stroke-width="2" fill="none"/></g></g><mask/><g stroke-linecap="round" transform="translate(270.4246859725362 79.24249430243819) rotate(0 9.572600216654791 9.242493620083991)"><path d="M8.97 0.29 C10.84 0.05, 13.33 0.46, 14.96 1.58 C16.58 2.7, 18.21 5.14, 18.73 7.02 C19.26 8.9, 18.97 11.12, 18.11 12.85 C17.25 14.58, 15.34 16.47, 13.58 17.41 C11.81 18.35, 9.45 18.92, 7.49 18.49 C5.53 18.06, 3.08 16.54, 1.82 14.81 C0.56 13.09, -0.31 10.11, -0.06 8.13 C0.18 6.15, 1.67 4.28, 3.27 2.93 C4.88 1.58, 8.49 0.44, 9.57 0.04 C10.64 -0.36, 9.75 0.32, 9.72 0.54 M7.97 0.17 C9.9 -0.16, 12.64 0.77, 14.4 1.74 C16.17 2.71, 17.73 4.19, 18.55 5.99 C19.37 7.79, 19.87 10.68, 19.3 12.54 C18.73 14.41, 17.03 16.24, 15.12 17.16 C13.21 18.07, 10.09 18.38, 7.84 18.02 C5.6 17.66, 3.05 16.54, 1.65 14.98 C0.26 13.41, -0.53 10.49, -0.54 8.65 C-0.54 6.8, 0.25 5.35, 1.61 3.9 C2.97 2.45, 6.68 0.64, 7.62 -0.04 C8.55 -0.73, 7.08 -0.28, 7.2 -0.19" stroke="#1e1e1e" stroke-width="2" fill="none"/></g><g stroke-linecap="round" transform="translate(270.82282602604863 101.4460630926755) rotate(0 8.912402133786998 9.24250873035777)"><path d="M9.08 0.14 C10.84 -0.02, 12.83 0.77, 14.26 1.96 C15.7 3.14, 17.21 5.28, 17.68 7.26 C18.15 9.25, 18.04 12.09, 17.11 13.88 C16.17 15.66, 13.86 17.3, 12.06 17.99 C10.27 18.68, 8.14 18.76, 6.35 18.01 C4.55 17.25, 2.31 15.21, 1.28 13.44 C0.25 11.68, -0.2 9.2, 0.17 7.41 C0.53 5.61, 2.03 3.94, 3.48 2.69 C4.94 1.45, 7.8 0.31, 8.89 -0.07 C9.98 -0.45, 10.03 0.23, 10.04 0.42 M8.53 -0.59 C10.44 -0.61, 13.98 1.39, 15.41 2.74 C16.84 4.09, 16.96 5.51, 17.1 7.5 C17.25 9.48, 17.2 13, 16.27 14.66 C15.34 16.32, 13.21 17, 11.54 17.43 C9.86 17.87, 8.05 17.98, 6.23 17.25 C4.41 16.52, 1.73 14.78, 0.6 13.06 C-0.54 11.35, -0.94 8.77, -0.59 6.96 C-0.24 5.15, 1.18 3.36, 2.7 2.19 C4.22 1.02, 7.54 0.39, 8.53 -0.07 C9.51 -0.52, 8.46 -0.67, 8.63 -0.53" stroke="#1e1e1e" stroke-width="2" fill="none"/></g><g stroke-linecap="round"><g transform="translate(280.94862070796165 122.15407020529881) rotate(0 0.33006882088631073 59.746098156406646)"><path d="M0 0 C1.05 38.89, 3.44 77.76, 0.66 119.49 M0 0 C2.03 43.65, 0.79 87.35, 0.66 119.49" stroke="#2f9e44" stroke-width="2" fill="none"/></g></g><mask/><g stroke-linecap="round"><g transform="translate(281.62822454222606 242.12683054616798) rotate(0 54.13461088558972 0.6601678623202076)"><path d="M0 0 C40.79 0.54, 79.41 -0.79, 108.27 1.32 M0 0 C38.63 2.33, 77.05 1.08, 108.27 1.32" stroke="#2f9e44" stroke-width="2" fill="none"/></g></g><mask/><g stroke-linecap="round" transform="translate(90.00898227769358 45.859259721556555) rotate(0 20.135437116516044 130.14862918089918)"><path d="M0.5 1.36 L39.96 1.63 L40.37 261.9 L1.88 262.09" stroke="none" stroke-width="0" fill="#ffffff"/><path d="M0 0 C7.44 -0.88, 16.56 0.95, 40.27 0 M0 0 C8.83 -1.06, 17.07 -0.28, 40.27 0 M40.27 0 C38.4 75.87, 38.42 152.28, 40.27 260.3 M40.27 0 C38.15 79.54, 38.23 158.27, 40.27 260.3 M40.27 260.3 C27.91 262.07, 14.62 260.95, 0 260.3 M40.27 260.3 C31.1 259.98, 21.96 260.38, 0 260.3 M0 260.3 C0.13 177.5, 0.19 92.87, 0 0 M0 260.3 C0.86 166.31, 2.23 71.54, 0 0" stroke="#343a40" stroke-width="2" fill="none"/></g><g stroke-linecap="round" transform="translate(193.6164591620984 56.83399110064886) rotate(0 14.627783914442977 115.74388584067265)"><path d="M0.89 -0.68 L27.9 1.35 L29.81 231.75 L1.6 231.89" stroke="none" stroke-width="0" fill="#ffffff"/><path d="M0 0 C9.01 1.12, 15.83 1.33, 29.26 0 M0 0 C7.55 -0.18, 14.99 -0.53, 29.26 0 M29.26 0 C30.66 55.36, 28.6 112.86, 29.26 231.49 M29.26 0 C27 51.29, 26.63 101.56, 29.26 231.49 M29.26 231.49 C24.06 230.5, 17.99 230.95, 0 231.49 M29.26 231.49 C22.04 232.32, 15.66 230.79, 0 231.49 M0 231.49 C-0.13 141.05, 1.85 47.7, 0 0 M0 231.49 C-0.82 180.97, -0.81 132.88, 0 0" stroke="#343a40" stroke-width="2" fill="none"/></g><g transform="translate(18.942531810237824 227.52209164232755) rotate(0 2.8228124362307767 1.2097714841994787)" stroke="none"><path fill="#1971c2" d="M 0.25,0.75 Q 0.25,0.75 -1.09,1.34 -2.44,1.94 -2.73,2.32 -3.03,2.71 -3.21,2.75 -3.38,2.78 -3.56,2.77 -3.73,2.77 -3.90,2.72 -4.07,2.67 -4.23,2.58 -4.38,2.49 -4.51,2.37 -4.63,2.25 -4.73,2.10 -4.82,1.95 -4.88,1.78 -4.94,1.61 -4.95,1.43 -4.96,1.26 -4.94,1.08 -4.91,0.91 -4.84,0.74 -4.77,0.58 -4.66,0.44 -4.56,0.30 -4.42,0.19 -4.28,0.07 -4.12,0.00 -3.96,-0.07 -3.44,0.09 -2.91,0.26 -2.33,-0.03 -1.74,-0.34 -1.10,-0.80 -0.46,-1.25 0.07,-1.68 0.61,-2.10 1.59,-2.79 2.57,-3.47 3.49,-4.01 4.40,-4.56 5.26,-5.02 6.12,-5.49 6.82,-5.73 7.52,-5.97 8.27,-6.34 9.02,-6.70 9.18,-6.78 9.34,-6.86 9.52,-6.90 9.69,-6.94 9.87,-6.93 10.06,-6.93 10.23,-6.88 10.40,-6.83 10.56,-6.74 10.72,-6.65 10.85,-6.53 10.98,-6.41 11.08,-6.26 11.18,-6.10 11.24,-5.93 11.30,-5.76 11.32,-5.58 11.33,-5.40 11.31,-5.22 11.28,-5.05 11.21,-4.88 11.14,-4.71 11.04,-4.57 10.93,-4.42 10.79,-4.30 10.65,-4.19 10.67,-3.33 10.69,-2.46 10.29,-1.72 9.89,-0.97 9.49,0.42 9.10,1.81 8.97,2.88 8.83,3.95 8.51,4.72 8.19,5.50 7.21,6.95 6.23,8.41 6.14,8.47 6.05,8.52 5.95,8.55 5.85,8.57 5.74,8.57 5.64,8.56 5.54,8.51 5.44,8.47 5.36,8.40 5.28,8.33 5.23,8.24 5.18,8.14 5.16,8.04 5.14,7.93 5.16,7.83 5.17,7.72 5.22,7.63 5.27,7.53 5.34,7.46 5.42,7.38 5.51,7.34 5.61,7.29 5.71,7.28 5.82,7.26 5.92,7.28 6.03,7.30 6.12,7.36 6.21,7.41 6.28,7.49 6.35,7.57 6.40,7.67 6.44,7.77 6.44,7.87 6.45,7.98 6.43,8.08 6.40,8.18 6.34,8.27 6.28,8.36 6.20,8.43 6.12,8.49 6.02,8.53 5.92,8.57 5.81,8.57 5.71,8.57 5.60,8.54 5.50,8.51 5.42,8.44 5.33,8.38 5.27,8.29 5.21,8.21 5.18,8.11 5.15,8.00 5.15,7.90 5.15,7.79 5.19,7.69 5.23,7.59 5.30,7.51 5.36,7.43 5.36,7.43 5.36,7.43 5.60,5.54 5.83,3.65 5.90,2.86 5.96,2.07 6.12,1.40 6.27,0.74 6.53,0.09 6.79,-0.55 7.01,-1.48 7.24,-2.41 7.51,-2.87 7.79,-3.32 8.02,-4.06 8.24,-4.80 8.63,-5.75 9.02,-6.70 9.18,-6.78 9.34,-6.86 9.52,-6.90 9.69,-6.94 9.87,-6.93 10.06,-6.93 10.23,-6.88 10.40,-6.83 10.56,-6.74 10.72,-6.65 10.85,-6.53 10.98,-6.41 11.08,-6.26 11.18,-6.10 11.24,-5.93 11.30,-5.76 11.32,-5.58 11.33,-5.40 11.31,-5.22 11.28,-5.05 11.21,-4.88 11.14,-4.71 11.04,-4.57 10.93,-4.42 10.79,-4.30 10.65,-4.19 10.21,-4.05 9.77,-3.91 8.65,-3.38 7.54,-2.85 6.73,-2.42 5.92,-1.98 5.10,-1.50 4.28,-1.02 3.36,-0.38 2.43,0.25 1.77,0.75 1.11,1.26 0.01,1.90 -1.09,2.53 -2.06,2.62 -3.03,2.71 -3.21,2.75 -3.38,2.78 -3.56,2.77 -3.73,2.77 -3.90,2.72 -4.07,2.67 -4.23,2.58 -4.38,2.49 -4.51,2.37 -4.63,2.25 -4.73,2.10 -4.82,1.95 -4.88,1.78 -4.94,1.61 -4.95,1.43 -4.96,1.26 -4.94,1.08 -4.91,0.91 -4.84,0.74 -4.77,0.58 -4.66,0.44 -4.56,0.30 -4.42,0.19 -4.28,0.07 -4.12,0.00 -3.96,-0.07 -3.54,-0.07 -3.12,-0.08 -1.68,-0.41 -0.25,-0.75 -0.15,-0.76 -0.06,-0.78 0.03,-0.78 0.12,-0.78 0.21,-0.75 0.31,-0.72 0.39,-0.67 0.47,-0.63 0.54,-0.56 0.61,-0.49 0.66,-0.41 0.71,-0.33 0.74,-0.24 0.77,-0.15 0.78,-0.06 0.79,0.03 0.77,0.12 0.75,0.22 0.72,0.30 0.68,0.39 0.62,0.47 0.57,0.54 0.49,0.60 0.42,0.66 0.33,0.70 0.25,0.75 0.25,0.75 L 0.25,0.75 Z"/></g><g transform="translate(212.06525644996867 299.1353662640335) rotate(0 6.048894340293259 5.2423554046297625)" stroke="none"><path fill="#1e1e1e" d="M 0,-0.87 Q 0,-0.87 0.93,-1.20 1.86,-1.53 2.93,-1.27 3.99,-1.01 5.04,-0.35 6.09,0.30 6.83,1.01 7.56,1.71 7.68,2.74 7.79,3.76 7.14,4.59 6.49,5.41 5.54,5.75 4.60,6.08 3.68,6.36 2.77,6.64 2.39,7.09 2.01,7.53 1.50,8.01 0.99,8.49 0.41,8.78 -0.17,9.07 0.90,9.06 1.99,9.05 3.26,9.22 4.54,9.39 5.57,9.48 6.60,9.57 7.49,9.61 8.38,9.64 9.21,9.66 10.05,9.68 11.70,10.15 13.34,10.63 13.45,10.65 13.55,10.66 13.65,10.71 13.74,10.76 13.81,10.84 13.88,10.92 13.93,11.02 13.97,11.11 13.98,11.22 13.99,11.32 13.97,11.43 13.95,11.53 13.89,11.62 13.84,11.71 13.76,11.78 13.67,11.85 13.58,11.89 13.48,11.93 13.37,11.93 13.26,11.94 13.16,11.91 13.06,11.88 12.97,11.82 12.88,11.76 12.82,11.67 12.76,11.59 12.72,11.49 12.69,11.39 12.69,11.28 12.69,11.17 12.73,11.07 12.76,10.97 12.83,10.89 12.89,10.81 12.98,10.75 13.07,10.69 13.17,10.66 13.27,10.63 13.38,10.64 13.48,10.64 13.58,10.68 13.68,10.72 13.76,10.79 13.84,10.86 13.90,10.95 13.95,11.04 13.97,11.15 13.99,11.25 13.98,11.36 13.97,11.46 13.93,11.56 13.88,11.66 13.81,11.73 13.73,11.81 13.64,11.86 13.55,11.91 13.44,11.92 13.34,11.94 13.34,11.94 13.34,11.94 11.66,12.39 9.99,12.85 9.11,12.83 8.24,12.81 7.28,12.76 6.32,12.72 5.19,12.62 4.05,12.51 2.42,12.24 0.78,11.96 -0.64,11.32 -2.06,10.68 -2.38,10.18 -2.70,9.67 -2.69,8.65 -2.68,7.62 -1.89,6.91 -1.11,6.20 -0.60,5.71 -0.10,5.22 0.81,4.48 1.72,3.73 3.04,3.30 4.35,2.86 3.75,2.40 3.14,1.94 2.49,1.73 1.84,1.53 0.92,1.20 0,0.87 -0.10,0.85 -0.20,0.84 -0.30,0.80 -0.40,0.77 -0.49,0.71 -0.57,0.65 -0.64,0.57 -0.71,0.49 -0.76,0.40 -0.81,0.30 -0.83,0.20 -0.86,0.10 -0.86,-0.00 -0.86,-0.10 -0.83,-0.20 -0.81,-0.30 -0.76,-0.40 -0.71,-0.49 -0.64,-0.57 -0.57,-0.65 -0.49,-0.71 -0.40,-0.77 -0.30,-0.80 -0.20,-0.84 -0.10,-0.85 0.00,-0.87 0.00,-0.87 L 0,-0.87 Z"/></g><g transform="translate(86.24902209322028 14.839085936798) rotate(0 2.419542968399014 6.452108429181408)" stroke="none"><path d="M0.42 0.44 C0.53 0.58, 2.33 0.5, 1.92 1.01 C1.5 1.53, -1.52 1.11, -2.08 3.51 C-2.65 5.9, -1.8 15.01, -1.48 15.39 C-1.16 15.76, -0.75 7.98, -0.16 5.76 C0.42 3.54, 1.43 3.47, 2.04 2.07 C2.64 0.67, 2.6 -1.57, 3.47 -2.61 C4.34 -3.66, 6.51 -5.22, 7.28 -4.21 C8.04 -3.19, 8.42 1.76, 8.05 3.48 C7.68 5.2, 5.63 5.41, 5.04 6.11 C4.45 6.82, 4.4 7.78, 4.5 7.7 C4.6 7.61, 6.24 6.96, 5.63 5.61 C5.02 4.26, 1.68 0.44, 0.84 -0.4" stroke="none" stroke-width="0" fill="#ffffff" fill-rule="evenodd"/><path fill="#f08c00" d="M 0.81,0.27 Q 0.81,0.27 0.81,1.04 0.81,1.81 0.76,2.45 0.71,3.08 0.46,4.82 0.21,6.56 0.12,7.93 0.03,9.30 -0.25,10.70 -0.54,12.10 -0.65,13.04 -0.75,13.99 -0.80,14.64 -0.85,15.28 -0.86,15.32 -0.87,15.36 -0.91,15.54 -0.94,15.72 -1.02,15.88 -1.10,16.05 -1.21,16.19 -1.33,16.33 -1.47,16.44 -1.62,16.55 -1.79,16.63 -1.95,16.70 -2.14,16.73 -2.32,16.76 -2.50,16.75 -2.68,16.73 -2.85,16.67 -3.03,16.62 -3.18,16.52 -3.34,16.42 -3.46,16.29 -3.59,16.16 -3.68,16.00 -3.78,15.84 -3.83,15.67 -3.88,15.49 -3.89,15.31 -3.89,15.13 -3.91,13.82 -3.93,12.51 -3.70,10.88 -3.47,9.26 -3.37,8.41 -3.28,7.56 -2.73,6.07 -2.18,4.58 -1.74,3.35 -1.30,2.12 -0.57,0.96 0.16,-0.18 0.95,-1.14 1.74,-2.10 2.32,-2.74 2.90,-3.37 3.55,-3.79 4.21,-4.20 5.40,-4.15 6.59,-4.10 7.27,-3.34 7.95,-2.59 8.21,-1.92 8.46,-1.25 8.58,-0.40 8.69,0.43 8.72,1.25 8.76,2.07 8.49,3.12 8.23,4.18 7.73,4.81 7.23,5.44 6.48,5.93 5.74,6.43 5.16,6.60 4.59,6.77 4.58,5.93 4.58,5.09 4.71,6.03 4.83,6.96 4.73,7.08 4.64,7.19 4.51,7.27 4.39,7.36 4.25,7.41 4.11,7.46 3.96,7.48 3.81,7.50 3.66,7.48 3.52,7.46 3.38,7.41 3.24,7.36 3.11,7.27 2.99,7.19 2.89,7.07 2.79,6.96 2.73,6.83 2.66,6.70 2.62,6.55 2.58,6.41 2.59,6.26 2.59,6.11 2.62,5.96 2.66,5.82 2.73,5.69 2.80,5.55 1.93,4.28 1.06,3.00 1.02,2.90 0.98,2.80 0.97,2.70 0.97,2.59 0.99,2.49 1.02,2.39 1.08,2.30 1.14,2.21 1.22,2.14 1.31,2.08 1.41,2.04 1.51,2.01 1.61,2.01 1.72,2.01 1.82,2.04 1.92,2.08 2.01,2.14 2.09,2.20 2.15,2.29 2.21,2.38 2.24,2.48 2.27,2.58 2.27,2.69 2.26,2.79 2.22,2.89 2.18,2.99 2.11,3.07 2.05,3.16 1.96,3.21 1.87,3.27 1.76,3.29 1.66,3.31 1.55,3.30 1.45,3.29 1.35,3.25 1.25,3.20 1.18,3.13 1.10,3.06 1.05,2.96 1.00,2.87 0.98,2.77 0.96,2.66 0.98,2.56 1.00,2.45 1.04,2.36 1.09,2.26 1.17,2.19 1.25,2.12 1.34,2.07 1.44,2.03 1.54,2.01 1.65,2.00 1.75,2.02 1.86,2.05 1.95,2.10 2.04,2.15 2.11,2.23 2.18,2.32 2.18,2.32 2.18,2.32 3.51,4.64 4.83,6.96 4.73,7.08 4.64,7.19 4.51,7.27 4.39,7.36 4.25,7.41 4.11,7.46 3.96,7.48 3.81,7.50 3.67,7.48 3.52,7.46 3.38,7.41 3.24,7.36 3.11,7.27 2.99,7.19 2.89,7.07 2.79,6.96 2.73,6.83 2.66,6.70 2.62,6.55 2.58,6.41 2.59,6.26 2.59,6.11 2.62,5.96 2.66,5.82 2.73,5.69 2.80,5.55 2.64,6.24 2.48,6.92 3.29,5.33 4.10,3.75 4.71,3.46 5.31,3.17 5.48,2.66 5.65,2.15 5.59,0.95 5.52,-0.25 5.34,-0.76 5.15,-1.27 4.64,-0.69 4.12,-0.11 3.43,0.69 2.74,1.51 2.17,2.34 1.59,3.18 1.14,4.44 0.69,5.70 0.23,6.81 -0.22,7.92 -0.32,8.82 -0.42,9.72 -0.65,11.11 -0.87,12.50 -0.87,13.93 -0.87,15.36 -0.91,15.54 -0.94,15.72 -1.02,15.88 -1.10,16.05 -1.21,16.19 -1.33,16.33 -1.47,16.44 -1.62,16.55 -1.79,16.63 -1.95,16.70 -2.13,16.73 -2.32,16.76 -2.50,16.75 -2.68,16.73 -2.85,16.67 -3.03,16.62 -3.18,16.52 -3.34,16.42 -3.46,16.29 -3.59,16.16 -3.68,16.00 -3.78,15.84 -3.83,15.67 -3.88,15.49 -3.89,15.31 -3.89,15.13 -3.86,15.07 -3.83,15.00 -3.78,14.32 -3.72,13.64 -3.59,12.55 -3.46,11.47 -3.18,10.26 -2.91,9.06 -2.77,7.58 -2.63,6.11 -2.33,4.42 -2.03,2.73 -1.88,1.85 -1.74,0.97 -1.27,0.35 -0.81,-0.27 -0.76,-0.36 -0.72,-0.45 -0.65,-0.53 -0.59,-0.61 -0.50,-0.67 -0.42,-0.73 -0.33,-0.77 -0.23,-0.82 -0.13,-0.83 -0.03,-0.85 0.06,-0.84 0.17,-0.83 0.26,-0.80 0.36,-0.77 0.45,-0.71 0.53,-0.66 0.61,-0.58 0.68,-0.51 0.73,-0.42 0.78,-0.33 0.81,-0.23 0.84,-0.13 0.84,-0.03 0.85,0.06 0.83,0.16 0.81,0.27 0.81,0.27 L 0.81,0.27 Z"/></g><g transform="translate(93.50765099841732 24.517257810394028) rotate(0 4.032583920430227 3.629305222774576)" stroke="none"><path fill="#f08c00" d="M 0.83,0 Q 0.83,0 0.89,1.15 0.96,2.31 1.30,1.54 1.65,0.77 2.46,0.03 3.26,-0.71 4.02,-1.15 4.78,-1.59 5.65,-2.00 6.52,-2.40 7.79,-1.52 9.05,-0.65 8.66,0.67 8.28,2.00 7.92,2.79 7.57,3.57 7.22,4.53 6.87,5.49 6.20,7.02 5.53,8.56 5.50,8.66 5.47,8.76 5.41,8.85 5.35,8.94 5.27,9.00 5.18,9.06 5.08,9.10 4.98,9.13 4.88,9.13 4.77,9.13 4.67,9.10 4.57,9.06 4.48,9.00 4.40,8.93 4.34,8.84 4.28,8.76 4.25,8.65 4.22,8.55 4.23,8.44 4.24,8.34 4.28,8.24 4.32,8.14 4.38,8.06 4.45,7.98 4.55,7.93 4.64,7.87 4.74,7.85 4.84,7.83 4.95,7.84 5.06,7.85 5.15,7.89 5.25,7.94 5.32,8.01 5.40,8.09 5.45,8.18 5.50,8.27 5.52,8.38 5.53,8.48 5.52,8.59 5.50,8.69 5.45,8.79 5.40,8.88 5.32,8.95 5.24,9.03 5.15,9.07 5.05,9.12 4.94,9.13 4.84,9.14 4.74,9.11 4.63,9.09 4.54,9.04 4.45,8.98 4.38,8.90 4.31,8.82 4.27,8.72 4.24,8.62 4.23,8.51 4.22,8.41 4.22,8.41 4.22,8.41 4.07,6.41 3.92,4.40 4.33,3.33 4.74,2.26 5.08,1.55 5.43,0.84 5.79,-0.16 6.15,-1.16 6.79,-0.42 7.43,0.30 6.83,0.66 6.23,1.02 5.72,1.28 5.20,1.54 4.11,2.45 3.01,3.37 2.41,3.64 1.81,3.92 1.10,4.08 0.40,4.25 -0.20,3.85 -0.81,3.46 -0.88,2.88 -0.96,2.31 -0.89,1.15 -0.83,0 -0.82,-0.09 -0.80,-0.19 -0.77,-0.29 -0.73,-0.38 -0.68,-0.46 -0.62,-0.55 -0.54,-0.61 -0.47,-0.68 -0.38,-0.73 -0.29,-0.77 -0.19,-0.80 -0.10,-0.82 0.00,-0.82 0.10,-0.82 0.19,-0.80 0.29,-0.77 0.38,-0.73 0.47,-0.68 0.54,-0.61 0.62,-0.55 0.68,-0.46 0.73,-0.38 0.77,-0.29 0.80,-0.19 0.82,-0.09 0.83,0.00 0.83,0.00 L 0.83,0 Z"/></g><g transform="translate(192.70891270277656 21.291194365979408) rotate(0 1.6130409520312696 0.4032602380078032)" stroke="none"><path d="M0.17 -0.55 C0.07 -1.33, 0.83 -6.05, -0.25 -3.86 C-1.34 -1.68, -5.66 12.19, -6.33 12.55 C-6.99 12.91, -5.19 1.8, -4.27 -1.72 C-3.35 -5.23, -2.22 -6.94, -0.8 -8.54 C0.63 -10.14, 2.91 -10.89, 4.29 -11.31 C5.66 -11.73, 6.56 -12.13, 7.46 -11.06 C8.37 -10, 9.46 -6.11, 9.73 -4.92 C10 -3.74, 10.63 -5.12, 9.09 -3.97 C7.56 -2.83, 1.73 0.99, 0.54 1.95 C-0.64 2.9, 1.28 2.09, 1.99 1.76 C2.7 1.42, 4.93 0.04, 4.79 -0.07 C4.65 -0.18, 2.17 1.31, 1.16 1.08" stroke="none" stroke-width="0" fill="#ffffff" fill-rule="evenodd"/><path fill="#f08c00" d="M -0.76,0.30 Q -0.76,0.30 -1.29,-0.75 -1.81,-1.82 -2.46,-2.06 -3.11,-2.30 -3.16,-2.47 -3.20,-2.64 -3.21,-2.81 -3.21,-2.98 -3.17,-3.15 -3.13,-3.32 -3.05,-3.48 -2.98,-3.63 -2.86,-3.76 -2.75,-3.89 -2.61,-3.99 -2.47,-4.09 -2.31,-4.16 -2.15,-4.22 -1.98,-4.25 -1.81,-4.27 -1.63,-4.25 -1.46,-4.24 -1.30,-4.18 -1.14,-4.12 -0.99,-4.02 -0.85,-3.93 -0.73,-3.80 -0.61,-3.67 -0.53,-3.52 -0.45,-3.37 -1.06,-0.90 -1.67,1.57 -2.15,3.52 -2.63,5.47 -3.09,6.85 -3.55,8.22 -3.99,9.28 -4.43,10.35 -4.65,11.03 -4.87,11.71 -4.87,11.66 -4.87,11.60 -4.94,11.77 -5.01,11.94 -5.12,12.09 -5.22,12.24 -5.36,12.36 -5.50,12.47 -5.67,12.55 -5.83,12.64 -6.01,12.68 -6.18,12.72 -6.37,12.71 -6.55,12.71 -6.72,12.66 -6.90,12.61 -7.06,12.52 -7.22,12.44 -7.35,12.31 -7.49,12.19 -7.59,12.04 -7.69,11.88 -7.75,11.71 -7.81,11.54 -7.83,11.36 -7.85,11.18 -7.82,11.00 -7.79,10.82 -7.32,9.79 -6.85,8.76 -6.50,6.91 -6.14,5.07 -5.74,3.27 -5.33,1.48 -4.67,-0.50 -4.02,-2.49 -3.02,-4.56 -2.01,-6.63 -1.08,-8.03 -0.15,-9.43 0.80,-10.35 1.76,-11.28 2.80,-11.76 3.84,-12.24 4.57,-12.41 5.30,-12.59 6.48,-12.32 7.65,-12.05 8.76,-10.57 9.87,-9.09 10.25,-8.23 10.63,-7.37 10.80,-6.60 10.97,-5.82 10.50,-4.45 10.02,-3.07 8.93,-2.17 7.84,-1.26 7.07,-0.58 6.29,0.10 5.39,0.71 4.49,1.31 2.75,1.18 1.00,1.05 0.91,1.00 0.82,0.95 0.75,0.87 0.67,0.79 0.63,0.69 0.59,0.60 0.58,0.49 0.57,0.39 0.59,0.28 0.62,0.18 0.67,0.09 0.73,0.00 0.81,-0.06 0.89,-0.13 0.99,-0.16 1.09,-0.20 1.20,-0.21 1.31,-0.21 1.41,-0.18 1.51,-0.15 1.60,-0.09 1.68,-0.03 1.75,0.05 1.81,0.13 1.84,0.23 1.87,0.34 1.87,0.44 1.87,0.55 1.83,0.65 1.80,0.75 1.73,0.83 1.67,0.91 1.58,0.97 1.49,1.03 1.39,1.06 1.28,1.08 1.18,1.08 1.07,1.07 0.97,1.03 0.88,0.99 0.80,0.92 0.72,0.85 0.66,0.76 0.61,0.66 0.59,0.56 0.57,0.46 0.58,0.35 0.59,0.25 0.64,0.15 0.69,0.05 0.76,-0.01 0.84,-0.09 0.93,-0.14 1.02,-0.18 1.13,-0.20 1.23,-0.22 1.34,-0.20 1.44,-0.18 1.44,-0.18 1.44,-0.18 2.10,-0.74 2.75,-1.30 3.49,-1.78 4.22,-2.26 5.11,-3.03 6.00,-3.81 6.65,-4.16 7.29,-4.51 7.52,-5.32 7.76,-6.14 7.49,-6.80 7.21,-7.45 6.79,-8.43 6.37,-9.42 5.69,-9.38 5.02,-9.35 4.42,-9.16 3.83,-8.97 3.12,-8.33 2.41,-7.68 1.59,-6.47 0.77,-5.26 -0.15,-3.39 -1.08,-1.51 -1.70,0.32 -2.32,2.17 -2.73,3.93 -3.14,5.69 -3.62,7.87 -4.10,10.04 -4.49,10.82 -4.87,11.60 -4.94,11.77 -5.01,11.94 -5.12,12.09 -5.22,12.24 -5.36,12.35 -5.50,12.47 -5.67,12.55 -5.83,12.64 -6.01,12.68 -6.18,12.72 -6.37,12.71 -6.55,12.71 -6.72,12.66 -6.90,12.61 -7.06,12.52 -7.22,12.44 -7.35,12.31 -7.49,12.19 -7.59,12.04 -7.69,11.88 -7.75,11.71 -7.81,11.54 -7.83,11.36 -7.85,11.18 -7.82,11.00 -7.79,10.82 -7.64,10.66 -7.49,10.50 -7.35,9.85 -7.22,9.20 -6.81,8.22 -6.40,7.25 -5.97,5.99 -5.54,4.74 -5.01,2.69 -4.48,0.65 -3.80,-0.82 -3.11,-2.30 -3.16,-2.47 -3.20,-2.64 -3.21,-2.81 -3.21,-2.98 -3.17,-3.15 -3.13,-3.32 -3.05,-3.48 -2.98,-3.63 -2.86,-3.76 -2.75,-3.89 -2.61,-3.99 -2.47,-4.09 -2.31,-4.16 -2.15,-4.22 -1.98,-4.25 -1.81,-4.27 -1.63,-4.25 -1.46,-4.24 -1.30,-4.18 -1.14,-4.12 -0.99,-4.02 -0.85,-3.93 -0.73,-3.80 -0.61,-3.67 -0.53,-3.52 -0.45,-3.37 -0.24,-3.09 -0.03,-2.81 0.36,-1.55 0.76,-0.30 0.79,-0.21 0.82,-0.11 0.82,-0.01 0.82,0.08 0.80,0.18 0.78,0.27 0.73,0.36 0.69,0.45 0.62,0.53 0.56,0.61 0.47,0.66 0.39,0.72 0.30,0.76 0.21,0.80 0.11,0.81 0.01,0.82 -0.08,0.81 -0.18,0.80 -0.27,0.77 -0.37,0.74 -0.45,0.68 -0.53,0.63 -0.60,0.55 -0.67,0.48 -0.72,0.39 -0.76,0.30 -0.76,0.30 L -0.76,0.30 Z"/></g><g transform="translate(203.19362351203614 33.38890920797442) rotate(0 0.403232548535982 0.4032602380078316)" stroke="none"><path d="M0.44 -1.09 C0.33 -1.45, -1.65 -3.9, -1.47 -3.69 C-1.28 -3.48, 1.06 -0.74, 1.56 0.16 C2.06 1.07, 2.19 1.4, 1.52 1.74 C0.84 2.08, -1.54 1.71, -2.48 2.21 C-3.41 2.71, -5.38 4.18, -4.08 4.73 C-2.79 5.28, 4.59 6.51, 5.3 5.52 C6 4.53, 1.18 -0.05, 0.15 -1.19" stroke="none" stroke-width="0" fill="#ffffff" fill-rule="evenodd"/><path fill="#f08c00" d="M -0.86,0.34 Q -0.86,0.34 -1.48,-0.75 -2.10,-1.84 -2.09,-3.25 -2.09,-4.66 -1.50,-4.92 -0.92,-5.18 -0.25,-4.97 0.40,-4.76 0.93,-4.49 1.46,-4.21 2.06,-3.76 2.66,-3.31 3.07,-2.57 3.49,-1.83 3.36,-0.74 3.24,0.34 2.52,1.17 1.81,1.99 0.71,2.57 -0.38,3.15 -0.90,3.52 -1.42,3.90 -1.84,4.25 -2.25,4.60 -2.47,5.04 -2.69,5.47 -2.85,5.58 -3.02,5.68 -3.20,5.74 -3.38,5.81 -3.58,5.82 -3.77,5.84 -3.96,5.81 -4.15,5.78 -4.33,5.70 -4.51,5.63 -4.67,5.51 -4.82,5.40 -4.94,5.25 -5.07,5.10 -5.15,4.93 -5.24,4.75 -5.28,4.56 -5.32,4.37 -5.31,4.18 -5.30,3.99 -5.25,3.80 -5.20,3.61 -5.10,3.44 -5.01,3.28 -4.87,3.14 -4.74,3.00 -3.53,3.05 -2.31,3.11 -1.26,3.14 -0.20,3.17 1.25,3.21 2.70,3.25 3.31,3.52 3.92,3.79 4.10,3.81 4.28,3.84 4.45,3.90 4.62,3.97 4.76,4.07 4.91,4.18 5.03,4.31 5.15,4.45 5.23,4.61 5.32,4.77 5.36,4.95 5.40,5.12 5.40,5.30 5.40,5.48 5.36,5.66 5.31,5.84 5.23,6.00 5.14,6.16 5.02,6.29 4.90,6.43 4.75,6.53 4.60,6.63 4.43,6.69 4.26,6.76 4.08,6.78 3.90,6.80 2.52,4.72 1.13,2.64 1.08,2.54 1.03,2.45 1.02,2.34 1.00,2.24 1.02,2.13 1.04,2.03 1.09,1.94 1.14,1.84 1.22,1.77 1.30,1.70 1.39,1.66 1.49,1.61 1.60,1.60 1.70,1.59 1.81,1.62 1.91,1.64 2.00,1.70 2.09,1.75 2.16,1.83 2.23,1.92 2.26,2.02 2.30,2.11 2.31,2.22 2.31,2.33 2.28,2.43 2.25,2.53 2.19,2.62 2.13,2.71 2.04,2.77 1.96,2.83 1.86,2.86 1.76,2.90 1.65,2.90 1.54,2.89 1.44,2.86 1.34,2.82 1.26,2.76 1.18,2.69 1.12,2.60 1.06,2.51 1.03,2.41 1.01,2.31 1.01,2.20 1.02,2.10 1.06,2.00 1.10,1.90 1.17,1.82 1.24,1.74 1.33,1.69 1.42,1.63 1.53,1.61 1.63,1.59 1.74,1.60 1.84,1.62 1.94,1.66 2.03,1.71 2.11,1.78 2.19,1.86 2.19,1.86 2.19,1.86 3.05,2.82 3.92,3.79 4.10,3.81 4.28,3.84 4.45,3.90 4.62,3.97 4.76,4.07 4.91,4.18 5.03,4.31 5.15,4.45 5.23,4.61 5.32,4.77 5.36,4.95 5.40,5.12 5.40,5.30 5.40,5.48 5.36,5.66 5.31,5.84 5.23,6.00 5.14,6.16 5.02,6.29 4.90,6.43 4.75,6.53 4.60,6.63 4.43,6.69 4.26,6.76 4.08,6.78 3.90,6.80 3.26,6.60 2.62,6.40 1.69,6.42 0.77,6.44 0.21,6.42 -0.33,6.41 -1.12,6.37 -1.91,6.33 -2.77,6.19 -3.62,6.05 -3.16,5.76 -2.69,5.47 -2.85,5.58 -3.02,5.68 -3.20,5.74 -3.38,5.81 -3.58,5.82 -3.77,5.84 -3.96,5.81 -4.15,5.78 -4.33,5.70 -4.51,5.63 -4.67,5.51 -4.82,5.40 -4.94,5.25 -5.07,5.10 -5.15,4.93 -5.24,4.75 -5.28,4.56 -5.32,4.37 -5.31,4.18 -5.30,3.99 -5.25,3.80 -5.20,3.61 -5.10,3.44 -5.01,3.28 -4.87,3.14 -4.74,3.00 -4.54,2.62 -4.34,2.24 -3.76,1.77 -3.18,1.30 -2.46,0.83 -1.73,0.37 -0.99,0.06 -0.25,-0.24 -0.11,-0.90 0.02,-1.55 -0.55,-2.10 -1.13,-2.65 -0.44,-2.72 0.24,-2.78 0.55,-1.56 0.86,-0.34 0.89,-0.23 0.92,-0.12 0.92,-0.01 0.92,0.09 0.90,0.20 0.87,0.31 0.82,0.41 0.77,0.51 0.70,0.59 0.62,0.68 0.53,0.75 0.44,0.81 0.34,0.85 0.23,0.89 0.12,0.91 0.01,0.93 -0.09,0.91 -0.20,0.90 -0.31,0.86 -0.41,0.83 -0.51,0.76 -0.60,0.70 -0.68,0.62 -0.75,0.54 -0.80,0.44 -0.86,0.34 -0.86,0.34 L -0.86,0.34 Z"/></g><g transform="translate(366.9065745729686 221.87642223065558) rotate(0 -2.8228124362307767 4.83910439644589)" stroke="none"><path fill="#2f9e44" d="M -0.80,-0.40 Q -0.80,-0.40 -0.60,-1.39 -0.41,-2.39 -0.88,-1.98 -1.34,-1.57 -1.89,-1.38 -2.44,-1.19 -3.19,-0.66 -3.93,-0.14 -3.96,0.82 -4.00,1.79 -3.95,2.56 -3.91,3.33 -3.21,3.34 -2.51,3.34 -1.96,3.83 -1.40,4.32 -0.85,5.25 -0.30,6.18 -0.20,6.99 -0.10,7.80 -0.08,8.35 -0.05,8.90 -0.31,9.85 -0.57,10.80 -1.01,11.52 -1.44,12.24 -2.05,12.69 -2.66,13.14 -3.67,13.68 -4.69,14.23 -5.78,14.03 -6.88,13.83 -7.49,13.30 -8.10,12.76 -7.59,11.08 -7.08,9.41 -7.12,9.34 -7.17,9.28 -7.20,9.20 -7.23,9.13 -7.23,9.05 -7.24,8.97 -7.23,8.89 -7.22,8.81 -7.20,8.74 -7.17,8.67 -7.12,8.60 -7.08,8.54 -7.02,8.48 -6.96,8.43 -6.89,8.39 -6.82,8.36 -6.74,8.34 -6.66,8.32 -6.59,8.32 -6.51,8.32 -6.43,8.34 -6.35,8.36 -6.28,8.40 -6.21,8.43 -6.15,8.49 -6.09,8.54 -6.44,8.44 -6.79,8.35 -6.69,8.33 -6.58,8.32 -6.48,8.33 -6.38,8.35 -6.28,8.40 -6.19,8.45 -6.12,8.53 -6.04,8.61 -6.00,8.70 -5.95,8.80 -5.94,8.90 -5.93,9.01 -5.96,9.11 -5.98,9.22 -6.03,9.31 -6.09,9.40 -6.17,9.47 -6.25,9.54 -6.35,9.58 -6.45,9.61 -6.55,9.62 -6.66,9.62 -6.76,9.60 -6.87,9.57 -6.95,9.51 -7.04,9.45 -7.10,9.36 -7.17,9.28 -7.20,9.18 -7.24,9.08 -7.24,8.97 -7.23,8.86 -7.20,8.76 -7.17,8.66 -7.10,8.58 -7.04,8.49 -6.95,8.43 -6.86,8.38 -6.76,8.35 -6.66,8.32 -6.55,8.33 -6.44,8.33 -6.34,8.37 -6.25,8.41 -6.17,8.48 -6.09,8.55 -6.03,8.64 -5.98,8.73 -5.95,8.84 -5.93,8.94 -5.94,9.05 -5.96,9.15 -6.00,9.25 -6.05,9.34 -6.12,9.42 -6.19,9.50 -6.64,9.45 -7.08,9.41 -7.12,9.34 -7.17,9.28 -7.20,9.20 -7.23,9.13 -7.23,9.05 -7.24,8.97 -7.23,8.89 -7.22,8.81 -7.20,8.74 -7.17,8.67 -7.12,8.60 -7.08,8.54 -7.02,8.48 -6.96,8.43 -6.89,8.39 -6.82,8.36 -6.74,8.34 -6.66,8.32 -6.59,8.32 -6.51,8.32 -6.43,8.34 -6.35,8.36 -6.28,8.40 -6.21,8.43 -6.15,8.49 -6.09,8.54 -5.68,9.85 -5.26,11.16 -4.43,10.47 -3.60,9.78 -3.44,8.93 -3.28,8.09 -3.28,7.53 -3.28,6.97 -3.88,6.53 -4.48,6.08 -5.26,5.60 -6.04,5.12 -6.31,4.63 -6.57,4.14 -6.87,2.85 -7.17,1.56 -7.13,1.01 -7.09,0.46 -6.92,-0.40 -6.76,-1.27 -6.35,-1.91 -5.95,-2.55 -5.35,-3.01 -4.75,-3.46 -3.99,-3.85 -3.24,-4.24 -2.18,-4.45 -1.12,-4.66 0.00,-4.47 1.13,-4.28 1.62,-3.73 2.11,-3.18 2.19,-2.24 2.27,-1.31 1.53,-0.45 0.80,0.40 0.74,0.49 0.68,0.58 0.60,0.65 0.52,0.72 0.42,0.78 0.33,0.83 0.23,0.86 0.12,0.88 0.01,0.89 -0.09,0.89 -0.19,0.87 -0.30,0.84 -0.39,0.79 -0.49,0.74 -0.57,0.67 -0.66,0.60 -0.72,0.52 -0.78,0.43 -0.82,0.33 -0.86,0.23 -0.88,0.12 -0.89,0.01 -0.88,-0.09 -0.87,-0.19 -0.84,-0.29 -0.80,-0.40 -0.80,-0.40 L -0.80,-0.40 Z"/></g><g stroke-linecap="round" transform="translate(297.27059182749275 221.77643155223453) rotate(0 9.04300885111985 9.404723244204177)"><path d="M8.08 0.3 C9.92 -0.02, 12.59 0.34, 14.19 1.38 C15.8 2.42, 17.24 4.63, 17.71 6.53 C18.18 8.42, 17.8 10.82, 17 12.73 C16.2 14.64, 14.5 16.99, 12.91 17.98 C11.32 18.97, 9.25 19.14, 7.45 18.66 C5.65 18.19, 3.32 16.76, 2.12 15.13 C0.93 13.5, 0.26 10.85, 0.28 8.88 C0.3 6.9, 0.97 4.72, 2.24 3.29 C3.51 1.87, 6.83 0.79, 7.89 0.32 C8.96 -0.14, 8.61 0.42, 8.62 0.52 M10.25 -0.55 C12.16 -0.48, 13.99 1.16, 15.37 2.71 C16.75 4.26, 18.41 6.64, 18.55 8.74 C18.68 10.84, 17.46 13.57, 16.16 15.3 C14.87 17.04, 12.55 18.63, 10.77 19.15 C8.98 19.68, 7.04 19.59, 5.46 18.47 C3.87 17.36, 1.99 14.41, 1.25 12.47 C0.51 10.53, 0.54 8.74, 1.02 6.83 C1.49 4.91, 2.6 2.14, 4.1 0.98 C5.6 -0.18, 8.9 0.05, 10.01 -0.14 C11.12 -0.33, 10.83 -0.42, 10.75 -0.18" stroke="#1e1e1e" stroke-width="2" fill="none"/></g><g stroke-linecap="round" transform="translate(295.82373425515533 244.92651699054895) rotate(0 9.766437637288504 10.128152030372803)"><path d="M8.06 0.09 C9.95 -0.5, 12.71 0.13, 14.44 1.12 C16.18 2.12, 17.75 4.01, 18.47 6.08 C19.19 8.15, 19.29 11.41, 18.76 13.54 C18.23 15.66, 16.98 17.73, 15.29 18.84 C13.6 19.95, 10.71 20.53, 8.62 20.18 C6.53 19.84, 4.19 18.36, 2.73 16.78 C1.27 15.2, -0.01 12.8, -0.16 10.69 C-0.31 8.58, 0.43 5.82, 1.84 4.12 C3.26 2.41, 7.26 1.1, 8.32 0.46 C9.38 -0.19, 8.16 0.22, 8.19 0.26 M9.46 -0.31 C11.52 -0.37, 14.89 0.68, 16.53 2.16 C18.17 3.64, 19.08 6.31, 19.31 8.59 C19.55 10.86, 18.9 13.82, 17.95 15.78 C17.01 17.75, 15.48 19.81, 13.65 20.36 C11.82 20.91, 8.91 19.91, 6.96 19.08 C5 18.25, 3.05 17.27, 1.91 15.39 C0.76 13.52, -0.14 10.05, 0.09 7.84 C0.33 5.63, 1.61 3.52, 3.32 2.14 C5.03 0.76, 9.38 -0.17, 10.36 -0.44 C11.35 -0.72, 9.41 0.36, 9.22 0.5" stroke="#1e1e1e" stroke-width="2" fill="none"/></g><g stroke-linecap="round"><g transform="translate(295.10027235253966 221.05300276606587) rotate(0 11.575059277380717 -0.36171439308432696)"><path d="M0 0 C6.12 0.35, 12.06 -0.5, 23.15 -0.72 M0 0 C6.78 -0.41, 14.39 0.05, 23.15 -0.72" stroke="#1e1e1e" stroke-width="2" fill="none"/></g></g><mask/><g stroke-linecap="round"><g transform="translate(293.65341478020235 268.80003121503194) rotate(0 11.936757112241537 -0.36171439308432696)"><path d="M0 0 C5.73 -0.44, 10.52 -0.56, 23.87 -0.72 M0 0 C5.55 0.31, 10.77 0.02, 23.87 -0.72" stroke="#1e1e1e" stroke-width="2" fill="none"/></g></g><mask/><g transform="translate(300.1643732050614 202.96701818027324) rotate(0 -3.6172101637373544 7.957815997196263)" stroke="none"><path fill="#1e1e1e" d="M -0.81,-0.20 Q -0.81,-0.20 -0.86,-1.09 -0.91,-1.99 -0.85,-2.15 -0.79,-2.30 -0.70,-2.44 -0.60,-2.57 -0.48,-2.68 -0.36,-2.79 -0.21,-2.87 -0.06,-2.94 0.09,-2.98 0.25,-3.02 0.42,-3.02 0.58,-3.02 0.74,-2.98 0.90,-2.94 1.05,-2.86 1.19,-2.79 1.32,-2.68 1.44,-2.57 1.54,-2.43 1.63,-2.29 1.69,-2.14 1.75,-1.98 1.76,-1.82 1.78,-1.65 1.76,-1.49 1.74,-1.33 1.34,-0.62 0.93,0.09 0.66,0.79 0.40,1.50 0.07,2.45 -0.26,3.40 -0.84,4.70 -1.42,6.00 -2.04,7.92 -2.66,9.83 -3.38,11.56 -4.09,13.29 -4.60,14.43 -5.11,15.58 -6.55,17.22 -7.99,18.86 -8.05,18.95 -8.10,19.04 -8.18,19.11 -8.26,19.18 -8.36,19.22 -8.46,19.26 -8.57,19.26 -8.68,19.27 -8.78,19.24 -8.88,19.21 -8.97,19.15 -9.05,19.09 -9.12,19.01 -9.18,18.92 -9.22,18.82 -9.25,18.72 -9.25,18.61 -9.25,18.51 -9.21,18.41 -9.18,18.31 -9.11,18.22 -9.05,18.14 -8.96,18.08 -8.87,18.02 -8.77,17.99 -8.67,17.96 -8.56,17.97 -8.46,17.98 -8.36,18.02 -8.26,18.06 -8.18,18.13 -8.10,18.19 -8.04,18.29 -7.99,18.38 -7.97,18.48 -7.94,18.59 -7.96,18.69 -7.97,18.80 -8.01,18.89 -8.06,18.99 -8.13,19.07 -8.21,19.14 -8.30,19.19 -8.39,19.24 -8.50,19.26 -8.60,19.27 -8.71,19.26 -8.81,19.24 -8.91,19.19 -9.00,19.14 -9.07,19.06 -9.15,18.98 -9.19,18.89 -9.23,18.79 -9.25,18.68 -9.26,18.58 -9.23,18.47 -9.21,18.37 -9.21,18.37 -9.21,18.37 -8.53,16.36 -7.86,14.35 -7.36,13.24 -6.87,12.13 -6.19,10.51 -5.51,8.89 -4.82,6.83 -4.13,4.77 -3.57,3.58 -3.02,2.39 -2.64,1.39 -2.27,0.38 -1.59,-0.80 -0.91,-1.99 -0.85,-2.15 -0.79,-2.30 -0.70,-2.44 -0.60,-2.57 -0.48,-2.68 -0.36,-2.79 -0.21,-2.87 -0.06,-2.94 0.09,-2.98 0.25,-3.02 0.42,-3.02 0.58,-3.02 0.74,-2.98 0.90,-2.94 1.05,-2.86 1.19,-2.79 1.32,-2.68 1.44,-2.57 1.54,-2.43 1.63,-2.29 1.69,-2.14 1.75,-1.98 1.76,-1.82 1.78,-1.65 1.76,-1.49 1.74,-1.33 1.27,-0.56 0.81,0.20 0.77,0.29 0.73,0.39 0.68,0.47 0.62,0.55 0.54,0.62 0.47,0.68 0.38,0.73 0.29,0.78 0.19,0.80 0.09,0.83 -0.00,0.82 -0.10,0.82 -0.20,0.80 -0.29,0.78 -0.38,0.73 -0.47,0.68 -0.55,0.61 -0.62,0.55 -0.68,0.46 -0.74,0.38 -0.77,0.29 -0.81,0.19 -0.82,0.09 -0.83,-0.00 -0.82,-0.10 -0.81,-0.20 -0.81,-0.20 L -0.81,-0.20 Z"/></g><g transform="translate(312.4628281521637 200.7966987053202) rotate(0 -4.702336784766771 9.766437637288504)" stroke="none"><path fill="#1e1e1e" d="M 0.73,0.29 Q 0.73,0.29 0.55,1.42 0.36,2.55 0.01,3.61 -0.33,4.66 -1.12,6.43 -1.91,8.20 -2.89,9.83 -3.88,11.47 -4.92,13.00 -5.96,14.53 -6.55,15.70 -7.14,16.88 -6.70,17.37 -6.26,17.87 -6.31,17.93 -6.35,18.00 -6.41,18.05 -6.47,18.10 -6.54,18.14 -6.61,18.18 -6.69,18.20 -6.76,18.22 -6.84,18.22 -6.92,18.22 -7.00,18.20 -7.07,18.18 -7.15,18.15 -7.22,18.11 -7.28,18.06 -7.33,18.01 -7.38,17.94 -7.43,17.88 -7.45,17.80 -7.48,17.73 -7.49,17.65 -7.50,17.57 -7.49,17.49 -7.49,17.41 -7.46,17.34 -7.43,17.27 -7.21,17.10 -6.99,16.93 -6.89,16.92 -6.78,16.91 -6.68,16.94 -6.58,16.97 -6.49,17.03 -6.40,17.09 -6.33,17.17 -6.27,17.25 -6.23,17.35 -6.20,17.46 -6.20,17.56 -6.20,17.67 -6.23,17.77 -6.26,17.87 -6.33,17.95 -6.39,18.04 -6.48,18.10 -6.57,18.16 -6.67,18.19 -6.77,18.22 -6.88,18.21 -6.98,18.21 -7.08,18.17 -7.18,18.13 -7.26,18.06 -7.34,18.00 -7.40,17.90 -7.46,17.81 -7.48,17.71 -7.50,17.61 -7.49,17.50 -7.48,17.40 -7.44,17.30 -7.39,17.20 -7.32,17.12 -7.25,17.05 -7.16,17.00 -7.06,16.95 -6.96,16.93 -6.85,16.91 -6.75,16.93 -6.64,16.94 -6.55,16.99 -6.45,17.04 -6.38,17.12 -6.31,17.19 -6.26,17.29 -6.22,17.39 -6.20,17.49 -6.19,17.60 -6.21,17.70 -6.24,17.80 -6.29,17.90 -6.34,17.99 -6.42,18.06 -6.50,18.13 -6.38,18.00 -6.26,17.87 -6.31,17.93 -6.35,18.00 -6.41,18.05 -6.47,18.10 -6.54,18.14 -6.61,18.18 -6.69,18.20 -6.76,18.22 -6.84,18.22 -6.92,18.22 -7.00,18.20 -7.07,18.18 -7.14,18.15 -7.22,18.11 -7.28,18.06 -7.33,18.01 -7.38,17.94 -7.43,17.88 -7.45,17.80 -7.48,17.73 -7.49,17.65 -7.50,17.57 -7.49,17.49 -7.49,17.42 -7.46,17.34 -7.43,17.27 -8.59,16.41 -9.74,15.56 -9.04,14.22 -8.34,12.88 -7.32,11.43 -6.30,9.97 -5.37,8.50 -4.44,7.02 -3.65,5.39 -2.86,3.75 -2.44,2.67 -2.03,1.60 -1.38,0.65 -0.73,-0.29 -0.69,-0.37 -0.64,-0.46 -0.58,-0.53 -0.51,-0.60 -0.43,-0.65 -0.35,-0.71 -0.26,-0.74 -0.17,-0.77 -0.08,-0.78 0.01,-0.79 0.10,-0.78 0.20,-0.76 0.29,-0.73 0.38,-0.69 0.46,-0.64 0.53,-0.58 0.60,-0.51 0.66,-0.44 0.70,-0.35 0.74,-0.26 0.77,-0.17 0.79,-0.08 0.79,0.01 0.78,0.11 0.76,0.20 0.73,0.29 0.73,0.29 L 0.73,0.29 Z"/></g><g transform="translate(324.03788742954447 201.52012749148886) rotate(0 -5.064067736074662 10.489882981680694)" stroke="none"><path fill="#1e1e1e" d="M 0.75,0.37 Q 0.75,0.37 0.34,1.73 -0.06,3.08 -0.73,4.45 -1.39,5.82 -2.26,7.85 -3.13,9.87 -3.93,11.58 -4.73,13.30 -5.49,14.86 -6.24,16.43 -7.78,18.59 -9.32,20.75 -9.38,20.84 -9.43,20.93 -9.51,21.00 -9.60,21.07 -9.70,21.11 -9.79,21.14 -9.90,21.15 -10.01,21.15 -10.11,21.12 -10.21,21.09 -10.30,21.03 -10.38,20.97 -10.45,20.89 -10.51,20.80 -10.54,20.70 -10.58,20.60 -10.57,20.49 -10.57,20.39 -10.54,20.28 -10.50,20.18 -10.44,20.10 -10.37,20.02 -10.28,19.96 -10.19,19.90 -10.09,19.87 -9.99,19.85 -9.88,19.85 -9.78,19.86 -9.68,19.90 -9.58,19.94 -9.50,20.01 -9.42,20.08 -9.37,20.18 -9.31,20.27 -9.29,20.37 -9.27,20.48 -9.28,20.58 -9.30,20.69 -9.34,20.78 -9.39,20.88 -9.46,20.95 -9.54,21.03 -9.63,21.08 -9.73,21.13 -9.83,21.14 -9.94,21.16 -10.04,21.14 -10.15,21.12 -10.24,21.07 -10.33,21.02 -10.40,20.94 -10.48,20.86 -10.52,20.76 -10.56,20.67 -10.57,20.56 -10.58,20.46 -10.56,20.35 -10.53,20.25 -10.53,20.25 -10.53,20.25 -9.70,17.70 -8.87,15.14 -8.11,13.60 -7.35,12.06 -6.54,10.38 -5.73,8.70 -4.78,6.65 -3.82,4.61 -3.12,3.25 -2.42,1.90 -1.58,0.76 -0.75,-0.37 -0.69,-0.45 -0.63,-0.54 -0.56,-0.61 -0.49,-0.68 -0.40,-0.73 -0.31,-0.77 -0.21,-0.80 -0.11,-0.83 -0.01,-0.83 0.08,-0.83 0.18,-0.81 0.28,-0.79 0.37,-0.74 0.46,-0.70 0.54,-0.63 0.61,-0.56 0.67,-0.48 0.73,-0.40 0.77,-0.31 0.81,-0.21 0.82,-0.11 0.83,-0.01 0.82,0.08 0.81,0.18 0.78,0.28 0.75,0.37 0.75,0.37 L 0.75,0.37 Z"/></g><g transform="translate(303.05815458263015 276.0344184260596) rotate(0 -2.5320504262608665 4.340655508129544)" stroke="none"><path fill="#1e1e1e" d="M -0.72,-0.48 Q -0.72,-0.48 -0.44,-1.19 -0.15,-1.90 -0.06,-2.01 0.03,-2.12 0.14,-2.20 0.26,-2.28 0.39,-2.34 0.52,-2.39 0.67,-2.41 0.81,-2.43 0.95,-2.41 1.09,-2.40 1.23,-2.35 1.36,-2.30 1.48,-2.22 1.60,-2.14 1.69,-2.04 1.79,-1.93 1.86,-1.81 1.93,-1.68 1.96,-1.54 2.00,-1.40 2.00,-1.26 2.00,-1.12 1.97,-0.98 1.94,-0.84 1.88,-0.71 1.81,-0.59 1.21,0.04 0.61,0.67 -0.03,1.51 -0.67,2.36 -1.36,3.51 -2.05,4.67 -2.80,5.83 -3.54,6.99 -4.46,9.08 -5.38,11.17 -5.43,11.23 -5.48,11.29 -5.55,11.34 -5.61,11.39 -5.68,11.42 -5.76,11.45 -5.83,11.46 -5.91,11.47 -5.99,11.46 -6.07,11.46 -6.14,11.43 -6.22,11.41 -6.29,11.36 -6.35,11.32 -6.41,11.26 -6.46,11.21 -6.50,11.14 -6.54,11.07 -6.56,10.99 -6.58,10.92 -6.59,10.84 -6.59,10.76 -6.57,10.68 -6.55,10.60 -6.52,10.53 -6.49,10.46 -6.04,10.35 -5.60,10.25 -5.52,10.32 -5.44,10.39 -5.38,10.48 -5.33,10.57 -5.30,10.67 -5.28,10.77 -5.29,10.88 -5.30,10.98 -5.34,11.08 -5.39,11.18 -5.46,11.26 -5.53,11.33 -5.62,11.38 -5.72,11.44 -5.82,11.45 -5.93,11.47 -6.03,11.46 -6.14,11.44 -6.23,11.39 -6.33,11.34 -6.40,11.26 -6.47,11.19 -6.52,11.09 -6.56,11.00 -6.58,10.89 -6.59,10.79 -6.57,10.68 -6.55,10.58 -6.49,10.49 -6.44,10.39 -6.36,10.32 -6.28,10.26 -6.18,10.22 -6.08,10.17 -5.97,10.17 -5.87,10.16 -5.77,10.19 -5.66,10.22 -5.57,10.28 -5.49,10.33 -5.42,10.42 -5.36,10.50 -5.32,10.60 -5.29,10.70 -5.29,10.81 -5.28,10.92 -5.32,11.02 -5.35,11.12 -5.41,11.20 -5.48,11.29 -5.56,11.35 -5.65,11.41 -5.75,11.44 -5.86,11.47 -5.96,11.46 -6.07,11.46 -5.72,11.31 -5.38,11.17 -5.43,11.23 -5.48,11.29 -5.55,11.34 -5.61,11.39 -5.68,11.42 -5.76,11.45 -5.83,11.46 -5.91,11.47 -5.99,11.46 -6.07,11.46 -6.14,11.43 -6.22,11.41 -6.29,11.36 -6.35,11.32 -6.41,11.26 -6.46,11.21 -6.50,11.14 -6.54,11.07 -6.56,10.99 -6.58,10.92 -6.59,10.84 -6.59,10.76 -6.57,10.68 -6.55,10.60 -6.52,10.53 -6.49,10.46 -6.16,7.99 -5.84,5.51 -5.11,4.38 -4.37,3.24 -3.55,1.93 -2.72,0.62 -1.44,-0.64 -0.15,-1.90 -0.06,-2.01 0.03,-2.12 0.14,-2.20 0.26,-2.28 0.39,-2.34 0.52,-2.39 0.67,-2.41 0.81,-2.43 0.95,-2.41 1.09,-2.40 1.23,-2.35 1.36,-2.30 1.48,-2.22 1.60,-2.14 1.69,-2.04 1.79,-1.93 1.86,-1.81 1.93,-1.68 1.96,-1.54 2.00,-1.40 2.00,-1.26 2.00,-1.12 1.97,-0.98 1.94,-0.84 1.88,-0.71 1.81,-0.59 1.27,-0.05 0.72,0.48 0.65,0.56 0.59,0.64 0.50,0.70 0.41,0.76 0.32,0.80 0.22,0.84 0.11,0.86 0.01,0.87 -0.09,0.86 -0.19,0.85 -0.29,0.81 -0.39,0.78 -0.48,0.72 -0.56,0.66 -0.64,0.58 -0.71,0.50 -0.76,0.41 -0.81,0.32 -0.84,0.22 -0.86,0.11 -0.86,0.01 -0.87,-0.09 -0.84,-0.19 -0.82,-0.29 -0.77,-0.39 -0.72,-0.48 -0.72,-0.48 L -0.72,-0.48 Z"/></g><g transform="translate(315.35660952973245 273.1406701649379) rotate(0 -6.510958424859041 7.5961181623355)" stroke="none"><path fill="#1e1e1e" d="M 0.43,0.64 Q 0.43,0.64 -0.06,1.24 -0.56,1.85 -1.42,2.47 -2.28,3.10 -3.15,4.11 -4.02,5.11 -5.44,6.82 -6.87,8.53 -8.10,10.07 -9.33,11.61 -9.92,13.27 -10.51,14.93 -10.56,14.98 -10.62,15.04 -10.69,15.08 -10.76,15.12 -10.83,15.14 -10.91,15.17 -10.99,15.17 -11.07,15.17 -11.14,15.16 -11.22,15.14 -11.29,15.11 -11.37,15.08 -11.43,15.03 -11.49,14.98 -11.54,14.92 -11.59,14.85 -11.62,14.78 -11.65,14.71 -11.66,14.63 -11.68,14.55 -11.67,14.47 -11.67,14.39 -11.64,14.32 -11.62,14.24 -11.58,14.18 -11.53,14.11 -11.27,13.99 -11.01,13.86 -10.90,13.88 -10.80,13.90 -10.71,13.95 -10.61,14.00 -10.54,14.08 -10.47,14.16 -10.43,14.26 -10.38,14.36 -10.38,14.46 -10.37,14.57 -10.39,14.67 -10.42,14.77 -10.47,14.86 -10.53,14.95 -10.61,15.02 -10.69,15.09 -10.79,15.13 -10.89,15.16 -11.00,15.17 -11.10,15.17 -11.21,15.14 -11.31,15.11 -11.39,15.05 -11.48,14.99 -11.54,14.90 -11.61,14.82 -11.64,14.71 -11.67,14.61 -11.67,14.51 -11.67,14.40 -11.63,14.30 -11.60,14.20 -11.53,14.12 -11.46,14.03 -11.37,13.98 -11.29,13.92 -11.18,13.89 -11.08,13.86 -10.97,13.87 -10.87,13.88 -10.77,13.92 -10.67,13.96 -10.59,14.03 -10.51,14.10 -10.46,14.20 -10.41,14.29 -10.39,14.39 -10.36,14.50 -10.38,14.60 -10.39,14.71 -10.44,14.80 -10.48,14.90 -10.56,14.97 -10.63,15.05 -10.73,15.10 -10.82,15.15 -10.67,15.04 -10.51,14.93 -10.56,14.98 -10.62,15.04 -10.69,15.08 -10.76,15.12 -10.83,15.14 -10.91,15.17 -10.99,15.17 -11.07,15.17 -11.14,15.16 -11.22,15.14 -11.29,15.11 -11.37,15.08 -11.43,15.03 -11.49,14.98 -11.54,14.92 -11.59,14.85 -11.62,14.78 -11.65,14.71 -11.66,14.63 -11.68,14.55 -11.67,14.47 -11.67,14.39 -11.64,14.32 -11.62,14.24 -11.58,14.18 -11.53,14.11 -11.55,11.96 -11.58,9.81 -10.31,8.24 -9.04,6.67 -7.54,4.96 -6.03,3.25 -4.90,2.08 -3.76,0.92 -2.84,0.37 -1.92,-0.18 -1.17,-0.41 -0.43,-0.64 -0.34,-0.69 -0.26,-0.73 -0.17,-0.75 -0.08,-0.77 0.01,-0.77 0.10,-0.77 0.19,-0.74 0.28,-0.72 0.37,-0.67 0.45,-0.63 0.52,-0.57 0.59,-0.50 0.64,-0.42 0.69,-0.35 0.72,-0.26 0.76,-0.17 0.77,-0.08 0.77,0.01 0.76,0.10 0.75,0.19 0.71,0.28 0.68,0.37 0.62,0.45 0.57,0.52 0.50,0.58 0.43,0.64 0.43,0.64 L 0.43,0.64 Z"/></g><g transform="translate(322.59102985720716 276.75788032867524) rotate(0 -3.6172101637373544 7.234387211027638)" stroke="none"><path fill="#1e1e1e" d="M 0.77,0.38 Q 0.77,0.38 0.57,1.32 0.38,2.27 -0.15,3.64 -0.68,5.01 -1.57,6.71 -2.46,8.41 -3.24,9.93 -4.02,11.44 -5.16,12.77 -6.30,14.09 -6.37,14.18 -6.43,14.26 -6.52,14.33 -6.60,14.39 -6.71,14.42 -6.81,14.45 -6.91,14.44 -7.02,14.44 -7.12,14.40 -7.22,14.36 -7.30,14.30 -7.38,14.23 -7.44,14.14 -7.49,14.05 -7.52,13.94 -7.54,13.84 -7.53,13.74 -7.52,13.63 -7.48,13.53 -7.44,13.44 -7.37,13.36 -7.29,13.28 -7.20,13.23 -7.11,13.18 -7.00,13.16 -6.90,13.14 -6.79,13.15 -6.69,13.17 -6.59,13.22 -6.50,13.27 -6.42,13.34 -6.35,13.42 -6.30,13.51 -6.26,13.61 -6.25,13.71 -6.23,13.82 -6.25,13.92 -6.27,14.03 -6.33,14.12 -6.38,14.21 -6.46,14.28 -6.54,14.35 -6.64,14.39 -6.74,14.43 -6.84,14.44 -6.95,14.45 -7.05,14.42 -7.15,14.40 -7.24,14.34 -7.33,14.28 -7.40,14.20 -7.46,14.11 -7.50,14.01 -7.53,13.91 -7.54,13.81 -7.54,13.70 -7.51,13.60 -7.47,13.50 -7.47,13.50 -7.47,13.50 -7.07,11.79 -6.66,10.08 -5.86,8.55 -5.06,7.01 -4.20,5.45 -3.34,3.88 -2.69,2.47 -2.04,1.05 -1.41,0.33 -0.77,-0.38 -0.71,-0.47 -0.65,-0.56 -0.58,-0.63 -0.50,-0.70 -0.41,-0.75 -0.32,-0.80 -0.22,-0.83 -0.12,-0.85 -0.01,-0.86 0.08,-0.86 0.18,-0.83 0.29,-0.81 0.38,-0.76 0.47,-0.72 0.55,-0.65 0.63,-0.58 0.69,-0.50 0.75,-0.41 0.79,-0.32 0.83,-0.22 0.85,-0.12 0.86,-0.01 0.85,0.08 0.84,0.19 0.81,0.28 0.77,0.38 0.77,0.38 L 0.77,0.38 Z"/></g><g stroke-linecap="round" transform="translate(48.30434328105963 219.49754722056267) rotate(0 9.04300885111985 9.404723244204177)"><path d="M10.37 0.19 C12.23 0.43, 14.51 1.84, 15.84 3.37 C17.18 4.9, 18.34 7.32, 18.36 9.39 C18.39 11.46, 17.24 14.22, 15.99 15.78 C14.73 17.33, 12.78 18.45, 10.83 18.71 C8.89 18.96, 6.09 18.28, 4.33 17.32 C2.57 16.36, 0.96 14.86, 0.28 12.95 C-0.41 11.04, -0.54 7.91, 0.23 5.88 C1 3.84, 3.1 1.69, 4.91 0.76 C6.72 -0.18, 10.11 0.33, 11.09 0.27 C12.08 0.2, 10.85 0.23, 10.82 0.36 M7.61 0.6 C9.37 0.08, 10.9 -0.32, 12.61 0.58 C14.31 1.47, 16.94 3.93, 17.81 5.97 C18.69 8.01, 18.59 10.87, 17.86 12.83 C17.14 14.78, 15.16 16.72, 13.47 17.69 C11.78 18.65, 9.58 19.04, 7.73 18.63 C5.87 18.22, 3.62 16.67, 2.33 15.21 C1.04 13.75, 0.09 11.89, -0.01 9.87 C-0.1 7.84, 0.54 4.6, 1.77 3.07 C3 1.53, 6.33 1.15, 7.37 0.65 C8.4 0.15, 8.02 -0.1, 7.97 0.07" stroke="#1e1e1e" stroke-width="2" fill="none"/></g><g stroke-linecap="round" transform="translate(46.85748570872221 242.6476326588771) rotate(0 9.766437637288504 10.128152030372803)"><path d="M9.06 -0.03 C11.14 -0.3, 14.19 0.58, 15.9 1.93 C17.62 3.29, 18.86 5.96, 19.34 8.1 C19.82 10.23, 19.75 12.87, 18.77 14.73 C17.79 16.59, 15.49 18.33, 13.48 19.25 C11.46 20.16, 8.73 20.86, 6.69 20.22 C4.65 19.58, 2.3 17.38, 1.25 15.42 C0.2 13.46, 0.05 10.56, 0.39 8.45 C0.74 6.35, 1.82 4.23, 3.31 2.81 C4.79 1.39, 8.17 0.39, 9.28 -0.06 C10.39 -0.5, 9.99 0.02, 9.96 0.13 M7.63 -0.44 C9.57 -0.93, 13.32 0.24, 15.26 1.55 C17.2 2.86, 18.73 5.31, 19.27 7.41 C19.81 9.51, 19.33 12.22, 18.51 14.15 C17.7 16.07, 16.17 18.05, 14.39 18.96 C12.61 19.87, 9.88 19.99, 7.83 19.6 C5.78 19.2, 3.43 18.3, 2.09 16.59 C0.76 14.88, -0.26 11.45, -0.17 9.33 C-0.08 7.2, 1.09 5.44, 2.63 3.85 C4.17 2.26, 8.17 0.3, 9.08 -0.21 C9.98 -0.71, 8.22 0.63, 8.05 0.84" stroke="#1e1e1e" stroke-width="2" fill="none"/></g><g stroke-linecap="round"><g transform="translate(46.13402380610654 218.774118434394) rotate(0 11.575059277380717 -0.36171439308432696)"><path d="M0 0 C8 -0.18, 16.93 -0.61, 23.15 -0.72 M0 0 C8.5 0.02, 16.48 -0.66, 23.15 -0.72" stroke="#1e1e1e" stroke-width="2" fill="none"/></g></g><mask/><g stroke-linecap="round"><g transform="translate(44.68716623376923 266.5211468833601) rotate(0 11.936757112241537 -0.36171439308432696)"><path d="M0 0 C6.3 -0.3, 13.83 -0.59, 23.87 -0.72 M0 0 C7.49 -0.42, 14.73 -0.77, 23.87 -0.72" stroke="#1e1e1e" stroke-width="2" fill="none"/></g></g><mask/><g transform="translate(51.198124658628274 200.68813384860138) rotate(0 -3.6172101637373544 7.957815997196263)" stroke="none"><path fill="#1e1e1e" d="M -0.81,-0.20 Q -0.81,-0.20 -0.86,-1.09 -0.91,-1.99 -0.85,-2.15 -0.79,-2.30 -0.70,-2.44 -0.60,-2.57 -0.48,-2.68 -0.36,-2.79 -0.21,-2.87 -0.06,-2.94 0.09,-2.98 0.25,-3.02 0.42,-3.02 0.58,-3.02 0.74,-2.98 0.90,-2.94 1.05,-2.86 1.19,-2.79 1.32,-2.68 1.44,-2.57 1.54,-2.43 1.63,-2.29 1.69,-2.14 1.75,-1.98 1.76,-1.82 1.78,-1.65 1.76,-1.49 1.74,-1.33 1.34,-0.62 0.93,0.09 0.66,0.79 0.40,1.50 0.07,2.45 -0.26,3.40 -0.84,4.70 -1.42,6.00 -2.04,7.92 -2.66,9.83 -3.38,11.56 -4.09,13.29 -4.60,14.43 -5.11,15.58 -6.55,17.22 -7.99,18.86 -8.05,18.95 -8.10,19.04 -8.18,19.11 -8.26,19.18 -8.36,19.22 -8.46,19.26 -8.57,19.26 -8.68,19.27 -8.78,19.24 -8.88,19.21 -8.97,19.15 -9.05,19.09 -9.12,19.01 -9.18,18.92 -9.22,18.82 -9.25,18.72 -9.25,18.61 -9.25,18.51 -9.21,18.41 -9.18,18.31 -9.11,18.22 -9.05,18.14 -8.96,18.08 -8.87,18.02 -8.77,17.99 -8.67,17.96 -8.56,17.97 -8.46,17.98 -8.36,18.02 -8.26,18.06 -8.18,18.13 -8.10,18.19 -8.04,18.29 -7.99,18.38 -7.97,18.48 -7.94,18.59 -7.96,18.69 -7.97,18.80 -8.01,18.89 -8.06,18.99 -8.13,19.07 -8.21,19.14 -8.30,19.19 -8.39,19.24 -8.50,19.26 -8.60,19.27 -8.71,19.26 -8.81,19.24 -8.91,19.19 -9.00,19.14 -9.07,19.06 -9.15,18.98 -9.19,18.89 -9.23,18.79 -9.25,18.68 -9.26,18.58 -9.23,18.47 -9.21,18.37 -9.21,18.37 -9.21,18.37 -8.53,16.36 -7.86,14.35 -7.36,13.24 -6.87,12.13 -6.19,10.51 -5.51,8.89 -4.82,6.83 -4.13,4.77 -3.57,3.58 -3.02,2.39 -2.64,1.39 -2.27,0.38 -1.59,-0.80 -0.91,-1.99 -0.85,-2.15 -0.79,-2.30 -0.70,-2.44 -0.60,-2.57 -0.48,-2.68 -0.36,-2.79 -0.21,-2.87 -0.06,-2.94 0.09,-2.98 0.25,-3.02 0.42,-3.02 0.58,-3.02 0.74,-2.98 0.90,-2.94 1.05,-2.86 1.19,-2.79 1.32,-2.68 1.44,-2.57 1.54,-2.43 1.63,-2.29 1.69,-2.14 1.75,-1.98 1.76,-1.82 1.78,-1.65 1.76,-1.49 1.74,-1.33 1.27,-0.56 0.81,0.20 0.77,0.29 0.73,0.39 0.68,0.47 0.62,0.55 0.54,0.62 0.47,0.68 0.38,0.73 0.29,0.78 0.19,0.80 0.09,0.83 -0.00,0.82 -0.10,0.82 -0.20,0.80 -0.29,0.78 -0.38,0.73 -0.47,0.68 -0.55,0.61 -0.62,0.55 -0.68,0.46 -0.74,0.38 -0.77,0.29 -0.81,0.19 -0.82,0.09 -0.83,-0.00 -0.82,-0.10 -0.81,-0.20 -0.81,-0.20 L -0.81,-0.20 Z"/></g><g transform="translate(63.496579605730574 198.51781437364835) rotate(0 -4.702336784766771 9.766437637288504)" stroke="none"><path fill="#1e1e1e" d="M 0.73,0.29 Q 0.73,0.29 0.55,1.42 0.36,2.55 0.01,3.61 -0.33,4.66 -1.12,6.43 -1.91,8.20 -2.89,9.83 -3.88,11.47 -4.92,13.00 -5.96,14.53 -6.55,15.70 -7.14,16.88 -6.70,17.37 -6.26,17.87 -6.31,17.93 -6.35,18.00 -6.41,18.05 -6.47,18.10 -6.54,18.14 -6.61,18.18 -6.69,18.20 -6.76,18.22 -6.84,18.22 -6.92,18.22 -7.00,18.20 -7.07,18.18 -7.15,18.15 -7.22,18.11 -7.28,18.06 -7.33,18.01 -7.38,17.94 -7.43,17.88 -7.45,17.80 -7.48,17.73 -7.49,17.65 -7.50,17.57 -7.49,17.49 -7.49,17.41 -7.46,17.34 -7.43,17.27 -7.21,17.10 -6.99,16.93 -6.89,16.92 -6.78,16.91 -6.68,16.94 -6.58,16.97 -6.49,17.03 -6.40,17.09 -6.33,17.17 -6.27,17.25 -6.23,17.35 -6.20,17.46 -6.20,17.56 -6.20,17.67 -6.23,17.77 -6.26,17.87 -6.33,17.95 -6.39,18.04 -6.48,18.10 -6.57,18.16 -6.67,18.19 -6.77,18.22 -6.88,18.21 -6.98,18.21 -7.08,18.17 -7.18,18.13 -7.26,18.06 -7.34,18.00 -7.40,17.90 -7.46,17.81 -7.48,17.71 -7.50,17.61 -7.49,17.50 -7.48,17.40 -7.44,17.30 -7.39,17.20 -7.32,17.12 -7.25,17.05 -7.16,17.00 -7.06,16.95 -6.96,16.93 -6.85,16.91 -6.75,16.93 -6.64,16.94 -6.55,16.99 -6.45,17.04 -6.38,17.12 -6.31,17.19 -6.26,17.29 -6.22,17.39 -6.20,17.49 -6.19,17.60 -6.21,17.70 -6.24,17.80 -6.29,17.90 -6.34,17.99 -6.42,18.06 -6.50,18.13 -6.38,18.00 -6.26,17.87 -6.31,17.93 -6.35,18.00 -6.41,18.05 -6.47,18.10 -6.54,18.14 -6.61,18.18 -6.69,18.20 -6.76,18.22 -6.84,18.22 -6.92,18.22 -7.00,18.20 -7.07,18.18 -7.14,18.15 -7.22,18.11 -7.28,18.06 -7.33,18.01 -7.38,17.94 -7.43,17.88 -7.45,17.80 -7.48,17.73 -7.49,17.65 -7.50,17.57 -7.49,17.49 -7.49,17.42 -7.46,17.34 -7.43,17.27 -8.59,16.41 -9.74,15.56 -9.04,14.22 -8.34,12.88 -7.32,11.43 -6.30,9.97 -5.37,8.50 -4.44,7.02 -3.65,5.39 -2.86,3.75 -2.44,2.67 -2.03,1.60 -1.38,0.65 -0.73,-0.29 -0.69,-0.37 -0.64,-0.46 -0.58,-0.53 -0.51,-0.60 -0.43,-0.65 -0.35,-0.71 -0.26,-0.74 -0.17,-0.77 -0.08,-0.78 0.01,-0.79 0.10,-0.78 0.20,-0.76 0.29,-0.73 0.38,-0.69 0.46,-0.64 0.53,-0.58 0.60,-0.51 0.66,-0.44 0.70,-0.35 0.74,-0.26 0.77,-0.17 0.79,-0.08 0.79,0.01 0.78,0.11 0.76,0.20 0.73,0.29 0.73,0.29 L 0.73,0.29 Z"/></g><g transform="translate(75.07163888311135 199.241243159817) rotate(0 -5.064067736074662 10.489882981680694)" stroke="none"><path fill="#1e1e1e" d="M 0.75,0.37 Q 0.75,0.37 0.34,1.73 -0.06,3.08 -0.73,4.45 -1.39,5.82 -2.26,7.85 -3.13,9.87 -3.93,11.58 -4.73,13.30 -5.49,14.86 -6.24,16.43 -7.78,18.59 -9.32,20.75 -9.38,20.84 -9.43,20.93 -9.51,21.00 -9.60,21.07 -9.70,21.11 -9.79,21.14 -9.90,21.15 -10.01,21.15 -10.11,21.12 -10.21,21.09 -10.30,21.03 -10.38,20.97 -10.45,20.89 -10.51,20.80 -10.54,20.70 -10.58,20.60 -10.57,20.49 -10.57,20.39 -10.54,20.28 -10.50,20.18 -10.44,20.10 -10.37,20.02 -10.28,19.96 -10.19,19.90 -10.09,19.87 -9.99,19.85 -9.88,19.85 -9.78,19.86 -9.68,19.90 -9.58,19.94 -9.50,20.01 -9.42,20.08 -9.37,20.18 -9.31,20.27 -9.29,20.37 -9.27,20.48 -9.28,20.58 -9.30,20.69 -9.34,20.78 -9.39,20.88 -9.46,20.95 -9.54,21.03 -9.63,21.08 -9.73,21.13 -9.83,21.14 -9.94,21.16 -10.04,21.14 -10.15,21.12 -10.24,21.07 -10.33,21.02 -10.40,20.94 -10.48,20.86 -10.52,20.76 -10.56,20.67 -10.57,20.56 -10.58,20.46 -10.56,20.35 -10.53,20.25 -10.53,20.25 -10.53,20.25 -9.70,17.70 -8.87,15.14 -8.11,13.60 -7.35,12.06 -6.54,10.38 -5.73,8.70 -4.78,6.65 -3.82,4.61 -3.12,3.25 -2.42,1.90 -1.58,0.76 -0.75,-0.37 -0.69,-0.45 -0.63,-0.54 -0.56,-0.61 -0.49,-0.68 -0.40,-0.73 -0.31,-0.77 -0.21,-0.80 -0.11,-0.83 -0.01,-0.83 0.08,-0.83 0.18,-0.81 0.28,-0.79 0.37,-0.74 0.46,-0.70 0.54,-0.63 0.61,-0.56 0.67,-0.48 0.73,-0.40 0.77,-0.31 0.81,-0.21 0.82,-0.11 0.83,-0.01 0.82,0.08 0.81,0.18 0.78,0.28 0.75,0.37 0.75,0.37 L 0.75,0.37 Z"/></g><g transform="translate(54.09190603619703 273.7555340943877) rotate(0 -2.5320504262608665 4.340655508129544)" stroke="none"><path fill="#1e1e1e" d="M -0.72,-0.48 Q -0.72,-0.48 -0.44,-1.19 -0.15,-1.90 -0.06,-2.01 0.03,-2.12 0.14,-2.20 0.26,-2.28 0.39,-2.34 0.52,-2.39 0.67,-2.41 0.81,-2.43 0.95,-2.41 1.09,-2.40 1.23,-2.35 1.36,-2.30 1.48,-2.22 1.60,-2.14 1.69,-2.04 1.79,-1.93 1.86,-1.81 1.93,-1.68 1.96,-1.54 2.00,-1.40 2.00,-1.26 2.00,-1.12 1.97,-0.98 1.94,-0.84 1.88,-0.71 1.81,-0.59 1.21,0.04 0.61,0.67 -0.03,1.51 -0.67,2.36 -1.36,3.51 -2.05,4.67 -2.80,5.83 -3.54,6.99 -4.46,9.08 -5.38,11.17 -5.43,11.23 -5.48,11.29 -5.55,11.34 -5.61,11.39 -5.68,11.42 -5.76,11.45 -5.83,11.46 -5.91,11.47 -5.99,11.46 -6.07,11.46 -6.14,11.43 -6.22,11.41 -6.29,11.36 -6.35,11.32 -6.41,11.26 -6.46,11.21 -6.50,11.14 -6.54,11.07 -6.56,10.99 -6.58,10.92 -6.59,10.84 -6.59,10.76 -6.57,10.68 -6.55,10.60 -6.52,10.53 -6.49,10.46 -6.04,10.35 -5.60,10.25 -5.52,10.32 -5.44,10.39 -5.38,10.48 -5.33,10.57 -5.30,10.67 -5.28,10.77 -5.29,10.88 -5.30,10.98 -5.34,11.08 -5.39,11.18 -5.46,11.26 -5.53,11.33 -5.62,11.38 -5.72,11.44 -5.82,11.45 -5.93,11.47 -6.03,11.46 -6.14,11.44 -6.23,11.39 -6.33,11.34 -6.40,11.26 -6.47,11.19 -6.52,11.09 -6.56,11.00 -6.58,10.89 -6.59,10.79 -6.57,10.68 -6.55,10.58 -6.49,10.49 -6.44,10.39 -6.36,10.32 -6.28,10.26 -6.18,10.22 -6.08,10.17 -5.97,10.17 -5.87,10.16 -5.77,10.19 -5.66,10.22 -5.57,10.28 -5.49,10.33 -5.42,10.42 -5.36,10.50 -5.32,10.60 -5.29,10.70 -5.29,10.81 -5.28,10.92 -5.32,11.02 -5.35,11.12 -5.41,11.20 -5.48,11.29 -5.56,11.35 -5.65,11.41 -5.75,11.44 -5.86,11.47 -5.96,11.46 -6.07,11.46 -5.72,11.31 -5.38,11.17 -5.43,11.23 -5.48,11.29 -5.55,11.34 -5.61,11.39 -5.68,11.42 -5.76,11.45 -5.83,11.46 -5.91,11.47 -5.99,11.46 -6.07,11.46 -6.14,11.43 -6.22,11.41 -6.29,11.36 -6.35,11.32 -6.41,11.26 -6.46,11.21 -6.50,11.14 -6.54,11.07 -6.56,10.99 -6.58,10.92 -6.59,10.84 -6.59,10.76 -6.57,10.68 -6.55,10.60 -6.52,10.53 -6.49,10.46 -6.16,7.99 -5.84,5.51 -5.11,4.38 -4.37,3.24 -3.55,1.93 -2.72,0.62 -1.44,-0.64 -0.15,-1.90 -0.06,-2.01 0.03,-2.12 0.14,-2.20 0.26,-2.28 0.39,-2.34 0.52,-2.39 0.67,-2.41 0.81,-2.43 0.95,-2.41 1.09,-2.40 1.23,-2.35 1.36,-2.30 1.48,-2.22 1.60,-2.14 1.69,-2.04 1.79,-1.93 1.86,-1.81 1.93,-1.68 1.96,-1.54 2.00,-1.40 2.00,-1.26 2.00,-1.12 1.97,-0.98 1.94,-0.84 1.88,-0.71 1.81,-0.59 1.27,-0.05 0.72,0.48 0.65,0.56 0.59,0.64 0.50,0.70 0.41,0.76 0.32,0.80 0.22,0.84 0.11,0.86 0.01,0.87 -0.09,0.86 -0.19,0.85 -0.29,0.81 -0.39,0.78 -0.48,0.72 -0.56,0.66 -0.64,0.58 -0.71,0.50 -0.76,0.41 -0.81,0.32 -0.84,0.22 -0.86,0.11 -0.86,0.01 -0.87,-0.09 -0.84,-0.19 -0.82,-0.29 -0.77,-0.39 -0.72,-0.48 -0.72,-0.48 L -0.72,-0.48 Z"/></g><g transform="translate(66.39036098329933 270.861785833266) rotate(0 -6.510958424859041 7.5961181623355)" stroke="none"><path fill="#1e1e1e" d="M 0.43,0.64 Q 0.43,0.64 -0.06,1.24 -0.56,1.85 -1.42,2.47 -2.28,3.10 -3.15,4.11 -4.02,5.11 -5.44,6.82 -6.87,8.53 -8.10,10.07 -9.33,11.61 -9.92,13.27 -10.51,14.93 -10.56,14.98 -10.62,15.04 -10.69,15.08 -10.76,15.12 -10.83,15.14 -10.91,15.17 -10.99,15.17 -11.07,15.17 -11.14,15.16 -11.22,15.14 -11.29,15.11 -11.37,15.08 -11.43,15.03 -11.49,14.98 -11.54,14.92 -11.59,14.85 -11.62,14.78 -11.65,14.71 -11.66,14.63 -11.68,14.55 -11.67,14.47 -11.67,14.39 -11.64,14.32 -11.62,14.24 -11.58,14.18 -11.53,14.11 -11.27,13.99 -11.01,13.86 -10.90,13.88 -10.80,13.90 -10.71,13.95 -10.61,14.00 -10.54,14.08 -10.47,14.16 -10.43,14.26 -10.38,14.36 -10.38,14.46 -10.37,14.57 -10.39,14.67 -10.42,14.77 -10.47,14.86 -10.53,14.95 -10.61,15.02 -10.69,15.09 -10.79,15.13 -10.89,15.16 -11.00,15.17 -11.10,15.17 -11.21,15.14 -11.31,15.11 -11.39,15.05 -11.48,14.99 -11.54,14.90 -11.61,14.82 -11.64,14.71 -11.67,14.61 -11.67,14.51 -11.67,14.40 -11.63,14.30 -11.60,14.20 -11.53,14.12 -11.46,14.03 -11.37,13.98 -11.29,13.92 -11.18,13.89 -11.08,13.86 -10.97,13.87 -10.87,13.88 -10.77,13.92 -10.67,13.96 -10.59,14.03 -10.51,14.10 -10.46,14.20 -10.41,14.29 -10.39,14.39 -10.36,14.50 -10.38,14.60 -10.39,14.71 -10.44,14.80 -10.48,14.90 -10.56,14.97 -10.63,15.05 -10.73,15.10 -10.82,15.15 -10.67,15.04 -10.51,14.93 -10.56,14.98 -10.62,15.04 -10.69,15.08 -10.76,15.12 -10.83,15.14 -10.91,15.17 -10.99,15.17 -11.07,15.17 -11.14,15.16 -11.22,15.14 -11.29,15.11 -11.37,15.08 -11.43,15.03 -11.49,14.98 -11.54,14.92 -11.59,14.85 -11.62,14.78 -11.65,14.71 -11.66,14.63 -11.68,14.55 -11.67,14.47 -11.67,14.39 -11.64,14.32 -11.62,14.24 -11.58,14.18 -11.53,14.11 -11.55,11.96 -11.58,9.81 -10.31,8.24 -9.04,6.67 -7.54,4.96 -6.03,3.25 -4.90,2.08 -3.76,0.92 -2.84,0.37 -1.92,-0.18 -1.17,-0.41 -0.43,-0.64 -0.34,-0.69 -0.26,-0.73 -0.17,-0.75 -0.08,-0.77 0.01,-0.77 0.10,-0.77 0.19,-0.74 0.28,-0.72 0.37,-0.67 0.45,-0.63 0.52,-0.57 0.59,-0.50 0.64,-0.42 0.69,-0.35 0.72,-0.26 0.76,-0.17 0.77,-0.08 0.77,0.01 0.76,0.10 0.75,0.19 0.71,0.28 0.68,0.37 0.62,0.45 0.57,0.52 0.50,0.58 0.43,0.64 0.43,0.64 L 0.43,0.64 Z"/></g><g transform="translate(73.62478131077404 274.4789959970034) rotate(0 -3.6172101637373544 7.234387211027638)" stroke="none"><path fill="#1e1e1e" d="M 0.77,0.38 Q 0.77,0.38 0.57,1.32 0.38,2.27 -0.15,3.64 -0.68,5.01 -1.57,6.71 -2.46,8.41 -3.24,9.93 -4.02,11.44 -5.16,12.77 -6.30,14.09 -6.37,14.18 -6.43,14.26 -6.52,14.33 -6.60,14.39 -6.71,14.42 -6.81,14.45 -6.91,14.44 -7.02,14.44 -7.12,14.40 -7.22,14.36 -7.30,14.30 -7.38,14.23 -7.44,14.14 -7.49,14.05 -7.52,13.94 -7.54,13.84 -7.53,13.74 -7.52,13.63 -7.48,13.53 -7.44,13.44 -7.37,13.36 -7.29,13.28 -7.20,13.23 -7.11,13.18 -7.00,13.16 -6.90,13.14 -6.79,13.15 -6.69,13.17 -6.59,13.22 -6.50,13.27 -6.42,13.34 -6.35,13.42 -6.30,13.51 -6.26,13.61 -6.25,13.71 -6.23,13.82 -6.25,13.92 -6.27,14.03 -6.33,14.12 -6.38,14.21 -6.46,14.28 -6.54,14.35 -6.64,14.39 -6.74,14.43 -6.84,14.44 -6.95,14.45 -7.05,14.42 -7.15,14.40 -7.24,14.34 -7.33,14.28 -7.40,14.20 -7.46,14.11 -7.50,14.01 -7.53,13.91 -7.54,13.81 -7.54,13.70 -7.51,13.60 -7.47,13.50 -7.47,13.50 -7.47,13.50 -7.07,11.79 -6.66,10.08 -5.86,8.55 -5.06,7.01 -4.20,5.45 -3.34,3.88 -2.69,2.47 -2.04,1.05 -1.41,0.33 -0.77,-0.38 -0.71,-0.47 -0.65,-0.56 -0.58,-0.63 -0.50,-0.70 -0.41,-0.75 -0.32,-0.80 -0.22,-0.83 -0.12,-0.85 -0.01,-0.86 0.08,-0.86 0.18,-0.83 0.29,-0.81 0.38,-0.76 0.47,-0.72 0.55,-0.65 0.63,-0.58 0.69,-0.50 0.75,-0.41 0.79,-0.32 0.83,-0.22 0.85,-0.12 0.86,-0.01 0.85,0.08 0.84,0.19 0.81,0.28 0.77,0.38 0.77,0.38 L 0.77,0.38 Z"/></g></svg>