<svg version="1.1" xmlns="http://www.w3.org/2000/svg" viewBox="0 0 461.9436952142704 310.1603539033839" width="461.9436952142704" height="310.1603539033839" class="excalidraw-svg">
  <!-- svg-source:excalidraw -->
  
  <defs>
    <style class="style-fonts">
      
    </style>
    
  </defs>
  <rect x="0" y="0" width="461.9436952142704" height="310.1603539033839" fill="#ffffff"/><g stroke-linecap="round" transform="translate(98.6792872390356 33.48374947800798) rotate(0 40.33332824707031 13)"><path d="M0 0 C19.65 -1.32, 36.06 -2.02, 80.67 0 M0 0 C28.37 0, 58.73 0.7, 80.67 0 M80.67 0 C79.43 5.5, 82.77 15.08, 80.67 26 M80.67 0 C81.87 6.88, 80.63 11.42, 80.67 26 M80.67 26 C61.79 26.99, 41.7 28.27, 0 26 M80.67 26 C49.69 27.01, 19.89 25.87, 0 26 M0 26 C-1.04 18.7, 0.5 15.38, 0 0 M0 26 C-0.85 15.65, -1.17 5.48, 0 0" stroke="#1971c2" stroke-width="2" fill="none"/></g><g stroke-linecap="round" transform="translate(96.03363150829074 253.13360622925669) rotate(0 40.635874385793706 13.097514883455961)"><path d="M0 0 C20.37 1.98, 38.86 0.27, 81.27 0 M0 0 C20.98 0.24, 44.2 0.16, 81.27 0 M81.27 0 C80.48 10.7, 82.05 20.29, 81.27 26.2 M81.27 0 C81 8.42, 81.44 16, 81.27 26.2 M81.27 26.2 C55.9 25.69, 33.5 25.79, 0 26.2 M81.27 26.2 C53.59 27.2, 25.24 27.67, 0 26.2 M0 26.2 C0.98 18.87, 1.78 9.35, 0 0 M0 26.2 C0.13 16.78, -0.33 6.13, 0 0" stroke="#1971c2" stroke-width="2" fill="none"/></g><g stroke-linecap="round" transform="translate(103.98316898706548 62.146251384342776) rotate(0 37.01260041958409 69.75278218539285)"><path d="M0 0 C16.76 0.71, 32.75 1.57, 74.03 0 M0 0 C21.56 -0.86, 42.31 -1.05, 74.03 0 M74.03 0 C71.7 34.22, 72.89 66.47, 74.03 139.51 M74.03 0 C75.81 37.01, 74.36 76.22, 74.03 139.51 M74.03 139.51 C45.4 138.36, 20.96 141.93, 0 139.51 M74.03 139.51 C52.75 139, 33.46 138.89, 0 139.51 M0 139.51 C-1.36 95.5, -1.18 47.11, 0 0 M0 139.51 C0.8 95.91, -0.09 52.95, 0 0" stroke="#f08c00" stroke-width="2" fill="none"/></g><g stroke-linecap="round" transform="translate(197.33754358163162 33.487949649913844) rotate(0 42 14)"><path d="M0 0 C24.24 -2.49, 48.35 -0.4, 84 0 M0 0 C27.44 0.78, 52.59 1.46, 84 0 M84 0 C83.01 4.94, 83.58 14.27, 84 28 M84 0 C83.01 10.64, 83.02 21.45, 84 28 M84 28 C61.86 29.35, 42.57 27.39, 0 28 M84 28 C60.3 27.67, 38.89 28.09, 0 28 M0 28 C1.66 22.52, -0.81 18.6, 0 0 M0 28 C0.32 18.94, 0.22 10.66, 0 0" stroke="#1e1e1e" stroke-width="2" fill="none"/></g><g stroke-linecap="round" transform="translate(192.06938929864248 252.46619600256415) rotate(0 42.31504808501157 14.10501602833719)"><path d="M0 0 C17.79 0.35, 32.75 -0.58, 84.63 0 M0 0 C28.43 -0.88, 58.64 -0.28, 84.63 0 M84.63 0 C84.93 5.8, 85 13.73, 84.63 28.21 M84.63 0 C84.23 8.19, 83.94 16.76, 84.63 28.21 M84.63 28.21 C59.51 25.83, 36.6 28.74, 0 28.21 M84.63 28.21 C60.75 28.08, 37.92 28.36, 0 28.21 M0 28.21 C-0.03 19.94, -0.59 11.85, 0 0 M0 28.21 C0.51 18.69, 0.24 11.19, 0 0" stroke="#1e1e1e" stroke-width="2" fill="none"/></g><g stroke-linecap="round" transform="translate(197.6750568379523 63.46273355195672) rotate(0 41.833343505859375 70.74017423254784)"><path d="M0 0 C29.11 1.21, 55.8 0.34, 83.67 0 M0 0 C20.75 0.03, 40.96 0.77, 83.67 0 M83.67 0 C85.39 33.78, 85.48 68.4, 83.67 141.48 M83.67 0 C82.88 31.8, 83.49 63.86, 83.67 141.48 M83.67 141.48 C49.04 141.29, 15.79 139.73, 0 141.48 M83.67 141.48 C55.05 140.81, 27.25 140.2, 0 141.48 M0 141.48 C-0.27 106.79, -0.51 72.91, 0 0 M0 141.48 C0.17 96.61, 0.23 52.98, 0 0" stroke="#f08c00" stroke-width="2" fill="none"/></g><g stroke-linecap="round" transform="translate(178.49589070789335 77.5089199918651) rotate(0 8.756269884481043 52.40893081264139)"><path d="M0 0 C3.49 -0.14, 7.64 -0.65, 17.51 0 M0 0 C4.84 -0.02, 10.55 -0.44, 17.51 0 M17.51 0 C18.01 26.16, 17.73 51.36, 17.51 104.82 M17.51 0 C18.15 39.14, 17.3 78.77, 17.51 104.82 M17.51 104.82 C12.6 104.35, 9.57 104.46, 0 104.82 M17.51 104.82 C11.77 104.74, 7.01 104.44, 0 104.82 M0 104.82 C1.06 66.12, 0.54 28.46, 0 0 M0 104.82 C0 83.09, 0.09 62.3, 0 0" stroke="#f08c00" stroke-width="2" fill="none"/></g><g stroke-linecap="round"><g transform="translate(83.98319950464355 34.77923088222616) rotate(0 -0.0000152587890625 121.36063675351909)"><path d="M0 0 C-1.9 78.73, -1.29 156.09, 0 242.72 M0 0 C0.24 75.76, -0.12 151.77, 0 242.72" stroke="#1971c2" stroke-width="2" fill="none"/></g></g><mask/><g stroke-linecap="round"><g transform="translate(82.67085676218 33.63067734940401) rotate(0 12.01050038169788 0.051130872490091406)"><path d="M0 0 C10.48 0.23, 19.41 -0.1, 24.02 0.1 M0 0 C8.36 -0.55, 17.03 -0.19, 24.02 0.1" stroke="#1971c2" stroke-width="2" fill="none"/></g></g><mask/><g stroke-linecap="round"><g transform="translate(83.97899923660412 277.48371905656336) rotate(0 10.337543581631678 1.3249432581812073)"><path d="M0 0 C6.11 0.83, 13.35 1.52, 20.68 2.65 M0 0 C3.89 0.74, 8.54 1.52, 20.68 2.65" stroke="#1971c2" stroke-width="2" fill="none"/></g></g><mask/><g stroke-linecap="round"><g transform="translate(10 152.77926130367067) rotate(0 35.33332824707031 0)"><path d="M0 0 C17.24 -0.66, 36.99 -1.52, 70.67 0 M0 0 C24.93 0.54, 50.37 0.17, 70.67 0" stroke="#1971c2" stroke-width="2" fill="none"/></g></g><mask/><g transform="translate(197.55654892102893 34.51126654601518) rotate(0 10.930667366976763 -11.924397482495692)" stroke="none"><path fill="#1e1e1e" d="M -0.57,-0.38 Q -0.57,-0.38 -0.01,-1.65 0.55,-2.93 1.24,-3.99 1.94,-5.06 2.82,-6.29 3.70,-7.52 4.84,-9.00 5.98,-10.49 7.84,-12.33 9.71,-14.16 11.45,-15.70 13.19,-17.24 14.52,-18.28 15.85,-19.33 17.13,-20.50 18.41,-21.67 20.20,-22.67 21.99,-23.66 22.09,-23.69 22.19,-23.72 22.30,-23.71 22.41,-23.71 22.50,-23.67 22.60,-23.63 22.68,-23.56 22.77,-23.49 22.82,-23.40 22.88,-23.31 22.90,-23.21 22.92,-23.10 22.91,-23.00 22.90,-22.89 22.86,-22.79 22.81,-22.70 22.74,-22.62 22.67,-22.54 22.57,-22.49 22.48,-22.44 22.38,-22.42 22.27,-22.41 22.17,-22.42 22.06,-22.44 21.97,-22.49 21.87,-22.54 21.80,-22.62 21.73,-22.69 21.68,-22.79 21.64,-22.88 21.62,-22.99 21.61,-23.10 21.63,-23.20 21.66,-23.30 21.71,-23.39 21.76,-23.49 21.85,-23.56 21.93,-23.62 22.02,-23.66 22.12,-23.70 22.23,-23.71 22.34,-23.72 22.44,-23.69 22.54,-23.66 22.63,-23.60 22.72,-23.54 22.78,-23.46 22.85,-23.37 22.88,-23.27 22.92,-23.17 22.92,-23.07 22.92,-22.96 22.88,-22.86 22.85,-22.76 22.79,-22.67 22.72,-22.59 22.63,-22.53 22.55,-22.47 22.55,-22.47 22.55,-22.47 21.32,-21.15 20.09,-19.83 18.74,-18.60 17.38,-17.38 16.10,-16.38 14.82,-15.38 13.12,-13.89 11.42,-12.40 9.65,-10.71 7.89,-9.01 6.77,-7.56 5.64,-6.12 4.78,-4.92 3.92,-3.73 3.20,-2.68 2.49,-1.63 1.53,-0.62 0.57,0.38 0.52,0.44 0.46,0.50 0.39,0.55 0.33,0.60 0.25,0.63 0.17,0.66 0.09,0.67 0.01,0.68 -0.07,0.68 -0.15,0.67 -0.23,0.64 -0.31,0.61 -0.38,0.56 -0.44,0.52 -0.50,0.46 -0.56,0.40 -0.60,0.32 -0.64,0.25 -0.66,0.17 -0.68,0.09 -0.68,0.01 -0.68,-0.07 -0.66,-0.15 -0.64,-0.23 -0.61,-0.30 -0.57,-0.38 -0.57,-0.38 L -0.57,-0.38 Z"/></g><g transform="translate(209.48094640352463 29.873995804159478) rotate(0 13.91179706291166 -9.274533902383666)" stroke="none"><path fill="#1e1e1e" d="M 0.23,-0.71 Q 0.23,-0.71 0.79,-0.62 1.34,-0.53 2.06,-0.91 2.78,-1.28 3.56,-2.09 4.34,-2.89 5.26,-4.00 6.19,-5.10 7.38,-6.38 8.56,-7.66 10.02,-9.16 11.47,-10.66 13.11,-11.93 14.74,-13.20 16.75,-14.67 18.76,-16.15 20.41,-17.18 22.07,-18.22 24.87,-19.05 27.68,-19.89 27.78,-19.86 27.88,-19.83 27.97,-19.76 28.06,-19.70 28.12,-19.62 28.18,-19.53 28.21,-19.43 28.25,-19.33 28.24,-19.22 28.24,-19.12 28.21,-19.02 28.17,-18.92 28.10,-18.83 28.04,-18.75 27.95,-18.69 27.86,-18.63 27.76,-18.61 27.66,-18.58 27.55,-18.59 27.44,-18.60 27.35,-18.64 27.25,-18.68 27.17,-18.75 27.09,-18.82 27.03,-18.91 26.98,-19.00 26.96,-19.11 26.94,-19.21 26.95,-19.32 26.97,-19.42 27.01,-19.52 27.06,-19.61 27.13,-19.69 27.21,-19.76 27.30,-19.81 27.40,-19.86 27.50,-19.88 27.61,-19.89 27.71,-19.87 27.82,-19.85 27.91,-19.80 28.00,-19.75 28.07,-19.67 28.15,-19.59 28.19,-19.50 28.23,-19.40 28.24,-19.29 28.25,-19.19 28.23,-19.08 28.20,-18.98 28.15,-18.89 28.09,-18.80 28.01,-18.73 27.92,-18.67 27.83,-18.63 27.73,-18.59 27.62,-18.59 27.51,-18.58 27.51,-18.58 27.51,-18.58 25.51,-17.24 23.51,-15.91 21.93,-14.93 20.36,-13.96 18.37,-12.51 16.37,-11.06 14.87,-9.93 13.36,-8.80 11.91,-7.33 10.45,-5.87 9.26,-4.66 8.08,-3.45 7.01,-2.27 5.95,-1.09 4.73,-0.12 3.51,0.84 2.23,1.07 0.94,1.29 0.35,1.00 -0.23,0.71 -0.31,0.67 -0.40,0.63 -0.47,0.57 -0.54,0.52 -0.59,0.44 -0.65,0.37 -0.68,0.29 -0.72,0.20 -0.73,0.12 -0.75,0.03 -0.74,-0.05 -0.73,-0.15 -0.70,-0.23 -0.68,-0.32 -0.63,-0.39 -0.58,-0.47 -0.51,-0.53 -0.45,-0.60 -0.37,-0.64 -0.29,-0.69 -0.20,-0.71 -0.12,-0.74 -0.03,-0.74 0.06,-0.75 0.14,-0.73 0.23,-0.71 0.23,-0.71 L 0.23,-0.71 Z"/></g><g transform="translate(227.36754262726822 30.5364673851833) rotate(0 13.249310319232336 -9.605769692895592)" stroke="none"><path fill="#1e1e1e" d="M -0.19,-0.77 Q -0.19,-0.77 0.51,-1.11 1.23,-1.45 2.31,-2.27 3.39,-3.09 4.38,-4.15 5.38,-5.21 6.60,-6.47 7.82,-7.72 9.10,-9.01 10.39,-10.31 12.50,-12.05 14.62,-13.79 16.49,-15.11 18.36,-16.43 19.94,-17.39 21.52,-18.35 23.69,-19.00 25.86,-19.66 25.96,-19.68 26.06,-19.71 26.17,-19.69 26.28,-19.68 26.37,-19.64 26.47,-19.59 26.54,-19.52 26.62,-19.45 26.67,-19.35 26.72,-19.26 26.74,-19.15 26.75,-19.05 26.74,-18.94 26.72,-18.84 26.67,-18.74 26.62,-18.65 26.54,-18.58 26.46,-18.51 26.37,-18.46 26.27,-18.42 26.17,-18.41 26.06,-18.39 25.96,-18.42 25.85,-18.44 25.76,-18.50 25.67,-18.55 25.60,-18.63 25.53,-18.71 25.49,-18.81 25.46,-18.91 25.45,-19.02 25.44,-19.12 25.47,-19.23 25.50,-19.33 25.56,-19.42 25.62,-19.50 25.71,-19.57 25.79,-19.63 25.89,-19.67 25.99,-19.70 26.10,-19.70 26.21,-19.70 26.31,-19.66 26.41,-19.63 26.49,-19.56 26.58,-19.50 26.64,-19.41 26.69,-19.32 26.72,-19.22 26.75,-19.12 26.74,-19.01 26.74,-18.91 26.70,-18.81 26.66,-18.71 26.59,-18.63 26.52,-18.55 26.43,-18.49 26.34,-18.44 26.34,-18.44 26.34,-18.44 24.64,-17.22 22.94,-15.99 21.44,-15.09 19.93,-14.19 18.14,-12.94 16.35,-11.68 14.32,-10.04 12.30,-8.40 11.01,-7.12 9.71,-5.84 8.46,-4.61 7.21,-3.39 5.98,-2.21 4.76,-1.03 3.28,-0.17 1.81,0.69 1.00,0.73 0.19,0.77 0.09,0.79 0.00,0.80 -0.09,0.79 -0.18,0.78 -0.28,0.74 -0.37,0.71 -0.45,0.65 -0.53,0.60 -0.59,0.53 -0.65,0.45 -0.70,0.37 -0.75,0.28 -0.77,0.19 -0.79,0.09 -0.79,0.00 -0.79,-0.09 -0.77,-0.18 -0.75,-0.28 -0.70,-0.36 -0.66,-0.45 -0.59,-0.52 -0.53,-0.59 -0.45,-0.65 -0.37,-0.71 -0.28,-0.74 -0.19,-0.77 -0.19,-0.77 L -0.19,-0.77 Z"/></g><g transform="translate(251.2163375922596 30.5364673851833) rotate(0 12.586853900864014 -8.94330569319952)" stroke="none"><path fill="#1e1e1e" d="M -0.34,-0.68 Q -0.34,-0.68 0.31,-1.26 0.97,-1.84 1.91,-2.72 2.84,-3.60 4.02,-4.75 5.19,-5.91 6.68,-7.20 8.16,-8.50 10.33,-10.20 12.49,-11.91 14.13,-13.36 15.77,-14.81 17.27,-16.03 18.76,-17.25 21.99,-17.58 25.22,-17.91 25.31,-17.85 25.40,-17.80 25.47,-17.71 25.53,-17.63 25.57,-17.53 25.61,-17.43 25.61,-17.32 25.61,-17.22 25.58,-17.12 25.55,-17.01 25.48,-16.93 25.42,-16.84 25.34,-16.78 25.25,-16.72 25.15,-16.69 25.04,-16.66 24.94,-16.66 24.83,-16.67 24.73,-16.70 24.63,-16.74 24.55,-16.81 24.47,-16.87 24.41,-16.96 24.36,-17.05 24.33,-17.16 24.31,-17.26 24.31,-17.37 24.32,-17.47 24.37,-17.57 24.41,-17.67 24.48,-17.75 24.55,-17.82 24.64,-17.88 24.74,-17.93 24.84,-17.95 24.95,-17.97 25.05,-17.95 25.16,-17.94 25.25,-17.89 25.35,-17.84 25.42,-17.77 25.50,-17.69 25.54,-17.59 25.59,-17.50 25.60,-17.39 25.62,-17.29 25.60,-17.18 25.58,-17.08 25.52,-16.99 25.47,-16.90 25.39,-16.83 25.31,-16.75 25.21,-16.71 25.11,-16.67 25.01,-16.66 24.90,-16.66 24.80,-16.68 24.70,-16.71 24.70,-16.71 24.70,-16.71 22.64,-15.84 20.59,-14.97 19.14,-13.80 17.69,-12.62 15.98,-11.13 14.27,-9.63 12.13,-7.98 10.00,-6.34 8.54,-5.13 7.08,-3.92 5.81,-2.76 4.54,-1.61 3.30,-0.64 2.07,0.31 1.20,0.50 0.34,0.68 0.25,0.71 0.16,0.74 0.07,0.75 -0.01,0.76 -0.10,0.74 -0.19,0.73 -0.28,0.70 -0.36,0.66 -0.44,0.61 -0.51,0.56 -0.57,0.49 -0.63,0.42 -0.67,0.33 -0.71,0.25 -0.73,0.16 -0.75,0.07 -0.75,-0.01 -0.75,-0.10 -0.73,-0.19 -0.70,-0.28 -0.66,-0.36 -0.61,-0.44 -0.55,-0.51 -0.49,-0.58 -0.41,-0.63 -0.34,-0.68 -0.34,-0.68 L -0.34,-0.68 Z"/></g><g transform="translate(274.40264581357167 31.198923803551622) rotate(0 8.280841693503419 -6.6246627409439185)" stroke="none"><path fill="#1e1e1e" d="M -0.57,-0.68 Q -0.57,-0.68 0.39,-1.84 1.36,-3.00 2.79,-4.20 4.22,-5.39 5.60,-6.48 6.98,-7.56 8.09,-8.55 9.21,-9.55 10.44,-10.73 11.67,-11.91 13.87,-12.54 16.07,-13.16 16.18,-13.16 16.29,-13.16 16.39,-13.13 16.49,-13.10 16.57,-13.04 16.66,-12.98 16.72,-12.89 16.78,-12.80 16.81,-12.70 16.84,-12.60 16.84,-12.49 16.84,-12.39 16.80,-12.29 16.76,-12.19 16.70,-12.11 16.63,-12.02 16.54,-11.97 16.45,-11.91 16.35,-11.88 16.24,-11.86 16.14,-11.87 16.03,-11.88 15.93,-11.92 15.84,-11.96 15.76,-12.04 15.68,-12.11 15.63,-12.20 15.58,-12.29 15.56,-12.40 15.54,-12.50 15.55,-12.61 15.57,-12.71 15.61,-12.81 15.66,-12.90 15.74,-12.98 15.81,-13.05 15.91,-13.10 16.01,-13.14 16.11,-13.16 16.22,-13.17 16.32,-13.15 16.42,-13.13 16.52,-13.08 16.61,-13.02 16.68,-12.94 16.75,-12.86 16.79,-12.77 16.83,-12.67 16.84,-12.56 16.85,-12.46 16.82,-12.35 16.79,-12.25 16.74,-12.16 16.68,-12.07 16.60,-12.01 16.51,-11.94 16.41,-11.90 16.31,-11.87 16.31,-11.87 16.31,-11.87 15.04,-10.79 13.77,-9.71 12.49,-8.50 11.22,-7.28 10.02,-6.23 8.83,-5.18 7.46,-4.12 6.10,-3.07 4.65,-1.93 3.20,-0.80 1.88,-0.05 0.57,0.68 0.48,0.74 0.39,0.80 0.28,0.83 0.18,0.87 0.08,0.88 -0.02,0.89 -0.13,0.87 -0.24,0.86 -0.34,0.82 -0.43,0.77 -0.52,0.71 -0.61,0.65 -0.68,0.56 -0.75,0.48 -0.79,0.38 -0.84,0.29 -0.86,0.18 -0.89,0.08 -0.88,-0.02 -0.88,-0.13 -0.85,-0.23 -0.82,-0.34 -0.77,-0.43 -0.72,-0.53 -0.64,-0.60 -0.57,-0.68 -0.57,-0.68 L -0.57,-0.68 Z"/></g><g transform="translate(196.31574912791567 281.47213157720853) rotate(0 -4.004584152425508 7.341803810482148)" stroke="none"><path fill="#1e1e1e" d="M 0.71,0.28 Q 0.71,0.28 0.55,1.33 0.40,2.39 -0.15,3.45 -0.72,4.52 -1.58,5.61 -2.44,6.70 -3.09,7.98 -3.74,9.26 -4.65,10.67 -5.56,12.08 -6.74,13.65 -7.91,15.21 -7.97,15.31 -8.02,15.40 -8.10,15.46 -8.18,15.53 -8.28,15.57 -8.38,15.61 -8.49,15.62 -8.59,15.62 -8.70,15.59 -8.80,15.56 -8.89,15.50 -8.97,15.44 -9.04,15.36 -9.10,15.27 -9.13,15.17 -9.17,15.07 -9.17,14.97 -9.17,14.86 -9.13,14.76 -9.10,14.66 -9.03,14.58 -8.97,14.49 -8.88,14.43 -8.79,14.37 -8.69,14.34 -8.59,14.32 -8.48,14.32 -8.38,14.33 -8.28,14.37 -8.18,14.41 -8.10,14.48 -8.02,14.55 -7.96,14.64 -7.91,14.73 -7.89,14.83 -7.86,14.94 -7.88,15.04 -7.89,15.15 -7.93,15.24 -7.98,15.34 -8.05,15.42 -8.12,15.49 -8.22,15.54 -8.31,15.59 -8.42,15.61 -8.52,15.63 -8.63,15.61 -8.73,15.59 -8.83,15.54 -8.92,15.49 -8.99,15.41 -9.06,15.34 -9.11,15.24 -9.15,15.14 -9.16,15.04 -9.18,14.93 -9.15,14.83 -9.13,14.72 -9.13,14.72 -9.13,14.72 -8.48,12.66 -7.83,10.60 -6.97,9.30 -6.12,8.00 -5.31,6.52 -4.51,5.03 -3.75,4.14 -3.00,3.24 -2.47,2.34 -1.94,1.44 -1.32,0.58 -0.71,-0.28 -0.66,-0.36 -0.62,-0.44 -0.55,-0.51 -0.49,-0.58 -0.42,-0.63 -0.34,-0.68 -0.25,-0.71 -0.16,-0.74 -0.07,-0.75 0.01,-0.76 0.10,-0.75 0.19,-0.73 0.28,-0.70 0.36,-0.67 0.44,-0.61 0.51,-0.56 0.57,-0.49 0.63,-0.42 0.67,-0.34 0.72,-0.25 0.74,-0.16 0.76,-0.07 0.75,0.01 0.75,0.10 0.73,0.19 0.71,0.28 0.71,0.28 L 0.71,0.28 Z"/></g><g transform="translate(211.66681290160557 283.474438929814) rotate(0 -5.339496457876621 7.008075734119398)" stroke="none"><path fill="#1e1e1e" d="M 0.54,0.54 Q 0.54,0.54 -0.08,1.45 -0.70,2.36 -1.39,3.09 -2.08,3.82 -2.95,4.70 -3.82,5.59 -4.58,6.35 -5.33,7.10 -5.99,7.95 -6.64,8.79 -7.30,9.72 -7.97,10.66 -8.45,12.06 -8.92,13.46 -8.88,13.56 -8.83,13.66 -8.81,13.76 -8.80,13.87 -8.82,13.97 -8.84,14.07 -8.89,14.17 -8.94,14.26 -9.02,14.33 -9.10,14.40 -9.20,14.44 -9.30,14.49 -9.40,14.49 -9.51,14.50 -9.61,14.48 -9.72,14.45 -9.80,14.39 -9.89,14.34 -9.96,14.25 -10.03,14.17 -10.06,14.07 -10.10,13.97 -10.10,13.87 -10.11,13.76 -10.08,13.66 -10.04,13.56 -9.98,13.47 -9.92,13.38 -9.83,13.32 -9.75,13.26 -9.65,13.23 -9.55,13.20 -9.44,13.20 -9.33,13.20 -9.23,13.24 -9.13,13.28 -9.05,13.34 -8.97,13.41 -8.91,13.50 -8.85,13.59 -8.83,13.69 -8.80,13.79 -8.81,13.90 -8.82,14.01 -8.86,14.10 -8.90,14.20 -8.97,14.28 -9.04,14.36 -9.14,14.41 -9.23,14.46 -9.33,14.48 -9.44,14.50 -9.54,14.49 -9.65,14.48 -9.74,14.43 -9.84,14.38 -9.91,14.31 -9.99,14.23 -9.99,14.23 -9.99,14.23 -10.01,11.71 -10.02,9.20 -9.32,8.22 -8.62,7.24 -7.86,6.28 -7.11,5.33 -6.35,4.58 -5.59,3.82 -4.70,2.95 -3.82,2.08 -3.09,1.39 -2.36,0.70 -1.45,0.08 -0.54,-0.54 -0.46,-0.59 -0.39,-0.65 -0.31,-0.69 -0.22,-0.73 -0.13,-0.74 -0.04,-0.76 0.04,-0.76 0.13,-0.75 0.22,-0.72 0.31,-0.69 0.39,-0.65 0.47,-0.60 0.53,-0.53 0.60,-0.47 0.65,-0.39 0.69,-0.31 0.72,-0.22 0.75,-0.13 0.76,-0.04 0.76,0.04 0.74,0.13 0.73,0.22 0.69,0.31 0.65,0.39 0.59,0.46 0.54,0.54 0.54,0.54 L 0.54,0.54 Z"/></g><g transform="translate(233.02473762754096 281.47213157720853) rotate(0 -6.340650134179398 9.344111163087682)" stroke="none"><path fill="#1e1e1e" d="M 0.63,0.39 Q 0.63,0.39 -0.13,2.05 -0.90,3.71 -1.94,4.85 -2.98,5.99 -3.97,7.03 -4.96,8.06 -6.66,10.20 -8.36,12.33 -9.25,13.76 -10.14,15.19 -11.04,16.83 -11.94,18.46 -11.98,18.56 -12.02,18.66 -12.10,18.73 -12.17,18.81 -12.26,18.86 -12.36,18.91 -12.46,18.93 -12.57,18.95 -12.67,18.93 -12.78,18.91 -12.87,18.86 -12.96,18.82 -13.04,18.74 -13.11,18.66 -13.16,18.57 -13.20,18.47 -13.21,18.36 -13.23,18.26 -13.20,18.15 -13.18,18.05 -13.13,17.96 -13.07,17.87 -12.99,17.80 -12.91,17.73 -12.81,17.69 -12.71,17.65 -12.61,17.64 -12.50,17.64 -12.40,17.67 -12.30,17.69 -12.21,17.75 -12.12,17.81 -12.06,17.90 -11.99,17.98 -11.96,18.08 -11.92,18.18 -11.92,18.29 -11.92,18.39 -11.95,18.49 -11.99,18.60 -12.05,18.68 -12.12,18.77 -12.20,18.83 -12.29,18.89 -12.39,18.91 -12.50,18.94 -12.60,18.94 -12.71,18.93 -12.81,18.89 -12.91,18.85 -12.99,18.79 -13.07,18.72 -13.12,18.63 -13.18,18.54 -13.20,18.43 -13.22,18.33 -13.21,18.22 -13.20,18.12 -13.20,18.12 -13.20,18.12 -12.82,15.94 -12.43,13.76 -11.43,12.20 -10.43,10.64 -8.61,8.46 -6.78,6.28 -5.78,5.28 -4.78,4.28 -3.86,3.35 -2.93,2.43 -1.78,1.01 -0.63,-0.39 -0.57,-0.46 -0.51,-0.53 -0.44,-0.58 -0.37,-0.64 -0.29,-0.67 -0.21,-0.71 -0.12,-0.72 -0.03,-0.74 0.05,-0.73 0.14,-0.72 0.23,-0.70 0.31,-0.67 0.39,-0.62 0.46,-0.57 0.52,-0.51 0.59,-0.44 0.63,-0.37 0.68,-0.29 0.70,-0.20 0.73,-0.12 0.73,-0.03 0.74,0.05 0.72,0.14 0.70,0.23 0.66,0.31 0.63,0.39 0.63,0.39 L 0.63,0.39 Z"/></g><g transform="translate(250.37804764826532 281.47213157720853) rotate(0 -6.674347657756623 9.344111163087682)" stroke="none"><path fill="#1e1e1e" d="M 0.63,0.38 Q 0.63,0.38 0.27,1.47 -0.08,2.56 -0.93,3.64 -1.78,4.72 -2.52,5.56 -3.25,6.40 -4.15,7.33 -5.04,8.27 -5.99,9.24 -6.94,10.22 -7.85,11.51 -8.76,12.80 -10.18,15.24 -11.60,17.69 -11.66,17.75 -11.71,17.81 -11.78,17.85 -11.84,17.90 -11.92,17.93 -11.99,17.95 -12.07,17.96 -12.15,17.97 -12.23,17.96 -12.31,17.95 -12.38,17.92 -12.45,17.89 -12.52,17.84 -12.58,17.80 -12.63,17.74 -12.68,17.68 -12.72,17.60 -12.76,17.53 -12.77,17.46 -12.79,17.38 -12.79,17.30 -12.79,17.22 -12.77,17.15 -12.75,17.07 -12.71,17.00 -12.67,16.93 -12.22,16.85 -11.77,16.77 -11.69,16.84 -11.61,16.92 -11.56,17.01 -11.51,17.11 -11.50,17.21 -11.48,17.31 -11.50,17.42 -11.52,17.52 -11.57,17.62 -11.62,17.71 -11.69,17.78 -11.77,17.86 -11.87,17.90 -11.96,17.95 -12.07,17.96 -12.18,17.97 -12.28,17.94 -12.38,17.92 -12.47,17.87 -12.56,17.81 -12.63,17.73 -12.70,17.65 -12.74,17.55 -12.78,17.45 -12.78,17.34 -12.79,17.24 -12.76,17.14 -12.73,17.03 -12.67,16.95 -12.61,16.86 -12.53,16.79 -12.44,16.73 -12.34,16.70 -12.24,16.66 -12.13,16.66 -12.03,16.66 -11.93,16.70 -11.83,16.73 -11.74,16.80 -11.66,16.86 -11.60,16.95 -11.54,17.04 -11.51,17.14 -11.48,17.24 -11.49,17.35 -11.50,17.46 -11.54,17.55 -11.58,17.65 -11.65,17.73 -11.71,17.81 -11.81,17.87 -11.90,17.92 -12.00,17.95 -12.10,17.97 -12.21,17.96 -12.32,17.94 -11.96,17.82 -11.60,17.69 -11.66,17.75 -11.71,17.81 -11.78,17.85 -11.84,17.90 -11.92,17.93 -11.99,17.95 -12.07,17.96 -12.15,17.97 -12.23,17.96 -12.31,17.95 -12.38,17.92 -12.45,17.89 -12.52,17.84 -12.58,17.80 -12.63,17.74 -12.68,17.68 -12.72,17.61 -12.76,17.53 -12.77,17.46 -12.79,17.38 -12.79,17.30 -12.79,17.22 -12.77,17.15 -12.75,17.07 -12.71,17.00 -12.67,16.93 -11.85,14.05 -11.02,11.18 -9.97,9.73 -8.92,8.28 -7.96,7.32 -7.01,6.36 -6.13,5.47 -5.25,4.57 -4.52,3.81 -3.79,3.04 -3.00,2.16 -2.21,1.27 -1.42,0.44 -0.63,-0.38 -0.58,-0.45 -0.52,-0.52 -0.45,-0.57 -0.38,-0.63 -0.30,-0.67 -0.22,-0.70 -0.13,-0.72 -0.04,-0.74 0.04,-0.73 0.13,-0.73 0.21,-0.70 0.30,-0.67 0.37,-0.63 0.45,-0.58 0.52,-0.52 0.58,-0.46 0.63,-0.38 0.67,-0.30 0.70,-0.22 0.73,-0.13 0.73,-0.04 0.74,0.04 0.72,0.13 0.71,0.21 0.67,0.30 0.63,0.38 0.63,0.38 L 0.63,0.38 Z"/></g><g transform="translate(269.0662699744407 280.80470597726855) rotate(0 -5.339496457876619 6.6743629341493715)" stroke="none"><path fill="#1e1e1e" d="M 0.62,0.62 Q 0.62,0.62 -0.52,2.16 -1.68,3.69 -2.81,4.84 -3.95,6.00 -5.01,7.07 -6.07,8.13 -7.05,9.30 -8.03,10.48 -8.98,11.83 -9.93,13.18 -9.98,13.28 -10.03,13.37 -10.11,13.45 -10.18,13.52 -10.28,13.57 -10.37,13.61 -10.48,13.63 -10.58,13.64 -10.69,13.62 -10.79,13.60 -10.88,13.54 -10.98,13.49 -11.05,13.41 -11.12,13.33 -11.16,13.23 -11.20,13.13 -11.20,13.03 -11.21,12.92 -11.18,12.82 -11.16,12.71 -11.10,12.63 -11.04,12.54 -10.96,12.47 -10.87,12.41 -10.77,12.37 -10.67,12.34 -10.57,12.33 -10.46,12.33 -10.36,12.37 -10.26,12.40 -10.17,12.46 -10.09,12.52 -10.03,12.61 -9.96,12.70 -9.94,12.80 -9.91,12.90 -9.91,13.01 -9.91,13.12 -9.95,13.21 -9.99,13.31 -10.06,13.40 -10.13,13.48 -10.22,13.53 -10.31,13.59 -10.41,13.61 -10.51,13.64 -10.62,13.63 -10.73,13.62 -10.82,13.57 -10.92,13.53 -11.00,13.46 -11.08,13.39 -11.13,13.29 -11.18,13.20 -11.20,13.10 -11.21,12.99 -11.20,12.89 -11.18,12.78 -11.18,12.78 -11.18,12.78 -10.73,10.69 -10.28,8.60 -9.21,7.33 -8.13,6.07 -7.07,5.01 -6.00,3.95 -4.84,2.81 -3.69,1.68 -2.16,0.52 -0.62,-0.62 -0.54,-0.69 -0.45,-0.75 -0.36,-0.80 -0.26,-0.84 -0.15,-0.86 -0.05,-0.88 0.05,-0.87 0.16,-0.87 0.26,-0.84 0.36,-0.80 0.45,-0.75 0.54,-0.69 0.62,-0.62 0.69,-0.54 0.75,-0.45 0.80,-0.36 0.84,-0.26 0.87,-0.15 0.87,-0.05 0.88,0.05 0.86,0.15 0.84,0.26 0.80,0.36 0.75,0.45 0.69,0.54 0.62,0.62 0.62,0.62 L 0.62,0.62 Z"/></g><g transform="translate(280.41265793734834 281.47213157720853) rotate(0 -5.339465905091066 9.344111163087682)" stroke="none"><path fill="#1e1e1e" d="M 0.56,0.56 Q 0.56,0.56 0.14,1.28 -0.27,2.01 -0.57,2.70 -0.87,3.40 -1.43,4.37 -2.00,5.35 -2.61,6.35 -3.22,7.34 -3.83,8.49 -4.44,9.63 -5.36,10.81 -6.27,11.98 -6.94,13.29 -7.61,14.60 -8.76,16.47 -9.90,18.35 -9.95,18.45 -9.99,18.54 -10.06,18.62 -10.14,18.70 -10.23,18.75 -10.32,18.80 -10.43,18.82 -10.53,18.84 -10.64,18.82 -10.74,18.80 -10.84,18.75 -10.93,18.70 -11.01,18.63 -11.08,18.55 -11.12,18.46 -11.17,18.36 -11.18,18.25 -11.19,18.15 -11.17,18.04 -11.15,17.94 -11.10,17.85 -11.04,17.76 -10.96,17.69 -10.88,17.62 -10.78,17.58 -10.68,17.54 -10.58,17.53 -10.47,17.53 -10.37,17.55 -10.27,17.58 -10.18,17.64 -10.09,17.70 -10.03,17.78 -9.96,17.87 -9.93,17.97 -9.89,18.07 -9.89,18.17 -9.89,18.28 -9.92,18.38 -9.96,18.48 -10.02,18.57 -10.08,18.65 -10.17,18.71 -10.26,18.77 -10.36,18.80 -10.46,18.83 -10.57,18.83 -10.67,18.82 -10.77,18.78 -10.87,18.74 -10.95,18.68 -11.04,18.61 -11.09,18.52 -11.15,18.43 -11.17,18.32 -11.19,18.22 -11.18,18.11 -11.17,18.01 -11.17,18.01 -11.17,18.01 -10.68,15.62 -10.20,13.24 -9.38,11.71 -8.56,10.18 -7.77,9.21 -6.97,8.23 -6.29,7.02 -5.60,5.80 -4.96,4.86 -4.32,3.92 -3.74,3.05 -3.16,2.18 -2.60,1.23 -2.03,0.29 -1.30,-0.13 -0.56,-0.56 -0.49,-0.62 -0.41,-0.68 -0.32,-0.72 -0.23,-0.76 -0.14,-0.78 -0.04,-0.80 0.04,-0.79 0.14,-0.79 0.23,-0.76 0.33,-0.73 0.41,-0.68 0.49,-0.63 0.56,-0.56 0.63,-0.49 0.68,-0.41 0.73,-0.33 0.76,-0.23 0.79,-0.14 0.79,-0.04 0.80,0.04 0.78,0.14 0.76,0.23 0.72,0.32 0.68,0.41 0.62,0.49 0.56,0.56 0.56,0.56 L 0.56,0.56 Z"/></g><g stroke-linecap="round"><g transform="translate(281.6898180421781 125.05926141545015) rotate(0 28.15480717235193 -0.000024621720555728643)"><path d="M0 0 C15.25 0.12, 30.17 -1.83, 56.31 0 M0 0 C16.09 1.29, 31.71 1.03, 56.31 0" stroke="#f08c00" stroke-width="2" fill="none"/></g></g><mask/><g stroke-linecap="round"><g transform="translate(332.46803439988133 155.99422451578508) rotate(0 59.737830407194544 -0.00001527639278009474)"><path d="M0 0 C27.85 -1.29, 59.18 -0.01, 119.48 0 M0 0 C48.2 1.58, 94.16 0.72, 119.48 0" stroke="#2f9e44" stroke-width="2" fill="none"/></g></g><mask/><g stroke-linecap="round"><g transform="translate(319.79140994230477 140.1409144950607) rotate(0 13.3487258682988 0.33374335275552625)"><path d="M0 0 C6.68 0.6, 12.93 0.46, 26.7 0.67 M0 0 C6.44 0.25, 13.25 0.36, 26.7 0.67" stroke="#2f9e44" stroke-width="2" fill="none"/></g></g><mask/><g stroke-linecap="round"><g transform="translate(317.7057461379153 114.19221454996566) rotate(0 14.392896433535611 0.24371495286345635)"><path d="M0 0 C7.36 -0.09, 14.73 0.18, 28.79 0.49 M0 0 C10.08 0.7, 19.46 0.26, 28.79 0.49" stroke="#2f9e44" stroke-width="2" fill="none"/></g></g><mask/><g stroke-linecap="round" transform="translate(327.07509555500815 128.08145775596657) rotate(0 5.962229066558791 5.299742322879524)"><path d="M6.68 0.52 C7.84 0.56, 9.42 0.63, 10.27 1.44 C11.11 2.26, 11.64 4.25, 11.74 5.39 C11.83 6.53, 11.6 7.46, 10.83 8.3 C10.06 9.13, 8.43 10.13, 7.12 10.4 C5.81 10.68, 4.07 10.5, 2.96 9.95 C1.85 9.4, 0.97 8.14, 0.47 7.1 C-0.03 6.06, -0.48 4.85, -0.05 3.71 C0.38 2.58, 1.85 0.88, 3.04 0.29 C4.24 -0.3, 6.51 0.11, 7.14 0.15 C7.77 0.18, 6.88 0.49, 6.82 0.51 M7 0.25 C8.3 0.4, 9.84 0.85, 10.54 1.62 C11.25 2.4, 11.35 3.8, 11.24 4.93 C11.13 6.06, 10.55 7.58, 9.87 8.4 C9.19 9.22, 8.36 9.7, 7.15 9.86 C5.95 10.02, 3.85 9.71, 2.66 9.36 C1.47 9.02, 0.34 8.67, 0.03 7.78 C-0.27 6.89, 0.44 5.3, 0.85 4.03 C1.26 2.77, 1.57 0.94, 2.49 0.18 C3.4 -0.57, 5.55 -0.35, 6.34 -0.47 C7.13 -0.59, 7.23 -0.58, 7.25 -0.52" stroke="#1e1e1e" stroke-width="2" fill="none"/></g><g stroke-linecap="round" transform="translate(327.4631924415311 114.73261730300868) rotate(0 5.630955369408241 4.637270741855701)"><path d="M4.28 0.32 C5.48 0.11, 7.68 -0.29, 8.83 0.2 C9.98 0.7, 10.75 2.3, 11.17 3.28 C11.58 4.27, 11.79 5.27, 11.33 6.1 C10.87 6.93, 9.5 7.76, 8.4 8.27 C7.3 8.78, 5.93 9.22, 4.74 9.17 C3.55 9.12, 2.08 8.71, 1.24 7.96 C0.41 7.22, -0.22 5.79, -0.25 4.71 C-0.27 3.63, 0.18 2.33, 1.1 1.5 C2.02 0.67, 4.6 0.05, 5.27 -0.24 C5.93 -0.54, 5.11 -0.44, 5.1 -0.27 M4.81 0.16 C6 -0.01, 7.32 0.49, 8.3 0.83 C9.29 1.17, 10.26 1.43, 10.73 2.19 C11.2 2.96, 11.49 4.38, 11.11 5.43 C10.74 6.47, 9.39 7.94, 8.46 8.46 C7.53 8.99, 6.81 8.8, 5.54 8.57 C4.26 8.34, 1.67 7.61, 0.8 7.08 C-0.08 6.55, 0.11 6.36, 0.3 5.39 C0.49 4.42, 1.19 2.06, 1.95 1.28 C2.71 0.5, 4.46 0.94, 4.88 0.7 C5.3 0.46, 4.46 -0.24, 4.47 -0.16" stroke="#1e1e1e" stroke-width="2" fill="none"/></g><g stroke-linecap="round"><g transform="translate(332.2964289327934 155.32679891584502) rotate(0 -0.2494789638467374 -7.840665410572143)"><path d="M0 0 C-0.32 -5.42, -0.63 -8.71, -0.5 -15.68 M0 0 C-0.3 -5.31, -0.51 -10.57, -0.5 -15.68" stroke="#2f9e44" stroke-width="2" fill="none"/></g></g><mask/><g transform="translate(14.15871360541297 138.51850114601288) rotate(0 4.637270741855701 -2.3186277896001144)" stroke="none"><path fill="#1971c2" d="M -0.37,0.74 Q -0.37,0.74 -1.27,0.59 -2.17,0.43 -2.30,0.32 -2.43,0.20 -2.57,0.10 -2.72,0.01 -2.84,-0.11 -2.95,-0.24 -3.04,-0.39 -3.12,-0.54 -3.17,-0.71 -3.21,-0.88 -3.21,-1.05 -3.22,-1.23 -3.18,-1.40 -3.14,-1.56 -3.06,-1.72 -2.99,-1.87 -2.87,-2.01 -2.76,-2.14 -2.62,-2.24 -2.48,-2.34 -2.32,-2.41 -2.16,-2.47 -1.99,-2.50 -1.81,-2.52 -1.64,-2.50 -1.47,-2.48 -1.30,-2.43 -1.14,-2.37 -1.68,-2.48 -2.22,-2.58 -1.40,-3.00 -0.57,-3.42 0.28,-3.95 1.15,-4.47 1.95,-4.92 2.74,-5.36 3.72,-5.77 4.69,-6.18 5.16,-6.47 5.63,-6.77 6.15,-7.23 6.68,-7.69 7.30,-8.27 7.91,-8.85 8.37,-9.29 8.83,-9.73 9.22,-10.12 9.62,-10.50 10.63,-10.75 11.64,-11.00 12.21,-10.75 12.78,-10.51 13.06,-9.90 13.34,-9.30 13.19,-8.12 13.03,-6.95 12.98,-6.27 12.92,-5.59 12.89,-4.93 12.86,-4.26 12.63,-3.40 12.39,-2.54 12.11,-1.66 11.83,-0.79 11.74,-0.16 11.65,0.46 11.36,1.70 11.06,2.95 10.09,4.34 9.13,5.72 9.03,5.77 8.94,5.82 8.83,5.84 8.73,5.86 8.62,5.84 8.52,5.82 8.43,5.77 8.33,5.72 8.26,5.65 8.19,5.57 8.14,5.47 8.10,5.38 8.09,5.27 8.08,5.16 8.10,5.06 8.12,4.96 8.18,4.87 8.23,4.77 8.31,4.71 8.39,4.64 8.49,4.60 8.59,4.56 8.70,4.55 8.80,4.55 8.91,4.58 9.01,4.61 9.10,4.67 9.18,4.73 9.25,4.81 9.31,4.89 9.35,5.00 9.38,5.10 9.38,5.20 9.38,5.31 9.34,5.41 9.31,5.51 9.25,5.59 9.18,5.68 9.09,5.74 9.01,5.80 8.90,5.83 8.80,5.85 8.69,5.85 8.59,5.84 8.49,5.80 8.39,5.76 8.31,5.69 8.23,5.62 8.18,5.53 8.12,5.44 8.10,5.34 8.08,5.23 8.09,5.13 8.10,5.02 8.14,4.93 8.19,4.83 8.26,4.75 8.33,4.68 8.33,4.68 8.33,4.68 8.39,2.87 8.45,1.07 8.50,0.52 8.56,-0.02 8.70,-0.88 8.85,-1.74 9.29,-3.08 9.74,-4.42 9.77,-5.15 9.80,-5.88 9.88,-6.70 9.96,-7.52 10.29,-7.96 10.61,-8.39 11.18,-8.31 11.75,-8.24 11.37,-7.86 10.99,-7.48 10.51,-7.03 10.04,-6.58 9.37,-5.94 8.69,-5.31 7.97,-4.71 7.25,-4.12 6.57,-3.71 5.89,-3.31 5.06,-2.98 4.24,-2.65 3.49,-2.24 2.75,-1.83 1.77,-1.24 0.80,-0.66 -0.00,-0.26 -0.81,0.14 -1.62,0.17 -2.43,0.20 -2.57,0.10 -2.72,0.01 -2.84,-0.11 -2.95,-0.24 -3.04,-0.39 -3.12,-0.54 -3.17,-0.71 -3.21,-0.88 -3.21,-1.05 -3.22,-1.23 -3.18,-1.40 -3.14,-1.56 -3.06,-1.72 -2.99,-1.87 -2.87,-2.01 -2.76,-2.14 -2.62,-2.24 -2.48,-2.34 -2.32,-2.41 -2.16,-2.47 -1.99,-2.50 -1.81,-2.52 -1.64,-2.50 -1.47,-2.48 -1.31,-2.43 -1.14,-2.37 -1.00,-2.16 -0.86,-1.96 -0.24,-1.35 0.37,-0.74 0.45,-0.69 0.54,-0.63 0.61,-0.56 0.67,-0.48 0.72,-0.40 0.77,-0.31 0.80,-0.21 0.82,-0.11 0.82,-0.01 0.83,0.08 0.80,0.18 0.78,0.28 0.74,0.37 0.69,0.46 0.63,0.53 0.56,0.61 0.48,0.67 0.40,0.73 0.30,0.77 0.21,0.80 0.11,0.82 0.01,0.83 -0.08,0.82 -0.18,0.81 -0.27,0.78 -0.37,0.74 -0.37,0.74 L -0.37,0.74 Z"/></g><g transform="translate(445.26931700372813 131.96653628451858) rotate(0 -5.005768381513846 7.6755013340593905)" stroke="none"><path fill="#2f9e44" d="M 0,0.79 Q 0,0.79 -0.95,1.01 -1.91,1.24 -2.77,1.44 -3.63,1.64 -4.59,2.30 -5.55,2.96 -6.07,3.79 -6.59,4.63 -6.81,5.14 -7.04,5.66 -6.98,6.24 -6.92,6.82 -6.26,7.37 -5.61,7.91 -4.69,8.52 -3.78,9.14 -3.35,9.54 -2.92,9.94 -2.59,10.79 -2.27,11.65 -2.40,12.38 -2.52,13.12 -2.83,14.22 -3.14,15.32 -3.55,15.84 -3.96,16.36 -4.77,16.72 -5.58,17.08 -6.65,16.97 -7.73,16.87 -8.62,15.47 -9.51,14.08 -9.59,14.06 -9.67,14.03 -9.74,13.99 -9.80,13.96 -9.86,13.90 -9.92,13.85 -9.96,13.78 -10.00,13.71 -10.03,13.64 -10.06,13.56 -10.06,13.48 -10.07,13.41 -10.06,13.33 -10.04,13.25 -10.01,13.18 -9.98,13.10 -9.94,13.04 -9.89,12.98 -9.83,12.93 -9.77,12.88 -9.69,12.84 -9.62,12.81 -9.55,12.79 -9.47,12.77 -9.39,12.78 -9.31,12.78 -9.53,12.82 -9.75,12.86 -9.65,12.82 -9.55,12.79 -9.44,12.78 -9.34,12.78 -9.23,12.81 -9.13,12.84 -9.04,12.90 -8.96,12.96 -8.89,13.04 -8.83,13.13 -8.80,13.23 -8.76,13.33 -8.76,13.43 -8.77,13.54 -8.80,13.64 -8.84,13.74 -8.90,13.83 -8.97,13.91 -9.05,13.97 -9.14,14.03 -9.24,14.05 -9.35,14.08 -9.45,14.08 -9.56,14.07 -9.66,14.03 -9.76,13.99 -9.84,13.92 -9.92,13.85 -9.97,13.76 -10.02,13.67 -10.05,13.56 -10.07,13.46 -10.06,13.35 -10.04,13.25 -10.00,13.15 -9.95,13.06 -9.88,12.98 -9.81,12.90 -9.71,12.85 -9.62,12.80 -9.51,12.79 -9.41,12.77 -9.30,12.79 -9.20,12.81 -9.10,12.86 -9.01,12.91 -8.94,12.99 -8.87,13.06 -8.82,13.16 -8.78,13.26 -8.77,13.36 -8.76,13.47 -8.78,13.57 -8.80,13.68 -8.86,13.77 -8.92,13.86 -9.22,13.97 -9.51,14.08 -9.59,14.06 -9.67,14.03 -9.74,13.99 -9.80,13.96 -9.86,13.90 -9.92,13.85 -9.96,13.78 -10.00,13.71 -10.03,13.64 -10.06,13.56 -10.06,13.48 -10.07,13.41 -10.06,13.33 -10.04,13.25 -10.01,13.18 -9.98,13.10 -9.94,13.04 -9.89,12.98 -9.83,12.93 -9.77,12.88 -9.69,12.84 -9.62,12.81 -9.55,12.79 -9.47,12.77 -9.39,12.78 -9.31,12.78 -7.79,13.63 -6.27,14.48 -5.76,14.09 -5.26,13.69 -5.04,12.73 -4.83,11.77 -5.48,11.24 -6.12,10.71 -6.97,10.12 -7.82,9.54 -8.32,9.15 -8.82,8.75 -9.16,8.12 -9.51,7.49 -9.65,6.62 -9.79,5.74 -9.63,5.15 -9.48,4.55 -9.14,3.85 -8.81,3.14 -8.02,2.02 -7.22,0.89 -6.43,0.31 -5.65,-0.26 -4.89,-0.57 -4.14,-0.88 -3.03,-1.06 -1.92,-1.24 -0.96,-1.01 0,-0.79 0.09,-0.78 0.19,-0.77 0.28,-0.74 0.37,-0.70 0.45,-0.65 0.52,-0.59 0.59,-0.52 0.65,-0.45 0.70,-0.36 0.74,-0.28 0.76,-0.18 0.79,-0.09 0.79,0.00 0.79,0.09 0.76,0.18 0.74,0.28 0.70,0.36 0.65,0.45 0.59,0.52 0.52,0.59 0.45,0.65 0.37,0.70 0.28,0.74 0.19,0.77 0.09,0.78 -0.00,0.79 -0.00,0.79 L 0,0.79 Z"/></g><g transform="translate(292.4265020529816 196.70779716783585) rotate(0 1.3348817526656145 3.0034610289083084)" stroke="none"><path fill="#f08c00" d="M 0.53,0.53 Q 0.53,0.53 0.33,1.08 0.14,1.64 -0.09,2.22 -0.32,2.79 -0.63,3.64 -0.95,4.48 -1.28,5.42 -1.60,6.36 -1.72,7.22 -1.83,8.08 -1.88,8.83 -1.93,9.59 -2.39,10.59 -2.84,11.59 -2.59,11.14 -2.34,10.69 -2.37,10.85 -2.40,11.01 -2.46,11.16 -2.53,11.31 -2.63,11.44 -2.73,11.57 -2.86,11.67 -2.98,11.78 -3.13,11.85 -3.28,11.92 -3.44,11.95 -3.60,11.98 -3.77,11.97 -3.93,11.96 -4.09,11.92 -4.24,11.87 -4.38,11.79 -4.52,11.70 -4.64,11.59 -4.76,11.47 -4.85,11.33 -4.93,11.20 -4.98,11.04 -5.03,10.88 -5.04,10.72 -5.06,10.56 -4.95,9.57 -4.85,8.58 -4.60,7.52 -4.35,6.45 -4.05,5.43 -3.75,4.41 -3.44,3.23 -3.13,2.06 -2.79,1.11 -2.44,0.16 -1.90,-1.02 -1.36,-2.22 -0.69,-3.20 -0.02,-4.18 0.72,-4.87 1.48,-5.55 2.08,-5.88 2.69,-6.22 3.38,-6.35 4.08,-6.48 5.02,-6.06 5.96,-5.65 6.38,-5.14 6.80,-4.62 7.29,-3.64 7.79,-2.66 7.45,-1.56 7.12,-0.46 6.68,0.18 6.24,0.82 5.44,1.25 4.65,1.68 2.73,1.38 0.81,1.08 0.72,1.03 0.63,0.97 0.56,0.88 0.50,0.80 0.46,0.70 0.43,0.60 0.43,0.49 0.43,0.39 0.46,0.28 0.50,0.18 0.56,0.10 0.62,0.01 0.71,-0.04 0.80,-0.10 0.90,-0.13 1.00,-0.16 1.11,-0.15 1.21,-0.15 1.31,-0.11 1.41,-0.07 1.49,-0.00 1.58,0.06 1.63,0.15 1.69,0.24 1.71,0.34 1.73,0.45 1.72,0.55 1.71,0.66 1.67,0.76 1.62,0.85 1.55,0.93 1.48,1.01 1.38,1.06 1.29,1.11 1.19,1.13 1.08,1.14 0.98,1.13 0.87,1.11 0.78,1.06 0.68,1.01 0.61,0.94 0.54,0.86 0.49,0.76 0.45,0.67 0.43,0.56 0.42,0.46 0.44,0.35 0.47,0.25 0.52,0.16 0.57,0.07 0.65,0.00 0.74,-0.06 0.83,-0.10 0.93,-0.14 1.04,-0.15 1.14,-0.16 1.25,-0.13 1.35,-0.10 1.35,-0.10 1.35,-0.10 2.72,-0.53 4.08,-0.95 4.63,-1.61 5.17,-2.27 4.80,-2.82 4.42,-3.36 3.86,-3.41 3.29,-3.46 2.76,-3.02 2.23,-2.58 1.69,-1.82 1.15,-1.06 0.65,0.02 0.15,1.12 -0.15,1.95 -0.46,2.78 -0.78,3.98 -1.11,5.19 -1.39,6.15 -1.68,7.10 -1.90,8.00 -2.13,8.89 -2.24,9.79 -2.34,10.69 -2.37,10.85 -2.40,11.01 -2.46,11.16 -2.53,11.31 -2.63,11.44 -2.73,11.57 -2.86,11.67 -2.98,11.78 -3.13,11.85 -3.28,11.92 -3.44,11.95 -3.60,11.98 -3.77,11.97 -3.93,11.96 -4.09,11.92 -4.24,11.87 -4.38,11.79 -4.52,11.70 -4.64,11.59 -4.76,11.47 -4.85,11.33 -4.93,11.20 -4.98,11.04 -5.03,10.88 -5.04,10.72 -5.06,10.56 -4.80,9.97 -4.55,9.39 -4.48,8.55 -4.41,7.70 -4.24,6.60 -4.06,5.50 -3.71,4.53 -3.37,3.55 -3.00,2.62 -2.63,1.69 -2.15,0.79 -1.67,-0.10 -1.10,-0.32 -0.53,-0.53 -0.46,-0.58 -0.39,-0.64 -0.30,-0.68 -0.22,-0.72 -0.13,-0.73 -0.04,-0.75 0.04,-0.74 0.13,-0.74 0.22,-0.71 0.30,-0.68 0.38,-0.64 0.46,-0.59 0.52,-0.52 0.59,-0.46 0.64,-0.38 0.68,-0.30 0.71,-0.22 0.74,-0.13 0.74,-0.04 0.75,0.04 0.73,0.13 0.72,0.22 0.68,0.30 0.64,0.39 0.58,0.46 0.53,0.53 0.53,0.53 L 0.53,0.53 Z"/></g><g transform="translate(302.4380388160093 201.37983747298694) rotate(0 1.0011842290883326 2.002307352605559)" stroke="none"><path fill="#f08c00" d="M -0.84,-0.28 Q -0.84,-0.28 -0.52,-1.17 -0.21,-2.06 0.56,-2.34 1.35,-2.62 2.40,-2.01 3.45,-1.40 3.72,-0.65 3.98,0.09 3.74,0.81 3.49,1.53 2.85,2.10 2.20,2.67 1.68,3.15 1.16,3.63 0.29,4.29 -0.56,4.94 0.34,4.69 1.26,4.44 1.85,4.46 2.45,4.48 3.28,4.60 4.11,4.73 4.26,4.75 4.42,4.77 4.56,4.82 4.70,4.88 4.83,4.97 4.95,5.06 5.05,5.17 5.15,5.29 5.22,5.42 5.29,5.56 5.33,5.71 5.36,5.86 5.36,6.01 5.36,6.17 5.32,6.32 5.28,6.46 5.21,6.60 5.14,6.73 5.03,6.85 4.93,6.96 4.80,7.05 4.68,7.13 4.53,7.18 4.39,7.24 4.24,7.25 4.08,7.27 2.64,5.09 1.20,2.92 1.15,2.82 1.11,2.72 1.09,2.62 1.08,2.51 1.11,2.41 1.13,2.31 1.18,2.21 1.24,2.12 1.32,2.05 1.40,1.99 1.50,1.95 1.60,1.91 1.70,1.90 1.81,1.89 1.91,1.92 2.01,1.95 2.10,2.01 2.19,2.07 2.25,2.15 2.32,2.24 2.35,2.34 2.39,2.44 2.39,2.54 2.39,2.65 2.35,2.75 2.32,2.85 2.26,2.94 2.19,3.02 2.10,3.08 2.02,3.14 1.91,3.17 1.81,3.20 1.71,3.19 1.60,3.19 1.50,3.15 1.40,3.11 1.32,3.04 1.24,2.97 1.18,2.88 1.13,2.79 1.11,2.69 1.08,2.58 1.09,2.48 1.11,2.37 1.15,2.28 1.19,2.18 1.27,2.10 1.34,2.03 1.43,1.98 1.53,1.92 1.63,1.91 1.74,1.89 1.84,1.91 1.95,1.92 2.04,1.97 2.13,2.02 2.21,2.10 2.28,2.18 2.28,2.18 2.28,2.18 3.20,3.45 4.11,4.73 4.26,4.75 4.42,4.77 4.56,4.82 4.70,4.88 4.83,4.97 4.95,5.06 5.05,5.17 5.15,5.29 5.22,5.42 5.29,5.56 5.33,5.71 5.36,5.86 5.36,6.01 5.36,6.17 5.32,6.32 5.28,6.46 5.21,6.60 5.14,6.73 5.03,6.85 4.93,6.96 4.80,7.05 4.68,7.13 4.53,7.18 4.39,7.24 4.24,7.25 4.08,7.27 3.24,7.38 2.39,7.49 1.74,7.48 1.10,7.48 -0.04,7.34 -1.19,7.20 -1.98,6.79 -2.78,6.37 -3.08,5.61 -3.38,4.85 -2.86,3.72 -2.34,2.60 -1.56,2.04 -0.79,1.48 0.09,0.62 0.98,-0.23 0.91,0.02 0.84,0.28 0.79,0.37 0.74,0.47 0.68,0.55 0.61,0.63 0.52,0.70 0.44,0.76 0.34,0.80 0.24,0.85 0.14,0.86 0.03,0.88 -0.07,0.87 -0.17,0.86 -0.27,0.83 -0.37,0.80 -0.46,0.74 -0.56,0.68 -0.63,0.60 -0.70,0.53 -0.76,0.44 -0.81,0.34 -0.84,0.24 -0.87,0.14 -0.87,0.03 -0.88,-0.07 -0.86,-0.17 -0.84,-0.28 -0.84,-0.28 L -0.84,-0.28 Z"/></g><g transform="translate(158.93936558113597 209.3890668834091) rotate(0 -3.003461028908312 4.338342781573868)" stroke="none"><path fill="#f08c00" d="M -0.36,0.73 Q -0.36,0.73 -1.54,0.24 -2.72,-0.25 -3.37,0.63 -4.02,1.51 -4.37,2.51 -4.72,3.51 -5.07,4.71 -5.42,5.91 -5.76,7.19 -6.10,8.46 -6.44,9.60 -6.79,10.73 -6.74,11.41 -6.69,12.10 -6.76,12.26 -6.83,12.42 -6.94,12.56 -7.05,12.70 -7.18,12.80 -7.32,12.91 -7.48,12.99 -7.63,13.06 -7.80,13.09 -7.97,13.12 -8.15,13.11 -8.32,13.11 -8.49,13.05 -8.65,13.00 -8.80,12.92 -8.95,12.83 -9.08,12.71 -9.20,12.58 -9.29,12.44 -9.38,12.29 -9.44,12.12 -9.49,11.96 -9.50,11.78 -9.51,11.61 -9.48,11.44 -9.45,11.27 -8.90,10.76 -8.35,10.25 -8.12,8.94 -7.88,7.64 -7.56,6.12 -7.24,4.60 -6.46,3.02 -5.69,1.43 -5.00,0.06 -4.31,-1.31 -3.54,-2.23 -2.76,-3.15 -2.14,-3.75 -1.52,-4.35 -0.72,-4.54 0.08,-4.73 0.87,-4.36 1.67,-3.99 2.08,-3.23 2.49,-2.47 2.75,-1.70 3.00,-0.93 3.29,-0.22 3.58,0.48 3.56,1.32 3.53,2.16 3.23,2.80 2.94,3.44 2.56,3.93 2.19,4.41 1.53,4.76 0.87,5.12 0.36,3.49 -0.13,1.87 -0.21,1.90 -0.28,1.93 -0.36,1.93 -0.44,1.94 -0.52,1.93 -0.60,1.92 -0.67,1.89 -0.74,1.86 -0.81,1.81 -0.87,1.76 -0.92,1.70 -0.97,1.64 -1.01,1.57 -1.04,1.50 -1.06,1.42 -1.08,1.35 -1.08,1.27 -1.07,1.19 -1.05,1.11 -1.03,1.04 -0.99,0.97 -0.95,0.90 -0.90,0.84 -0.85,0.78 -0.78,0.74 -0.71,0.69 -0.83,0.79 -0.95,0.89 -0.87,0.82 -0.79,0.74 -0.70,0.70 -0.60,0.65 -0.50,0.64 -0.39,0.63 -0.29,0.65 -0.18,0.67 -0.09,0.73 -0.00,0.78 0.06,0.86 0.13,0.94 0.17,1.04 0.21,1.14 0.21,1.25 0.22,1.35 0.19,1.46 0.16,1.56 0.10,1.65 0.04,1.73 -0.03,1.80 -0.11,1.86 -0.22,1.90 -0.32,1.93 -0.42,1.93 -0.53,1.93 -0.63,1.90 -0.73,1.87 -0.81,1.80 -0.90,1.74 -0.96,1.65 -1.02,1.56 -1.05,1.46 -1.08,1.36 -1.07,1.25 -1.07,1.14 -1.03,1.05 -0.99,0.95 -0.92,0.87 -0.85,0.78 -0.76,0.73 -0.67,0.67 -0.57,0.65 -0.46,0.63 -0.36,0.64 -0.25,0.65 -0.15,0.69 -0.06,0.74 0.01,0.81 0.09,0.88 0.14,0.98 0.19,1.07 0.20,1.18 0.22,1.28 0.21,1.39 0.19,1.49 0.02,1.68 -0.13,1.87 -0.21,1.90 -0.28,1.93 -0.36,1.93 -0.44,1.94 -0.52,1.93 -0.60,1.92 -0.67,1.89 -0.74,1.86 -0.81,1.81 -0.87,1.76 -0.92,1.70 -0.97,1.64 -1.01,1.57 -1.04,1.50 -1.06,1.42 -1.08,1.35 -1.08,1.27 -1.07,1.19 -1.05,1.11 -1.03,1.04 -0.99,0.97 -0.95,0.90 -0.90,0.84 -0.85,0.78 -0.78,0.74 -0.71,0.69 -0.36,1.61 -0.01,2.52 0.42,1.96 0.86,1.41 0.54,0.70 0.23,-0.01 0.17,-1.06 0.10,-2.11 -0.22,-1.67 -0.56,-1.23 -1.14,-0.60 -1.71,0.01 -2.40,1.38 -3.08,2.75 -3.74,3.99 -4.39,5.24 -4.72,6.77 -5.04,8.30 -5.45,9.86 -5.86,11.41 -6.28,11.76 -6.69,12.10 -6.76,12.26 -6.83,12.42 -6.94,12.56 -7.05,12.70 -7.18,12.80 -7.32,12.91 -7.48,12.99 -7.63,13.06 -7.80,13.09 -7.97,13.12 -8.15,13.11 -8.32,13.11 -8.49,13.05 -8.65,13.00 -8.80,12.92 -8.95,12.83 -9.08,12.71 -9.20,12.58 -9.29,12.44 -9.38,12.29 -9.44,12.12 -9.49,11.96 -9.50,11.78 -9.51,11.61 -9.48,11.44 -9.45,11.27 -9.50,10.61 -9.55,9.96 -9.21,8.84 -8.87,7.71 -8.51,6.40 -8.15,5.09 -7.76,3.79 -7.36,2.50 -6.85,1.25 -6.34,0.00 -5.52,-1.03 -4.70,-2.06 -3.96,-2.24 -3.22,-2.42 -2.55,-2.23 -1.87,-2.04 -0.75,-1.39 0.36,-0.73 0.45,-0.68 0.53,-0.62 0.60,-0.55 0.67,-0.48 0.71,-0.39 0.76,-0.30 0.79,-0.21 0.81,-0.11 0.82,-0.01 0.82,0.08 0.80,0.18 0.77,0.27 0.73,0.36 0.68,0.45 0.62,0.53 0.56,0.60 0.47,0.66 0.39,0.72 0.30,0.76 0.21,0.79 0.11,0.81 0.01,0.82 -0.08,0.81 -0.18,0.80 -0.27,0.77 -0.36,0.73 -0.36,0.73 L -0.36,0.73 Z"/></g><g transform="translate(160.94167293374153 218.06575244655676) rotate(0 3.670886628848315 1.001138399910003)" stroke="none"><path fill="#f08c00" d="M 0,-0.87 Q 0,-0.87 0.49,-1.04 0.99,-1.21 1.68,-1.89 2.38,-2.57 2.97,-3.08 3.57,-3.58 4.29,-4.04 5.00,-4.51 5.59,-4.88 6.18,-5.25 6.20,-5.18 6.22,-5.10 6.36,-5.18 6.50,-5.27 6.65,-5.31 6.80,-5.36 6.96,-5.37 7.12,-5.38 7.28,-5.35 7.44,-5.32 7.58,-5.26 7.73,-5.19 7.86,-5.09 7.98,-4.99 8.08,-4.87 8.18,-4.74 8.25,-4.60 8.31,-4.45 8.34,-4.29 8.37,-4.13 8.36,-3.97 8.35,-3.81 8.30,-3.66 8.26,-3.51 8.17,-3.37 8.09,-3.23 7.98,-3.12 7.87,-3.01 7.77,-2.06 7.68,-1.10 7.40,-0.27 7.13,0.55 6.81,1.35 6.48,2.14 6.18,3.00 5.88,3.86 5.78,4.50 5.68,5.14 5.62,5.66 5.56,6.18 5.51,6.35 5.46,6.52 5.36,6.68 5.27,6.83 5.14,6.96 5.01,7.09 4.86,7.18 4.70,7.27 4.53,7.33 4.36,7.38 4.18,7.39 4.00,7.41 3.82,7.37 3.64,7.34 3.48,7.27 3.31,7.19 3.17,7.08 3.03,6.97 2.91,6.83 2.80,6.68 2.73,6.52 2.65,6.35 2.62,6.18 2.59,6.00 2.60,5.82 2.61,5.64 1.90,4.26 1.19,2.88 1.15,2.79 1.10,2.69 1.09,2.58 1.08,2.48 1.10,2.37 1.12,2.27 1.18,2.18 1.23,2.09 1.31,2.02 1.39,1.95 1.49,1.91 1.59,1.87 1.69,1.86 1.80,1.85 1.90,1.88 2.00,1.91 2.09,1.97 2.18,2.03 2.25,2.11 2.31,2.19 2.35,2.29 2.38,2.40 2.38,2.50 2.38,2.61 2.35,2.71 2.32,2.81 2.25,2.89 2.19,2.98 2.10,3.04 2.02,3.10 1.91,3.13 1.81,3.16 1.71,3.15 1.60,3.15 1.50,3.11 1.40,3.07 1.32,3.01 1.24,2.94 1.18,2.85 1.13,2.76 1.10,2.65 1.08,2.55 1.09,2.44 1.10,2.34 1.14,2.24 1.19,2.14 1.26,2.07 1.33,1.99 1.43,1.94 1.52,1.89 1.62,1.87 1.73,1.85 1.83,1.87 1.94,1.88 2.03,1.93 2.13,1.98 2.20,2.06 2.27,2.13 2.27,2.13 2.27,2.13 3.92,4.15 5.56,6.17 5.51,6.35 5.46,6.52 5.36,6.68 5.27,6.83 5.14,6.96 5.01,7.09 4.86,7.18 4.70,7.27 4.53,7.33 4.36,7.38 4.18,7.39 4.00,7.41 3.82,7.37 3.64,7.34 3.48,7.27 3.31,7.19 3.17,7.08 3.03,6.97 2.91,6.83 2.80,6.68 2.73,6.52 2.65,6.36 2.62,6.18 2.59,6.00 2.60,5.82 2.61,5.64 2.67,5.12 2.73,4.61 2.91,3.72 3.08,2.84 3.44,1.92 3.79,0.99 4.10,0.30 4.40,-0.38 4.72,-1.24 5.03,-2.10 5.25,-2.61 5.47,-3.12 5.84,-4.11 6.22,-5.10 6.36,-5.18 6.50,-5.27 6.65,-5.31 6.80,-5.36 6.96,-5.37 7.12,-5.38 7.28,-5.35 7.44,-5.32 7.58,-5.26 7.73,-5.19 7.86,-5.09 7.98,-4.99 8.08,-4.87 8.18,-4.74 8.25,-4.60 8.31,-4.45 8.34,-4.29 8.37,-4.13 8.36,-3.97 8.35,-3.81 8.30,-3.66 8.26,-3.51 8.17,-3.37 8.09,-3.23 7.98,-3.12 7.87,-3.01 7.14,-2.64 6.42,-2.27 5.84,-1.91 5.26,-1.55 4.61,-1.02 3.96,-0.49 2.63,0.36 1.30,1.21 0.65,1.04 0,0.87 -0.10,0.86 -0.20,0.84 -0.30,0.81 -0.40,0.77 -0.49,0.71 -0.58,0.65 -0.65,0.57 -0.72,0.49 -0.76,0.40 -0.81,0.31 -0.84,0.20 -0.86,0.10 -0.86,-0.00 -0.86,-0.10 -0.84,-0.20 -0.81,-0.31 -0.76,-0.40 -0.72,-0.49 -0.65,-0.57 -0.58,-0.65 -0.49,-0.71 -0.40,-0.77 -0.30,-0.81 -0.20,-0.84 -0.10,-0.86 0.00,-0.87 0.00,-0.87 L 0,-0.87 Z"/></g><g transform="translate(293.6141548740518 41.13592170563135) rotate(0 2.3186732775665746 4.968506532367613)" stroke="none"><path fill="#1e1e1e" d="M 0,0.72 Q 0,0.72 -0.19,1.06 -0.38,1.40 -0.54,1.38 -0.71,1.36 -0.87,1.30 -1.03,1.24 -1.17,1.14 -1.31,1.04 -1.42,0.92 -1.53,0.79 -1.61,0.64 -1.69,0.49 -1.73,0.33 -1.77,0.16 -1.77,-0.00 -1.77,-0.16 -1.73,-0.33 -1.69,-0.49 -1.61,-0.64 -1.53,-0.79 -1.42,-0.92 -1.31,-1.05 -1.17,-1.14 -1.03,-1.24 -0.87,-1.30 -0.71,-1.36 -0.54,-1.38 -0.38,-1.40 0.36,-1.16 1.10,-0.92 1.73,-0.64 2.37,-0.35 2.93,0.03 3.50,0.41 3.81,1.53 4.12,2.64 3.80,3.21 3.47,3.78 2.29,4.84 1.11,5.90 0.24,7.08 -0.62,8.25 -0.01,8.65 0.59,9.05 1.18,9.07 1.77,9.09 2.40,9.10 3.03,9.11 4.95,9.22 6.88,9.33 6.98,9.33 7.09,9.33 7.19,9.37 7.29,9.40 7.38,9.46 7.46,9.53 7.52,9.62 7.58,9.70 7.61,9.81 7.64,9.91 7.63,10.01 7.63,10.12 7.59,10.22 7.55,10.32 7.48,10.40 7.41,10.48 7.32,10.54 7.23,10.59 7.13,10.61 7.03,10.64 6.92,10.63 6.81,10.62 6.72,10.57 6.62,10.53 6.54,10.46 6.47,10.38 6.42,10.29 6.37,10.20 6.35,10.09 6.33,9.99 6.35,9.88 6.36,9.78 6.41,9.68 6.46,9.59 6.54,9.51 6.61,9.44 6.71,9.40 6.81,9.35 6.91,9.34 7.02,9.33 7.12,9.35 7.23,9.37 7.32,9.43 7.41,9.48 7.48,9.56 7.55,9.64 7.59,9.74 7.63,9.84 7.63,9.94 7.64,10.05 7.61,10.15 7.58,10.25 7.52,10.34 7.47,10.43 7.38,10.50 7.30,10.56 7.20,10.60 7.10,10.63 7.10,10.63 7.10,10.63 5.04,11.34 2.98,12.04 2.31,12.03 1.64,12.01 0.95,11.98 0.27,11.94 -0.45,11.85 -1.18,11.76 -1.99,11.42 -2.79,11.09 -3.26,10.32 -3.73,9.56 -3.65,8.72 -3.57,7.88 -3.25,7.22 -2.93,6.57 -2.30,5.72 -1.66,4.86 -1.00,4.16 -0.35,3.47 0.41,2.83 1.18,2.20 0.40,1.80 -0.38,1.40 -0.54,1.38 -0.71,1.36 -0.87,1.30 -1.03,1.24 -1.17,1.14 -1.31,1.05 -1.42,0.92 -1.53,0.79 -1.61,0.64 -1.69,0.49 -1.73,0.33 -1.77,0.16 -1.77,0.00 -1.77,-0.16 -1.73,-0.33 -1.69,-0.49 -1.61,-0.64 -1.53,-0.79 -1.42,-0.92 -1.31,-1.04 -1.17,-1.14 -1.03,-1.24 -0.87,-1.30 -0.71,-1.36 -0.54,-1.38 -0.38,-1.40 -0.19,-1.06 0,-0.72 0.08,-0.71 0.17,-0.70 0.25,-0.67 0.33,-0.64 0.40,-0.59 0.48,-0.54 0.54,-0.47 0.59,-0.41 0.63,-0.33 0.67,-0.25 0.70,-0.17 0.72,-0.08 0.72,0.00 0.72,0.08 0.70,0.17 0.67,0.25 0.63,0.33 0.59,0.41 0.54,0.47 0.48,0.54 0.40,0.59 0.33,0.64 0.25,0.67 0.17,0.70 0.08,0.71 -0.00,0.72 -0.00,0.72 L 0,0.72 Z"/></g><g stroke-linecap="round"><g transform="translate(90.56818462509642 132.21878914844444) rotate(0 5.962198741247846 0.16877179081582483)"><path d="M0 0 C3.76 0.42, 8.78 0.13, 11.92 0.34 M0 0 C2.7 0.36, 5.23 0, 11.92 0.34" stroke="#f08c00" stroke-width="2" fill="none"/></g></g><mask/><g stroke-linecap="round" transform="translate(50.32512235855427 133.75862265494794) rotate(0 10.4898995399042 9.404739802427741)"><path d="M9.61 -0.43 C11.75 -0.71, 14.42 0.71, 16.28 1.93 C18.15 3.15, 20.24 5.01, 20.79 6.89 C21.35 8.77, 20.57 11.46, 19.6 13.21 C18.62 14.96, 16.91 16.53, 14.94 17.39 C12.98 18.25, 9.91 18.73, 7.79 18.36 C5.67 18, 3.54 16.84, 2.23 15.2 C0.92 13.55, -0.08 10.64, -0.05 8.5 C-0.02 6.37, 0.75 3.76, 2.43 2.39 C4.12 1.01, 8.68 0.64, 10.07 0.27 C11.46 -0.1, 10.86 0.03, 10.77 0.15 M12.9 -0.42 C15 -0.08, 17.31 1.76, 18.61 3.47 C19.91 5.18, 20.59 7.74, 20.7 9.85 C20.81 11.96, 20.59 14.66, 19.27 16.14 C17.95 17.62, 15.22 18.52, 12.78 18.71 C10.34 18.89, 6.65 18.15, 4.64 17.23 C2.62 16.31, 1.24 14.95, 0.68 13.17 C0.11 11.4, 0.53 8.48, 1.25 6.58 C1.97 4.68, 3.29 2.88, 5 1.78 C6.71 0.68, 10.37 0.2, 11.52 -0.02 C12.67 -0.24, 11.77 0.28, 11.91 0.46" stroke="#1e1e1e" stroke-width="2" fill="none"/></g><g stroke-linecap="round" transform="translate(51.77191369799755 154.0149929485877) rotate(0 8.681311016259059 8.681261341588481)"><path d="M7.01 -0.08 C8.82 -0.64, 11.51 0.16, 13.09 1 C14.68 1.83, 15.86 3.29, 16.54 4.94 C17.22 6.59, 17.72 9.06, 17.19 10.9 C16.67 12.73, 14.91 14.82, 13.39 15.94 C11.87 17.06, 9.88 17.83, 8.05 17.62 C6.22 17.42, 3.79 16.19, 2.41 14.72 C1.04 13.25, -0.13 10.7, -0.21 8.8 C-0.3 6.9, 0.76 4.68, 1.9 3.32 C3.04 1.97, 5.71 1.19, 6.62 0.68 C7.53 0.16, 7.31 0.12, 7.36 0.23 M6.77 0.12 C8.46 -0.28, 11.8 -0.37, 13.45 0.61 C15.1 1.59, 16.14 4.08, 16.66 5.99 C17.18 7.91, 17.14 10.38, 16.57 12.1 C16 13.82, 14.72 15.43, 13.24 16.33 C11.76 17.23, 9.66 17.79, 7.69 17.48 C5.72 17.17, 2.83 16.03, 1.42 14.48 C0.02 12.93, -0.93 10.11, -0.75 8.18 C-0.56 6.25, 1.27 4.13, 2.53 2.91 C3.79 1.68, 6 1.22, 6.79 0.82 C7.58 0.42, 7.2 0.55, 7.27 0.53" stroke="#1e1e1e" stroke-width="2" fill="none"/></g><g stroke-linecap="round" transform="translate(366.4683037990768 135.20551334373232) rotate(0 9.04300885111985 9.404723244204177)"><path d="M7.96 -0.14 C9.72 -0.42, 12.62 0.59, 14.3 1.75 C15.98 2.91, 17.52 4.92, 18.06 6.83 C18.6 8.74, 18.44 11.4, 17.53 13.22 C16.62 15.04, 14.41 16.86, 12.62 17.73 C10.83 18.61, 8.63 19, 6.78 18.48 C4.94 17.96, 2.65 16.25, 1.56 14.62 C0.47 12.99, 0.12 10.7, 0.25 8.71 C0.38 6.71, 0.98 4.01, 2.32 2.64 C3.66 1.28, 7.14 0.84, 8.27 0.52 C9.4 0.19, 9.12 0.66, 9.11 0.68 M6.36 -0.14 C8.14 -0.69, 11.33 -0.1, 13.09 0.83 C14.85 1.76, 16.05 3.55, 16.9 5.43 C17.76 7.32, 18.76 10.09, 18.21 12.15 C17.67 14.21, 15.4 16.66, 13.64 17.78 C11.89 18.91, 9.67 19.07, 7.7 18.89 C5.74 18.7, 3.09 18.18, 1.85 16.67 C0.61 15.17, 0.33 12, 0.28 9.87 C0.22 7.74, 0.48 5.44, 1.54 3.89 C2.61 2.34, 5.63 1.2, 6.64 0.57 C7.65 -0.06, 7.53 -0.03, 7.59 0.08" stroke="#1e1e1e" stroke-width="2" fill="none"/></g><g stroke-linecap="round" transform="translate(365.0214462267394 158.35559878204674) rotate(0 9.766437637288504 10.128152030372803)"><path d="M11.56 -0.13 C13.58 0.2, 16.04 1.76, 17.37 3.54 C18.7 5.33, 19.61 8.37, 19.56 10.6 C19.51 12.82, 18.56 15.2, 17.07 16.87 C15.57 18.54, 12.72 20.36, 10.6 20.61 C8.48 20.87, 6.05 19.69, 4.34 18.39 C2.63 17.09, 1.01 14.75, 0.35 12.79 C-0.32 10.83, -0.53 8.63, 0.36 6.61 C1.25 4.6, 3.75 1.79, 5.69 0.68 C7.63 -0.44, 10.81 -0.03, 11.99 -0.06 C13.17 -0.09, 12.74 0.28, 12.78 0.5 M9.98 0.39 C12.03 0.33, 15.63 0.99, 17.21 2.49 C18.79 3.98, 19.26 7.19, 19.46 9.36 C19.65 11.52, 19.66 13.66, 18.38 15.48 C17.1 17.3, 13.97 19.63, 11.77 20.28 C9.58 20.93, 6.98 20.41, 5.21 19.41 C3.43 18.4, 1.93 16.21, 1.14 14.25 C0.34 12.3, 0.02 9.63, 0.45 7.68 C0.87 5.74, 1.94 3.75, 3.7 2.58 C5.46 1.41, 9.95 1.14, 11 0.67 C12.04 0.19, 10.03 -0.44, 9.98 -0.26" stroke="#1e1e1e" stroke-width="2" fill="none"/></g><g stroke-linecap="round"><g transform="translate(364.2979843241237 134.48208455756367) rotate(0 11.575059277380717 -0.36171439308432696)"><path d="M0 0 C8.73 0.45, 18.86 -0.29, 23.15 -0.72 M0 0 C6.86 -0.06, 14.1 -0.54, 23.15 -0.72" stroke="#1e1e1e" stroke-width="2" fill="none"/></g></g><mask/><g stroke-linecap="round"><g transform="translate(362.8511267517864 182.2291130065297) rotate(0 11.936757112241537 -0.36171439308432696)"><path d="M0 0 C5.73 -0.83, 12.16 -1.16, 23.87 -0.72 M0 0 C7.07 -0.53, 13.47 -0.9, 23.87 -0.72" stroke="#1e1e1e" stroke-width="2" fill="none"/></g></g><mask/><g stroke-linecap="round"><g transform="translate(46.707945311263984 133.758655771395) rotate(0 13.383614684578816 0)"><path d="M0 0 C9.2 -0.25, 17.84 -0.2, 26.77 0 M0 0 C9.43 -0.61, 19.05 -0.45, 26.77 0" stroke="#1e1e1e" stroke-width="2" fill="none"/></g></g><mask/><g stroke-linecap="round"><g transform="translate(45.26108773892673 171.3775156317647) rotate(0 12.660185898410163 1.0851597374764879)"><path d="M0 0 C6.85 0.25, 15.17 1.25, 25.32 2.17 M0 0 C7.88 0.9, 15.63 1.79, 25.32 2.17" stroke="#1e1e1e" stroke-width="2" fill="none"/></g></g><mask/><g transform="translate(369.36208517664545 116.39609997177104) rotate(0 -3.6172101637373544 7.957815997196263)" stroke="none"><path fill="#1e1e1e" d="M -0.81,-0.20 Q -0.81,-0.20 -0.86,-1.09 -0.91,-1.99 -0.85,-2.15 -0.79,-2.30 -0.70,-2.44 -0.60,-2.57 -0.48,-2.68 -0.36,-2.79 -0.21,-2.87 -0.06,-2.94 0.09,-2.98 0.25,-3.02 0.42,-3.02 0.58,-3.02 0.74,-2.98 0.90,-2.94 1.05,-2.86 1.19,-2.79 1.32,-2.68 1.44,-2.57 1.54,-2.43 1.63,-2.29 1.69,-2.14 1.75,-1.98 1.76,-1.82 1.78,-1.65 1.76,-1.49 1.74,-1.33 1.34,-0.62 0.93,0.09 0.66,0.79 0.40,1.50 0.07,2.45 -0.26,3.40 -0.84,4.70 -1.42,6.00 -2.04,7.92 -2.66,9.83 -3.38,11.56 -4.09,13.29 -4.60,14.43 -5.11,15.58 -6.55,17.22 -7.99,18.86 -8.05,18.95 -8.10,19.04 -8.18,19.11 -8.26,19.18 -8.36,19.22 -8.46,19.26 -8.57,19.26 -8.68,19.27 -8.78,19.24 -8.88,19.21 -8.97,19.15 -9.05,19.09 -9.12,19.01 -9.18,18.92 -9.22,18.82 -9.25,18.72 -9.25,18.61 -9.25,18.51 -9.21,18.41 -9.18,18.31 -9.11,18.22 -9.05,18.14 -8.96,18.08 -8.87,18.02 -8.77,17.99 -8.67,17.96 -8.56,17.97 -8.46,17.98 -8.36,18.02 -8.26,18.06 -8.18,18.13 -8.10,18.19 -8.04,18.29 -7.99,18.38 -7.97,18.48 -7.94,18.59 -7.96,18.69 -7.97,18.80 -8.01,18.89 -8.06,18.99 -8.13,19.07 -8.21,19.14 -8.30,19.19 -8.39,19.24 -8.50,19.26 -8.60,19.27 -8.71,19.26 -8.81,19.24 -8.91,19.19 -9.00,19.14 -9.07,19.06 -9.15,18.98 -9.19,18.89 -9.23,18.79 -9.25,18.68 -9.26,18.58 -9.23,18.47 -9.21,18.37 -9.21,18.37 -9.21,18.37 -8.53,16.36 -7.86,14.35 -7.36,13.24 -6.87,12.13 -6.19,10.51 -5.51,8.89 -4.82,6.83 -4.13,4.77 -3.57,3.58 -3.02,2.39 -2.64,1.39 -2.27,0.38 -1.59,-0.80 -0.91,-1.99 -0.85,-2.15 -0.79,-2.30 -0.70,-2.44 -0.60,-2.57 -0.48,-2.68 -0.36,-2.79 -0.21,-2.87 -0.06,-2.94 0.09,-2.98 0.25,-3.02 0.42,-3.02 0.58,-3.02 0.74,-2.98 0.90,-2.94 1.05,-2.86 1.19,-2.79 1.32,-2.68 1.44,-2.57 1.54,-2.43 1.63,-2.29 1.69,-2.14 1.75,-1.98 1.76,-1.82 1.78,-1.65 1.76,-1.49 1.74,-1.33 1.27,-0.56 0.81,0.20 0.77,0.29 0.73,0.39 0.68,0.47 0.62,0.55 0.54,0.62 0.47,0.68 0.38,0.73 0.29,0.78 0.19,0.80 0.09,0.83 -0.00,0.82 -0.10,0.82 -0.20,0.80 -0.29,0.78 -0.38,0.73 -0.47,0.68 -0.55,0.61 -0.62,0.55 -0.68,0.46 -0.74,0.38 -0.77,0.29 -0.81,0.19 -0.82,0.09 -0.83,-0.00 -0.82,-0.10 -0.81,-0.20 -0.81,-0.20 L -0.81,-0.20 Z"/></g><g transform="translate(381.66054012374775 114.225780496818) rotate(0 -4.702336784766771 9.766437637288504)" stroke="none"><path fill="#1e1e1e" d="M 0.73,0.29 Q 0.73,0.29 0.55,1.42 0.36,2.55 0.01,3.61 -0.33,4.66 -1.12,6.43 -1.91,8.20 -2.89,9.83 -3.88,11.47 -4.92,13.00 -5.96,14.53 -6.55,15.70 -7.14,16.88 -6.70,17.37 -6.26,17.87 -6.31,17.93 -6.35,18.00 -6.41,18.05 -6.47,18.10 -6.54,18.14 -6.61,18.18 -6.69,18.20 -6.76,18.22 -6.84,18.22 -6.92,18.22 -7.00,18.20 -7.07,18.18 -7.15,18.15 -7.22,18.11 -7.28,18.06 -7.33,18.01 -7.38,17.94 -7.43,17.88 -7.45,17.80 -7.48,17.73 -7.49,17.65 -7.50,17.57 -7.49,17.49 -7.49,17.41 -7.46,17.34 -7.43,17.27 -7.21,17.10 -6.99,16.93 -6.89,16.92 -6.78,16.91 -6.68,16.94 -6.58,16.97 -6.49,17.03 -6.40,17.09 -6.33,17.17 -6.27,17.25 -6.23,17.35 -6.20,17.46 -6.20,17.56 -6.20,17.67 -6.23,17.77 -6.26,17.87 -6.33,17.95 -6.39,18.04 -6.48,18.10 -6.57,18.16 -6.67,18.19 -6.77,18.22 -6.88,18.21 -6.98,18.21 -7.08,18.17 -7.18,18.13 -7.26,18.06 -7.34,18.00 -7.40,17.90 -7.46,17.81 -7.48,17.71 -7.50,17.61 -7.49,17.50 -7.48,17.40 -7.44,17.30 -7.39,17.20 -7.32,17.12 -7.25,17.05 -7.16,17.00 -7.06,16.95 -6.96,16.93 -6.85,16.91 -6.75,16.93 -6.64,16.94 -6.55,16.99 -6.45,17.04 -6.38,17.12 -6.31,17.19 -6.26,17.29 -6.22,17.39 -6.20,17.49 -6.19,17.60 -6.21,17.70 -6.24,17.80 -6.29,17.90 -6.34,17.99 -6.42,18.06 -6.50,18.13 -6.38,18.00 -6.26,17.87 -6.31,17.93 -6.35,18.00 -6.41,18.05 -6.47,18.10 -6.54,18.14 -6.61,18.18 -6.69,18.20 -6.76,18.22 -6.84,18.22 -6.92,18.22 -7.00,18.20 -7.07,18.18 -7.14,18.15 -7.22,18.11 -7.28,18.06 -7.33,18.01 -7.38,17.94 -7.43,17.88 -7.45,17.80 -7.48,17.73 -7.49,17.65 -7.50,17.57 -7.49,17.49 -7.49,17.42 -7.46,17.34 -7.43,17.27 -8.59,16.41 -9.74,15.56 -9.04,14.22 -8.34,12.88 -7.32,11.43 -6.30,9.97 -5.37,8.50 -4.44,7.02 -3.65,5.39 -2.86,3.75 -2.44,2.67 -2.03,1.60 -1.38,0.65 -0.73,-0.29 -0.69,-0.37 -0.64,-0.46 -0.58,-0.53 -0.51,-0.60 -0.43,-0.65 -0.35,-0.71 -0.26,-0.74 -0.17,-0.77 -0.08,-0.78 0.01,-0.79 0.10,-0.78 0.20,-0.76 0.29,-0.73 0.38,-0.69 0.46,-0.64 0.53,-0.58 0.60,-0.51 0.66,-0.44 0.70,-0.35 0.74,-0.26 0.77,-0.17 0.79,-0.08 0.79,0.01 0.78,0.11 0.76,0.20 0.73,0.29 0.73,0.29 L 0.73,0.29 Z"/></g><g transform="translate(393.2355994011285 114.94920928298666) rotate(0 -5.064067736074662 10.489882981680694)" stroke="none"><path fill="#1e1e1e" d="M 0.75,0.37 Q 0.75,0.37 0.34,1.73 -0.06,3.08 -0.73,4.45 -1.39,5.82 -2.26,7.85 -3.13,9.87 -3.93,11.58 -4.73,13.30 -5.49,14.86 -6.24,16.43 -7.78,18.59 -9.32,20.75 -9.38,20.84 -9.43,20.93 -9.51,21.00 -9.60,21.07 -9.70,21.11 -9.79,21.14 -9.90,21.15 -10.01,21.15 -10.11,21.12 -10.21,21.09 -10.30,21.03 -10.38,20.97 -10.45,20.89 -10.51,20.80 -10.54,20.70 -10.58,20.60 -10.57,20.49 -10.57,20.39 -10.54,20.28 -10.50,20.18 -10.44,20.10 -10.37,20.02 -10.28,19.96 -10.19,19.90 -10.09,19.87 -9.99,19.85 -9.88,19.85 -9.78,19.86 -9.68,19.90 -9.58,19.94 -9.50,20.01 -9.42,20.08 -9.37,20.18 -9.31,20.27 -9.29,20.37 -9.27,20.48 -9.28,20.58 -9.30,20.69 -9.34,20.78 -9.39,20.88 -9.46,20.95 -9.54,21.03 -9.63,21.08 -9.73,21.13 -9.83,21.14 -9.94,21.16 -10.04,21.14 -10.15,21.12 -10.24,21.07 -10.33,21.02 -10.40,20.94 -10.48,20.86 -10.52,20.76 -10.56,20.67 -10.57,20.56 -10.58,20.46 -10.56,20.35 -10.53,20.25 -10.53,20.25 -10.53,20.25 -9.70,17.70 -8.87,15.14 -8.11,13.60 -7.35,12.06 -6.54,10.38 -5.73,8.70 -4.78,6.65 -3.82,4.61 -3.12,3.25 -2.42,1.90 -1.58,0.76 -0.75,-0.37 -0.69,-0.45 -0.63,-0.54 -0.56,-0.61 -0.49,-0.68 -0.40,-0.73 -0.31,-0.77 -0.21,-0.80 -0.11,-0.83 -0.01,-0.83 0.08,-0.83 0.18,-0.81 0.28,-0.79 0.37,-0.74 0.46,-0.70 0.54,-0.63 0.61,-0.56 0.67,-0.48 0.73,-0.40 0.77,-0.31 0.81,-0.21 0.82,-0.11 0.83,-0.01 0.82,0.08 0.81,0.18 0.78,0.28 0.75,0.37 0.75,0.37 L 0.75,0.37 Z"/></g><g transform="translate(364.2979843241237 185.84632317026706) rotate(0 -5.787496522243259 8.681277899812017)" stroke="none"><path fill="#1e1e1e" d="M 0.61,0.61 Q 0.61,0.61 -0.10,1.55 -0.82,2.50 -1.37,3.08 -1.91,3.65 -2.35,4.11 -2.78,4.57 -3.31,5.33 -3.83,6.09 -4.87,7.85 -5.91,9.60 -6.98,11.59 -8.05,13.58 -7.85,13.96 -7.65,14.34 -7.70,14.40 -7.74,14.47 -7.80,14.52 -7.86,14.57 -7.93,14.60 -8.00,14.64 -8.08,14.66 -8.16,14.68 -8.24,14.68 -8.32,14.67 -8.39,14.66 -8.47,14.64 -8.54,14.60 -8.61,14.56 -8.67,14.51 -8.73,14.45 -8.77,14.39 -8.81,14.32 -8.84,14.25 -8.87,14.17 -8.88,14.09 -8.89,14.02 -8.88,13.94 -8.87,13.86 -8.84,13.79 -8.81,13.71 -8.67,13.58 -8.53,13.44 -8.43,13.41 -8.33,13.37 -8.22,13.38 -8.11,13.38 -8.01,13.41 -7.91,13.45 -7.83,13.51 -7.75,13.58 -7.69,13.67 -7.63,13.76 -7.60,13.86 -7.58,13.96 -7.58,14.07 -7.59,14.17 -7.63,14.27 -7.67,14.37 -7.74,14.45 -7.81,14.53 -7.90,14.58 -8.00,14.64 -8.10,14.66 -8.20,14.68 -8.31,14.67 -8.41,14.65 -8.51,14.61 -8.61,14.56 -8.68,14.49 -8.76,14.41 -8.81,14.32 -8.85,14.22 -8.87,14.12 -8.89,14.01 -8.87,13.91 -8.85,13.80 -8.80,13.71 -8.75,13.62 -8.67,13.55 -8.59,13.47 -8.49,13.43 -8.40,13.39 -8.29,13.38 -8.18,13.37 -8.08,13.39 -7.98,13.42 -7.89,13.47 -7.80,13.53 -7.73,13.61 -7.66,13.69 -7.62,13.79 -7.59,13.89 -7.58,14.00 -7.58,14.10 -7.61,14.21 -7.64,14.31 -7.70,14.40 -7.76,14.48 -7.71,14.41 -7.65,14.34 -7.70,14.40 -7.74,14.47 -7.80,14.52 -7.86,14.57 -7.93,14.60 -8.00,14.64 -8.08,14.66 -8.16,14.68 -8.24,14.68 -8.32,14.67 -8.39,14.66 -8.47,14.64 -8.54,14.60 -8.61,14.56 -8.67,14.51 -8.73,14.45 -8.77,14.39 -8.81,14.32 -8.84,14.25 -8.87,14.17 -8.88,14.10 -8.89,14.02 -8.88,13.94 -8.87,13.86 -8.84,13.79 -8.81,13.71 -9.62,13.00 -10.43,12.29 -9.33,10.25 -8.22,8.21 -7.08,6.36 -5.94,4.52 -5.26,3.65 -4.57,2.78 -4.11,2.35 -3.65,1.91 -3.08,1.37 -2.50,0.82 -1.55,0.10 -0.61,-0.61 -0.52,-0.67 -0.44,-0.73 -0.35,-0.78 -0.25,-0.82 -0.15,-0.84 -0.05,-0.86 0.05,-0.85 0.15,-0.84 0.25,-0.81 0.35,-0.78 0.44,-0.73 0.53,-0.67 0.60,-0.60 0.67,-0.53 0.73,-0.44 0.78,-0.35 0.81,-0.25 0.84,-0.15 0.85,-0.05 0.86,0.05 0.84,0.15 0.82,0.25 0.78,0.35 0.73,0.44 0.67,0.52 0.61,0.61 0.61,0.61 L 0.61,0.61 Z"/></g><g transform="translate(372.2558665542142 189.46350021755734) rotate(0 -2.5320504262608665 4.340655508129544)" stroke="none"><path fill="#1e1e1e" d="M -0.72,-0.48 Q -0.72,-0.48 -0.44,-1.19 -0.15,-1.90 -0.06,-2.01 0.03,-2.12 0.14,-2.20 0.26,-2.28 0.39,-2.34 0.52,-2.39 0.67,-2.41 0.81,-2.43 0.95,-2.41 1.09,-2.40 1.23,-2.35 1.36,-2.30 1.48,-2.22 1.60,-2.14 1.69,-2.04 1.79,-1.93 1.86,-1.81 1.93,-1.68 1.96,-1.54 2.00,-1.40 2.00,-1.26 2.00,-1.12 1.97,-0.98 1.94,-0.84 1.88,-0.71 1.81,-0.59 1.21,0.04 0.61,0.67 -0.03,1.51 -0.67,2.36 -1.36,3.51 -2.05,4.67 -2.80,5.83 -3.54,6.99 -4.46,9.08 -5.38,11.17 -5.43,11.23 -5.48,11.29 -5.55,11.34 -5.61,11.39 -5.68,11.42 -5.76,11.45 -5.83,11.46 -5.91,11.47 -5.99,11.46 -6.07,11.46 -6.14,11.43 -6.22,11.41 -6.29,11.36 -6.35,11.32 -6.41,11.26 -6.46,11.21 -6.50,11.14 -6.54,11.07 -6.56,10.99 -6.58,10.92 -6.59,10.84 -6.59,10.76 -6.57,10.68 -6.55,10.60 -6.52,10.53 -6.49,10.46 -6.04,10.35 -5.60,10.25 -5.52,10.32 -5.44,10.39 -5.38,10.48 -5.33,10.57 -5.30,10.67 -5.28,10.77 -5.29,10.88 -5.30,10.98 -5.34,11.08 -5.39,11.18 -5.46,11.26 -5.53,11.33 -5.62,11.38 -5.72,11.44 -5.82,11.45 -5.93,11.47 -6.03,11.46 -6.14,11.44 -6.23,11.39 -6.33,11.34 -6.40,11.26 -6.47,11.19 -6.52,11.09 -6.56,11.00 -6.58,10.89 -6.59,10.79 -6.57,10.68 -6.55,10.58 -6.49,10.49 -6.44,10.39 -6.36,10.32 -6.28,10.26 -6.18,10.22 -6.08,10.17 -5.97,10.17 -5.87,10.16 -5.77,10.19 -5.66,10.22 -5.57,10.28 -5.49,10.33 -5.42,10.42 -5.36,10.50 -5.32,10.60 -5.29,10.70 -5.29,10.81 -5.28,10.92 -5.32,11.02 -5.35,11.12 -5.41,11.20 -5.48,11.29 -5.56,11.35 -5.65,11.41 -5.75,11.44 -5.86,11.47 -5.96,11.46 -6.07,11.46 -5.72,11.31 -5.38,11.17 -5.43,11.23 -5.48,11.29 -5.55,11.34 -5.61,11.39 -5.68,11.42 -5.76,11.45 -5.83,11.46 -5.91,11.47 -5.99,11.46 -6.07,11.46 -6.14,11.43 -6.22,11.41 -6.29,11.36 -6.35,11.32 -6.41,11.26 -6.46,11.21 -6.50,11.14 -6.54,11.07 -6.56,10.99 -6.58,10.92 -6.59,10.84 -6.59,10.76 -6.57,10.68 -6.55,10.60 -6.52,10.53 -6.49,10.46 -6.16,7.99 -5.84,5.51 -5.11,4.38 -4.37,3.24 -3.55,1.93 -2.72,0.62 -1.44,-0.64 -0.15,-1.90 -0.06,-2.01 0.03,-2.12 0.14,-2.20 0.26,-2.28 0.39,-2.34 0.52,-2.39 0.67,-2.41 0.81,-2.43 0.95,-2.41 1.09,-2.40 1.23,-2.35 1.36,-2.30 1.48,-2.22 1.60,-2.14 1.69,-2.04 1.79,-1.93 1.86,-1.81 1.93,-1.68 1.96,-1.54 2.00,-1.40 2.00,-1.26 2.00,-1.12 1.97,-0.98 1.94,-0.84 1.88,-0.71 1.81,-0.59 1.27,-0.05 0.72,0.48 0.65,0.56 0.59,0.64 0.50,0.70 0.41,0.76 0.32,0.80 0.22,0.84 0.11,0.86 0.01,0.87 -0.09,0.86 -0.19,0.85 -0.29,0.81 -0.39,0.78 -0.48,0.72 -0.56,0.66 -0.64,0.58 -0.71,0.50 -0.76,0.41 -0.81,0.32 -0.84,0.22 -0.86,0.11 -0.86,0.01 -0.87,-0.09 -0.84,-0.19 -0.82,-0.29 -0.77,-0.39 -0.72,-0.48 -0.72,-0.48 L -0.72,-0.48 Z"/></g><g transform="translate(384.5543215013165 186.5697519564357) rotate(0 -6.510958424859041 7.5961181623355)" stroke="none"><path fill="#1e1e1e" d="M 0.43,0.64 Q 0.43,0.64 -0.06,1.24 -0.56,1.85 -1.42,2.47 -2.28,3.10 -3.15,4.11 -4.02,5.11 -5.44,6.82 -6.87,8.53 -8.10,10.07 -9.33,11.61 -9.92,13.27 -10.51,14.93 -10.56,14.98 -10.62,15.04 -10.69,15.08 -10.76,15.12 -10.83,15.14 -10.91,15.17 -10.99,15.17 -11.07,15.17 -11.14,15.16 -11.22,15.14 -11.29,15.11 -11.37,15.08 -11.43,15.03 -11.49,14.98 -11.54,14.92 -11.59,14.85 -11.62,14.78 -11.65,14.71 -11.66,14.63 -11.68,14.55 -11.67,14.47 -11.67,14.39 -11.64,14.32 -11.62,14.24 -11.58,14.18 -11.53,14.11 -11.27,13.99 -11.01,13.86 -10.90,13.88 -10.80,13.90 -10.71,13.95 -10.61,14.00 -10.54,14.08 -10.47,14.16 -10.43,14.26 -10.38,14.36 -10.38,14.46 -10.37,14.57 -10.39,14.67 -10.42,14.77 -10.47,14.86 -10.53,14.95 -10.61,15.02 -10.69,15.09 -10.79,15.13 -10.89,15.16 -11.00,15.17 -11.10,15.17 -11.21,15.14 -11.31,15.11 -11.39,15.05 -11.48,14.99 -11.54,14.90 -11.61,14.82 -11.64,14.71 -11.67,14.61 -11.67,14.51 -11.67,14.40 -11.63,14.30 -11.60,14.20 -11.53,14.12 -11.46,14.03 -11.37,13.98 -11.29,13.92 -11.18,13.89 -11.08,13.86 -10.97,13.87 -10.87,13.88 -10.77,13.92 -10.67,13.96 -10.59,14.03 -10.51,14.10 -10.46,14.20 -10.41,14.29 -10.39,14.39 -10.36,14.50 -10.38,14.60 -10.39,14.71 -10.44,14.80 -10.48,14.90 -10.56,14.97 -10.63,15.05 -10.73,15.10 -10.82,15.15 -10.67,15.04 -10.51,14.93 -10.56,14.98 -10.62,15.04 -10.69,15.08 -10.76,15.12 -10.83,15.14 -10.91,15.17 -10.99,15.17 -11.07,15.17 -11.14,15.16 -11.22,15.14 -11.29,15.11 -11.37,15.08 -11.43,15.03 -11.49,14.98 -11.54,14.92 -11.59,14.85 -11.62,14.78 -11.65,14.71 -11.66,14.63 -11.68,14.55 -11.67,14.47 -11.67,14.39 -11.64,14.32 -11.62,14.24 -11.58,14.18 -11.53,14.11 -11.55,11.96 -11.58,9.81 -10.31,8.24 -9.04,6.67 -7.54,4.96 -6.03,3.25 -4.90,2.08 -3.76,0.92 -2.84,0.37 -1.92,-0.18 -1.17,-0.41 -0.43,-0.64 -0.34,-0.69 -0.26,-0.73 -0.17,-0.75 -0.08,-0.77 0.01,-0.77 0.10,-0.77 0.19,-0.74 0.28,-0.72 0.37,-0.67 0.45,-0.63 0.52,-0.57 0.59,-0.50 0.64,-0.42 0.69,-0.35 0.72,-0.26 0.76,-0.17 0.77,-0.08 0.77,0.01 0.76,0.10 0.75,0.19 0.71,0.28 0.68,0.37 0.62,0.45 0.57,0.52 0.50,0.58 0.43,0.64 0.43,0.64 L 0.43,0.64 Z"/></g><g transform="translate(391.7887418287912 190.18696212017306) rotate(0 -3.6172101637373544 7.234387211027638)" stroke="none"><path fill="#1e1e1e" d="M 0.77,0.38 Q 0.77,0.38 0.57,1.32 0.38,2.27 -0.15,3.64 -0.68,5.01 -1.57,6.71 -2.46,8.41 -3.24,9.93 -4.02,11.44 -5.16,12.77 -6.30,14.09 -6.37,14.18 -6.43,14.26 -6.52,14.33 -6.60,14.39 -6.71,14.42 -6.81,14.45 -6.91,14.44 -7.02,14.44 -7.12,14.40 -7.22,14.36 -7.30,14.30 -7.38,14.23 -7.44,14.14 -7.49,14.05 -7.52,13.94 -7.54,13.84 -7.53,13.74 -7.52,13.63 -7.48,13.53 -7.44,13.44 -7.37,13.36 -7.29,13.28 -7.20,13.23 -7.11,13.18 -7.00,13.16 -6.90,13.14 -6.79,13.15 -6.69,13.17 -6.59,13.22 -6.50,13.27 -6.42,13.34 -6.35,13.42 -6.30,13.51 -6.26,13.61 -6.25,13.71 -6.23,13.82 -6.25,13.92 -6.27,14.03 -6.33,14.12 -6.38,14.21 -6.46,14.28 -6.54,14.35 -6.64,14.39 -6.74,14.43 -6.84,14.44 -6.95,14.45 -7.05,14.42 -7.15,14.40 -7.24,14.34 -7.33,14.28 -7.40,14.20 -7.46,14.11 -7.50,14.01 -7.53,13.91 -7.54,13.81 -7.54,13.70 -7.51,13.60 -7.47,13.50 -7.47,13.50 -7.47,13.50 -7.07,11.79 -6.66,10.08 -5.86,8.55 -5.06,7.01 -4.20,5.45 -3.34,3.88 -2.69,2.47 -2.04,1.05 -1.41,0.33 -0.77,-0.38 -0.71,-0.47 -0.65,-0.56 -0.58,-0.63 -0.50,-0.70 -0.41,-0.75 -0.32,-0.80 -0.22,-0.83 -0.12,-0.85 -0.01,-0.86 0.08,-0.86 0.18,-0.83 0.29,-0.81 0.38,-0.76 0.47,-0.72 0.55,-0.65 0.63,-0.58 0.69,-0.50 0.75,-0.41 0.79,-0.32 0.83,-0.22 0.85,-0.12 0.86,-0.01 0.85,0.08 0.84,0.19 0.81,0.28 0.77,0.38 0.77,0.38 L 0.77,0.38 Z"/></g><g transform="translate(51.04858426116999 117.84295754410829) rotate(0 -2.532050426260838 8.31956350672769)" stroke="none"><path fill="#1e1e1e" d="M 0.59,-0.59 Q 0.59,-0.59 1.19,0.01 1.80,0.61 1.66,1.70 1.51,2.78 0.76,4.28 0.01,5.77 -0.94,7.25 -1.89,8.73 -3.11,10.58 -4.34,12.44 -5.15,14.33 -5.96,16.21 -5.94,16.32 -5.92,16.42 -5.93,16.53 -5.95,16.63 -6.00,16.73 -6.04,16.82 -6.12,16.90 -6.19,16.97 -6.29,17.02 -6.38,17.07 -6.49,17.08 -6.59,17.10 -6.70,17.08 -6.80,17.06 -6.89,17.01 -6.99,16.96 -7.06,16.88 -7.13,16.80 -7.17,16.70 -7.21,16.60 -7.22,16.50 -7.23,16.39 -7.21,16.29 -7.18,16.19 -7.12,16.10 -7.07,16.01 -6.99,15.94 -6.90,15.87 -6.80,15.83 -6.70,15.80 -6.60,15.79 -6.49,15.79 -6.39,15.82 -6.29,15.85 -6.20,15.91 -6.11,15.98 -6.05,16.06 -5.99,16.15 -5.96,16.25 -5.93,16.35 -5.93,16.46 -5.93,16.56 -5.97,16.66 -6.00,16.76 -6.07,16.85 -6.14,16.93 -6.23,16.99 -6.32,17.04 -6.42,17.07 -6.52,17.10 -6.63,17.09 -6.73,17.08 -6.83,17.04 -6.93,17.00 -7.01,16.93 -7.09,16.86 -7.14,16.76 -7.19,16.67 -7.19,16.67 -7.19,16.67 -6.84,13.84 -6.49,11.02 -5.26,9.17 -4.02,7.32 -3.11,5.96 -2.20,4.60 -1.51,3.34 -0.81,2.08 -0.47,1.56 -0.14,1.04 -0.36,0.81 -0.59,0.59 -0.65,0.51 -0.71,0.43 -0.75,0.34 -0.79,0.24 -0.81,0.14 -0.83,0.05 -0.82,-0.05 -0.82,-0.15 -0.79,-0.24 -0.76,-0.34 -0.71,-0.42 -0.65,-0.51 -0.58,-0.58 -0.51,-0.65 -0.42,-0.71 -0.34,-0.76 -0.24,-0.79 -0.15,-0.82 -0.05,-0.82 0.05,-0.83 0.14,-0.81 0.24,-0.79 0.34,-0.75 0.43,-0.71 0.51,-0.65 0.59,-0.59 0.59,-0.59 L 0.59,-0.59 Z"/></g><g transform="translate(64.07050111088802 117.84295754410829) rotate(0 -4.702369901213871 7.234403769251202)" stroke="none"><path fill="#1e1e1e" d="M 0.65,0.49 Q 0.65,0.49 0.17,1.43 -0.30,2.36 -0.73,3.10 -1.16,3.84 -2.02,4.88 -2.88,5.93 -3.58,7.09 -4.28,8.25 -5.02,9.42 -5.76,10.58 -6.93,12.35 -8.09,14.12 -8.08,14.22 -8.07,14.33 -8.09,14.43 -8.12,14.53 -8.17,14.62 -8.23,14.71 -8.31,14.78 -8.39,14.85 -8.49,14.89 -8.59,14.93 -8.70,14.93 -8.80,14.93 -8.91,14.90 -9.01,14.87 -9.10,14.81 -9.18,14.75 -9.25,14.67 -9.31,14.58 -9.34,14.48 -9.37,14.38 -9.37,14.27 -9.37,14.17 -9.34,14.07 -9.30,13.97 -9.23,13.88 -9.17,13.80 -9.08,13.74 -8.99,13.68 -8.89,13.66 -8.79,13.63 -8.68,13.64 -8.57,13.64 -8.48,13.68 -8.38,13.72 -8.30,13.79 -8.22,13.86 -8.16,13.96 -8.11,14.05 -8.09,14.15 -8.07,14.26 -8.08,14.36 -8.09,14.47 -8.14,14.56 -8.19,14.66 -8.26,14.73 -8.33,14.81 -8.43,14.86 -8.52,14.91 -8.63,14.92 -8.73,14.94 -8.84,14.92 -8.94,14.90 -9.04,14.85 -9.13,14.80 -9.20,14.72 -9.27,14.64 -9.32,14.55 -9.36,14.45 -9.36,14.45 -9.36,14.45 -8.66,11.81 -7.95,9.16 -7.21,8.03 -6.47,6.89 -5.63,5.58 -4.80,4.27 -4.01,3.42 -3.22,2.56 -2.70,1.76 -2.18,0.96 -1.42,0.23 -0.65,-0.49 -0.59,-0.56 -0.52,-0.63 -0.43,-0.69 -0.35,-0.74 -0.25,-0.77 -0.16,-0.80 -0.06,-0.81 0.03,-0.82 0.13,-0.80 0.22,-0.79 0.31,-0.75 0.41,-0.71 0.49,-0.65 0.56,-0.59 0.63,-0.51 0.69,-0.44 0.73,-0.35 0.78,-0.26 0.80,-0.16 0.82,-0.06 0.81,0.03 0.81,0.13 0.78,0.22 0.75,0.32 0.70,0.40 0.65,0.49 0.65,0.49 L 0.65,0.49 Z"/></g><g transform="translate(71.30485520546858 119.28984823289267) rotate(0 -5.425798687382496 7.957832555419827)" stroke="none"><path fill="#1e1e1e" d="M 0.75,0.45 Q 0.75,0.45 0.31,1.60 -0.11,2.75 -0.78,3.85 -1.44,4.95 -2.61,6.33 -3.78,7.71 -4.85,9.07 -5.93,10.43 -6.79,11.61 -7.65,12.80 -8.55,14.23 -9.44,15.66 -9.47,15.76 -9.50,15.87 -9.55,15.96 -9.61,16.05 -9.69,16.11 -9.78,16.18 -9.88,16.22 -9.98,16.25 -10.08,16.25 -10.19,16.26 -10.29,16.23 -10.39,16.19 -10.48,16.13 -10.56,16.07 -10.62,15.98 -10.69,15.90 -10.72,15.80 -10.75,15.69 -10.75,15.59 -10.74,15.48 -10.71,15.38 -10.67,15.28 -10.60,15.20 -10.54,15.12 -10.45,15.06 -10.36,15.00 -10.25,14.98 -10.15,14.95 -10.04,14.96 -9.94,14.97 -9.84,15.01 -9.74,15.05 -9.66,15.13 -9.59,15.20 -9.53,15.29 -9.48,15.38 -9.46,15.49 -9.44,15.59 -9.46,15.70 -9.47,15.80 -9.52,15.90 -9.57,15.99 -9.64,16.07 -9.72,16.14 -9.81,16.19 -9.91,16.23 -10.01,16.25 -10.12,16.26 -10.22,16.24 -10.33,16.22 -10.42,16.17 -10.51,16.12 -10.58,16.04 -10.65,15.96 -10.69,15.86 -10.74,15.76 -10.74,15.66 -10.75,15.55 -10.75,15.55 -10.75,15.55 -10.37,13.33 -9.98,11.10 -9.08,9.87 -8.17,8.64 -7.04,7.24 -5.92,5.84 -4.84,4.65 -3.77,3.46 -3.07,2.43 -2.37,1.40 -1.56,0.47 -0.75,-0.45 -0.69,-0.53 -0.62,-0.62 -0.54,-0.68 -0.45,-0.75 -0.36,-0.79 -0.26,-0.84 -0.16,-0.85 -0.05,-0.87 0.04,-0.87 0.15,-0.86 0.25,-0.83 0.35,-0.80 0.44,-0.74 0.54,-0.69 0.61,-0.62 0.69,-0.54 0.74,-0.45 0.80,-0.36 0.83,-0.26 0.86,-0.16 0.87,-0.05 0.87,0.05 0.86,0.15 0.84,0.25 0.79,0.35 0.75,0.45 0.75,0.45 L 0.75,0.45 Z"/></g><g transform="translate(75.64549415537459 124.35391596896733) rotate(0 -1.8085885236451418 4.702369901213842)" stroke="none"><path fill="#1e1e1e" d="M 0.83,0.16 Q 0.83,0.16 0.83,1.25 0.83,2.33 0.29,3.55 -0.24,4.77 -1.86,7.02 -3.48,9.28 -3.55,9.36 -3.62,9.44 -3.71,9.49 -3.81,9.54 -3.91,9.56 -4.02,9.58 -4.12,9.57 -4.23,9.55 -4.32,9.51 -4.42,9.46 -4.49,9.39 -4.57,9.31 -4.62,9.22 -4.66,9.12 -4.68,9.02 -4.69,8.91 -4.67,8.81 -4.65,8.70 -4.60,8.61 -4.55,8.52 -4.47,8.45 -4.39,8.37 -4.30,8.33 -4.20,8.29 -4.09,8.28 -3.99,8.27 -3.88,8.30 -3.78,8.32 -3.69,8.38 -3.60,8.43 -3.53,8.52 -3.47,8.60 -3.43,8.70 -3.39,8.80 -3.39,8.90 -3.39,9.01 -3.42,9.11 -3.45,9.21 -3.51,9.30 -3.57,9.39 -3.66,9.45 -3.74,9.51 -3.84,9.54 -3.94,9.58 -4.05,9.57 -4.16,9.57 -4.26,9.54 -4.36,9.50 -4.44,9.43 -4.52,9.37 -4.58,9.28 -4.64,9.19 -4.66,9.09 -4.69,8.98 -4.68,8.88 -4.67,8.77 -4.63,8.67 -4.59,8.58 -4.59,8.58 -4.59,8.58 -3.60,6.11 -2.60,3.65 -2.13,2.73 -1.66,1.82 -1.24,0.82 -0.83,-0.16 -0.79,-0.26 -0.76,-0.35 -0.71,-0.44 -0.65,-0.53 -0.58,-0.60 -0.51,-0.67 -0.42,-0.72 -0.33,-0.77 -0.23,-0.80 -0.13,-0.83 -0.03,-0.83 0.06,-0.84 0.16,-0.82 0.26,-0.80 0.35,-0.76 0.44,-0.71 0.52,-0.65 0.60,-0.58 0.67,-0.50 0.73,-0.42 0.77,-0.33 0.81,-0.23 0.82,-0.13 0.84,-0.03 0.83,0.06 0.83,0.16 0.83,0.16 L 0.83,0.16 Z"/></g><g transform="translate(46.707945311263984 174.27126389288634) rotate(0 -4.340672066353051 5.7875296386903585)" stroke="none"><path fill="#1e1e1e" d="M 0.54,0.54 Q 0.54,0.54 -0.09,1.56 -0.72,2.59 -1.44,3.51 -2.15,4.44 -3.29,6.07 -4.42,7.71 -5.57,9.08 -6.71,10.46 -7.37,11.60 -8.02,12.74 -8.04,12.85 -8.05,12.96 -8.10,13.05 -8.15,13.14 -8.23,13.22 -8.30,13.29 -8.40,13.34 -8.50,13.38 -8.60,13.40 -8.71,13.41 -8.81,13.39 -8.91,13.37 -9.01,13.32 -9.10,13.26 -9.17,13.18 -9.24,13.10 -9.28,13.00 -9.32,12.91 -9.33,12.80 -9.33,12.69 -9.31,12.59 -9.28,12.49 -9.22,12.40 -9.16,12.31 -9.08,12.24 -9.00,12.18 -8.90,12.14 -8.80,12.11 -8.69,12.11 -8.58,12.11 -8.48,12.14 -8.38,12.17 -8.30,12.23 -8.21,12.30 -8.15,12.38 -8.09,12.47 -8.06,12.57 -8.03,12.67 -8.03,12.78 -8.04,12.89 -8.07,12.99 -8.11,13.08 -8.18,13.17 -8.25,13.25 -8.34,13.31 -8.43,13.36 -8.53,13.39 -8.63,13.41 -8.74,13.40 -8.85,13.39 -8.94,13.35 -9.04,13.30 -9.12,13.23 -9.20,13.16 -9.25,13.07 -9.30,12.97 -9.32,12.87 -9.34,12.76 -9.34,12.76 -9.34,12.76 -9.06,10.76 -8.78,8.75 -7.70,7.46 -6.62,6.17 -5.43,4.48 -4.24,2.79 -3.42,1.76 -2.59,0.73 -1.56,0.09 -0.54,-0.54 -0.46,-0.59 -0.39,-0.65 -0.31,-0.69 -0.22,-0.73 -0.13,-0.74 -0.04,-0.76 0.04,-0.75 0.13,-0.75 0.22,-0.72 0.31,-0.69 0.39,-0.65 0.47,-0.60 0.53,-0.53 0.60,-0.47 0.65,-0.39 0.69,-0.31 0.72,-0.22 0.75,-0.13 0.75,-0.04 0.76,0.04 0.74,0.13 0.73,0.22 0.69,0.31 0.65,0.39 0.59,0.46 0.54,0.54 0.54,0.54 L 0.54,0.54 Z"/></g><g transform="translate(55.389223211076 177.8884740566237) rotate(0 -3.255479212429492 5.064084294298169)" stroke="none"><path fill="#1e1e1e" d="M 0.72,0.51 Q 0.72,0.51 -0.12,2.11 -0.96,3.70 -1.81,4.94 -2.65,6.18 -3.92,7.99 -5.18,9.79 -5.18,9.90 -5.17,10.00 -5.20,10.11 -5.23,10.21 -5.29,10.30 -5.35,10.39 -5.43,10.45 -5.51,10.52 -5.61,10.55 -5.71,10.58 -5.82,10.58 -5.93,10.59 -6.03,10.55 -6.13,10.52 -6.21,10.45 -6.30,10.39 -6.36,10.30 -6.42,10.22 -6.45,10.11 -6.48,10.01 -6.47,9.91 -6.47,9.80 -6.43,9.70 -6.39,9.60 -6.32,9.52 -6.25,9.44 -6.16,9.38 -6.07,9.33 -5.97,9.30 -5.86,9.28 -5.76,9.29 -5.65,9.30 -5.56,9.35 -5.46,9.39 -5.38,9.46 -5.30,9.54 -5.25,9.63 -5.20,9.72 -5.19,9.83 -5.17,9.93 -5.18,10.04 -5.20,10.14 -5.25,10.24 -5.30,10.33 -5.38,10.40 -5.45,10.48 -5.55,10.52 -5.65,10.57 -5.75,10.58 -5.86,10.59 -5.96,10.57 -6.06,10.55 -6.16,10.49 -6.25,10.44 -6.32,10.36 -6.39,10.28 -6.43,10.18 -6.47,10.08 -6.47,10.08 -6.47,10.08 -5.70,7.34 -4.93,4.60 -4.06,3.36 -3.19,2.11 -1.95,0.79 -0.72,-0.51 -0.65,-0.59 -0.58,-0.67 -0.49,-0.73 -0.40,-0.79 -0.30,-0.83 -0.19,-0.87 -0.09,-0.88 0.01,-0.89 0.12,-0.87 0.22,-0.86 0.32,-0.82 0.42,-0.78 0.51,-0.72 0.60,-0.65 0.67,-0.57 0.74,-0.49 0.79,-0.39 0.84,-0.30 0.86,-0.19 0.88,-0.09 0.88,0.01 0.88,0.12 0.85,0.22 0.82,0.33 0.77,0.42 0.72,0.51 0.72,0.51 L 0.72,0.51 Z"/></g><g transform="translate(71.30485520546858 173.54783510671768) rotate(0 -6.872656259719776 8.31956350672769)" stroke="none"><path fill="#1e1e1e" d="M 0.42,0.70 Q 0.42,0.70 -0.50,1.51 -1.43,2.32 -2.45,3.03 -3.48,3.73 -4.42,4.76 -5.36,5.80 -6.37,7.25 -7.38,8.69 -8.25,9.96 -9.12,11.22 -10.12,12.60 -11.12,13.99 -12.06,15.24 -13.00,16.50 -13.05,16.59 -13.10,16.69 -13.18,16.76 -13.26,16.83 -13.35,16.88 -13.45,16.92 -13.55,16.94 -13.66,16.95 -13.76,16.93 -13.87,16.90 -13.96,16.85 -14.05,16.80 -14.12,16.71 -14.19,16.63 -14.23,16.54 -14.27,16.44 -14.27,16.33 -14.28,16.22 -14.25,16.12 -14.22,16.02 -14.17,15.93 -14.11,15.84 -14.02,15.78 -13.94,15.71 -13.84,15.68 -13.74,15.64 -13.63,15.64 -13.52,15.64 -13.42,15.68 -13.32,15.71 -13.24,15.77 -13.15,15.84 -13.09,15.93 -13.03,16.01 -13.00,16.12 -12.97,16.22 -12.98,16.32 -12.99,16.43 -13.02,16.53 -13.06,16.63 -13.13,16.71 -13.20,16.79 -13.29,16.85 -13.38,16.90 -13.48,16.92 -13.59,16.95 -13.69,16.94 -13.80,16.93 -13.90,16.88 -13.99,16.84 -14.07,16.77 -14.15,16.69 -14.20,16.60 -14.25,16.51 -14.27,16.40 -14.28,16.30 -14.27,16.19 -14.25,16.09 -14.25,16.09 -14.25,16.09 -13.83,14.21 -13.41,12.33 -12.42,10.97 -11.44,9.62 -10.55,8.34 -9.66,7.07 -8.51,5.48 -7.36,3.89 -6.15,2.69 -4.93,1.48 -3.83,0.82 -2.72,0.16 -1.57,-0.26 -0.42,-0.70 -0.33,-0.74 -0.24,-0.78 -0.14,-0.80 -0.04,-0.82 0.05,-0.81 0.15,-0.81 0.24,-0.78 0.34,-0.75 0.42,-0.69 0.51,-0.64 0.58,-0.57 0.65,-0.50 0.70,-0.42 0.75,-0.33 0.78,-0.24 0.81,-0.14 0.81,-0.04 0.82,0.05 0.80,0.15 0.78,0.24 0.74,0.33 0.70,0.42 0.64,0.50 0.58,0.58 0.50,0.64 0.42,0.70 0.42,0.70 L 0.42,0.70 Z"/></g><g transform="translate(77.81581363032763 175.71815458167072) rotate(0 -3.9789079985981743 9.042992292896315)" stroke="none"><path fill="#1e1e1e" d="M 0.78,0.15 Q 0.78,0.15 0.81,1.24 0.84,2.33 0.58,3.45 0.32,4.58 -0.20,6.13 -0.73,7.69 -1.62,9.28 -2.51,10.87 -3.50,12.54 -4.48,14.22 -5.72,15.87 -6.96,17.52 -7.02,17.61 -7.09,17.70 -7.17,17.76 -7.26,17.83 -7.36,17.86 -7.46,17.89 -7.56,17.89 -7.67,17.89 -7.77,17.86 -7.87,17.82 -7.95,17.76 -8.04,17.69 -8.10,17.60 -8.16,17.52 -8.18,17.41 -8.21,17.31 -8.21,17.21 -8.20,17.10 -8.16,17.00 -8.12,16.90 -8.05,16.82 -7.98,16.74 -7.89,16.69 -7.80,16.63 -7.69,16.61 -7.59,16.59 -7.48,16.60 -7.38,16.61 -7.28,16.66 -7.19,16.70 -7.11,16.78 -7.03,16.85 -6.98,16.95 -6.93,17.04 -6.92,17.14 -6.90,17.25 -6.92,17.35 -6.94,17.46 -6.99,17.55 -7.04,17.65 -7.12,17.72 -7.19,17.79 -7.29,17.84 -7.39,17.88 -7.49,17.89 -7.60,17.90 -7.70,17.88 -7.81,17.85 -7.90,17.80 -7.99,17.74 -8.06,17.66 -8.12,17.58 -8.16,17.48 -8.20,17.38 -8.21,17.28 -8.21,17.17 -8.18,17.07 -8.15,16.96 -8.15,16.96 -8.15,16.96 -7.61,14.83 -7.06,12.69 -6.07,11.03 -5.08,9.38 -4.26,8.04 -3.45,6.69 -2.89,5.26 -2.34,3.84 -2.01,2.83 -1.68,1.82 -1.23,0.83 -0.78,-0.15 -0.75,-0.24 -0.72,-0.34 -0.67,-0.42 -0.62,-0.50 -0.55,-0.57 -0.48,-0.63 -0.40,-0.68 -0.31,-0.73 -0.22,-0.76 -0.13,-0.79 -0.03,-0.79 0.06,-0.79 0.15,-0.78 0.25,-0.76 0.33,-0.72 0.42,-0.67 0.50,-0.61 0.57,-0.55 0.63,-0.48 0.69,-0.40 0.73,-0.31 0.76,-0.22 0.78,-0.13 0.80,-0.03 0.79,0.06 0.78,0.15 0.78,0.15 L 0.78,0.15 Z"/></g></svg>