<svg version="1.1" xmlns="http://www.w3.org/2000/svg" viewBox="0 0 450.9436952142704 193.2712843640303" width="450.9436952142704" height="193.2712843640303" class="excalidraw-svg">
  <!-- svg-source:excalidraw -->
  
  <defs>
    <style class="style-fonts">
      
    </style>
    
  </defs>
  <rect x="0" y="0" width="450.9436952142704" height="193.2712843640303" fill="#ffffff"/><g stroke-linecap="round" transform="translate(103.03363150829074 96.74915405105867) rotate(0 37.135874385793706 28.597514883455958)"><path d="M0 0 C28.63 0.09, 58.13 0.01, 74.27 0 M0 0 C20.68 0.34, 41.82 -0.89, 74.27 0 M74.27 0 C76.32 20.73, 74.81 40.29, 74.27 57.2 M74.27 0 C73.89 12.42, 74.16 26.75, 74.27 57.2 M74.27 57.2 C45.36 58.35, 14.39 59.68, 0 57.2 M74.27 57.2 C58.82 56.62, 43.02 57.21, 0 57.2 M0 57.2 C-2.35 33.26, -1.65 14.41, 0 0 M0 57.2 C0.12 35.64, -0.04 15.78, 0 0" stroke="#1971c2" stroke-width="2" fill="none"/></g><g stroke-linecap="round" transform="translate(103.98316898706548 39.7617992061447) rotate(0 37.01260041958409 26.752782185392846)"><path d="M0 0 C22.2 -0.12, 41.03 -1.4, 74.03 0 M0 0 C26.52 -1.03, 53.78 -0.04, 74.03 0 M74.03 0 C74.72 12.65, 73.13 24.09, 74.03 53.51 M74.03 0 C74.39 16.29, 75.02 32.27, 74.03 53.51 M74.03 53.51 C43.92 55.47, 14.13 53.65, 0 53.51 M74.03 53.51 C52.38 53.05, 29.94 54.06, 0 53.51 M0 53.51 C-0.6 39.57, 1.81 20.81, 0 0 M0 53.51 C-0.31 39.04, -0.71 23.15, 0 0" stroke="#f08c00" stroke-width="2" fill="none"/></g><g stroke-linecap="round" transform="translate(200.33754358163162 96.10349747171574) rotate(0 33.5 23.5)"><path d="M0 0 C19.54 -1.37, 40.98 -0.51, 67 0 M0 0 C25.87 0.84, 50.06 1.17, 67 0 M67 0 C65.69 13.73, 67.06 30.69, 67 47 M67 0 C68.12 10.24, 68.09 20.5, 67 47 M67 47 C43.66 47.57, 23.76 48.78, 0 47 M67 47 C51.8 47.99, 34.73 46.1, 0 47 M0 47 C1.58 35.4, -0.15 26.24, 0 0 M0 47 C-0.66 35.27, 1.1 23.96, 0 0" stroke="#1e1e1e" stroke-width="2" fill="none"/></g><g stroke-linecap="round" transform="translate(197.6750568379523 41.078281373758614) rotate(0 35.333343505859375 24.740174232547844)"><path d="M0 0 C17.75 -0.01, 31.48 1.27, 70.67 0 M0 0 C25.28 -0.5, 49.97 -1.3, 70.67 0 M70.67 0 C68.97 11.68, 71.11 23.96, 70.67 49.48 M70.67 0 C71.36 14.98, 72.02 30.11, 70.67 49.48 M70.67 49.48 C48.38 51.58, 28.45 51.67, 0 49.48 M70.67 49.48 C41.54 48.31, 14.96 49.52, 0 49.48 M0 49.48 C-1.08 37.48, 1.13 25.63, 0 0 M0 49.48 C-0.2 37.6, 0.23 24.36, 0 0" stroke="#f08c00" stroke-width="2" fill="none"/></g><g stroke-linecap="round" transform="translate(176.49589070789335 54.124467813667025) rotate(0 9.256269884481046 11.908930812641387)"><path d="M0 0 C4.61 0.51, 10.57 -0.55, 18.51 0 M0 0 C7.13 -0.33, 13.97 -0.01, 18.51 0 M18.51 0 C18.63 8.26, 18.54 15.53, 18.51 23.82 M18.51 0 C18.99 7.37, 18.53 15.59, 18.51 23.82 M18.51 23.82 C11.85 24.71, 6.14 23.81, 0 23.82 M18.51 23.82 C14.98 24.08, 10.34 23.68, 0 23.82 M0 23.82 C0.59 16.54, -0.33 11.91, 0 0 M0 23.82 C0.3 17.89, 0.3 11.76, 0 0" stroke="#f08c00" stroke-width="2" fill="none"/></g><g stroke-linecap="round"><g transform="translate(10 130.39480912547265) rotate(0 47.33332824707031 0.5)"><path d="M0 0 C29.42 -1.14, 61.56 0.86, 94.67 1 M0 0 C21.34 0.14, 41.68 0.49, 94.67 1" stroke="#1971c2" stroke-width="2" fill="none"/></g></g><mask/><g stroke-linecap="round"><g transform="translate(271.6898180421781 64.67480923725213) rotate(0 28.15480717235193 -0.000024621720569939498)"><path d="M0 0 C20.09 -1.67, 42.67 1.69, 56.31 0 M0 0 C20.33 -0.48, 40.81 0.63, 56.31 0" stroke="#f08c00" stroke-width="2" fill="none"/></g></g><mask/><g stroke-linecap="round"><g transform="translate(321.46803439988133 134.60977233758706) rotate(0 59.73783040719454 -0.00001527639277298931)"><path d="M0 0 C33.72 2.67, 70.92 -0.51, 119.48 0 M0 0 C32.96 1.22, 66 0.31, 119.48 0" stroke="#2f9e44" stroke-width="2" fill="none"/></g></g><mask/><g stroke-linecap="round"><g transform="translate(309.79140994230477 79.75646231686267) rotate(0 13.3487258682988 0.33374335275553335)"><path d="M0 0 C6.38 -0.74, 11.23 -0.14, 26.7 0.67 M0 0 C5.99 -0.11, 13.31 0.06, 26.7 0.67" stroke="#2f9e44" stroke-width="2" fill="none"/></g></g><mask/><g stroke-linecap="round"><g transform="translate(307.7057461379153 53.80776237176758) rotate(0 14.392896433535611 0.24371495286345635)"><path d="M0 0 C10.8 -0.02, 21.41 0, 28.79 0.49 M0 0 C10.56 0.04, 20.36 0.9, 28.79 0.49" stroke="#2f9e44" stroke-width="2" fill="none"/></g></g><mask/><g stroke-linecap="round" transform="translate(317.07509555500815 67.69700557776855) rotate(0 5.962229066558791 5.299742322879524)"><path d="M5.05 0.48 C6.17 0.37, 7.85 0.38, 9.03 0.98 C10.22 1.58, 11.71 2.97, 12.17 4.09 C12.62 5.22, 12.27 6.66, 11.76 7.71 C11.24 8.76, 10.23 9.9, 9.09 10.41 C7.94 10.91, 6.19 11.08, 4.87 10.72 C3.55 10.35, 1.98 9.15, 1.16 8.24 C0.34 7.32, -0.18 6.32, -0.07 5.21 C0.05 4.1, 0.9 2.49, 1.86 1.58 C2.82 0.67, 5.05 0.07, 5.69 -0.26 C6.33 -0.58, 5.71 -0.45, 5.7 -0.38 M6.79 0.14 C7.89 0.24, 9.59 0.97, 10.47 1.7 C11.34 2.42, 12.13 3.32, 12.05 4.52 C11.98 5.71, 10.96 7.95, 10.03 8.88 C9.09 9.81, 7.63 9.82, 6.43 10.1 C5.24 10.39, 3.87 11.03, 2.88 10.6 C1.89 10.17, 1 8.63, 0.5 7.51 C-0.01 6.38, -0.5 4.9, -0.17 3.84 C0.16 2.77, 1.23 1.87, 2.48 1.13 C3.74 0.4, 6.63 -0.43, 7.34 -0.57 C8.06 -0.72, 6.81 0.12, 6.77 0.25" stroke="#1e1e1e" stroke-width="2" fill="none"/></g><g stroke-linecap="round" transform="translate(317.4631924415311 54.348165124810635) rotate(0 5.630955369408241 4.637270741855701)"><path d="M4.21 0.23 C5.43 -0.05, 7.56 0.36, 8.72 0.85 C9.87 1.34, 10.69 2.26, 11.14 3.18 C11.59 4.11, 11.8 5.46, 11.43 6.4 C11.07 7.33, 10.03 8.36, 8.93 8.8 C7.84 9.23, 6.13 9.13, 4.88 8.99 C3.63 8.86, 2.18 8.68, 1.41 7.98 C0.64 7.27, 0.25 5.83, 0.25 4.76 C0.26 3.68, 0.69 2.41, 1.45 1.54 C2.2 0.68, 4.18 -0.13, 4.77 -0.42 C5.36 -0.72, 4.95 -0.48, 4.99 -0.24 M5.48 -0.07 C6.65 -0.29, 8.38 -0.32, 9.22 0.35 C10.06 1.03, 10.41 2.95, 10.52 3.96 C10.63 4.97, 10.37 5.49, 9.87 6.42 C9.37 7.36, 8.48 9.09, 7.49 9.57 C6.51 10.05, 5.16 9.67, 3.98 9.3 C2.79 8.92, 1.1 8.13, 0.39 7.3 C-0.32 6.48, -0.62 5.46, -0.29 4.34 C0.04 3.22, 1.43 1.28, 2.37 0.57 C3.32 -0.14, 4.82 0.23, 5.39 0.09 C5.96 -0.04, 5.73 -0.2, 5.79 -0.25" stroke="#1e1e1e" stroke-width="2" fill="none"/></g><g stroke-linecap="round"><g transform="translate(321.2964289327934 133.94234673764697) rotate(0 0.750521036153259 -26.840665410572143)"><path d="M0 0 C-0.7 -11.76, -0.28 -26.57, 1.5 -53.68 M0 0 C0.9 -20.62, 1.6 -42.41, 1.5 -53.68" stroke="#2f9e44" stroke-width="2" fill="none"/></g></g><mask/><g transform="translate(14.15871360541297 116.1340489678148) rotate(0 4.637270741855701 -2.3186277896001)" stroke="none"><path fill="#1971c2" d="M -0.37,0.74 Q -0.37,0.74 -1.27,0.59 -2.17,0.43 -2.30,0.32 -2.43,0.20 -2.57,0.10 -2.72,0.01 -2.84,-0.11 -2.95,-0.24 -3.04,-0.39 -3.12,-0.54 -3.17,-0.71 -3.21,-0.88 -3.21,-1.05 -3.22,-1.23 -3.18,-1.40 -3.14,-1.56 -3.06,-1.72 -2.99,-1.87 -2.87,-2.01 -2.76,-2.14 -2.62,-2.24 -2.48,-2.34 -2.32,-2.41 -2.16,-2.47 -1.99,-2.50 -1.81,-2.52 -1.64,-2.50 -1.47,-2.48 -1.30,-2.43 -1.14,-2.37 -1.68,-2.48 -2.22,-2.58 -1.40,-3.00 -0.57,-3.42 0.28,-3.95 1.15,-4.47 1.95,-4.92 2.74,-5.36 3.72,-5.77 4.69,-6.18 5.16,-6.47 5.63,-6.77 6.15,-7.23 6.68,-7.69 7.30,-8.27 7.91,-8.85 8.37,-9.29 8.83,-9.73 9.22,-10.12 9.62,-10.50 10.63,-10.75 11.64,-11.00 12.21,-10.75 12.78,-10.51 13.06,-9.90 13.34,-9.30 13.19,-8.12 13.03,-6.95 12.98,-6.27 12.92,-5.59 12.89,-4.93 12.86,-4.26 12.63,-3.40 12.39,-2.54 12.11,-1.66 11.83,-0.79 11.74,-0.16 11.65,0.46 11.36,1.70 11.06,2.95 10.09,4.34 9.13,5.72 9.03,5.77 8.94,5.82 8.83,5.84 8.73,5.86 8.62,5.84 8.52,5.82 8.43,5.77 8.33,5.72 8.26,5.65 8.19,5.57 8.14,5.47 8.10,5.38 8.09,5.27 8.08,5.16 8.10,5.06 8.12,4.96 8.18,4.87 8.23,4.77 8.31,4.71 8.39,4.64 8.49,4.60 8.59,4.56 8.70,4.55 8.80,4.55 8.91,4.58 9.01,4.61 9.10,4.67 9.18,4.73 9.25,4.81 9.31,4.89 9.35,5.00 9.38,5.10 9.38,5.20 9.38,5.31 9.34,5.41 9.31,5.51 9.25,5.59 9.18,5.68 9.09,5.74 9.01,5.80 8.90,5.83 8.80,5.85 8.69,5.85 8.59,5.84 8.49,5.80 8.39,5.76 8.31,5.69 8.23,5.62 8.18,5.53 8.12,5.44 8.10,5.34 8.08,5.23 8.09,5.13 8.10,5.02 8.14,4.93 8.19,4.83 8.26,4.75 8.33,4.68 8.33,4.68 8.33,4.68 8.39,2.87 8.45,1.07 8.50,0.52 8.56,-0.02 8.70,-0.88 8.85,-1.74 9.29,-3.08 9.74,-4.42 9.77,-5.15 9.80,-5.88 9.88,-6.70 9.96,-7.52 10.29,-7.96 10.61,-8.39 11.18,-8.31 11.75,-8.24 11.37,-7.86 10.99,-7.48 10.51,-7.03 10.04,-6.58 9.37,-5.94 8.69,-5.31 7.97,-4.71 7.25,-4.12 6.57,-3.71 5.89,-3.31 5.06,-2.98 4.24,-2.65 3.49,-2.24 2.75,-1.83 1.77,-1.24 0.80,-0.66 -0.00,-0.26 -0.81,0.14 -1.62,0.17 -2.43,0.20 -2.57,0.10 -2.72,0.01 -2.84,-0.11 -2.95,-0.24 -3.04,-0.39 -3.12,-0.54 -3.17,-0.71 -3.21,-0.88 -3.21,-1.05 -3.22,-1.23 -3.18,-1.40 -3.14,-1.56 -3.06,-1.72 -2.99,-1.87 -2.87,-2.01 -2.76,-2.14 -2.62,-2.24 -2.48,-2.34 -2.32,-2.41 -2.16,-2.47 -1.99,-2.50 -1.81,-2.52 -1.64,-2.50 -1.47,-2.48 -1.31,-2.43 -1.14,-2.37 -1.00,-2.16 -0.86,-1.96 -0.24,-1.35 0.37,-0.74 0.45,-0.69 0.54,-0.63 0.61,-0.56 0.67,-0.48 0.72,-0.40 0.77,-0.31 0.80,-0.21 0.82,-0.11 0.82,-0.01 0.83,0.08 0.80,0.18 0.78,0.28 0.74,0.37 0.69,0.46 0.63,0.53 0.56,0.61 0.48,0.67 0.40,0.73 0.30,0.77 0.21,0.80 0.11,0.82 0.01,0.83 -0.08,0.82 -0.18,0.81 -0.27,0.78 -0.37,0.74 -0.37,0.74 L -0.37,0.74 Z"/></g><g transform="translate(434.26931700372813 110.58208410632051) rotate(0 -5.005768381513846 7.675501334059376)" stroke="none"><path fill="#2f9e44" d="M 0,0.79 Q 0,0.79 -0.95,1.01 -1.91,1.24 -2.77,1.44 -3.63,1.64 -4.59,2.30 -5.55,2.96 -6.07,3.79 -6.59,4.63 -6.81,5.14 -7.04,5.66 -6.98,6.24 -6.92,6.82 -6.26,7.37 -5.61,7.91 -4.69,8.52 -3.78,9.14 -3.35,9.54 -2.92,9.94 -2.59,10.79 -2.27,11.65 -2.40,12.38 -2.52,13.12 -2.83,14.22 -3.14,15.32 -3.55,15.84 -3.96,16.36 -4.77,16.72 -5.58,17.08 -6.65,16.97 -7.73,16.87 -8.62,15.47 -9.51,14.08 -9.59,14.06 -9.67,14.03 -9.74,13.99 -9.80,13.96 -9.86,13.90 -9.92,13.85 -9.96,13.78 -10.00,13.71 -10.03,13.64 -10.06,13.56 -10.06,13.48 -10.07,13.41 -10.06,13.33 -10.04,13.25 -10.01,13.18 -9.98,13.10 -9.94,13.04 -9.89,12.98 -9.83,12.93 -9.77,12.88 -9.69,12.84 -9.62,12.81 -9.55,12.79 -9.47,12.77 -9.39,12.78 -9.31,12.78 -9.53,12.82 -9.75,12.86 -9.65,12.82 -9.55,12.79 -9.44,12.78 -9.34,12.78 -9.23,12.81 -9.13,12.84 -9.04,12.90 -8.96,12.96 -8.89,13.04 -8.83,13.13 -8.80,13.23 -8.76,13.33 -8.76,13.43 -8.77,13.54 -8.80,13.64 -8.84,13.74 -8.90,13.83 -8.97,13.91 -9.05,13.97 -9.14,14.03 -9.24,14.05 -9.35,14.08 -9.45,14.08 -9.56,14.07 -9.66,14.03 -9.76,13.99 -9.84,13.92 -9.92,13.85 -9.97,13.76 -10.02,13.67 -10.05,13.56 -10.07,13.46 -10.06,13.35 -10.04,13.25 -10.00,13.15 -9.95,13.06 -9.88,12.98 -9.81,12.90 -9.71,12.85 -9.62,12.80 -9.51,12.79 -9.41,12.77 -9.30,12.79 -9.20,12.81 -9.10,12.86 -9.01,12.91 -8.94,12.99 -8.87,13.06 -8.82,13.16 -8.78,13.26 -8.77,13.36 -8.76,13.47 -8.78,13.57 -8.80,13.68 -8.86,13.77 -8.92,13.86 -9.22,13.97 -9.51,14.08 -9.59,14.06 -9.67,14.03 -9.74,13.99 -9.80,13.96 -9.86,13.90 -9.92,13.85 -9.96,13.78 -10.00,13.71 -10.03,13.64 -10.06,13.56 -10.06,13.48 -10.07,13.41 -10.06,13.33 -10.04,13.25 -10.01,13.18 -9.98,13.10 -9.94,13.04 -9.89,12.98 -9.83,12.93 -9.77,12.88 -9.69,12.84 -9.62,12.81 -9.55,12.79 -9.47,12.77 -9.39,12.78 -9.31,12.78 -7.79,13.63 -6.27,14.48 -5.76,14.09 -5.26,13.69 -5.04,12.73 -4.83,11.77 -5.48,11.24 -6.12,10.71 -6.97,10.12 -7.82,9.54 -8.32,9.15 -8.82,8.75 -9.16,8.12 -9.51,7.49 -9.65,6.62 -9.79,5.74 -9.63,5.15 -9.48,4.55 -9.14,3.85 -8.81,3.14 -8.02,2.02 -7.22,0.89 -6.43,0.31 -5.65,-0.26 -4.89,-0.57 -4.14,-0.88 -3.03,-1.06 -1.92,-1.24 -0.96,-1.01 0,-0.79 0.09,-0.78 0.19,-0.77 0.28,-0.74 0.37,-0.70 0.45,-0.65 0.52,-0.59 0.59,-0.52 0.65,-0.45 0.70,-0.36 0.74,-0.28 0.76,-0.18 0.79,-0.09 0.79,0.00 0.79,0.09 0.76,0.18 0.74,0.28 0.70,0.36 0.65,0.45 0.59,0.52 0.52,0.59 0.45,0.65 0.37,0.70 0.28,0.74 0.19,0.77 0.09,0.78 -0.00,0.79 -0.00,0.79 L 0,0.79 Z"/></g><g transform="translate(218.4265020529816 19.323344989637803) rotate(0 1.3348817526656145 3.003461028908305)" stroke="none"><path fill="#f08c00" d="M 0.53,0.53 Q 0.53,0.53 0.33,1.08 0.14,1.64 -0.09,2.22 -0.32,2.79 -0.63,3.64 -0.95,4.48 -1.28,5.42 -1.60,6.36 -1.72,7.22 -1.83,8.08 -1.88,8.83 -1.93,9.59 -2.39,10.59 -2.84,11.59 -2.59,11.14 -2.34,10.69 -2.37,10.85 -2.40,11.01 -2.46,11.16 -2.53,11.31 -2.63,11.44 -2.73,11.57 -2.86,11.67 -2.98,11.78 -3.13,11.85 -3.28,11.92 -3.44,11.95 -3.60,11.98 -3.77,11.97 -3.93,11.96 -4.09,11.92 -4.24,11.87 -4.38,11.79 -4.52,11.70 -4.64,11.59 -4.76,11.47 -4.85,11.33 -4.93,11.20 -4.98,11.04 -5.03,10.88 -5.04,10.72 -5.06,10.56 -4.95,9.57 -4.85,8.58 -4.60,7.52 -4.35,6.45 -4.05,5.43 -3.75,4.41 -3.44,3.23 -3.13,2.06 -2.79,1.11 -2.44,0.16 -1.90,-1.02 -1.36,-2.22 -0.69,-3.20 -0.02,-4.18 0.72,-4.87 1.48,-5.55 2.08,-5.88 2.69,-6.22 3.38,-6.35 4.08,-6.48 5.02,-6.06 5.96,-5.65 6.38,-5.14 6.80,-4.62 7.29,-3.64 7.79,-2.66 7.45,-1.56 7.12,-0.46 6.68,0.18 6.24,0.82 5.44,1.25 4.65,1.68 2.73,1.38 0.81,1.08 0.72,1.03 0.63,0.97 0.56,0.88 0.50,0.80 0.46,0.70 0.43,0.60 0.43,0.49 0.43,0.39 0.46,0.28 0.50,0.18 0.56,0.10 0.62,0.01 0.71,-0.04 0.80,-0.10 0.90,-0.13 1.00,-0.16 1.11,-0.15 1.21,-0.15 1.31,-0.11 1.41,-0.07 1.49,-0.00 1.58,0.06 1.63,0.15 1.69,0.24 1.71,0.34 1.73,0.45 1.72,0.55 1.71,0.66 1.67,0.76 1.62,0.85 1.55,0.93 1.48,1.01 1.38,1.06 1.29,1.11 1.19,1.13 1.08,1.14 0.98,1.13 0.87,1.11 0.78,1.06 0.68,1.01 0.61,0.94 0.54,0.86 0.49,0.76 0.45,0.67 0.43,0.56 0.42,0.46 0.44,0.35 0.47,0.25 0.52,0.16 0.57,0.07 0.65,0.00 0.74,-0.06 0.83,-0.10 0.93,-0.14 1.04,-0.15 1.14,-0.16 1.25,-0.13 1.35,-0.10 1.35,-0.10 1.35,-0.10 2.72,-0.53 4.08,-0.95 4.63,-1.61 5.17,-2.27 4.80,-2.82 4.42,-3.36 3.86,-3.41 3.29,-3.46 2.76,-3.02 2.23,-2.58 1.69,-1.82 1.15,-1.06 0.65,0.02 0.15,1.12 -0.15,1.95 -0.46,2.78 -0.78,3.98 -1.11,5.19 -1.39,6.15 -1.68,7.10 -1.90,8.00 -2.13,8.89 -2.24,9.79 -2.34,10.69 -2.37,10.85 -2.40,11.01 -2.46,11.16 -2.53,11.31 -2.63,11.44 -2.73,11.57 -2.86,11.67 -2.98,11.78 -3.13,11.85 -3.28,11.92 -3.44,11.95 -3.60,11.98 -3.77,11.97 -3.93,11.96 -4.09,11.92 -4.24,11.87 -4.38,11.79 -4.52,11.70 -4.64,11.59 -4.76,11.47 -4.85,11.33 -4.93,11.20 -4.98,11.04 -5.03,10.88 -5.04,10.72 -5.06,10.56 -4.80,9.97 -4.55,9.39 -4.48,8.55 -4.41,7.70 -4.24,6.60 -4.06,5.50 -3.71,4.53 -3.37,3.55 -3.00,2.62 -2.63,1.69 -2.15,0.79 -1.67,-0.10 -1.10,-0.32 -0.53,-0.53 -0.46,-0.58 -0.39,-0.64 -0.30,-0.68 -0.22,-0.72 -0.13,-0.73 -0.04,-0.75 0.04,-0.74 0.13,-0.74 0.22,-0.71 0.30,-0.68 0.38,-0.64 0.46,-0.59 0.52,-0.52 0.59,-0.46 0.64,-0.38 0.68,-0.30 0.71,-0.22 0.74,-0.13 0.74,-0.04 0.75,0.04 0.73,0.13 0.72,0.22 0.68,0.30 0.64,0.39 0.58,0.46 0.53,0.53 0.53,0.53 L 0.53,0.53 Z"/></g><g transform="translate(228.43803881600928 23.99538529478889) rotate(0 1.0011842290883326 2.0023073526055555)" stroke="none"><path fill="#f08c00" d="M -0.84,-0.28 Q -0.84,-0.28 -0.52,-1.17 -0.21,-2.06 0.56,-2.34 1.35,-2.62 2.40,-2.01 3.45,-1.40 3.72,-0.65 3.98,0.09 3.74,0.81 3.49,1.53 2.85,2.10 2.20,2.67 1.68,3.15 1.16,3.63 0.29,4.29 -0.56,4.94 0.34,4.69 1.26,4.44 1.85,4.46 2.45,4.48 3.28,4.60 4.11,4.73 4.26,4.75 4.42,4.77 4.56,4.82 4.70,4.88 4.83,4.97 4.95,5.06 5.05,5.17 5.15,5.29 5.22,5.42 5.29,5.56 5.33,5.71 5.36,5.86 5.36,6.01 5.36,6.17 5.32,6.32 5.28,6.46 5.21,6.60 5.14,6.73 5.03,6.85 4.93,6.96 4.80,7.05 4.68,7.13 4.53,7.18 4.39,7.24 4.24,7.25 4.08,7.27 2.64,5.09 1.20,2.92 1.15,2.82 1.11,2.72 1.09,2.62 1.08,2.51 1.11,2.41 1.13,2.31 1.18,2.21 1.24,2.12 1.32,2.05 1.40,1.99 1.50,1.95 1.60,1.91 1.70,1.90 1.81,1.89 1.91,1.92 2.01,1.95 2.10,2.01 2.19,2.07 2.25,2.15 2.32,2.24 2.35,2.34 2.39,2.44 2.39,2.54 2.39,2.65 2.35,2.75 2.32,2.85 2.26,2.94 2.19,3.02 2.10,3.08 2.02,3.14 1.91,3.17 1.81,3.20 1.71,3.19 1.60,3.19 1.50,3.15 1.40,3.11 1.32,3.04 1.24,2.97 1.18,2.88 1.13,2.79 1.11,2.69 1.08,2.58 1.09,2.48 1.11,2.37 1.15,2.28 1.19,2.18 1.27,2.10 1.34,2.03 1.43,1.98 1.53,1.92 1.63,1.91 1.74,1.89 1.84,1.91 1.95,1.92 2.04,1.97 2.13,2.02 2.21,2.10 2.28,2.18 2.28,2.18 2.28,2.18 3.20,3.45 4.11,4.73 4.26,4.75 4.42,4.77 4.56,4.82 4.70,4.88 4.83,4.97 4.95,5.06 5.05,5.17 5.15,5.29 5.22,5.42 5.29,5.56 5.33,5.71 5.36,5.86 5.36,6.01 5.36,6.17 5.32,6.32 5.28,6.46 5.21,6.60 5.14,6.73 5.03,6.85 4.93,6.96 4.80,7.05 4.68,7.13 4.53,7.18 4.39,7.24 4.24,7.25 4.08,7.27 3.24,7.38 2.39,7.49 1.74,7.48 1.10,7.48 -0.04,7.34 -1.19,7.20 -1.98,6.79 -2.78,6.37 -3.08,5.61 -3.38,4.85 -2.86,3.72 -2.34,2.60 -1.56,2.04 -0.79,1.48 0.09,0.62 0.98,-0.23 0.91,0.02 0.84,0.28 0.79,0.37 0.74,0.47 0.68,0.55 0.61,0.63 0.52,0.70 0.44,0.76 0.34,0.80 0.24,0.85 0.14,0.86 0.03,0.88 -0.07,0.87 -0.17,0.86 -0.27,0.83 -0.37,0.80 -0.46,0.74 -0.56,0.68 -0.63,0.60 -0.70,0.53 -0.76,0.44 -0.81,0.34 -0.84,0.24 -0.87,0.14 -0.87,0.03 -0.88,-0.07 -0.86,-0.17 -0.84,-0.28 -0.84,-0.28 L -0.84,-0.28 Z"/></g><g transform="translate(132.93936558113597 14.004614705211054) rotate(0 -3.003461028908312 4.3383427815738855)" stroke="none"><path fill="#f08c00" d="M -0.36,0.73 Q -0.36,0.73 -1.54,0.24 -2.72,-0.25 -3.37,0.63 -4.02,1.51 -4.37,2.51 -4.72,3.51 -5.07,4.71 -5.42,5.91 -5.76,7.19 -6.10,8.46 -6.44,9.60 -6.79,10.73 -6.74,11.41 -6.69,12.10 -6.76,12.26 -6.83,12.42 -6.94,12.56 -7.05,12.70 -7.18,12.80 -7.32,12.91 -7.48,12.99 -7.63,13.06 -7.80,13.09 -7.97,13.12 -8.15,13.11 -8.32,13.11 -8.49,13.05 -8.65,13.00 -8.80,12.92 -8.95,12.83 -9.08,12.71 -9.20,12.58 -9.29,12.44 -9.38,12.29 -9.44,12.12 -9.49,11.96 -9.50,11.78 -9.51,11.61 -9.48,11.44 -9.45,11.27 -8.90,10.76 -8.35,10.25 -8.12,8.94 -7.88,7.64 -7.56,6.12 -7.24,4.60 -6.46,3.02 -5.69,1.43 -5.00,0.06 -4.31,-1.31 -3.54,-2.23 -2.76,-3.15 -2.14,-3.75 -1.52,-4.35 -0.72,-4.54 0.08,-4.73 0.87,-4.36 1.67,-3.99 2.08,-3.23 2.49,-2.47 2.75,-1.70 3.00,-0.93 3.29,-0.22 3.58,0.48 3.56,1.32 3.53,2.16 3.23,2.80 2.94,3.44 2.56,3.93 2.19,4.41 1.53,4.76 0.87,5.12 0.36,3.49 -0.13,1.87 -0.21,1.90 -0.28,1.93 -0.36,1.93 -0.44,1.94 -0.52,1.93 -0.60,1.92 -0.67,1.89 -0.74,1.86 -0.81,1.81 -0.87,1.76 -0.92,1.70 -0.97,1.64 -1.01,1.57 -1.04,1.50 -1.06,1.42 -1.08,1.35 -1.08,1.27 -1.07,1.19 -1.05,1.11 -1.03,1.04 -0.99,0.97 -0.95,0.90 -0.90,0.84 -0.85,0.78 -0.78,0.74 -0.71,0.69 -0.83,0.79 -0.95,0.89 -0.87,0.82 -0.79,0.74 -0.70,0.70 -0.60,0.65 -0.50,0.64 -0.39,0.63 -0.29,0.65 -0.18,0.67 -0.09,0.73 -0.00,0.78 0.06,0.86 0.13,0.94 0.17,1.04 0.21,1.14 0.21,1.25 0.22,1.35 0.19,1.46 0.16,1.56 0.10,1.65 0.04,1.73 -0.03,1.80 -0.11,1.86 -0.22,1.90 -0.32,1.93 -0.42,1.93 -0.53,1.93 -0.63,1.90 -0.73,1.87 -0.81,1.80 -0.90,1.74 -0.96,1.65 -1.02,1.56 -1.05,1.46 -1.08,1.36 -1.07,1.25 -1.07,1.14 -1.03,1.05 -0.99,0.95 -0.92,0.87 -0.85,0.78 -0.76,0.73 -0.67,0.67 -0.57,0.65 -0.46,0.63 -0.36,0.64 -0.25,0.65 -0.15,0.69 -0.06,0.74 0.01,0.81 0.09,0.88 0.14,0.98 0.19,1.07 0.20,1.18 0.22,1.28 0.21,1.39 0.19,1.49 0.02,1.68 -0.13,1.87 -0.21,1.90 -0.28,1.93 -0.36,1.93 -0.44,1.94 -0.52,1.93 -0.60,1.92 -0.67,1.89 -0.74,1.86 -0.81,1.81 -0.87,1.76 -0.92,1.70 -0.97,1.64 -1.01,1.57 -1.04,1.50 -1.06,1.42 -1.08,1.35 -1.08,1.27 -1.07,1.19 -1.05,1.11 -1.03,1.04 -0.99,0.97 -0.95,0.90 -0.90,0.84 -0.85,0.78 -0.78,0.74 -0.71,0.69 -0.36,1.61 -0.01,2.52 0.42,1.96 0.86,1.41 0.54,0.70 0.23,-0.01 0.17,-1.06 0.10,-2.11 -0.22,-1.67 -0.56,-1.23 -1.14,-0.60 -1.71,0.01 -2.40,1.38 -3.08,2.75 -3.74,3.99 -4.39,5.24 -4.72,6.77 -5.04,8.30 -5.45,9.86 -5.86,11.41 -6.28,11.76 -6.69,12.10 -6.76,12.26 -6.83,12.42 -6.94,12.56 -7.05,12.70 -7.18,12.80 -7.32,12.91 -7.48,12.99 -7.63,13.06 -7.80,13.09 -7.97,13.12 -8.15,13.11 -8.32,13.11 -8.49,13.05 -8.65,13.00 -8.80,12.92 -8.95,12.83 -9.08,12.71 -9.20,12.58 -9.29,12.44 -9.38,12.29 -9.44,12.12 -9.49,11.96 -9.50,11.78 -9.51,11.61 -9.48,11.44 -9.45,11.27 -9.50,10.61 -9.55,9.96 -9.21,8.84 -8.87,7.71 -8.51,6.40 -8.15,5.09 -7.76,3.79 -7.36,2.50 -6.85,1.25 -6.34,0.00 -5.52,-1.03 -4.70,-2.06 -3.96,-2.24 -3.22,-2.42 -2.55,-2.23 -1.87,-2.04 -0.75,-1.39 0.36,-0.73 0.45,-0.68 0.53,-0.62 0.60,-0.55 0.67,-0.48 0.71,-0.39 0.76,-0.30 0.79,-0.21 0.81,-0.11 0.82,-0.01 0.82,0.08 0.80,0.18 0.77,0.27 0.73,0.36 0.68,0.45 0.62,0.53 0.56,0.60 0.47,0.66 0.39,0.72 0.30,0.76 0.21,0.79 0.11,0.81 0.01,0.82 -0.08,0.81 -0.18,0.80 -0.27,0.77 -0.36,0.73 -0.36,0.73 L -0.36,0.73 Z"/></g><g transform="translate(134.94167293374153 22.68130026835871) rotate(0 3.670886628848315 1.001138399910019)" stroke="none"><path fill="#f08c00" d="M 0,-0.87 Q 0,-0.87 0.49,-1.04 0.99,-1.21 1.68,-1.89 2.38,-2.57 2.97,-3.08 3.57,-3.58 4.29,-4.04 5.00,-4.51 5.59,-4.88 6.18,-5.25 6.20,-5.18 6.22,-5.10 6.36,-5.18 6.50,-5.27 6.65,-5.31 6.80,-5.36 6.96,-5.37 7.12,-5.38 7.28,-5.35 7.44,-5.32 7.58,-5.26 7.73,-5.19 7.86,-5.09 7.98,-4.99 8.08,-4.87 8.18,-4.74 8.25,-4.60 8.31,-4.45 8.34,-4.29 8.37,-4.13 8.36,-3.97 8.35,-3.81 8.30,-3.66 8.26,-3.51 8.17,-3.37 8.09,-3.23 7.98,-3.12 7.87,-3.01 7.77,-2.06 7.68,-1.10 7.40,-0.27 7.13,0.55 6.81,1.35 6.48,2.14 6.18,3.00 5.88,3.86 5.78,4.50 5.68,5.14 5.62,5.66 5.56,6.18 5.51,6.35 5.46,6.52 5.36,6.68 5.27,6.83 5.14,6.96 5.01,7.09 4.86,7.18 4.70,7.27 4.53,7.33 4.36,7.38 4.18,7.39 4.00,7.41 3.82,7.37 3.64,7.34 3.48,7.27 3.31,7.19 3.17,7.08 3.03,6.97 2.91,6.83 2.80,6.68 2.73,6.52 2.65,6.35 2.62,6.18 2.59,6.00 2.60,5.82 2.61,5.64 1.90,4.26 1.19,2.88 1.15,2.79 1.10,2.69 1.09,2.58 1.08,2.48 1.10,2.37 1.12,2.27 1.18,2.18 1.23,2.09 1.31,2.02 1.39,1.95 1.49,1.91 1.59,1.87 1.69,1.86 1.80,1.85 1.90,1.88 2.00,1.91 2.09,1.97 2.18,2.03 2.25,2.11 2.31,2.19 2.35,2.29 2.38,2.40 2.38,2.50 2.38,2.61 2.35,2.71 2.32,2.81 2.25,2.89 2.19,2.98 2.10,3.04 2.02,3.10 1.91,3.13 1.81,3.16 1.71,3.15 1.60,3.15 1.50,3.11 1.40,3.07 1.32,3.01 1.24,2.94 1.18,2.85 1.13,2.76 1.10,2.65 1.08,2.55 1.09,2.44 1.10,2.34 1.14,2.24 1.19,2.14 1.26,2.07 1.33,1.99 1.43,1.94 1.52,1.89 1.62,1.87 1.73,1.85 1.83,1.87 1.94,1.88 2.03,1.93 2.13,1.98 2.20,2.06 2.27,2.13 2.27,2.13 2.27,2.13 3.92,4.15 5.56,6.17 5.51,6.35 5.46,6.52 5.36,6.68 5.27,6.83 5.14,6.96 5.01,7.09 4.86,7.18 4.70,7.27 4.53,7.33 4.36,7.38 4.18,7.39 4.00,7.41 3.82,7.37 3.64,7.34 3.48,7.27 3.31,7.19 3.17,7.08 3.03,6.97 2.91,6.83 2.80,6.68 2.73,6.52 2.65,6.36 2.62,6.18 2.59,6.00 2.60,5.82 2.61,5.64 2.67,5.12 2.73,4.61 2.91,3.72 3.08,2.84 3.44,1.92 3.79,0.99 4.10,0.30 4.40,-0.38 4.72,-1.24 5.03,-2.10 5.25,-2.61 5.47,-3.12 5.84,-4.11 6.22,-5.10 6.36,-5.18 6.50,-5.27 6.65,-5.31 6.80,-5.36 6.96,-5.37 7.12,-5.38 7.28,-5.35 7.44,-5.32 7.58,-5.26 7.73,-5.19 7.86,-5.09 7.98,-4.99 8.08,-4.87 8.18,-4.74 8.25,-4.60 8.31,-4.45 8.34,-4.29 8.37,-4.13 8.36,-3.97 8.35,-3.81 8.30,-3.66 8.26,-3.51 8.17,-3.37 8.09,-3.23 7.98,-3.12 7.87,-3.01 7.14,-2.64 6.42,-2.27 5.84,-1.91 5.26,-1.55 4.61,-1.02 3.96,-0.49 2.63,0.36 1.30,1.21 0.65,1.04 0,0.87 -0.10,0.86 -0.20,0.84 -0.30,0.81 -0.40,0.77 -0.49,0.71 -0.58,0.65 -0.65,0.57 -0.72,0.49 -0.76,0.40 -0.81,0.31 -0.84,0.20 -0.86,0.10 -0.86,-0.00 -0.86,-0.10 -0.84,-0.20 -0.81,-0.31 -0.76,-0.40 -0.72,-0.49 -0.65,-0.57 -0.58,-0.65 -0.49,-0.71 -0.40,-0.77 -0.30,-0.81 -0.20,-0.84 -0.10,-0.86 0.00,-0.87 0.00,-0.87 L 0,-0.87 Z"/></g><g transform="translate(229.6141548740518 159.7514695274333) rotate(0 2.3186732775665746 4.968506532367613)" stroke="none"><path fill="#1e1e1e" d="M 0,0.72 Q 0,0.72 -0.19,1.06 -0.38,1.40 -0.54,1.38 -0.71,1.36 -0.87,1.30 -1.03,1.24 -1.17,1.14 -1.31,1.04 -1.42,0.92 -1.53,0.79 -1.61,0.64 -1.69,0.49 -1.73,0.33 -1.77,0.16 -1.77,-0.00 -1.77,-0.16 -1.73,-0.33 -1.69,-0.49 -1.61,-0.64 -1.53,-0.79 -1.42,-0.92 -1.31,-1.05 -1.17,-1.14 -1.03,-1.24 -0.87,-1.30 -0.71,-1.36 -0.54,-1.38 -0.38,-1.40 0.36,-1.16 1.10,-0.92 1.73,-0.64 2.37,-0.35 2.93,0.03 3.50,0.41 3.81,1.53 4.12,2.64 3.80,3.21 3.47,3.78 2.29,4.84 1.11,5.90 0.24,7.08 -0.62,8.25 -0.01,8.65 0.59,9.05 1.18,9.07 1.77,9.09 2.40,9.10 3.03,9.11 4.95,9.22 6.88,9.33 6.98,9.33 7.09,9.33 7.19,9.37 7.29,9.40 7.38,9.46 7.46,9.53 7.52,9.62 7.58,9.70 7.61,9.81 7.64,9.91 7.63,10.01 7.63,10.12 7.59,10.22 7.55,10.32 7.48,10.40 7.41,10.48 7.32,10.54 7.23,10.59 7.13,10.61 7.03,10.64 6.92,10.63 6.81,10.62 6.72,10.57 6.62,10.53 6.54,10.46 6.47,10.38 6.42,10.29 6.37,10.20 6.35,10.09 6.33,9.99 6.35,9.88 6.36,9.78 6.41,9.68 6.46,9.59 6.54,9.51 6.61,9.44 6.71,9.40 6.81,9.35 6.91,9.34 7.02,9.33 7.12,9.35 7.23,9.37 7.32,9.43 7.41,9.48 7.48,9.56 7.55,9.64 7.59,9.74 7.63,9.84 7.63,9.94 7.64,10.05 7.61,10.15 7.58,10.25 7.52,10.34 7.47,10.43 7.38,10.50 7.30,10.56 7.20,10.60 7.10,10.63 7.10,10.63 7.10,10.63 5.04,11.34 2.98,12.04 2.31,12.03 1.64,12.01 0.95,11.98 0.27,11.94 -0.45,11.85 -1.18,11.76 -1.99,11.42 -2.79,11.09 -3.26,10.32 -3.73,9.56 -3.65,8.72 -3.57,7.88 -3.25,7.22 -2.93,6.57 -2.30,5.72 -1.66,4.86 -1.00,4.16 -0.35,3.47 0.41,2.83 1.18,2.20 0.40,1.80 -0.38,1.40 -0.54,1.38 -0.71,1.36 -0.87,1.30 -1.03,1.24 -1.17,1.14 -1.31,1.05 -1.42,0.92 -1.53,0.79 -1.61,0.64 -1.69,0.49 -1.73,0.33 -1.77,0.16 -1.77,0.00 -1.77,-0.16 -1.73,-0.33 -1.69,-0.49 -1.61,-0.64 -1.53,-0.79 -1.42,-0.92 -1.31,-1.04 -1.17,-1.14 -1.03,-1.24 -0.87,-1.30 -0.71,-1.36 -0.54,-1.38 -0.38,-1.40 -0.19,-1.06 0,-0.72 0.08,-0.71 0.17,-0.70 0.25,-0.67 0.33,-0.64 0.40,-0.59 0.48,-0.54 0.54,-0.47 0.59,-0.41 0.63,-0.33 0.67,-0.25 0.70,-0.17 0.72,-0.08 0.72,0.00 0.72,0.08 0.70,0.17 0.67,0.25 0.63,0.33 0.59,0.41 0.54,0.47 0.48,0.54 0.40,0.59 0.33,0.64 0.25,0.67 0.17,0.70 0.08,0.71 -0.00,0.72 -0.00,0.72 L 0,0.72 Z"/></g><g stroke-linecap="round" transform="translate(50.32512235855427 111.3741704767499) rotate(0 10.4898995399042 9.404739802427741)"><path d="M9.15 -0.28 C11.27 -0.5, 14.46 0.78, 16.33 1.91 C18.2 3.03, 19.73 4.63, 20.39 6.47 C21.05 8.31, 21.12 11.07, 20.28 12.96 C19.44 14.84, 17.43 16.92, 15.37 17.79 C13.31 18.67, 10.06 18.71, 7.9 18.2 C5.75 17.68, 3.78 16.26, 2.43 14.71 C1.07 13.16, -0.37 10.84, -0.25 8.91 C-0.14 6.99, 1.45 4.7, 3.11 3.17 C4.77 1.64, 8.51 0.26, 9.69 -0.27 C10.86 -0.81, 10.14 -0.3, 10.17 -0.03 M8.67 -0.14 C10.8 -0.79, 13.83 -0.7, 15.77 0.41 C17.7 1.53, 19.44 4.5, 20.31 6.56 C21.18 8.62, 21.76 10.93, 20.99 12.76 C20.21 14.6, 17.55 16.66, 15.65 17.58 C13.75 18.51, 11.64 18.6, 9.59 18.3 C7.54 18.01, 5.05 17.25, 3.36 15.81 C1.66 14.36, -0.28 11.59, -0.56 9.63 C-0.85 7.66, 0.26 5.63, 1.65 4.01 C3.04 2.39, 6.68 0.39, 7.78 -0.1 C8.89 -0.59, 8.09 0.9, 8.28 1.09" stroke="#1e1e1e" stroke-width="2" fill="none"/></g><g stroke-linecap="round" transform="translate(51.77191369799755 131.63054077038964) rotate(0 8.681311016259059 8.681261341588481)"><path d="M6.83 0.75 C8.48 0.27, 10.74 0.11, 12.38 0.84 C14.01 1.57, 15.89 3.43, 16.65 5.15 C17.42 6.86, 17.57 9.41, 16.99 11.12 C16.4 12.84, 14.65 14.49, 13.15 15.44 C11.66 16.4, 9.83 16.97, 8.01 16.83 C6.19 16.68, 3.47 15.81, 2.21 14.57 C0.95 13.33, 0.52 11.26, 0.45 9.38 C0.38 7.5, 0.71 4.87, 1.8 3.3 C2.89 1.73, 6.04 0.41, 6.98 -0.03 C7.91 -0.47, 7.47 0.48, 7.41 0.65 M9.3 -0.68 C11.02 -0.57, 13.14 1.45, 14.55 2.88 C15.97 4.31, 17.61 6.13, 17.79 7.89 C17.98 9.65, 16.64 12.01, 15.66 13.45 C14.69 14.89, 13.55 15.94, 11.96 16.51 C10.37 17.08, 8.04 17.49, 6.13 16.85 C4.21 16.21, 1.55 14.27, 0.47 12.68 C-0.62 11.09, -0.78 9.17, -0.39 7.31 C0 5.46, 1.24 2.66, 2.78 1.56 C4.33 0.46, 7.78 0.95, 8.87 0.7 C9.97 0.46, 9.25 0.04, 9.35 0.12" stroke="#1e1e1e" stroke-width="2" fill="none"/></g><g stroke-linecap="round" transform="translate(355.4683037990768 113.82106116553427) rotate(0 9.04300885111985 9.404723244204177)"><path d="M7.29 0.14 C9.04 -0.4, 11.84 0.24, 13.53 1.24 C15.22 2.24, 16.85 4.36, 17.45 6.17 C18.06 7.98, 17.76 10.3, 17.16 12.1 C16.56 13.91, 15.49 15.93, 13.85 17 C12.21 18.07, 9.2 18.75, 7.32 18.51 C5.45 18.28, 3.8 17.14, 2.61 15.58 C1.42 14.03, 0.24 11.27, 0.17 9.2 C0.09 7.14, 0.9 4.67, 2.18 3.22 C3.46 1.76, 6.96 0.96, 7.85 0.46 C8.73 -0.03, 7.48 0.11, 7.48 0.24 M8.09 0.74 C9.94 0.59, 13.01 0.98, 14.54 2.01 C16.08 3.04, 16.75 5.13, 17.31 6.92 C17.87 8.71, 18.49 10.89, 17.9 12.72 C17.31 14.56, 15.67 16.97, 13.75 17.92 C11.83 18.87, 8.47 18.86, 6.38 18.44 C4.29 18.02, 2.36 17.06, 1.21 15.41 C0.07 13.76, -0.7 10.5, -0.51 8.54 C-0.31 6.58, 0.91 5.07, 2.4 3.64 C3.89 2.22, 7.38 0.52, 8.41 0 C9.44 -0.52, 8.75 0.41, 8.58 0.53" stroke="#1e1e1e" stroke-width="2" fill="none"/></g><g stroke-linecap="round" transform="translate(354.0214462267394 136.9711466038487) rotate(0 9.766437637288504 10.128152030372803)"><path d="M12.17 0.33 C14.13 0.72, 16.45 2.57, 17.6 4.25 C18.76 5.92, 19.2 8.33, 19.09 10.4 C18.99 12.47, 18.43 15.05, 17 16.66 C15.58 18.26, 12.59 19.71, 10.55 20.03 C8.51 20.35, 6.41 19.82, 4.74 18.59 C3.08 17.35, 1.18 14.76, 0.55 12.63 C-0.08 10.49, 0.11 7.67, 0.97 5.8 C1.83 3.92, 3.85 2.29, 5.69 1.38 C7.54 0.48, 10.85 0.44, 12.03 0.37 C13.22 0.3, 12.81 0.73, 12.79 0.94 M8.08 0.72 C9.9 0.05, 11.91 0.46, 13.79 1.3 C15.66 2.14, 18.31 3.76, 19.31 5.74 C20.31 7.72, 20.57 11.05, 19.77 13.18 C18.97 15.31, 16.49 17.27, 14.53 18.5 C12.57 19.74, 10.09 20.87, 8.02 20.58 C5.95 20.28, 3.46 18.27, 2.11 16.74 C0.77 15.21, -0.1 13.5, -0.06 11.37 C-0.01 9.25, 1 5.79, 2.37 3.98 C3.73 2.18, 7.36 1.18, 8.12 0.54 C8.87 -0.1, 6.95 0.12, 6.91 0.15" stroke="#1e1e1e" stroke-width="2" fill="none"/></g><g stroke-linecap="round"><g transform="translate(353.2979843241237 113.09763237936562) rotate(0 11.575059277380717 -0.36171439308432696)"><path d="M0 0 C5.07 -0.31, 10.55 -0.37, 23.15 -0.72 M0 0 C6.29 0.08, 12.92 -0.58, 23.15 -0.72" stroke="#1e1e1e" stroke-width="2" fill="none"/></g></g><mask/><g stroke-linecap="round"><g transform="translate(351.8511267517864 160.84466082833166) rotate(0 11.936757112241537 -0.36171439308432696)"><path d="M0 0 C9.6 -0.21, 18.85 -0.39, 23.87 -0.72 M0 0 C4.69 -0.46, 10.19 0.06, 23.87 -0.72" stroke="#1e1e1e" stroke-width="2" fill="none"/></g></g><mask/><g stroke-linecap="round"><g transform="translate(46.707945311263984 111.37420359319697) rotate(0 13.383614684578816 0)"><path d="M0 0 C7.82 0.17, 15.02 -0.83, 26.77 0 M0 0 C8.91 0.49, 18.2 0.23, 26.77 0" stroke="#1e1e1e" stroke-width="2" fill="none"/></g></g><mask/><g stroke-linecap="round"><g transform="translate(45.26108773892673 148.99306345356666) rotate(0 12.660185898410163 1.0851597374764879)"><path d="M0 0 C6.95 -0.18, 15.95 0.33, 25.32 2.17 M0 0 C6.34 0.6, 12.27 1.11, 25.32 2.17" stroke="#1e1e1e" stroke-width="2" fill="none"/></g></g><mask/><g transform="translate(358.36208517664545 95.01164779357299) rotate(0 -3.6172101637373544 7.957815997196263)" stroke="none"><path fill="#1e1e1e" d="M -0.81,-0.20 Q -0.81,-0.20 -0.86,-1.09 -0.91,-1.99 -0.85,-2.15 -0.79,-2.30 -0.70,-2.44 -0.60,-2.57 -0.48,-2.68 -0.36,-2.79 -0.21,-2.87 -0.06,-2.94 0.09,-2.98 0.25,-3.02 0.42,-3.02 0.58,-3.02 0.74,-2.98 0.90,-2.94 1.05,-2.86 1.19,-2.79 1.32,-2.68 1.44,-2.57 1.54,-2.43 1.63,-2.29 1.69,-2.14 1.75,-1.98 1.76,-1.82 1.78,-1.65 1.76,-1.49 1.74,-1.33 1.34,-0.62 0.93,0.09 0.66,0.79 0.40,1.50 0.07,2.45 -0.26,3.40 -0.84,4.70 -1.42,6.00 -2.04,7.92 -2.66,9.83 -3.38,11.56 -4.09,13.29 -4.60,14.43 -5.11,15.58 -6.55,17.22 -7.99,18.86 -8.05,18.95 -8.10,19.04 -8.18,19.11 -8.26,19.18 -8.36,19.22 -8.46,19.26 -8.57,19.26 -8.68,19.27 -8.78,19.24 -8.88,19.21 -8.97,19.15 -9.05,19.09 -9.12,19.01 -9.18,18.92 -9.22,18.82 -9.25,18.72 -9.25,18.61 -9.25,18.51 -9.21,18.41 -9.18,18.31 -9.11,18.22 -9.05,18.14 -8.96,18.08 -8.87,18.02 -8.77,17.99 -8.67,17.96 -8.56,17.97 -8.46,17.98 -8.36,18.02 -8.26,18.06 -8.18,18.13 -8.10,18.19 -8.04,18.29 -7.99,18.38 -7.97,18.48 -7.94,18.59 -7.96,18.69 -7.97,18.80 -8.01,18.89 -8.06,18.99 -8.13,19.07 -8.21,19.14 -8.30,19.19 -8.39,19.24 -8.50,19.26 -8.60,19.27 -8.71,19.26 -8.81,19.24 -8.91,19.19 -9.00,19.14 -9.07,19.06 -9.15,18.98 -9.19,18.89 -9.23,18.79 -9.25,18.68 -9.26,18.58 -9.23,18.47 -9.21,18.37 -9.21,18.37 -9.21,18.37 -8.53,16.36 -7.86,14.35 -7.36,13.24 -6.87,12.13 -6.19,10.51 -5.51,8.89 -4.82,6.83 -4.13,4.77 -3.57,3.58 -3.02,2.39 -2.64,1.39 -2.27,0.38 -1.59,-0.80 -0.91,-1.99 -0.85,-2.15 -0.79,-2.30 -0.70,-2.44 -0.60,-2.57 -0.48,-2.68 -0.36,-2.79 -0.21,-2.87 -0.06,-2.94 0.09,-2.98 0.25,-3.02 0.42,-3.02 0.58,-3.02 0.74,-2.98 0.90,-2.94 1.05,-2.86 1.19,-2.79 1.32,-2.68 1.44,-2.57 1.54,-2.43 1.63,-2.29 1.69,-2.14 1.75,-1.98 1.76,-1.82 1.78,-1.65 1.76,-1.49 1.74,-1.33 1.27,-0.56 0.81,0.20 0.77,0.29 0.73,0.39 0.68,0.47 0.62,0.55 0.54,0.62 0.47,0.68 0.38,0.73 0.29,0.78 0.19,0.80 0.09,0.83 -0.00,0.82 -0.10,0.82 -0.20,0.80 -0.29,0.78 -0.38,0.73 -0.47,0.68 -0.55,0.61 -0.62,0.55 -0.68,0.46 -0.74,0.38 -0.77,0.29 -0.81,0.19 -0.82,0.09 -0.83,-0.00 -0.82,-0.10 -0.81,-0.20 -0.81,-0.20 L -0.81,-0.20 Z"/></g><g transform="translate(370.66054012374775 92.84132831861996) rotate(0 -4.702336784766771 9.766437637288504)" stroke="none"><path fill="#1e1e1e" d="M 0.73,0.29 Q 0.73,0.29 0.55,1.42 0.36,2.55 0.01,3.61 -0.33,4.66 -1.12,6.43 -1.91,8.20 -2.89,9.83 -3.88,11.47 -4.92,13.00 -5.96,14.53 -6.55,15.70 -7.14,16.88 -6.70,17.37 -6.26,17.87 -6.31,17.93 -6.35,18.00 -6.41,18.05 -6.47,18.10 -6.54,18.14 -6.61,18.18 -6.69,18.20 -6.76,18.22 -6.84,18.22 -6.92,18.22 -7.00,18.20 -7.07,18.18 -7.15,18.15 -7.22,18.11 -7.28,18.06 -7.33,18.01 -7.38,17.94 -7.43,17.88 -7.45,17.80 -7.48,17.73 -7.49,17.65 -7.50,17.57 -7.49,17.49 -7.49,17.41 -7.46,17.34 -7.43,17.27 -7.21,17.10 -6.99,16.93 -6.89,16.92 -6.78,16.91 -6.68,16.94 -6.58,16.97 -6.49,17.03 -6.40,17.09 -6.33,17.17 -6.27,17.25 -6.23,17.35 -6.20,17.46 -6.20,17.56 -6.20,17.67 -6.23,17.77 -6.26,17.87 -6.33,17.95 -6.39,18.04 -6.48,18.10 -6.57,18.16 -6.67,18.19 -6.77,18.22 -6.88,18.21 -6.98,18.21 -7.08,18.17 -7.18,18.13 -7.26,18.06 -7.34,18.00 -7.40,17.90 -7.46,17.81 -7.48,17.71 -7.50,17.61 -7.49,17.50 -7.48,17.40 -7.44,17.30 -7.39,17.20 -7.32,17.12 -7.25,17.05 -7.16,17.00 -7.06,16.95 -6.96,16.93 -6.85,16.91 -6.75,16.93 -6.64,16.94 -6.55,16.99 -6.45,17.04 -6.38,17.12 -6.31,17.19 -6.26,17.29 -6.22,17.39 -6.20,17.49 -6.19,17.60 -6.21,17.70 -6.24,17.80 -6.29,17.90 -6.34,17.99 -6.42,18.06 -6.50,18.13 -6.38,18.00 -6.26,17.87 -6.31,17.93 -6.35,18.00 -6.41,18.05 -6.47,18.10 -6.54,18.14 -6.61,18.18 -6.69,18.20 -6.76,18.22 -6.84,18.22 -6.92,18.22 -7.00,18.20 -7.07,18.18 -7.14,18.15 -7.22,18.11 -7.28,18.06 -7.33,18.01 -7.38,17.94 -7.43,17.88 -7.45,17.80 -7.48,17.73 -7.49,17.65 -7.50,17.57 -7.49,17.49 -7.49,17.42 -7.46,17.34 -7.43,17.27 -8.59,16.41 -9.74,15.56 -9.04,14.22 -8.34,12.88 -7.32,11.43 -6.30,9.97 -5.37,8.50 -4.44,7.02 -3.65,5.39 -2.86,3.75 -2.44,2.67 -2.03,1.60 -1.38,0.65 -0.73,-0.29 -0.69,-0.37 -0.64,-0.46 -0.58,-0.53 -0.51,-0.60 -0.43,-0.65 -0.35,-0.71 -0.26,-0.74 -0.17,-0.77 -0.08,-0.78 0.01,-0.79 0.10,-0.78 0.20,-0.76 0.29,-0.73 0.38,-0.69 0.46,-0.64 0.53,-0.58 0.60,-0.51 0.66,-0.44 0.70,-0.35 0.74,-0.26 0.77,-0.17 0.79,-0.08 0.79,0.01 0.78,0.11 0.76,0.20 0.73,0.29 0.73,0.29 L 0.73,0.29 Z"/></g><g transform="translate(382.2355994011285 93.56475710478861) rotate(0 -5.064067736074662 10.489882981680694)" stroke="none"><path fill="#1e1e1e" d="M 0.75,0.37 Q 0.75,0.37 0.34,1.73 -0.06,3.08 -0.73,4.45 -1.39,5.82 -2.26,7.85 -3.13,9.87 -3.93,11.58 -4.73,13.30 -5.49,14.86 -6.24,16.43 -7.78,18.59 -9.32,20.75 -9.38,20.84 -9.43,20.93 -9.51,21.00 -9.60,21.07 -9.70,21.11 -9.79,21.14 -9.90,21.15 -10.01,21.15 -10.11,21.12 -10.21,21.09 -10.30,21.03 -10.38,20.97 -10.45,20.89 -10.51,20.80 -10.54,20.70 -10.58,20.60 -10.57,20.49 -10.57,20.39 -10.54,20.28 -10.50,20.18 -10.44,20.10 -10.37,20.02 -10.28,19.96 -10.19,19.90 -10.09,19.87 -9.99,19.85 -9.88,19.85 -9.78,19.86 -9.68,19.90 -9.58,19.94 -9.50,20.01 -9.42,20.08 -9.37,20.18 -9.31,20.27 -9.29,20.37 -9.27,20.48 -9.28,20.58 -9.30,20.69 -9.34,20.78 -9.39,20.88 -9.46,20.95 -9.54,21.03 -9.63,21.08 -9.73,21.13 -9.83,21.14 -9.94,21.16 -10.04,21.14 -10.15,21.12 -10.24,21.07 -10.33,21.02 -10.40,20.94 -10.48,20.86 -10.52,20.76 -10.56,20.67 -10.57,20.56 -10.58,20.46 -10.56,20.35 -10.53,20.25 -10.53,20.25 -10.53,20.25 -9.70,17.70 -8.87,15.14 -8.11,13.60 -7.35,12.06 -6.54,10.38 -5.73,8.70 -4.78,6.65 -3.82,4.61 -3.12,3.25 -2.42,1.90 -1.58,0.76 -0.75,-0.37 -0.69,-0.45 -0.63,-0.54 -0.56,-0.61 -0.49,-0.68 -0.40,-0.73 -0.31,-0.77 -0.21,-0.80 -0.11,-0.83 -0.01,-0.83 0.08,-0.83 0.18,-0.81 0.28,-0.79 0.37,-0.74 0.46,-0.70 0.54,-0.63 0.61,-0.56 0.67,-0.48 0.73,-0.40 0.77,-0.31 0.81,-0.21 0.82,-0.11 0.83,-0.01 0.82,0.08 0.81,0.18 0.78,0.28 0.75,0.37 0.75,0.37 L 0.75,0.37 Z"/></g><g transform="translate(353.2979843241237 164.461870992069) rotate(0 -5.787496522243259 8.681277899812017)" stroke="none"><path fill="#1e1e1e" d="M 0.61,0.61 Q 0.61,0.61 -0.10,1.55 -0.82,2.50 -1.37,3.08 -1.91,3.65 -2.35,4.11 -2.78,4.57 -3.31,5.33 -3.83,6.09 -4.87,7.85 -5.91,9.60 -6.98,11.59 -8.05,13.58 -7.85,13.96 -7.65,14.34 -7.70,14.40 -7.74,14.47 -7.80,14.52 -7.86,14.57 -7.93,14.60 -8.00,14.64 -8.08,14.66 -8.16,14.68 -8.24,14.68 -8.32,14.67 -8.39,14.66 -8.47,14.64 -8.54,14.60 -8.61,14.56 -8.67,14.51 -8.73,14.45 -8.77,14.39 -8.81,14.32 -8.84,14.25 -8.87,14.17 -8.88,14.09 -8.89,14.02 -8.88,13.94 -8.87,13.86 -8.84,13.79 -8.81,13.71 -8.67,13.58 -8.53,13.44 -8.43,13.41 -8.33,13.37 -8.22,13.38 -8.11,13.38 -8.01,13.41 -7.91,13.45 -7.83,13.51 -7.75,13.58 -7.69,13.67 -7.63,13.76 -7.60,13.86 -7.58,13.96 -7.58,14.07 -7.59,14.17 -7.63,14.27 -7.67,14.37 -7.74,14.45 -7.81,14.53 -7.90,14.58 -8.00,14.64 -8.10,14.66 -8.20,14.68 -8.31,14.67 -8.41,14.65 -8.51,14.61 -8.61,14.56 -8.68,14.49 -8.76,14.41 -8.81,14.32 -8.85,14.22 -8.87,14.12 -8.89,14.01 -8.87,13.91 -8.85,13.80 -8.80,13.71 -8.75,13.62 -8.67,13.55 -8.59,13.47 -8.49,13.43 -8.40,13.39 -8.29,13.38 -8.18,13.37 -8.08,13.39 -7.98,13.42 -7.89,13.47 -7.80,13.53 -7.73,13.61 -7.66,13.69 -7.62,13.79 -7.59,13.89 -7.58,14.00 -7.58,14.10 -7.61,14.21 -7.64,14.31 -7.70,14.40 -7.76,14.48 -7.71,14.41 -7.65,14.34 -7.70,14.40 -7.74,14.47 -7.80,14.52 -7.86,14.57 -7.93,14.60 -8.00,14.64 -8.08,14.66 -8.16,14.68 -8.24,14.68 -8.32,14.67 -8.39,14.66 -8.47,14.64 -8.54,14.60 -8.61,14.56 -8.67,14.51 -8.73,14.45 -8.77,14.39 -8.81,14.32 -8.84,14.25 -8.87,14.17 -8.88,14.10 -8.89,14.02 -8.88,13.94 -8.87,13.86 -8.84,13.79 -8.81,13.71 -9.62,13.00 -10.43,12.29 -9.33,10.25 -8.22,8.21 -7.08,6.36 -5.94,4.52 -5.26,3.65 -4.57,2.78 -4.11,2.35 -3.65,1.91 -3.08,1.37 -2.50,0.82 -1.55,0.10 -0.61,-0.61 -0.52,-0.67 -0.44,-0.73 -0.35,-0.78 -0.25,-0.82 -0.15,-0.84 -0.05,-0.86 0.05,-0.85 0.15,-0.84 0.25,-0.81 0.35,-0.78 0.44,-0.73 0.53,-0.67 0.60,-0.60 0.67,-0.53 0.73,-0.44 0.78,-0.35 0.81,-0.25 0.84,-0.15 0.85,-0.05 0.86,0.05 0.84,0.15 0.82,0.25 0.78,0.35 0.73,0.44 0.67,0.52 0.61,0.61 0.61,0.61 L 0.61,0.61 Z"/></g><g transform="translate(361.2558665542142 168.0790480393593) rotate(0 -2.5320504262608665 4.340655508129544)" stroke="none"><path fill="#1e1e1e" d="M -0.72,-0.48 Q -0.72,-0.48 -0.44,-1.19 -0.15,-1.90 -0.06,-2.01 0.03,-2.12 0.14,-2.20 0.26,-2.28 0.39,-2.34 0.52,-2.39 0.67,-2.41 0.81,-2.43 0.95,-2.41 1.09,-2.40 1.23,-2.35 1.36,-2.30 1.48,-2.22 1.60,-2.14 1.69,-2.04 1.79,-1.93 1.86,-1.81 1.93,-1.68 1.96,-1.54 2.00,-1.40 2.00,-1.26 2.00,-1.12 1.97,-0.98 1.94,-0.84 1.88,-0.71 1.81,-0.59 1.21,0.04 0.61,0.67 -0.03,1.51 -0.67,2.36 -1.36,3.51 -2.05,4.67 -2.80,5.83 -3.54,6.99 -4.46,9.08 -5.38,11.17 -5.43,11.23 -5.48,11.29 -5.55,11.34 -5.61,11.39 -5.68,11.42 -5.76,11.45 -5.83,11.46 -5.91,11.47 -5.99,11.46 -6.07,11.46 -6.14,11.43 -6.22,11.41 -6.29,11.36 -6.35,11.32 -6.41,11.26 -6.46,11.21 -6.50,11.14 -6.54,11.07 -6.56,10.99 -6.58,10.92 -6.59,10.84 -6.59,10.76 -6.57,10.68 -6.55,10.60 -6.52,10.53 -6.49,10.46 -6.04,10.35 -5.60,10.25 -5.52,10.32 -5.44,10.39 -5.38,10.48 -5.33,10.57 -5.30,10.67 -5.28,10.77 -5.29,10.88 -5.30,10.98 -5.34,11.08 -5.39,11.18 -5.46,11.26 -5.53,11.33 -5.62,11.38 -5.72,11.44 -5.82,11.45 -5.93,11.47 -6.03,11.46 -6.14,11.44 -6.23,11.39 -6.33,11.34 -6.40,11.26 -6.47,11.19 -6.52,11.09 -6.56,11.00 -6.58,10.89 -6.59,10.79 -6.57,10.68 -6.55,10.58 -6.49,10.49 -6.44,10.39 -6.36,10.32 -6.28,10.26 -6.18,10.22 -6.08,10.17 -5.97,10.17 -5.87,10.16 -5.77,10.19 -5.66,10.22 -5.57,10.28 -5.49,10.33 -5.42,10.42 -5.36,10.50 -5.32,10.60 -5.29,10.70 -5.29,10.81 -5.28,10.92 -5.32,11.02 -5.35,11.12 -5.41,11.20 -5.48,11.29 -5.56,11.35 -5.65,11.41 -5.75,11.44 -5.86,11.47 -5.96,11.46 -6.07,11.46 -5.72,11.31 -5.38,11.17 -5.43,11.23 -5.48,11.29 -5.55,11.34 -5.61,11.39 -5.68,11.42 -5.76,11.45 -5.83,11.46 -5.91,11.47 -5.99,11.46 -6.07,11.46 -6.14,11.43 -6.22,11.41 -6.29,11.36 -6.35,11.32 -6.41,11.26 -6.46,11.21 -6.50,11.14 -6.54,11.07 -6.56,10.99 -6.58,10.92 -6.59,10.84 -6.59,10.76 -6.57,10.68 -6.55,10.60 -6.52,10.53 -6.49,10.46 -6.16,7.99 -5.84,5.51 -5.11,4.38 -4.37,3.24 -3.55,1.93 -2.72,0.62 -1.44,-0.64 -0.15,-1.90 -0.06,-2.01 0.03,-2.12 0.14,-2.20 0.26,-2.28 0.39,-2.34 0.52,-2.39 0.67,-2.41 0.81,-2.43 0.95,-2.41 1.09,-2.40 1.23,-2.35 1.36,-2.30 1.48,-2.22 1.60,-2.14 1.69,-2.04 1.79,-1.93 1.86,-1.81 1.93,-1.68 1.96,-1.54 2.00,-1.40 2.00,-1.26 2.00,-1.12 1.97,-0.98 1.94,-0.84 1.88,-0.71 1.81,-0.59 1.27,-0.05 0.72,0.48 0.65,0.56 0.59,0.64 0.50,0.70 0.41,0.76 0.32,0.80 0.22,0.84 0.11,0.86 0.01,0.87 -0.09,0.86 -0.19,0.85 -0.29,0.81 -0.39,0.78 -0.48,0.72 -0.56,0.66 -0.64,0.58 -0.71,0.50 -0.76,0.41 -0.81,0.32 -0.84,0.22 -0.86,0.11 -0.86,0.01 -0.87,-0.09 -0.84,-0.19 -0.82,-0.29 -0.77,-0.39 -0.72,-0.48 -0.72,-0.48 L -0.72,-0.48 Z"/></g><g transform="translate(373.5543215013165 165.18529977823766) rotate(0 -6.510958424859041 7.5961181623355)" stroke="none"><path fill="#1e1e1e" d="M 0.43,0.64 Q 0.43,0.64 -0.06,1.24 -0.56,1.85 -1.42,2.47 -2.28,3.10 -3.15,4.11 -4.02,5.11 -5.44,6.82 -6.87,8.53 -8.10,10.07 -9.33,11.61 -9.92,13.27 -10.51,14.93 -10.56,14.98 -10.62,15.04 -10.69,15.08 -10.76,15.12 -10.83,15.14 -10.91,15.17 -10.99,15.17 -11.07,15.17 -11.14,15.16 -11.22,15.14 -11.29,15.11 -11.37,15.08 -11.43,15.03 -11.49,14.98 -11.54,14.92 -11.59,14.85 -11.62,14.78 -11.65,14.71 -11.66,14.63 -11.68,14.55 -11.67,14.47 -11.67,14.39 -11.64,14.32 -11.62,14.24 -11.58,14.18 -11.53,14.11 -11.27,13.99 -11.01,13.86 -10.90,13.88 -10.80,13.90 -10.71,13.95 -10.61,14.00 -10.54,14.08 -10.47,14.16 -10.43,14.26 -10.38,14.36 -10.38,14.46 -10.37,14.57 -10.39,14.67 -10.42,14.77 -10.47,14.86 -10.53,14.95 -10.61,15.02 -10.69,15.09 -10.79,15.13 -10.89,15.16 -11.00,15.17 -11.10,15.17 -11.21,15.14 -11.31,15.11 -11.39,15.05 -11.48,14.99 -11.54,14.90 -11.61,14.82 -11.64,14.71 -11.67,14.61 -11.67,14.51 -11.67,14.40 -11.63,14.30 -11.60,14.20 -11.53,14.12 -11.46,14.03 -11.37,13.98 -11.29,13.92 -11.18,13.89 -11.08,13.86 -10.97,13.87 -10.87,13.88 -10.77,13.92 -10.67,13.96 -10.59,14.03 -10.51,14.10 -10.46,14.20 -10.41,14.29 -10.39,14.39 -10.36,14.50 -10.38,14.60 -10.39,14.71 -10.44,14.80 -10.48,14.90 -10.56,14.97 -10.63,15.05 -10.73,15.10 -10.82,15.15 -10.67,15.04 -10.51,14.93 -10.56,14.98 -10.62,15.04 -10.69,15.08 -10.76,15.12 -10.83,15.14 -10.91,15.17 -10.99,15.17 -11.07,15.17 -11.14,15.16 -11.22,15.14 -11.29,15.11 -11.37,15.08 -11.43,15.03 -11.49,14.98 -11.54,14.92 -11.59,14.85 -11.62,14.78 -11.65,14.71 -11.66,14.63 -11.68,14.55 -11.67,14.47 -11.67,14.39 -11.64,14.32 -11.62,14.24 -11.58,14.18 -11.53,14.11 -11.55,11.96 -11.58,9.81 -10.31,8.24 -9.04,6.67 -7.54,4.96 -6.03,3.25 -4.90,2.08 -3.76,0.92 -2.84,0.37 -1.92,-0.18 -1.17,-0.41 -0.43,-0.64 -0.34,-0.69 -0.26,-0.73 -0.17,-0.75 -0.08,-0.77 0.01,-0.77 0.10,-0.77 0.19,-0.74 0.28,-0.72 0.37,-0.67 0.45,-0.63 0.52,-0.57 0.59,-0.50 0.64,-0.42 0.69,-0.35 0.72,-0.26 0.76,-0.17 0.77,-0.08 0.77,0.01 0.76,0.10 0.75,0.19 0.71,0.28 0.68,0.37 0.62,0.45 0.57,0.52 0.50,0.58 0.43,0.64 0.43,0.64 L 0.43,0.64 Z"/></g><g transform="translate(380.7887418287912 168.80250994197502) rotate(0 -3.6172101637373544 7.234387211027638)" stroke="none"><path fill="#1e1e1e" d="M 0.77,0.38 Q 0.77,0.38 0.57,1.32 0.38,2.27 -0.15,3.64 -0.68,5.01 -1.57,6.71 -2.46,8.41 -3.24,9.93 -4.02,11.44 -5.16,12.77 -6.30,14.09 -6.37,14.18 -6.43,14.26 -6.52,14.33 -6.60,14.39 -6.71,14.42 -6.81,14.45 -6.91,14.44 -7.02,14.44 -7.12,14.40 -7.22,14.36 -7.30,14.30 -7.38,14.23 -7.44,14.14 -7.49,14.05 -7.52,13.94 -7.54,13.84 -7.53,13.74 -7.52,13.63 -7.48,13.53 -7.44,13.44 -7.37,13.36 -7.29,13.28 -7.20,13.23 -7.11,13.18 -7.00,13.16 -6.90,13.14 -6.79,13.15 -6.69,13.17 -6.59,13.22 -6.50,13.27 -6.42,13.34 -6.35,13.42 -6.30,13.51 -6.26,13.61 -6.25,13.71 -6.23,13.82 -6.25,13.92 -6.27,14.03 -6.33,14.12 -6.38,14.21 -6.46,14.28 -6.54,14.35 -6.64,14.39 -6.74,14.43 -6.84,14.44 -6.95,14.45 -7.05,14.42 -7.15,14.40 -7.24,14.34 -7.33,14.28 -7.40,14.20 -7.46,14.11 -7.50,14.01 -7.53,13.91 -7.54,13.81 -7.54,13.70 -7.51,13.60 -7.47,13.50 -7.47,13.50 -7.47,13.50 -7.07,11.79 -6.66,10.08 -5.86,8.55 -5.06,7.01 -4.20,5.45 -3.34,3.88 -2.69,2.47 -2.04,1.05 -1.41,0.33 -0.77,-0.38 -0.71,-0.47 -0.65,-0.56 -0.58,-0.63 -0.50,-0.70 -0.41,-0.75 -0.32,-0.80 -0.22,-0.83 -0.12,-0.85 -0.01,-0.86 0.08,-0.86 0.18,-0.83 0.29,-0.81 0.38,-0.76 0.47,-0.72 0.55,-0.65 0.63,-0.58 0.69,-0.50 0.75,-0.41 0.79,-0.32 0.83,-0.22 0.85,-0.12 0.86,-0.01 0.85,0.08 0.84,0.19 0.81,0.28 0.77,0.38 0.77,0.38 L 0.77,0.38 Z"/></g><g transform="translate(51.04858426116999 95.45850536591024) rotate(0 -2.532050426260838 8.31956350672769)" stroke="none"><path fill="#1e1e1e" d="M 0.59,-0.59 Q 0.59,-0.59 1.19,0.01 1.80,0.61 1.66,1.70 1.51,2.78 0.76,4.28 0.01,5.77 -0.94,7.25 -1.89,8.73 -3.11,10.58 -4.34,12.44 -5.15,14.33 -5.96,16.21 -5.94,16.32 -5.92,16.42 -5.93,16.53 -5.95,16.63 -6.00,16.73 -6.04,16.82 -6.12,16.90 -6.19,16.97 -6.29,17.02 -6.38,17.07 -6.49,17.08 -6.59,17.10 -6.70,17.08 -6.80,17.06 -6.89,17.01 -6.99,16.96 -7.06,16.88 -7.13,16.80 -7.17,16.70 -7.21,16.60 -7.22,16.50 -7.23,16.39 -7.21,16.29 -7.18,16.19 -7.12,16.10 -7.07,16.01 -6.99,15.94 -6.90,15.87 -6.80,15.83 -6.70,15.80 -6.60,15.79 -6.49,15.79 -6.39,15.82 -6.29,15.85 -6.20,15.91 -6.11,15.98 -6.05,16.06 -5.99,16.15 -5.96,16.25 -5.93,16.35 -5.93,16.46 -5.93,16.56 -5.97,16.66 -6.00,16.76 -6.07,16.85 -6.14,16.93 -6.23,16.99 -6.32,17.04 -6.42,17.07 -6.52,17.10 -6.63,17.09 -6.73,17.08 -6.83,17.04 -6.93,17.00 -7.01,16.93 -7.09,16.86 -7.14,16.76 -7.19,16.67 -7.19,16.67 -7.19,16.67 -6.84,13.84 -6.49,11.02 -5.26,9.17 -4.02,7.32 -3.11,5.96 -2.20,4.60 -1.51,3.34 -0.81,2.08 -0.47,1.56 -0.14,1.04 -0.36,0.81 -0.59,0.59 -0.65,0.51 -0.71,0.43 -0.75,0.34 -0.79,0.24 -0.81,0.14 -0.83,0.05 -0.82,-0.05 -0.82,-0.15 -0.79,-0.24 -0.76,-0.34 -0.71,-0.42 -0.65,-0.51 -0.58,-0.58 -0.51,-0.65 -0.42,-0.71 -0.34,-0.76 -0.24,-0.79 -0.15,-0.82 -0.05,-0.82 0.05,-0.83 0.14,-0.81 0.24,-0.79 0.34,-0.75 0.43,-0.71 0.51,-0.65 0.59,-0.59 0.59,-0.59 L 0.59,-0.59 Z"/></g><g transform="translate(64.07050111088802 95.45850536591024) rotate(0 -4.702369901213871 7.234403769251202)" stroke="none"><path fill="#1e1e1e" d="M 0.65,0.49 Q 0.65,0.49 0.17,1.43 -0.30,2.36 -0.73,3.10 -1.16,3.84 -2.02,4.88 -2.88,5.93 -3.58,7.09 -4.28,8.25 -5.02,9.42 -5.76,10.58 -6.93,12.35 -8.09,14.12 -8.08,14.22 -8.07,14.33 -8.09,14.43 -8.12,14.53 -8.17,14.62 -8.23,14.71 -8.31,14.78 -8.39,14.85 -8.49,14.89 -8.59,14.93 -8.70,14.93 -8.80,14.93 -8.91,14.90 -9.01,14.87 -9.10,14.81 -9.18,14.75 -9.25,14.67 -9.31,14.58 -9.34,14.48 -9.37,14.38 -9.37,14.27 -9.37,14.17 -9.34,14.07 -9.30,13.97 -9.23,13.88 -9.17,13.80 -9.08,13.74 -8.99,13.68 -8.89,13.66 -8.79,13.63 -8.68,13.64 -8.57,13.64 -8.48,13.68 -8.38,13.72 -8.30,13.79 -8.22,13.86 -8.16,13.96 -8.11,14.05 -8.09,14.15 -8.07,14.26 -8.08,14.36 -8.09,14.47 -8.14,14.56 -8.19,14.66 -8.26,14.73 -8.33,14.81 -8.43,14.86 -8.52,14.91 -8.63,14.92 -8.73,14.94 -8.84,14.92 -8.94,14.90 -9.04,14.85 -9.13,14.80 -9.20,14.72 -9.27,14.64 -9.32,14.55 -9.36,14.45 -9.36,14.45 -9.36,14.45 -8.66,11.81 -7.95,9.16 -7.21,8.03 -6.47,6.89 -5.63,5.58 -4.80,4.27 -4.01,3.42 -3.22,2.56 -2.70,1.76 -2.18,0.96 -1.42,0.23 -0.65,-0.49 -0.59,-0.56 -0.52,-0.63 -0.43,-0.69 -0.35,-0.74 -0.25,-0.77 -0.16,-0.80 -0.06,-0.81 0.03,-0.82 0.13,-0.80 0.22,-0.79 0.31,-0.75 0.41,-0.71 0.49,-0.65 0.56,-0.59 0.63,-0.51 0.69,-0.44 0.73,-0.35 0.78,-0.26 0.80,-0.16 0.82,-0.06 0.81,0.03 0.81,0.13 0.78,0.22 0.75,0.32 0.70,0.40 0.65,0.49 0.65,0.49 L 0.65,0.49 Z"/></g><g transform="translate(71.30485520546858 96.90539605469462) rotate(0 -5.425798687382496 7.957832555419827)" stroke="none"><path fill="#1e1e1e" d="M 0.75,0.45 Q 0.75,0.45 0.31,1.60 -0.11,2.75 -0.78,3.85 -1.44,4.95 -2.61,6.33 -3.78,7.71 -4.85,9.07 -5.93,10.43 -6.79,11.61 -7.65,12.80 -8.55,14.23 -9.44,15.66 -9.47,15.76 -9.50,15.87 -9.55,15.96 -9.61,16.05 -9.69,16.11 -9.78,16.18 -9.88,16.22 -9.98,16.25 -10.08,16.25 -10.19,16.26 -10.29,16.23 -10.39,16.19 -10.48,16.13 -10.56,16.07 -10.62,15.98 -10.69,15.90 -10.72,15.80 -10.75,15.69 -10.75,15.59 -10.74,15.48 -10.71,15.38 -10.67,15.28 -10.60,15.20 -10.54,15.12 -10.45,15.06 -10.36,15.00 -10.25,14.98 -10.15,14.95 -10.04,14.96 -9.94,14.97 -9.84,15.01 -9.74,15.05 -9.66,15.13 -9.59,15.20 -9.53,15.29 -9.48,15.38 -9.46,15.49 -9.44,15.59 -9.46,15.70 -9.47,15.80 -9.52,15.90 -9.57,15.99 -9.64,16.07 -9.72,16.14 -9.81,16.19 -9.91,16.23 -10.01,16.25 -10.12,16.26 -10.22,16.24 -10.33,16.22 -10.42,16.17 -10.51,16.12 -10.58,16.04 -10.65,15.96 -10.69,15.86 -10.74,15.76 -10.74,15.66 -10.75,15.55 -10.75,15.55 -10.75,15.55 -10.37,13.33 -9.98,11.10 -9.08,9.87 -8.17,8.64 -7.04,7.24 -5.92,5.84 -4.84,4.65 -3.77,3.46 -3.07,2.43 -2.37,1.40 -1.56,0.47 -0.75,-0.45 -0.69,-0.53 -0.62,-0.62 -0.54,-0.68 -0.45,-0.75 -0.36,-0.79 -0.26,-0.84 -0.16,-0.85 -0.05,-0.87 0.04,-0.87 0.15,-0.86 0.25,-0.83 0.35,-0.80 0.44,-0.74 0.54,-0.69 0.61,-0.62 0.69,-0.54 0.74,-0.45 0.80,-0.36 0.83,-0.26 0.86,-0.16 0.87,-0.05 0.87,0.05 0.86,0.15 0.84,0.25 0.79,0.35 0.75,0.45 0.75,0.45 L 0.75,0.45 Z"/></g><g transform="translate(75.64549415537459 101.96946379076928) rotate(0 -1.8085885236451418 4.702369901213842)" stroke="none"><path fill="#1e1e1e" d="M 0.83,0.16 Q 0.83,0.16 0.83,1.25 0.83,2.33 0.29,3.55 -0.24,4.77 -1.86,7.02 -3.48,9.28 -3.55,9.36 -3.62,9.44 -3.71,9.49 -3.81,9.54 -3.91,9.56 -4.02,9.58 -4.12,9.57 -4.23,9.55 -4.32,9.51 -4.42,9.46 -4.49,9.39 -4.57,9.31 -4.62,9.22 -4.66,9.12 -4.68,9.02 -4.69,8.91 -4.67,8.81 -4.65,8.70 -4.60,8.61 -4.55,8.52 -4.47,8.45 -4.39,8.37 -4.30,8.33 -4.20,8.29 -4.09,8.28 -3.99,8.27 -3.88,8.30 -3.78,8.32 -3.69,8.38 -3.60,8.43 -3.53,8.52 -3.47,8.60 -3.43,8.70 -3.39,8.80 -3.39,8.90 -3.39,9.01 -3.42,9.11 -3.45,9.21 -3.51,9.30 -3.57,9.39 -3.66,9.45 -3.74,9.51 -3.84,9.54 -3.94,9.58 -4.05,9.57 -4.16,9.57 -4.26,9.54 -4.36,9.50 -4.44,9.43 -4.52,9.37 -4.58,9.28 -4.64,9.19 -4.66,9.09 -4.69,8.98 -4.68,8.88 -4.67,8.77 -4.63,8.67 -4.59,8.58 -4.59,8.58 -4.59,8.58 -3.60,6.11 -2.60,3.65 -2.13,2.73 -1.66,1.82 -1.24,0.82 -0.83,-0.16 -0.79,-0.26 -0.76,-0.35 -0.71,-0.44 -0.65,-0.53 -0.58,-0.60 -0.51,-0.67 -0.42,-0.72 -0.33,-0.77 -0.23,-0.80 -0.13,-0.83 -0.03,-0.83 0.06,-0.84 0.16,-0.82 0.26,-0.80 0.35,-0.76 0.44,-0.71 0.52,-0.65 0.60,-0.58 0.67,-0.50 0.73,-0.42 0.77,-0.33 0.81,-0.23 0.82,-0.13 0.84,-0.03 0.83,0.06 0.83,0.16 0.83,0.16 L 0.83,0.16 Z"/></g><g transform="translate(46.707945311263984 151.8868117146883) rotate(0 -4.340672066353051 5.7875296386903585)" stroke="none"><path fill="#1e1e1e" d="M 0.54,0.54 Q 0.54,0.54 -0.09,1.56 -0.72,2.59 -1.44,3.51 -2.15,4.44 -3.29,6.07 -4.42,7.71 -5.57,9.08 -6.71,10.46 -7.37,11.60 -8.02,12.74 -8.04,12.85 -8.05,12.96 -8.10,13.05 -8.15,13.14 -8.23,13.22 -8.30,13.29 -8.40,13.34 -8.50,13.38 -8.60,13.40 -8.71,13.41 -8.81,13.39 -8.91,13.37 -9.01,13.32 -9.10,13.26 -9.17,13.18 -9.24,13.10 -9.28,13.00 -9.32,12.91 -9.33,12.80 -9.33,12.69 -9.31,12.59 -9.28,12.49 -9.22,12.40 -9.16,12.31 -9.08,12.24 -9.00,12.18 -8.90,12.14 -8.80,12.11 -8.69,12.11 -8.58,12.11 -8.48,12.14 -8.38,12.17 -8.30,12.23 -8.21,12.30 -8.15,12.38 -8.09,12.47 -8.06,12.57 -8.03,12.67 -8.03,12.78 -8.04,12.89 -8.07,12.99 -8.11,13.08 -8.18,13.17 -8.25,13.25 -8.34,13.31 -8.43,13.36 -8.53,13.39 -8.63,13.41 -8.74,13.40 -8.85,13.39 -8.94,13.35 -9.04,13.30 -9.12,13.23 -9.20,13.16 -9.25,13.07 -9.30,12.97 -9.32,12.87 -9.34,12.76 -9.34,12.76 -9.34,12.76 -9.06,10.76 -8.78,8.75 -7.70,7.46 -6.62,6.17 -5.43,4.48 -4.24,2.79 -3.42,1.76 -2.59,0.73 -1.56,0.09 -0.54,-0.54 -0.46,-0.59 -0.39,-0.65 -0.31,-0.69 -0.22,-0.73 -0.13,-0.74 -0.04,-0.76 0.04,-0.75 0.13,-0.75 0.22,-0.72 0.31,-0.69 0.39,-0.65 0.47,-0.60 0.53,-0.53 0.60,-0.47 0.65,-0.39 0.69,-0.31 0.72,-0.22 0.75,-0.13 0.75,-0.04 0.76,0.04 0.74,0.13 0.73,0.22 0.69,0.31 0.65,0.39 0.59,0.46 0.54,0.54 0.54,0.54 L 0.54,0.54 Z"/></g><g transform="translate(55.389223211076 155.50402187842565) rotate(0 -3.255479212429492 5.064084294298169)" stroke="none"><path fill="#1e1e1e" d="M 0.72,0.51 Q 0.72,0.51 -0.12,2.11 -0.96,3.70 -1.81,4.94 -2.65,6.18 -3.92,7.99 -5.18,9.79 -5.18,9.90 -5.17,10.00 -5.20,10.11 -5.23,10.21 -5.29,10.30 -5.35,10.39 -5.43,10.45 -5.51,10.52 -5.61,10.55 -5.71,10.58 -5.82,10.58 -5.93,10.59 -6.03,10.55 -6.13,10.52 -6.21,10.45 -6.30,10.39 -6.36,10.30 -6.42,10.22 -6.45,10.11 -6.48,10.01 -6.47,9.91 -6.47,9.80 -6.43,9.70 -6.39,9.60 -6.32,9.52 -6.25,9.44 -6.16,9.38 -6.07,9.33 -5.97,9.30 -5.86,9.28 -5.76,9.29 -5.65,9.30 -5.56,9.35 -5.46,9.39 -5.38,9.46 -5.30,9.54 -5.25,9.63 -5.20,9.72 -5.19,9.83 -5.17,9.93 -5.18,10.04 -5.20,10.14 -5.25,10.24 -5.30,10.33 -5.38,10.40 -5.45,10.48 -5.55,10.52 -5.65,10.57 -5.75,10.58 -5.86,10.59 -5.96,10.57 -6.06,10.55 -6.16,10.49 -6.25,10.44 -6.32,10.36 -6.39,10.28 -6.43,10.18 -6.47,10.08 -6.47,10.08 -6.47,10.08 -5.70,7.34 -4.93,4.60 -4.06,3.36 -3.19,2.11 -1.95,0.79 -0.72,-0.51 -0.65,-0.59 -0.58,-0.67 -0.49,-0.73 -0.40,-0.79 -0.30,-0.83 -0.19,-0.87 -0.09,-0.88 0.01,-0.89 0.12,-0.87 0.22,-0.86 0.32,-0.82 0.42,-0.78 0.51,-0.72 0.60,-0.65 0.67,-0.57 0.74,-0.49 0.79,-0.39 0.84,-0.30 0.86,-0.19 0.88,-0.09 0.88,0.01 0.88,0.12 0.85,0.22 0.82,0.33 0.77,0.42 0.72,0.51 0.72,0.51 L 0.72,0.51 Z"/></g><g transform="translate(71.30485520546858 151.16338292851964) rotate(0 -6.872656259719776 8.31956350672769)" stroke="none"><path fill="#1e1e1e" d="M 0.42,0.70 Q 0.42,0.70 -0.50,1.51 -1.43,2.32 -2.45,3.03 -3.48,3.73 -4.42,4.76 -5.36,5.80 -6.37,7.25 -7.38,8.69 -8.25,9.96 -9.12,11.22 -10.12,12.60 -11.12,13.99 -12.06,15.24 -13.00,16.50 -13.05,16.59 -13.10,16.69 -13.18,16.76 -13.26,16.83 -13.35,16.88 -13.45,16.92 -13.55,16.94 -13.66,16.95 -13.76,16.93 -13.87,16.90 -13.96,16.85 -14.05,16.80 -14.12,16.71 -14.19,16.63 -14.23,16.54 -14.27,16.44 -14.27,16.33 -14.28,16.22 -14.25,16.12 -14.22,16.02 -14.17,15.93 -14.11,15.84 -14.02,15.78 -13.94,15.71 -13.84,15.68 -13.74,15.64 -13.63,15.64 -13.52,15.64 -13.42,15.68 -13.32,15.71 -13.24,15.77 -13.15,15.84 -13.09,15.93 -13.03,16.01 -13.00,16.12 -12.97,16.22 -12.98,16.32 -12.99,16.43 -13.02,16.53 -13.06,16.63 -13.13,16.71 -13.20,16.79 -13.29,16.85 -13.38,16.90 -13.48,16.92 -13.59,16.95 -13.69,16.94 -13.80,16.93 -13.90,16.88 -13.99,16.84 -14.07,16.77 -14.15,16.69 -14.20,16.60 -14.25,16.51 -14.27,16.40 -14.28,16.30 -14.27,16.19 -14.25,16.09 -14.25,16.09 -14.25,16.09 -13.83,14.21 -13.41,12.33 -12.42,10.97 -11.44,9.62 -10.55,8.34 -9.66,7.07 -8.51,5.48 -7.36,3.89 -6.15,2.69 -4.93,1.48 -3.83,0.82 -2.72,0.16 -1.57,-0.26 -0.42,-0.70 -0.33,-0.74 -0.24,-0.78 -0.14,-0.80 -0.04,-0.82 0.05,-0.81 0.15,-0.81 0.24,-0.78 0.34,-0.75 0.42,-0.69 0.51,-0.64 0.58,-0.57 0.65,-0.50 0.70,-0.42 0.75,-0.33 0.78,-0.24 0.81,-0.14 0.81,-0.04 0.82,0.05 0.80,0.15 0.78,0.24 0.74,0.33 0.70,0.42 0.64,0.50 0.58,0.58 0.50,0.64 0.42,0.70 0.42,0.70 L 0.42,0.70 Z"/></g><g transform="translate(77.81581363032763 153.33370240347267) rotate(0 -3.9789079985981743 9.042992292896315)" stroke="none"><path fill="#1e1e1e" d="M 0.78,0.15 Q 0.78,0.15 0.81,1.24 0.84,2.33 0.58,3.45 0.32,4.58 -0.20,6.13 -0.73,7.69 -1.62,9.28 -2.51,10.87 -3.50,12.54 -4.48,14.22 -5.72,15.87 -6.96,17.52 -7.02,17.61 -7.09,17.70 -7.17,17.76 -7.26,17.83 -7.36,17.86 -7.46,17.89 -7.56,17.89 -7.67,17.89 -7.77,17.86 -7.87,17.82 -7.95,17.76 -8.04,17.69 -8.10,17.60 -8.16,17.52 -8.18,17.41 -8.21,17.31 -8.21,17.21 -8.20,17.10 -8.16,17.00 -8.12,16.90 -8.05,16.82 -7.98,16.74 -7.89,16.69 -7.80,16.63 -7.69,16.61 -7.59,16.59 -7.48,16.60 -7.38,16.61 -7.28,16.66 -7.19,16.70 -7.11,16.78 -7.03,16.85 -6.98,16.95 -6.93,17.04 -6.92,17.14 -6.90,17.25 -6.92,17.35 -6.94,17.46 -6.99,17.55 -7.04,17.65 -7.12,17.72 -7.19,17.79 -7.29,17.84 -7.39,17.88 -7.49,17.89 -7.60,17.90 -7.70,17.88 -7.81,17.85 -7.90,17.80 -7.99,17.74 -8.06,17.66 -8.12,17.58 -8.16,17.48 -8.20,17.38 -8.21,17.28 -8.21,17.17 -8.18,17.07 -8.15,16.96 -8.15,16.96 -8.15,16.96 -7.61,14.83 -7.06,12.69 -6.07,11.03 -5.08,9.38 -4.26,8.04 -3.45,6.69 -2.89,5.26 -2.34,3.84 -2.01,2.83 -1.68,1.82 -1.23,0.83 -0.78,-0.15 -0.75,-0.24 -0.72,-0.34 -0.67,-0.42 -0.62,-0.50 -0.55,-0.57 -0.48,-0.63 -0.40,-0.68 -0.31,-0.73 -0.22,-0.76 -0.13,-0.79 -0.03,-0.79 0.06,-0.79 0.15,-0.78 0.25,-0.76 0.33,-0.72 0.42,-0.67 0.50,-0.61 0.57,-0.55 0.63,-0.48 0.69,-0.40 0.73,-0.31 0.76,-0.22 0.78,-0.13 0.80,-0.03 0.79,0.06 0.78,0.15 0.78,0.15 L 0.78,0.15 Z"/></g><g transform="translate(281.00813912275675 97.41786377833438) rotate(80.42353397325786 -5.787496522243259 8.681277899812017)" stroke="none"><path fill="#1e1e1e" d="M 0.61,0.61 Q 0.61,0.61 -0.10,1.55 -0.82,2.50 -1.37,3.08 -1.91,3.65 -2.35,4.11 -2.78,4.57 -3.31,5.33 -3.83,6.09 -4.87,7.85 -5.91,9.60 -6.98,11.59 -8.05,13.58 -7.85,13.96 -7.65,14.34 -7.70,14.40 -7.74,14.47 -7.80,14.52 -7.86,14.57 -7.93,14.60 -8.00,14.64 -8.08,14.66 -8.16,14.68 -8.24,14.68 -8.32,14.67 -8.39,14.66 -8.47,14.64 -8.54,14.60 -8.61,14.56 -8.67,14.51 -8.73,14.45 -8.77,14.39 -8.81,14.32 -8.84,14.25 -8.87,14.17 -8.88,14.09 -8.89,14.02 -8.88,13.94 -8.87,13.86 -8.84,13.79 -8.81,13.71 -8.67,13.58 -8.53,13.44 -8.43,13.41 -8.33,13.37 -8.22,13.38 -8.11,13.38 -8.01,13.41 -7.91,13.45 -7.83,13.51 -7.75,13.58 -7.69,13.67 -7.63,13.76 -7.60,13.86 -7.58,13.96 -7.58,14.07 -7.59,14.17 -7.63,14.27 -7.67,14.37 -7.74,14.45 -7.81,14.53 -7.90,14.58 -8.00,14.64 -8.10,14.66 -8.20,14.68 -8.31,14.67 -8.41,14.65 -8.51,14.61 -8.61,14.56 -8.68,14.49 -8.76,14.41 -8.81,14.32 -8.85,14.22 -8.87,14.12 -8.89,14.01 -8.87,13.91 -8.85,13.80 -8.80,13.71 -8.75,13.62 -8.67,13.55 -8.59,13.47 -8.49,13.43 -8.40,13.39 -8.29,13.38 -8.18,13.37 -8.08,13.39 -7.98,13.42 -7.89,13.47 -7.80,13.53 -7.73,13.61 -7.66,13.69 -7.62,13.79 -7.59,13.89 -7.58,14.00 -7.58,14.10 -7.61,14.21 -7.64,14.31 -7.70,14.40 -7.76,14.48 -7.71,14.41 -7.65,14.34 -7.70,14.40 -7.74,14.47 -7.80,14.52 -7.86,14.57 -7.93,14.60 -8.00,14.64 -8.08,14.66 -8.16,14.68 -8.24,14.68 -8.32,14.67 -8.39,14.66 -8.47,14.64 -8.54,14.60 -8.61,14.56 -8.67,14.51 -8.73,14.45 -8.77,14.39 -8.81,14.32 -8.84,14.25 -8.87,14.17 -8.88,14.10 -8.89,14.02 -8.88,13.94 -8.87,13.86 -8.84,13.79 -8.81,13.71 -9.62,13.00 -10.43,12.29 -9.33,10.25 -8.22,8.21 -7.08,6.36 -5.94,4.52 -5.26,3.65 -4.57,2.78 -4.11,2.35 -3.65,1.91 -3.08,1.37 -2.50,0.82 -1.55,0.10 -0.61,-0.61 -0.52,-0.67 -0.44,-0.73 -0.35,-0.78 -0.25,-0.82 -0.15,-0.84 -0.05,-0.86 0.05,-0.85 0.15,-0.84 0.25,-0.81 0.35,-0.78 0.44,-0.73 0.53,-0.67 0.60,-0.60 0.67,-0.53 0.73,-0.44 0.78,-0.35 0.81,-0.25 0.84,-0.15 0.85,-0.05 0.86,0.05 0.84,0.15 0.82,0.25 0.78,0.35 0.73,0.44 0.67,0.52 0.61,0.61 0.61,0.61 L 0.61,0.61 Z"/></g><g transform="translate(280.3315479963121 112.69519556364713) rotate(80.42353397325786 -2.5320504262608665 4.340655508129544)" stroke="none"><path fill="#1e1e1e" d="M -0.72,-0.48 Q -0.72,-0.48 -0.44,-1.19 -0.15,-1.90 -0.06,-2.01 0.03,-2.12 0.14,-2.20 0.26,-2.28 0.39,-2.34 0.52,-2.39 0.67,-2.41 0.81,-2.43 0.95,-2.41 1.09,-2.40 1.23,-2.35 1.36,-2.30 1.48,-2.22 1.60,-2.14 1.69,-2.04 1.79,-1.93 1.86,-1.81 1.93,-1.68 1.96,-1.54 2.00,-1.40 2.00,-1.26 2.00,-1.12 1.97,-0.98 1.94,-0.84 1.88,-0.71 1.81,-0.59 1.21,0.04 0.61,0.67 -0.03,1.51 -0.67,2.36 -1.36,3.51 -2.05,4.67 -2.80,5.83 -3.54,6.99 -4.46,9.08 -5.38,11.17 -5.43,11.23 -5.48,11.29 -5.55,11.34 -5.61,11.39 -5.68,11.42 -5.76,11.45 -5.83,11.46 -5.91,11.47 -5.99,11.46 -6.07,11.46 -6.14,11.43 -6.22,11.41 -6.29,11.36 -6.35,11.32 -6.41,11.26 -6.46,11.21 -6.50,11.14 -6.54,11.07 -6.56,10.99 -6.58,10.92 -6.59,10.84 -6.59,10.76 -6.57,10.68 -6.55,10.60 -6.52,10.53 -6.49,10.46 -6.04,10.35 -5.60,10.25 -5.52,10.32 -5.44,10.39 -5.38,10.48 -5.33,10.57 -5.30,10.67 -5.28,10.77 -5.29,10.88 -5.30,10.98 -5.34,11.08 -5.39,11.18 -5.46,11.26 -5.53,11.33 -5.62,11.38 -5.72,11.44 -5.82,11.45 -5.93,11.47 -6.03,11.46 -6.14,11.44 -6.23,11.39 -6.33,11.34 -6.40,11.26 -6.47,11.19 -6.52,11.09 -6.56,11.00 -6.58,10.89 -6.59,10.79 -6.57,10.68 -6.55,10.58 -6.49,10.49 -6.44,10.39 -6.36,10.32 -6.28,10.26 -6.18,10.22 -6.08,10.17 -5.97,10.17 -5.87,10.16 -5.77,10.19 -5.66,10.22 -5.57,10.28 -5.49,10.33 -5.42,10.42 -5.36,10.50 -5.32,10.60 -5.29,10.70 -5.29,10.81 -5.28,10.92 -5.32,11.02 -5.35,11.12 -5.41,11.20 -5.48,11.29 -5.56,11.35 -5.65,11.41 -5.75,11.44 -5.86,11.47 -5.96,11.46 -6.07,11.46 -5.72,11.31 -5.38,11.17 -5.43,11.23 -5.48,11.29 -5.55,11.34 -5.61,11.39 -5.68,11.42 -5.76,11.45 -5.83,11.46 -5.91,11.47 -5.99,11.46 -6.07,11.46 -6.14,11.43 -6.22,11.41 -6.29,11.36 -6.35,11.32 -6.41,11.26 -6.46,11.21 -6.50,11.14 -6.54,11.07 -6.56,10.99 -6.58,10.92 -6.59,10.84 -6.59,10.76 -6.57,10.68 -6.55,10.60 -6.52,10.53 -6.49,10.46 -6.16,7.99 -5.84,5.51 -5.11,4.38 -4.37,3.24 -3.55,1.93 -2.72,0.62 -1.44,-0.64 -0.15,-1.90 -0.06,-2.01 0.03,-2.12 0.14,-2.20 0.26,-2.28 0.39,-2.34 0.52,-2.39 0.67,-2.41 0.81,-2.43 0.95,-2.41 1.09,-2.40 1.23,-2.35 1.36,-2.30 1.48,-2.22 1.60,-2.14 1.69,-2.04 1.79,-1.93 1.86,-1.81 1.93,-1.68 1.96,-1.54 2.00,-1.40 2.00,-1.26 2.00,-1.12 1.97,-0.98 1.94,-0.84 1.88,-0.71 1.81,-0.59 1.27,-0.05 0.72,0.48 0.65,0.56 0.59,0.64 0.50,0.70 0.41,0.76 0.32,0.80 0.22,0.84 0.11,0.86 0.01,0.87 -0.09,0.86 -0.19,0.85 -0.29,0.81 -0.39,0.78 -0.48,0.72 -0.56,0.66 -0.64,0.58 -0.71,0.50 -0.76,0.41 -0.81,0.32 -0.84,0.22 -0.86,0.11 -0.86,0.01 -0.87,-0.09 -0.84,-0.19 -0.82,-0.29 -0.77,-0.39 -0.72,-0.48 -0.72,-0.48 L -0.72,-0.48 Z"/></g><g transform="translate(281.3378532301021 119.70351858258437) rotate(80.42353397325786 -6.510958424859041 7.5961181623355)" stroke="none"><path fill="#1e1e1e" d="M 0.43,0.64 Q 0.43,0.64 -0.06,1.24 -0.56,1.85 -1.42,2.47 -2.28,3.10 -3.15,4.11 -4.02,5.11 -5.44,6.82 -6.87,8.53 -8.10,10.07 -9.33,11.61 -9.92,13.27 -10.51,14.93 -10.56,14.98 -10.62,15.04 -10.69,15.08 -10.76,15.12 -10.83,15.14 -10.91,15.17 -10.99,15.17 -11.07,15.17 -11.14,15.16 -11.22,15.14 -11.29,15.11 -11.37,15.08 -11.43,15.03 -11.49,14.98 -11.54,14.92 -11.59,14.85 -11.62,14.78 -11.65,14.71 -11.66,14.63 -11.68,14.55 -11.67,14.47 -11.67,14.39 -11.64,14.32 -11.62,14.24 -11.58,14.18 -11.53,14.11 -11.27,13.99 -11.01,13.86 -10.90,13.88 -10.80,13.90 -10.71,13.95 -10.61,14.00 -10.54,14.08 -10.47,14.16 -10.43,14.26 -10.38,14.36 -10.38,14.46 -10.37,14.57 -10.39,14.67 -10.42,14.77 -10.47,14.86 -10.53,14.95 -10.61,15.02 -10.69,15.09 -10.79,15.13 -10.89,15.16 -11.00,15.17 -11.10,15.17 -11.21,15.14 -11.31,15.11 -11.39,15.05 -11.48,14.99 -11.54,14.90 -11.61,14.82 -11.64,14.71 -11.67,14.61 -11.67,14.51 -11.67,14.40 -11.63,14.30 -11.60,14.20 -11.53,14.12 -11.46,14.03 -11.37,13.98 -11.29,13.92 -11.18,13.89 -11.08,13.86 -10.97,13.87 -10.87,13.88 -10.77,13.92 -10.67,13.96 -10.59,14.03 -10.51,14.10 -10.46,14.20 -10.41,14.29 -10.39,14.39 -10.36,14.50 -10.38,14.60 -10.39,14.71 -10.44,14.80 -10.48,14.90 -10.56,14.97 -10.63,15.05 -10.73,15.10 -10.82,15.15 -10.67,15.04 -10.51,14.93 -10.56,14.98 -10.62,15.04 -10.69,15.08 -10.76,15.12 -10.83,15.14 -10.91,15.17 -10.99,15.17 -11.07,15.17 -11.14,15.16 -11.22,15.14 -11.29,15.11 -11.37,15.08 -11.43,15.03 -11.49,14.98 -11.54,14.92 -11.59,14.85 -11.62,14.78 -11.65,14.71 -11.66,14.63 -11.68,14.55 -11.67,14.47 -11.67,14.39 -11.64,14.32 -11.62,14.24 -11.58,14.18 -11.53,14.11 -11.55,11.96 -11.58,9.81 -10.31,8.24 -9.04,6.67 -7.54,4.96 -6.03,3.25 -4.90,2.08 -3.76,0.92 -2.84,0.37 -1.92,-0.18 -1.17,-0.41 -0.43,-0.64 -0.34,-0.69 -0.26,-0.73 -0.17,-0.75 -0.08,-0.77 0.01,-0.77 0.10,-0.77 0.19,-0.74 0.28,-0.72 0.37,-0.67 0.45,-0.63 0.52,-0.57 0.59,-0.50 0.64,-0.42 0.69,-0.35 0.72,-0.26 0.76,-0.17 0.77,-0.08 0.77,0.01 0.76,0.10 0.75,0.19 0.71,0.28 0.68,0.37 0.62,0.45 0.57,0.52 0.50,0.58 0.43,0.64 0.43,0.64 L 0.43,0.64 Z"/></g><g transform="translate(279.9189526385953 128.59387025223478) rotate(80.42353397325786 -3.6172101637373544 7.234387211027638)" stroke="none"><path fill="#1e1e1e" d="M 0.77,0.38 Q 0.77,0.38 0.57,1.32 0.38,2.27 -0.15,3.64 -0.68,5.01 -1.57,6.71 -2.46,8.41 -3.24,9.93 -4.02,11.44 -5.16,12.77 -6.30,14.09 -6.37,14.18 -6.43,14.26 -6.52,14.33 -6.60,14.39 -6.71,14.42 -6.81,14.45 -6.91,14.44 -7.02,14.44 -7.12,14.40 -7.22,14.36 -7.30,14.30 -7.38,14.23 -7.44,14.14 -7.49,14.05 -7.52,13.94 -7.54,13.84 -7.53,13.74 -7.52,13.63 -7.48,13.53 -7.44,13.44 -7.37,13.36 -7.29,13.28 -7.20,13.23 -7.11,13.18 -7.00,13.16 -6.90,13.14 -6.79,13.15 -6.69,13.17 -6.59,13.22 -6.50,13.27 -6.42,13.34 -6.35,13.42 -6.30,13.51 -6.26,13.61 -6.25,13.71 -6.23,13.82 -6.25,13.92 -6.27,14.03 -6.33,14.12 -6.38,14.21 -6.46,14.28 -6.54,14.35 -6.64,14.39 -6.74,14.43 -6.84,14.44 -6.95,14.45 -7.05,14.42 -7.15,14.40 -7.24,14.34 -7.33,14.28 -7.40,14.20 -7.46,14.11 -7.50,14.01 -7.53,13.91 -7.54,13.81 -7.54,13.70 -7.51,13.60 -7.47,13.50 -7.47,13.50 -7.47,13.50 -7.07,11.79 -6.66,10.08 -5.86,8.55 -5.06,7.01 -4.20,5.45 -3.34,3.88 -2.69,2.47 -2.04,1.05 -1.41,0.33 -0.77,-0.38 -0.71,-0.47 -0.65,-0.56 -0.58,-0.63 -0.50,-0.70 -0.41,-0.75 -0.32,-0.80 -0.22,-0.83 -0.12,-0.85 -0.01,-0.86 0.08,-0.86 0.18,-0.83 0.29,-0.81 0.38,-0.76 0.47,-0.72 0.55,-0.65 0.63,-0.58 0.69,-0.50 0.75,-0.41 0.79,-0.32 0.83,-0.22 0.85,-0.12 0.86,-0.01 0.85,0.08 0.84,0.19 0.81,0.28 0.77,0.38 0.77,0.38 L 0.77,0.38 Z"/></g></svg>