<svg version="1.1" xmlns="http://www.w3.org/2000/svg" viewBox="0 0 316.17098730682676 267.48932055883995" width="316.17098730682676" height="267.48932055883995" class="excalidraw-svg">
  <!-- svg-source:excalidraw -->
  
  <defs>
    <style class="style-fonts">
      
    </style>
    
  </defs>
  <rect x="0" y="0" width="316.17098730682676" height="267.48932055883995" fill="#ffffff"/><g stroke-linecap="round" transform="translate(80.84134409392271 31.55307577827449) rotate(0 28.581609614372923 14.304958975996556)"><path d="M0 0 C18.22 -0.19, 39.64 0.63, 57.16 0 M0 0 C15.54 -0.72, 30.27 0.48, 57.16 0 M57.16 0 C58.53 5.58, 58.82 11.99, 57.16 28.61 M57.16 0 C57.06 7.46, 57.82 14.92, 57.16 28.61 M57.16 28.61 C44.58 26.99, 31.33 29.33, 0 28.61 M57.16 28.61 C36.68 27.98, 18.36 27.43, 0 28.61 M0 28.61 C-1.56 21, 1.24 12.21, 0 0 M0 28.61 C-0.35 18.96, 0.24 9.26, 0 0" stroke="#1e1e1e" stroke-width="2" fill="none"/></g><g stroke-linecap="round" transform="translate(80.56896731850435 63.35764145655065) rotate(0 29.63478902421849 23.775766002471798)"><path d="M0 0 C18.28 1.04, 38.18 -0.27, 59.27 0 M0 0 C13.43 -0.42, 29.17 0.33, 59.27 0 M59.27 0 C58.65 14.11, 60.44 25.37, 59.27 47.55 M59.27 0 C58.88 15.58, 58.75 32.12, 59.27 47.55 M59.27 47.55 C45.92 49.81, 28.87 46.36, 0 47.55 M59.27 47.55 C41.92 47.19, 24.22 46.4, 0 47.55 M0 47.55 C0.74 32, -1.49 14.72, 0 0 M0 47.55 C0.5 31.66, -1.02 16.05, 0 0" stroke="#f08c00" stroke-width="2" fill="none"/></g><g transform="translate(77.93532700786596 29.211539385791184) rotate(0 13.249310319232336 -9.605769692895592)" stroke="none"><path fill="#1e1e1e" d="M -0.19,-0.77 Q -0.19,-0.77 0.51,-1.11 1.23,-1.45 2.31,-2.27 3.39,-3.09 4.38,-4.15 5.38,-5.21 6.60,-6.47 7.82,-7.72 9.10,-9.01 10.39,-10.31 12.50,-12.05 14.62,-13.79 16.49,-15.11 18.36,-16.43 19.94,-17.39 21.52,-18.35 23.69,-19.00 25.86,-19.66 25.96,-19.68 26.06,-19.71 26.17,-19.69 26.28,-19.68 26.37,-19.64 26.47,-19.59 26.54,-19.52 26.62,-19.45 26.67,-19.35 26.72,-19.26 26.74,-19.15 26.75,-19.05 26.74,-18.94 26.72,-18.84 26.67,-18.74 26.62,-18.65 26.54,-18.58 26.46,-18.51 26.37,-18.46 26.27,-18.42 26.17,-18.41 26.06,-18.39 25.96,-18.42 25.85,-18.44 25.76,-18.50 25.67,-18.55 25.60,-18.63 25.53,-18.71 25.49,-18.81 25.46,-18.91 25.45,-19.02 25.44,-19.12 25.47,-19.23 25.50,-19.33 25.56,-19.42 25.62,-19.50 25.71,-19.57 25.79,-19.63 25.89,-19.67 25.99,-19.70 26.10,-19.70 26.21,-19.70 26.31,-19.66 26.41,-19.63 26.49,-19.56 26.58,-19.50 26.64,-19.41 26.69,-19.32 26.72,-19.22 26.75,-19.12 26.74,-19.01 26.74,-18.91 26.70,-18.81 26.66,-18.71 26.59,-18.63 26.52,-18.55 26.43,-18.49 26.34,-18.44 26.34,-18.44 26.34,-18.44 24.64,-17.22 22.94,-15.99 21.44,-15.09 19.93,-14.19 18.14,-12.94 16.35,-11.68 14.32,-10.04 12.30,-8.40 11.01,-7.12 9.71,-5.84 8.46,-4.61 7.21,-3.39 5.98,-2.21 4.76,-1.03 3.28,-0.17 1.81,0.69 1.00,0.73 0.19,0.77 0.09,0.79 0.00,0.80 -0.09,0.79 -0.18,0.78 -0.28,0.74 -0.37,0.71 -0.45,0.65 -0.53,0.60 -0.59,0.53 -0.65,0.45 -0.70,0.37 -0.75,0.28 -0.77,0.19 -0.79,0.09 -0.79,0.00 -0.79,-0.09 -0.77,-0.18 -0.75,-0.28 -0.70,-0.36 -0.66,-0.45 -0.59,-0.52 -0.53,-0.59 -0.45,-0.65 -0.37,-0.71 -0.28,-0.74 -0.19,-0.77 -0.19,-0.77 L -0.19,-0.77 Z"/></g><g stroke-linecap="round"><g transform="translate(10 138.03597083890566) rotate(0 35.33332824707031 0)"><path d="M0 0 C16.53 -0.97, 31.97 -0.7, 70.67 0 M0 0 C17.35 0.05, 35.72 0.39, 70.67 0" stroke="#1971c2" stroke-width="2" fill="none"/></g></g><mask/><g transform="translate(101.78412197285735 29.211539385791184) rotate(0 12.586853900864014 -8.94330569319952)" stroke="none"><path fill="#1e1e1e" d="M -0.34,-0.68 Q -0.34,-0.68 0.31,-1.26 0.97,-1.84 1.91,-2.72 2.84,-3.60 4.02,-4.75 5.19,-5.91 6.68,-7.20 8.16,-8.50 10.33,-10.20 12.49,-11.91 14.13,-13.36 15.77,-14.81 17.27,-16.03 18.76,-17.25 21.99,-17.58 25.22,-17.91 25.31,-17.85 25.40,-17.80 25.47,-17.71 25.53,-17.63 25.57,-17.53 25.61,-17.43 25.61,-17.32 25.61,-17.22 25.58,-17.12 25.55,-17.01 25.48,-16.93 25.42,-16.84 25.34,-16.78 25.25,-16.72 25.15,-16.69 25.04,-16.66 24.94,-16.66 24.83,-16.67 24.73,-16.70 24.63,-16.74 24.55,-16.81 24.47,-16.87 24.41,-16.96 24.36,-17.05 24.33,-17.16 24.31,-17.26 24.31,-17.37 24.32,-17.47 24.37,-17.57 24.41,-17.67 24.48,-17.75 24.55,-17.82 24.64,-17.88 24.74,-17.93 24.84,-17.95 24.95,-17.97 25.05,-17.95 25.16,-17.94 25.25,-17.89 25.35,-17.84 25.42,-17.77 25.50,-17.69 25.54,-17.59 25.59,-17.50 25.60,-17.39 25.62,-17.29 25.60,-17.18 25.58,-17.08 25.52,-16.99 25.47,-16.90 25.39,-16.83 25.31,-16.75 25.21,-16.71 25.11,-16.67 25.01,-16.66 24.90,-16.66 24.80,-16.68 24.70,-16.71 24.70,-16.71 24.70,-16.71 22.64,-15.84 20.59,-14.97 19.14,-13.80 17.69,-12.62 15.98,-11.13 14.27,-9.63 12.13,-7.98 10.00,-6.34 8.54,-5.13 7.08,-3.92 5.81,-2.76 4.54,-1.61 3.30,-0.64 2.07,0.31 1.20,0.50 0.34,0.68 0.25,0.71 0.16,0.74 0.07,0.75 -0.01,0.76 -0.10,0.74 -0.19,0.73 -0.28,0.70 -0.36,0.66 -0.44,0.61 -0.51,0.56 -0.57,0.49 -0.63,0.42 -0.67,0.33 -0.71,0.25 -0.73,0.16 -0.75,0.07 -0.75,-0.01 -0.75,-0.10 -0.73,-0.19 -0.70,-0.28 -0.66,-0.36 -0.61,-0.44 -0.55,-0.51 -0.49,-0.58 -0.41,-0.63 -0.34,-0.68 -0.34,-0.68 L -0.34,-0.68 Z"/></g><g transform="translate(124.97043019416941 29.873995804159506) rotate(0 8.280841693503419 -6.6246627409439185)" stroke="none"><path fill="#1e1e1e" d="M -0.57,-0.68 Q -0.57,-0.68 0.39,-1.84 1.36,-3.00 2.79,-4.20 4.22,-5.39 5.60,-6.48 6.98,-7.56 8.09,-8.55 9.21,-9.55 10.44,-10.73 11.67,-11.91 13.87,-12.54 16.07,-13.16 16.18,-13.16 16.29,-13.16 16.39,-13.13 16.49,-13.10 16.57,-13.04 16.66,-12.98 16.72,-12.89 16.78,-12.80 16.81,-12.70 16.84,-12.60 16.84,-12.49 16.84,-12.39 16.80,-12.29 16.76,-12.19 16.70,-12.11 16.63,-12.02 16.54,-11.97 16.45,-11.91 16.35,-11.88 16.24,-11.86 16.14,-11.87 16.03,-11.88 15.93,-11.92 15.84,-11.96 15.76,-12.04 15.68,-12.11 15.63,-12.20 15.58,-12.29 15.56,-12.40 15.54,-12.50 15.55,-12.61 15.57,-12.71 15.61,-12.81 15.66,-12.90 15.74,-12.98 15.81,-13.05 15.91,-13.10 16.01,-13.14 16.11,-13.16 16.22,-13.17 16.32,-13.15 16.42,-13.13 16.52,-13.08 16.61,-13.02 16.68,-12.94 16.75,-12.86 16.79,-12.77 16.83,-12.67 16.84,-12.56 16.85,-12.46 16.82,-12.35 16.79,-12.25 16.74,-12.16 16.68,-12.07 16.60,-12.01 16.51,-11.94 16.41,-11.90 16.31,-11.87 16.31,-11.87 16.31,-11.87 15.04,-10.79 13.77,-9.71 12.49,-8.50 11.22,-7.28 10.02,-6.23 8.83,-5.18 7.46,-4.12 6.10,-3.07 4.65,-1.93 3.20,-0.80 1.88,-0.05 0.57,0.68 0.48,0.74 0.39,0.80 0.28,0.83 0.18,0.87 0.08,0.88 -0.02,0.89 -0.13,0.87 -0.24,0.86 -0.34,0.82 -0.43,0.77 -0.52,0.71 -0.61,0.65 -0.68,0.56 -0.75,0.48 -0.79,0.38 -0.84,0.29 -0.86,0.18 -0.89,0.08 -0.88,-0.02 -0.88,-0.13 -0.85,-0.23 -0.82,-0.34 -0.77,-0.43 -0.72,-0.53 -0.64,-0.60 -0.57,-0.68 -0.57,-0.68 L -0.57,-0.68 Z"/></g><g stroke-linecap="round"><g transform="translate(139.5766178466929 85.30888819490193) rotate(0 28.154807172351923 -0.000024621720555728643)"><path d="M0 0 C11.32 -0.48, 25.18 -1.31, 56.31 0 M0 0 C12.73 0.17, 25.34 -0.95, 56.31 0" stroke="#f08c00" stroke-width="2" fill="none"/></g></g><mask/><g stroke-linecap="round"><g transform="translate(191.57472594889072 138.81120640253937) rotate(0 57.29813067896802 -0.3049882125163954)"><path d="M0 0 C41.66 -1.1, 81.73 0.42, 114.6 -0.61 M0 0 C41.79 -1.41, 82.72 -0.62, 114.6 -0.61" stroke="#2f9e44" stroke-width="2" fill="none"/></g></g><mask/><g stroke-linecap="round"><g transform="translate(177.06831971508072 99.78065124277353) rotate(0 13.3487258682988 0.33374335275552625)"><path d="M0 0 C7.07 0.66, 16.31 0.66, 26.7 0.67 M0 0 C9.26 0.52, 18.95 0.94, 26.7 0.67" stroke="#2f9e44" stroke-width="2" fill="none"/></g></g><mask/><g stroke-linecap="round"><g transform="translate(174.98265591069128 73.83195129767844) rotate(0 14.392896433535611 0.24371495286345635)"><path d="M0 0 C7.89 0.27, 15.06 0.49, 28.79 0.49 M0 0 C7.08 0.45, 14.17 0.34, 28.79 0.49" stroke="#2f9e44" stroke-width="2" fill="none"/></g></g><mask/><g stroke-linecap="round" transform="translate(184.35200532778413 87.72119450367938) rotate(0 5.962229066558791 5.299742322879521)"><path d="M6.61 0.18 C7.95 0.27, 9.61 1.14, 10.52 1.84 C11.43 2.53, 11.92 3.26, 12.06 4.34 C12.2 5.41, 12.02 7.24, 11.36 8.28 C10.69 9.33, 9.31 10.26, 8.07 10.59 C6.83 10.92, 5.23 10.79, 3.93 10.26 C2.62 9.74, 0.94 8.43, 0.25 7.43 C-0.44 6.42, -0.56 5.33, -0.22 4.22 C0.11 3.12, 1.15 1.58, 2.27 0.8 C3.38 0.03, 5.66 -0.39, 6.47 -0.42 C7.28 -0.45, 7.03 0.53, 7.14 0.62 M5.17 0.18 C6.14 -0.19, 7.18 -0.56, 8.15 0 C9.12 0.56, 10.27 2.34, 10.97 3.53 C11.67 4.72, 12.74 6.09, 12.35 7.12 C11.96 8.15, 9.83 9.19, 8.64 9.7 C7.45 10.21, 6.25 10.39, 5.21 10.19 C4.16 9.99, 3.26 9.31, 2.38 8.48 C1.49 7.66, 0.19 6.34, -0.12 5.24 C-0.42 4.14, -0.25 2.85, 0.56 1.9 C1.38 0.94, 4.02 -0.1, 4.79 -0.48 C5.56 -0.85, 5.22 -0.57, 5.19 -0.35" stroke="#1e1e1e" stroke-width="2" fill="none"/></g><g stroke-linecap="round" transform="translate(184.74010221430706 74.3723540507215) rotate(0 5.630955369408241 4.637270741855701)"><path d="M5.65 0.34 C6.78 0.12, 8.14 -0.07, 9.13 0.46 C10.11 0.99, 11.23 2.46, 11.57 3.53 C11.91 4.6, 11.72 5.96, 11.18 6.87 C10.63 7.78, 9.56 8.67, 8.32 9.01 C7.08 9.36, 5.01 9.18, 3.72 8.92 C2.42 8.66, 1.19 8.28, 0.54 7.45 C-0.11 6.62, -0.34 5.05, -0.18 3.94 C-0.03 2.84, 0.52 1.41, 1.47 0.82 C2.42 0.24, 4.76 0.63, 5.53 0.43 C6.29 0.22, 6.14 -0.47, 6.05 -0.38 M4.65 -0.52 C5.61 -0.61, 7.2 0.48, 8.38 1.19 C9.55 1.9, 11.43 2.85, 11.71 3.74 C12 4.64, 10.74 5.78, 10.11 6.56 C9.48 7.34, 8.8 8.1, 7.94 8.44 C7.07 8.79, 6.1 8.89, 4.93 8.64 C3.76 8.38, 1.83 7.69, 0.92 6.91 C0 6.14, -0.72 5.02, -0.56 3.99 C-0.41 2.97, 0.82 1.52, 1.87 0.76 C2.92 -0.01, 5.19 -0.51, 5.72 -0.58 C6.24 -0.66, 5.08 0.04, 5 0.3" stroke="#1e1e1e" stroke-width="2" fill="none"/></g><g stroke-linecap="round"><g transform="translate(189.57339454607762 139.3636446268395) rotate(0 0.36043898814625663 -20.344178868209582)"><path d="M0 0 C0.77 -13.1, 1.38 -26.2, 0.72 -40.69 M0 0 C0.42 -13.08, 0.84 -26.73, 0.72 -40.69" stroke="#2f9e44" stroke-width="2" fill="none"/></g></g><mask/><g transform="translate(300.1065549685317 114.78349025101869) rotate(0 -5.005768381513832 7.675501334059387)" stroke="none"><path fill="#2f9e44" d="M 0,0.79 Q 0,0.79 -0.95,1.01 -1.91,1.24 -2.77,1.44 -3.63,1.64 -4.59,2.30 -5.55,2.96 -6.07,3.79 -6.59,4.63 -6.81,5.14 -7.04,5.66 -6.98,6.24 -6.92,6.82 -6.26,7.37 -5.61,7.91 -4.69,8.52 -3.78,9.14 -3.35,9.54 -2.92,9.94 -2.59,10.79 -2.27,11.65 -2.40,12.38 -2.52,13.12 -2.83,14.22 -3.14,15.32 -3.55,15.84 -3.96,16.36 -4.77,16.72 -5.58,17.08 -6.65,16.97 -7.73,16.87 -8.62,15.47 -9.51,14.08 -9.59,14.06 -9.67,14.03 -9.74,13.99 -9.80,13.96 -9.86,13.90 -9.92,13.85 -9.96,13.78 -10.00,13.71 -10.03,13.64 -10.06,13.56 -10.06,13.48 -10.07,13.41 -10.06,13.33 -10.04,13.25 -10.01,13.18 -9.98,13.10 -9.94,13.04 -9.89,12.98 -9.83,12.93 -9.77,12.88 -9.69,12.84 -9.62,12.81 -9.55,12.79 -9.47,12.77 -9.39,12.78 -9.31,12.78 -9.53,12.82 -9.75,12.86 -9.65,12.82 -9.55,12.79 -9.44,12.78 -9.34,12.78 -9.23,12.81 -9.13,12.84 -9.04,12.90 -8.96,12.96 -8.89,13.04 -8.83,13.13 -8.80,13.23 -8.76,13.33 -8.76,13.43 -8.77,13.54 -8.80,13.64 -8.84,13.74 -8.90,13.83 -8.97,13.91 -9.05,13.97 -9.14,14.03 -9.24,14.05 -9.35,14.08 -9.45,14.08 -9.56,14.07 -9.66,14.03 -9.76,13.99 -9.84,13.92 -9.92,13.85 -9.97,13.76 -10.02,13.67 -10.05,13.56 -10.07,13.46 -10.06,13.35 -10.04,13.25 -10.00,13.15 -9.95,13.06 -9.88,12.98 -9.81,12.90 -9.71,12.85 -9.62,12.80 -9.51,12.79 -9.41,12.77 -9.30,12.79 -9.20,12.81 -9.10,12.86 -9.01,12.91 -8.94,12.99 -8.87,13.06 -8.82,13.16 -8.78,13.26 -8.77,13.36 -8.76,13.47 -8.78,13.57 -8.80,13.68 -8.86,13.77 -8.92,13.86 -9.22,13.97 -9.51,14.08 -9.59,14.06 -9.67,14.03 -9.74,13.99 -9.80,13.96 -9.86,13.90 -9.92,13.85 -9.96,13.78 -10.00,13.71 -10.03,13.64 -10.06,13.56 -10.06,13.48 -10.07,13.41 -10.06,13.33 -10.04,13.25 -10.01,13.18 -9.98,13.10 -9.94,13.04 -9.89,12.98 -9.83,12.93 -9.77,12.88 -9.69,12.84 -9.62,12.81 -9.55,12.79 -9.47,12.77 -9.39,12.78 -9.31,12.78 -7.79,13.63 -6.27,14.48 -5.76,14.09 -5.26,13.69 -5.04,12.73 -4.83,11.77 -5.48,11.24 -6.12,10.71 -6.97,10.12 -7.82,9.54 -8.32,9.15 -8.82,8.75 -9.16,8.12 -9.51,7.49 -9.65,6.62 -9.79,5.74 -9.63,5.15 -9.48,4.55 -9.14,3.85 -8.81,3.14 -8.02,2.02 -7.22,0.89 -6.43,0.31 -5.65,-0.26 -4.89,-0.57 -4.14,-0.88 -3.03,-1.06 -1.92,-1.24 -0.96,-1.01 0,-0.79 0.09,-0.78 0.19,-0.77 0.28,-0.74 0.37,-0.70 0.45,-0.65 0.52,-0.59 0.59,-0.52 0.65,-0.45 0.70,-0.36 0.74,-0.28 0.76,-0.18 0.79,-0.09 0.79,0.00 0.79,0.09 0.76,0.18 0.74,0.28 0.70,0.36 0.65,0.45 0.59,0.52 0.52,0.59 0.45,0.65 0.37,0.70 0.28,0.74 0.19,0.77 0.09,0.78 -0.00,0.79 -0.00,0.79 L 0,0.79 Z"/></g><g transform="translate(15.378493668890826 125.60496453722709) rotate(0 4.637270741855701 -2.3186277896001144)" stroke="none"><path fill="#1971c2" d="M -0.37,0.74 Q -0.37,0.74 -1.27,0.59 -2.17,0.43 -2.30,0.32 -2.43,0.20 -2.57,0.10 -2.72,0.01 -2.84,-0.11 -2.95,-0.24 -3.04,-0.39 -3.12,-0.54 -3.17,-0.71 -3.21,-0.88 -3.21,-1.05 -3.22,-1.23 -3.18,-1.40 -3.14,-1.56 -3.06,-1.72 -2.99,-1.87 -2.87,-2.01 -2.76,-2.14 -2.62,-2.24 -2.48,-2.34 -2.32,-2.41 -2.16,-2.47 -1.99,-2.50 -1.81,-2.52 -1.64,-2.50 -1.47,-2.48 -1.30,-2.43 -1.14,-2.37 -1.68,-2.48 -2.22,-2.58 -1.40,-3.00 -0.57,-3.42 0.28,-3.95 1.15,-4.47 1.95,-4.92 2.74,-5.36 3.72,-5.77 4.69,-6.18 5.16,-6.47 5.63,-6.77 6.15,-7.23 6.68,-7.69 7.30,-8.27 7.91,-8.85 8.37,-9.29 8.83,-9.73 9.22,-10.12 9.62,-10.50 10.63,-10.75 11.64,-11.00 12.21,-10.75 12.78,-10.51 13.06,-9.90 13.34,-9.30 13.19,-8.12 13.03,-6.95 12.98,-6.27 12.92,-5.59 12.89,-4.93 12.86,-4.26 12.63,-3.40 12.39,-2.54 12.11,-1.66 11.83,-0.79 11.74,-0.16 11.65,0.46 11.36,1.70 11.06,2.95 10.09,4.34 9.13,5.72 9.03,5.77 8.94,5.82 8.83,5.84 8.73,5.86 8.62,5.84 8.52,5.82 8.43,5.77 8.33,5.72 8.26,5.65 8.19,5.57 8.14,5.47 8.10,5.38 8.09,5.27 8.08,5.16 8.10,5.06 8.12,4.96 8.18,4.87 8.23,4.77 8.31,4.71 8.39,4.64 8.49,4.60 8.59,4.56 8.70,4.55 8.80,4.55 8.91,4.58 9.01,4.61 9.10,4.67 9.18,4.73 9.25,4.81 9.31,4.89 9.35,5.00 9.38,5.10 9.38,5.20 9.38,5.31 9.34,5.41 9.31,5.51 9.25,5.59 9.18,5.68 9.09,5.74 9.01,5.80 8.90,5.83 8.80,5.85 8.69,5.85 8.59,5.84 8.49,5.80 8.39,5.76 8.31,5.69 8.23,5.62 8.18,5.53 8.12,5.44 8.10,5.34 8.08,5.23 8.09,5.13 8.10,5.02 8.14,4.93 8.19,4.83 8.26,4.75 8.33,4.68 8.33,4.68 8.33,4.68 8.39,2.87 8.45,1.07 8.50,0.52 8.56,-0.02 8.70,-0.88 8.85,-1.74 9.29,-3.08 9.74,-4.42 9.77,-5.15 9.80,-5.88 9.88,-6.70 9.96,-7.52 10.29,-7.96 10.61,-8.39 11.18,-8.31 11.75,-8.24 11.37,-7.86 10.99,-7.48 10.51,-7.03 10.04,-6.58 9.37,-5.94 8.69,-5.31 7.97,-4.71 7.25,-4.12 6.57,-3.71 5.89,-3.31 5.06,-2.98 4.24,-2.65 3.49,-2.24 2.75,-1.83 1.77,-1.24 0.80,-0.66 -0.00,-0.26 -0.81,0.14 -1.62,0.17 -2.43,0.20 -2.57,0.10 -2.72,0.01 -2.84,-0.11 -2.95,-0.24 -3.04,-0.39 -3.12,-0.54 -3.17,-0.71 -3.21,-0.88 -3.21,-1.05 -3.22,-1.23 -3.18,-1.40 -3.14,-1.56 -3.06,-1.72 -2.99,-1.87 -2.87,-2.01 -2.76,-2.14 -2.62,-2.24 -2.48,-2.34 -2.32,-2.41 -2.16,-2.47 -1.99,-2.50 -1.81,-2.52 -1.64,-2.50 -1.47,-2.48 -1.31,-2.43 -1.14,-2.37 -1.00,-2.16 -0.86,-1.96 -0.24,-1.35 0.37,-0.74 0.45,-0.69 0.54,-0.63 0.61,-0.56 0.67,-0.48 0.72,-0.40 0.77,-0.31 0.80,-0.21 0.82,-0.11 0.82,-0.01 0.83,0.08 0.80,0.18 0.78,0.28 0.74,0.37 0.69,0.46 0.63,0.53 0.56,0.61 0.48,0.67 0.40,0.73 0.30,0.77 0.21,0.80 0.11,0.82 0.01,0.83 -0.08,0.82 -0.18,0.81 -0.27,0.78 -0.37,0.74 -0.37,0.74 L -0.37,0.74 Z"/></g><g transform="translate(60.6541065030751 77.05694374500979) rotate(0 1.3348817526656163 3.003461028908312)" stroke="none"><path fill="#f08c00" d="M 0.53,0.53 Q 0.53,0.53 0.33,1.08 0.14,1.64 -0.09,2.22 -0.32,2.79 -0.63,3.64 -0.95,4.48 -1.28,5.42 -1.60,6.36 -1.72,7.22 -1.83,8.08 -1.88,8.83 -1.93,9.59 -2.39,10.59 -2.84,11.59 -2.59,11.14 -2.34,10.69 -2.37,10.85 -2.40,11.01 -2.46,11.16 -2.53,11.31 -2.63,11.44 -2.73,11.57 -2.86,11.67 -2.98,11.78 -3.13,11.85 -3.28,11.92 -3.44,11.95 -3.60,11.98 -3.77,11.97 -3.93,11.96 -4.09,11.92 -4.24,11.87 -4.38,11.79 -4.52,11.70 -4.64,11.59 -4.76,11.47 -4.85,11.33 -4.93,11.20 -4.98,11.04 -5.03,10.88 -5.04,10.72 -5.06,10.56 -4.95,9.57 -4.85,8.58 -4.60,7.52 -4.35,6.45 -4.05,5.43 -3.75,4.41 -3.44,3.23 -3.13,2.06 -2.79,1.11 -2.44,0.16 -1.90,-1.02 -1.36,-2.22 -0.69,-3.20 -0.02,-4.18 0.72,-4.87 1.48,-5.55 2.08,-5.88 2.69,-6.22 3.38,-6.35 4.08,-6.48 5.02,-6.06 5.96,-5.65 6.38,-5.14 6.80,-4.62 7.29,-3.64 7.79,-2.66 7.45,-1.56 7.12,-0.46 6.68,0.18 6.24,0.82 5.44,1.25 4.65,1.68 2.73,1.38 0.81,1.08 0.72,1.03 0.63,0.97 0.56,0.88 0.50,0.80 0.46,0.70 0.43,0.60 0.43,0.49 0.43,0.39 0.46,0.28 0.50,0.18 0.56,0.10 0.62,0.01 0.71,-0.04 0.80,-0.10 0.90,-0.13 1.00,-0.16 1.11,-0.15 1.21,-0.15 1.31,-0.11 1.41,-0.07 1.49,-0.00 1.58,0.06 1.63,0.15 1.69,0.24 1.71,0.34 1.73,0.45 1.72,0.55 1.71,0.66 1.67,0.76 1.62,0.85 1.55,0.93 1.48,1.01 1.38,1.06 1.29,1.11 1.19,1.13 1.08,1.14 0.98,1.13 0.87,1.11 0.78,1.06 0.68,1.01 0.61,0.94 0.54,0.86 0.49,0.76 0.45,0.67 0.43,0.56 0.42,0.46 0.44,0.35 0.47,0.25 0.52,0.16 0.57,0.07 0.65,0.00 0.74,-0.06 0.83,-0.10 0.93,-0.14 1.04,-0.15 1.14,-0.16 1.25,-0.13 1.35,-0.10 1.35,-0.10 1.35,-0.10 2.72,-0.53 4.08,-0.95 4.63,-1.61 5.17,-2.27 4.80,-2.82 4.42,-3.36 3.86,-3.41 3.29,-3.46 2.76,-3.02 2.23,-2.58 1.69,-1.82 1.15,-1.06 0.65,0.02 0.15,1.12 -0.15,1.95 -0.46,2.78 -0.78,3.98 -1.11,5.19 -1.39,6.15 -1.68,7.10 -1.90,8.00 -2.13,8.89 -2.24,9.79 -2.34,10.69 -2.37,10.85 -2.40,11.01 -2.46,11.16 -2.53,11.31 -2.63,11.44 -2.73,11.57 -2.86,11.67 -2.98,11.78 -3.13,11.85 -3.28,11.92 -3.44,11.95 -3.60,11.98 -3.77,11.97 -3.93,11.96 -4.09,11.92 -4.24,11.87 -4.38,11.79 -4.52,11.70 -4.64,11.59 -4.76,11.47 -4.85,11.33 -4.93,11.20 -4.98,11.04 -5.03,10.88 -5.04,10.72 -5.06,10.56 -4.80,9.97 -4.55,9.39 -4.48,8.55 -4.41,7.70 -4.24,6.60 -4.06,5.50 -3.71,4.53 -3.37,3.55 -3.00,2.62 -2.63,1.69 -2.15,0.79 -1.67,-0.10 -1.10,-0.32 -0.53,-0.53 -0.46,-0.58 -0.39,-0.64 -0.30,-0.68 -0.22,-0.72 -0.13,-0.73 -0.04,-0.75 0.04,-0.74 0.13,-0.74 0.22,-0.71 0.30,-0.68 0.38,-0.64 0.46,-0.59 0.52,-0.52 0.59,-0.46 0.64,-0.38 0.68,-0.30 0.71,-0.22 0.74,-0.13 0.74,-0.04 0.75,0.04 0.73,0.13 0.72,0.22 0.68,0.30 0.64,0.39 0.58,0.46 0.53,0.53 0.53,0.53 L 0.53,0.53 Z"/></g><g transform="translate(151.5010663595831 32.49189452155966) rotate(0 2.3186732775665746 4.968506532367613)" stroke="none"><path fill="#1e1e1e" d="M 0,0.72 Q 0,0.72 -0.19,1.06 -0.38,1.40 -0.54,1.38 -0.71,1.36 -0.87,1.30 -1.03,1.24 -1.17,1.14 -1.31,1.04 -1.42,0.92 -1.53,0.79 -1.61,0.64 -1.69,0.49 -1.73,0.33 -1.77,0.16 -1.77,-0.00 -1.77,-0.16 -1.73,-0.33 -1.69,-0.49 -1.61,-0.64 -1.53,-0.79 -1.42,-0.92 -1.31,-1.05 -1.17,-1.14 -1.03,-1.24 -0.87,-1.30 -0.71,-1.36 -0.54,-1.38 -0.38,-1.40 0.36,-1.16 1.10,-0.92 1.73,-0.64 2.37,-0.35 2.93,0.03 3.50,0.41 3.81,1.53 4.12,2.64 3.80,3.21 3.47,3.78 2.29,4.84 1.11,5.90 0.24,7.08 -0.62,8.25 -0.01,8.65 0.59,9.05 1.18,9.07 1.77,9.09 2.40,9.10 3.03,9.11 4.95,9.22 6.88,9.33 6.98,9.33 7.09,9.33 7.19,9.37 7.29,9.40 7.38,9.46 7.46,9.53 7.52,9.62 7.58,9.70 7.61,9.81 7.64,9.91 7.63,10.01 7.63,10.12 7.59,10.22 7.55,10.32 7.48,10.40 7.41,10.48 7.32,10.54 7.23,10.59 7.13,10.61 7.03,10.64 6.92,10.63 6.81,10.62 6.72,10.57 6.62,10.53 6.54,10.46 6.47,10.38 6.42,10.29 6.37,10.20 6.35,10.09 6.33,9.99 6.35,9.88 6.36,9.78 6.41,9.68 6.46,9.59 6.54,9.51 6.61,9.44 6.71,9.40 6.81,9.35 6.91,9.34 7.02,9.33 7.12,9.35 7.23,9.37 7.32,9.43 7.41,9.48 7.48,9.56 7.55,9.64 7.59,9.74 7.63,9.84 7.63,9.94 7.64,10.05 7.61,10.15 7.58,10.25 7.52,10.34 7.47,10.43 7.38,10.50 7.30,10.56 7.20,10.60 7.10,10.63 7.10,10.63 7.10,10.63 5.04,11.34 2.98,12.04 2.31,12.03 1.64,12.01 0.95,11.98 0.27,11.94 -0.45,11.85 -1.18,11.76 -1.99,11.42 -2.79,11.09 -3.26,10.32 -3.73,9.56 -3.65,8.72 -3.57,7.88 -3.25,7.22 -2.93,6.57 -2.30,5.72 -1.66,4.86 -1.00,4.16 -0.35,3.47 0.41,2.83 1.18,2.20 0.40,1.80 -0.38,1.40 -0.54,1.38 -0.71,1.36 -0.87,1.30 -1.03,1.24 -1.17,1.14 -1.31,1.05 -1.42,0.92 -1.53,0.79 -1.61,0.64 -1.69,0.49 -1.73,0.33 -1.77,0.16 -1.77,0.00 -1.77,-0.16 -1.73,-0.33 -1.69,-0.49 -1.61,-0.64 -1.53,-0.79 -1.42,-0.92 -1.31,-1.04 -1.17,-1.14 -1.03,-1.24 -0.87,-1.30 -0.71,-1.36 -0.54,-1.38 -0.38,-1.40 -0.19,-1.06 0,-0.72 0.08,-0.71 0.17,-0.70 0.25,-0.67 0.33,-0.64 0.40,-0.59 0.48,-0.54 0.54,-0.47 0.59,-0.41 0.63,-0.33 0.67,-0.25 0.70,-0.17 0.72,-0.08 0.72,0.00 0.72,0.08 0.70,0.17 0.67,0.25 0.63,0.33 0.59,0.41 0.54,0.47 0.48,0.54 0.40,0.59 0.33,0.64 0.25,0.67 0.17,0.70 0.08,0.71 -0.00,0.72 -0.00,0.72 L 0,0.72 Z"/></g><g stroke-linecap="round" transform="translate(221.30554176388034 118.02246731023243) rotate(0 9.04300885111985 9.404723244204177)"><path d="M6.72 0.69 C8.57 0, 11.37 -0.09, 13.08 0.69 C14.78 1.46, 16.15 3.37, 16.97 5.34 C17.78 7.31, 18.42 10.59, 17.97 12.5 C17.52 14.41, 15.94 15.78, 14.28 16.81 C12.62 17.84, 10.04 18.74, 8.04 18.67 C6.03 18.6, 3.63 17.83, 2.24 16.37 C0.85 14.91, -0.18 12.06, -0.31 9.91 C-0.44 7.75, 0.19 5.04, 1.49 3.44 C2.78 1.83, 6.37 0.75, 7.45 0.28 C8.53 -0.18, 7.97 0.51, 7.96 0.63 M10.26 0.08 C12.08 -0.02, 13.84 1.04, 15.24 2.52 C16.64 4, 18.36 7.04, 18.66 8.94 C18.97 10.84, 18.35 12.3, 17.07 13.92 C15.8 15.54, 13.07 18.02, 11.01 18.66 C8.94 19.3, 6.32 18.68, 4.69 17.75 C3.06 16.82, 2.04 14.94, 1.22 13.08 C0.39 11.22, -0.77 8.45, -0.27 6.6 C0.24 4.75, 2.53 2.99, 4.22 1.98 C5.91 0.98, 9 0.83, 9.86 0.56 C10.73 0.28, 9.4 0.34, 9.39 0.34" stroke="#1e1e1e" stroke-width="2" fill="none"/></g><g stroke-linecap="round" transform="translate(51.54490242203212 120.84508604616215) rotate(0 10.4898995399042 9.40473980242774)"><path d="M8.55 -0.22 C10.49 -0.77, 12.82 0.41, 14.72 1.46 C16.62 2.52, 18.96 4.38, 19.93 6.11 C20.9 7.83, 21.23 10, 20.55 11.81 C19.88 13.62, 17.73 15.74, 15.89 16.97 C14.05 18.2, 11.65 19.44, 9.52 19.18 C7.38 18.93, 4.67 16.98, 3.09 15.43 C1.5 13.87, 0.23 11.73, 0.02 9.87 C-0.19 8.01, 0.49 5.89, 1.82 4.26 C3.16 2.63, 6.92 0.83, 8.01 0.11 C9.1 -0.6, 8.3 -0.24, 8.36 -0.05 M8.2 0.39 C10.17 0.06, 13.39 0.67, 15.5 1.59 C17.62 2.51, 20.05 4.16, 20.87 5.93 C21.7 7.71, 21.14 10.23, 20.44 12.24 C19.75 14.24, 18.51 17.01, 16.69 17.98 C14.87 18.94, 11.96 18.38, 9.53 18.04 C7.1 17.7, 3.81 17.38, 2.1 15.95 C0.39 14.52, -0.81 11.61, -0.74 9.47 C-0.68 7.33, 1.06 4.74, 2.48 3.1 C3.9 1.46, 6.71 0.03, 7.78 -0.4 C8.85 -0.83, 8.73 0.19, 8.9 0.53" stroke="#1e1e1e" stroke-width="2" fill="none"/></g><g stroke-linecap="round" transform="translate(52.9916937614754 141.1014563398019) rotate(0 8.681311016259059 8.68126134158848)"><path d="M10.02 0.65 C11.66 1.07, 14.11 2.43, 15.34 3.77 C16.57 5.12, 17.47 6.97, 17.37 8.71 C17.27 10.45, 15.97 12.7, 14.76 14.21 C13.55 15.71, 11.87 17.48, 10.12 17.72 C8.38 17.95, 5.92 16.68, 4.3 15.61 C2.68 14.53, 1.07 12.89, 0.42 11.27 C-0.23 9.65, -0.26 7.62, 0.38 5.89 C1.03 4.17, 2.61 1.93, 4.29 0.92 C5.97 -0.08, 9.39 -0.09, 10.47 -0.14 C11.55 -0.18, 10.82 0.38, 10.76 0.65 M7.04 0.67 C8.88 0.19, 11.86 0.31, 13.48 1.11 C15.09 1.9, 16.05 3.6, 16.73 5.42 C17.41 7.24, 18.05 10.36, 17.55 12.03 C17.05 13.69, 15.51 14.49, 13.72 15.4 C11.92 16.31, 8.85 17.71, 6.8 17.51 C4.76 17.3, 2.53 15.68, 1.44 14.16 C0.35 12.65, 0.28 10.31, 0.27 8.4 C0.26 6.48, 0.16 4.02, 1.36 2.68 C2.57 1.33, 6.52 0.62, 7.5 0.32 C8.48 0.02, 7.34 0.74, 7.24 0.88" stroke="#1e1e1e" stroke-width="2" fill="none"/></g><g stroke-linecap="round" transform="translate(219.85868419154292 141.17255274854685) rotate(0 9.766437637288504 10.128152030372803)"><path d="M12.01 -0.02 C13.95 0.2, 15.93 1.91, 17.22 3.77 C18.52 5.63, 19.79 8.99, 19.77 11.13 C19.75 13.28, 18.59 15.14, 17.12 16.63 C15.64 18.13, 13.08 19.7, 10.92 20.11 C8.76 20.51, 5.97 20.27, 4.16 19.08 C2.36 17.89, 0.7 15.19, 0.09 12.97 C-0.52 10.75, -0.34 7.7, 0.51 5.75 C1.36 3.8, 3.3 2.09, 5.18 1.26 C7.05 0.42, 10.63 0.86, 11.74 0.73 C12.86 0.6, 11.83 0.38, 11.88 0.49 M11.34 0.07 C13.32 0.37, 16.38 2.6, 17.82 4.15 C19.27 5.69, 20.21 7.25, 20.02 9.36 C19.83 11.47, 18.24 15.06, 16.7 16.8 C15.17 18.55, 12.72 19.54, 10.81 19.81 C8.89 20.08, 7.01 19.55, 5.23 18.42 C3.45 17.3, 0.79 14.99, 0.11 13.07 C-0.58 11.15, 0.29 8.75, 1.11 6.9 C1.94 5.04, 3.39 3.05, 5.07 1.94 C6.75 0.84, 10.09 0.61, 11.18 0.27 C12.27 -0.07, 11.54 -0.27, 11.64 -0.09" stroke="#1e1e1e" stroke-width="2" fill="none"/></g><g stroke-linecap="round"><g transform="translate(219.13522228892725 117.29903852406377) rotate(0 11.575059277380717 -0.36171439308432696)"><path d="M0 0 C4.36 0.6, 9.52 -0.99, 23.15 -0.72 M0 0 C5.7 0.01, 10.1 -0.39, 23.15 -0.72" stroke="#1e1e1e" stroke-width="2" fill="none"/></g></g><mask/><g stroke-linecap="round"><g transform="translate(217.68836471658994 165.0460669730298) rotate(0 11.936757112241537 -0.36171439308432696)"><path d="M0 0 C9.39 -0.97, 18 -1.26, 23.87 -0.72 M0 0 C7.92 -0.31, 16.63 -0.82, 23.87 -0.72" stroke="#1e1e1e" stroke-width="2" fill="none"/></g></g><mask/><g transform="translate(224.19932314144899 99.21305393827114) rotate(0 -3.6172101637373544 7.957815997196263)" stroke="none"><path fill="#1e1e1e" d="M -0.81,-0.20 Q -0.81,-0.20 -0.86,-1.09 -0.91,-1.99 -0.85,-2.15 -0.79,-2.30 -0.70,-2.44 -0.60,-2.57 -0.48,-2.68 -0.36,-2.79 -0.21,-2.87 -0.06,-2.94 0.09,-2.98 0.25,-3.02 0.42,-3.02 0.58,-3.02 0.74,-2.98 0.90,-2.94 1.05,-2.86 1.19,-2.79 1.32,-2.68 1.44,-2.57 1.54,-2.43 1.63,-2.29 1.69,-2.14 1.75,-1.98 1.76,-1.82 1.78,-1.65 1.76,-1.49 1.74,-1.33 1.34,-0.62 0.93,0.09 0.66,0.79 0.40,1.50 0.07,2.45 -0.26,3.40 -0.84,4.70 -1.42,6.00 -2.04,7.92 -2.66,9.83 -3.38,11.56 -4.09,13.29 -4.60,14.43 -5.11,15.58 -6.55,17.22 -7.99,18.86 -8.05,18.95 -8.10,19.04 -8.18,19.11 -8.26,19.18 -8.36,19.22 -8.46,19.26 -8.57,19.26 -8.68,19.27 -8.78,19.24 -8.88,19.21 -8.97,19.15 -9.05,19.09 -9.12,19.01 -9.18,18.92 -9.22,18.82 -9.25,18.72 -9.25,18.61 -9.25,18.51 -9.21,18.41 -9.18,18.31 -9.11,18.22 -9.05,18.14 -8.96,18.08 -8.87,18.02 -8.77,17.99 -8.67,17.96 -8.56,17.97 -8.46,17.98 -8.36,18.02 -8.26,18.06 -8.18,18.13 -8.10,18.19 -8.04,18.29 -7.99,18.38 -7.97,18.48 -7.94,18.59 -7.96,18.69 -7.97,18.80 -8.01,18.89 -8.06,18.99 -8.13,19.07 -8.21,19.14 -8.30,19.19 -8.39,19.24 -8.50,19.26 -8.60,19.27 -8.71,19.26 -8.81,19.24 -8.91,19.19 -9.00,19.14 -9.07,19.06 -9.15,18.98 -9.19,18.89 -9.23,18.79 -9.25,18.68 -9.26,18.58 -9.23,18.47 -9.21,18.37 -9.21,18.37 -9.21,18.37 -8.53,16.36 -7.86,14.35 -7.36,13.24 -6.87,12.13 -6.19,10.51 -5.51,8.89 -4.82,6.83 -4.13,4.77 -3.57,3.58 -3.02,2.39 -2.64,1.39 -2.27,0.38 -1.59,-0.80 -0.91,-1.99 -0.85,-2.15 -0.79,-2.30 -0.70,-2.44 -0.60,-2.57 -0.48,-2.68 -0.36,-2.79 -0.21,-2.87 -0.06,-2.94 0.09,-2.98 0.25,-3.02 0.42,-3.02 0.58,-3.02 0.74,-2.98 0.90,-2.94 1.05,-2.86 1.19,-2.79 1.32,-2.68 1.44,-2.57 1.54,-2.43 1.63,-2.29 1.69,-2.14 1.75,-1.98 1.76,-1.82 1.78,-1.65 1.76,-1.49 1.74,-1.33 1.27,-0.56 0.81,0.20 0.77,0.29 0.73,0.39 0.68,0.47 0.62,0.55 0.54,0.62 0.47,0.68 0.38,0.73 0.29,0.78 0.19,0.80 0.09,0.83 -0.00,0.82 -0.10,0.82 -0.20,0.80 -0.29,0.78 -0.38,0.73 -0.47,0.68 -0.55,0.61 -0.62,0.55 -0.68,0.46 -0.74,0.38 -0.77,0.29 -0.81,0.19 -0.82,0.09 -0.83,-0.00 -0.82,-0.10 -0.81,-0.20 -0.81,-0.20 L -0.81,-0.20 Z"/></g><g stroke-linecap="round"><g transform="translate(47.92772537474184 120.84511916260922) rotate(0 13.383614684578816 0)"><path d="M0 0 C9.58 -0.51, 21.12 0.95, 26.77 0 M0 0 C9.19 -0.25, 19.01 -0.33, 26.77 0" stroke="#1e1e1e" stroke-width="2" fill="none"/></g></g><mask/><g stroke-linecap="round"><g transform="translate(46.48086780240459 158.46397902297892) rotate(0 12.660185898410163 1.0851597374764879)"><path d="M0 0 C6.61 1.48, 12.69 0.26, 25.32 2.17 M0 0 C8.07 0.39, 15.1 1.09, 25.32 2.17" stroke="#1e1e1e" stroke-width="2" fill="none"/></g></g><mask/><g transform="translate(236.49777808855129 97.04273446331811) rotate(0 -4.702336784766771 9.766437637288504)" stroke="none"><path fill="#1e1e1e" d="M 0.73,0.29 Q 0.73,0.29 0.55,1.42 0.36,2.55 0.01,3.61 -0.33,4.66 -1.12,6.43 -1.91,8.20 -2.89,9.83 -3.88,11.47 -4.92,13.00 -5.96,14.53 -6.55,15.70 -7.14,16.88 -6.70,17.37 -6.26,17.87 -6.31,17.93 -6.35,18.00 -6.41,18.05 -6.47,18.10 -6.54,18.14 -6.61,18.18 -6.69,18.20 -6.76,18.22 -6.84,18.22 -6.92,18.22 -7.00,18.20 -7.07,18.18 -7.15,18.15 -7.22,18.11 -7.28,18.06 -7.33,18.01 -7.38,17.94 -7.43,17.88 -7.45,17.80 -7.48,17.73 -7.49,17.65 -7.50,17.57 -7.49,17.49 -7.49,17.41 -7.46,17.34 -7.43,17.27 -7.21,17.10 -6.99,16.93 -6.89,16.92 -6.78,16.91 -6.68,16.94 -6.58,16.97 -6.49,17.03 -6.40,17.09 -6.33,17.17 -6.27,17.25 -6.23,17.35 -6.20,17.46 -6.20,17.56 -6.20,17.67 -6.23,17.77 -6.26,17.87 -6.33,17.95 -6.39,18.04 -6.48,18.10 -6.57,18.16 -6.67,18.19 -6.77,18.22 -6.88,18.21 -6.98,18.21 -7.08,18.17 -7.18,18.13 -7.26,18.06 -7.34,18.00 -7.40,17.90 -7.46,17.81 -7.48,17.71 -7.50,17.61 -7.49,17.50 -7.48,17.40 -7.44,17.30 -7.39,17.20 -7.32,17.12 -7.25,17.05 -7.16,17.00 -7.06,16.95 -6.96,16.93 -6.85,16.91 -6.75,16.93 -6.64,16.94 -6.55,16.99 -6.45,17.04 -6.38,17.12 -6.31,17.19 -6.26,17.29 -6.22,17.39 -6.20,17.49 -6.19,17.60 -6.21,17.70 -6.24,17.80 -6.29,17.90 -6.34,17.99 -6.42,18.06 -6.50,18.13 -6.38,18.00 -6.26,17.87 -6.31,17.93 -6.35,18.00 -6.41,18.05 -6.47,18.10 -6.54,18.14 -6.61,18.18 -6.69,18.20 -6.76,18.22 -6.84,18.22 -6.92,18.22 -7.00,18.20 -7.07,18.18 -7.14,18.15 -7.22,18.11 -7.28,18.06 -7.33,18.01 -7.38,17.94 -7.43,17.88 -7.45,17.80 -7.48,17.73 -7.49,17.65 -7.50,17.57 -7.49,17.49 -7.49,17.42 -7.46,17.34 -7.43,17.27 -8.59,16.41 -9.74,15.56 -9.04,14.22 -8.34,12.88 -7.32,11.43 -6.30,9.97 -5.37,8.50 -4.44,7.02 -3.65,5.39 -2.86,3.75 -2.44,2.67 -2.03,1.60 -1.38,0.65 -0.73,-0.29 -0.69,-0.37 -0.64,-0.46 -0.58,-0.53 -0.51,-0.60 -0.43,-0.65 -0.35,-0.71 -0.26,-0.74 -0.17,-0.77 -0.08,-0.78 0.01,-0.79 0.10,-0.78 0.20,-0.76 0.29,-0.73 0.38,-0.69 0.46,-0.64 0.53,-0.58 0.60,-0.51 0.66,-0.44 0.70,-0.35 0.74,-0.26 0.77,-0.17 0.79,-0.08 0.79,0.01 0.78,0.11 0.76,0.20 0.73,0.29 0.73,0.29 L 0.73,0.29 Z"/></g><g transform="translate(248.07283736593206 97.76616324948677) rotate(0 -5.064067736074662 10.489882981680694)" stroke="none"><path fill="#1e1e1e" d="M 0.75,0.37 Q 0.75,0.37 0.34,1.73 -0.06,3.08 -0.73,4.45 -1.39,5.82 -2.26,7.85 -3.13,9.87 -3.93,11.58 -4.73,13.30 -5.49,14.86 -6.24,16.43 -7.78,18.59 -9.32,20.75 -9.38,20.84 -9.43,20.93 -9.51,21.00 -9.60,21.07 -9.70,21.11 -9.79,21.14 -9.90,21.15 -10.01,21.15 -10.11,21.12 -10.21,21.09 -10.30,21.03 -10.38,20.97 -10.45,20.89 -10.51,20.80 -10.54,20.70 -10.58,20.60 -10.57,20.49 -10.57,20.39 -10.54,20.28 -10.50,20.18 -10.44,20.10 -10.37,20.02 -10.28,19.96 -10.19,19.90 -10.09,19.87 -9.99,19.85 -9.88,19.85 -9.78,19.86 -9.68,19.90 -9.58,19.94 -9.50,20.01 -9.42,20.08 -9.37,20.18 -9.31,20.27 -9.29,20.37 -9.27,20.48 -9.28,20.58 -9.30,20.69 -9.34,20.78 -9.39,20.88 -9.46,20.95 -9.54,21.03 -9.63,21.08 -9.73,21.13 -9.83,21.14 -9.94,21.16 -10.04,21.14 -10.15,21.12 -10.24,21.07 -10.33,21.02 -10.40,20.94 -10.48,20.86 -10.52,20.76 -10.56,20.67 -10.57,20.56 -10.58,20.46 -10.56,20.35 -10.53,20.25 -10.53,20.25 -10.53,20.25 -9.70,17.70 -8.87,15.14 -8.11,13.60 -7.35,12.06 -6.54,10.38 -5.73,8.70 -4.78,6.65 -3.82,4.61 -3.12,3.25 -2.42,1.90 -1.58,0.76 -0.75,-0.37 -0.69,-0.45 -0.63,-0.54 -0.56,-0.61 -0.49,-0.68 -0.40,-0.73 -0.31,-0.77 -0.21,-0.80 -0.11,-0.83 -0.01,-0.83 0.08,-0.83 0.18,-0.81 0.28,-0.79 0.37,-0.74 0.46,-0.70 0.54,-0.63 0.61,-0.56 0.67,-0.48 0.73,-0.40 0.77,-0.31 0.81,-0.21 0.82,-0.11 0.83,-0.01 0.82,0.08 0.81,0.18 0.78,0.28 0.75,0.37 0.75,0.37 L 0.75,0.37 Z"/></g><g transform="translate(219.13522228892725 168.66327713676716) rotate(0 -5.787496522243259 8.681277899812017)" stroke="none"><path fill="#1e1e1e" d="M 0.61,0.61 Q 0.61,0.61 -0.10,1.55 -0.82,2.50 -1.37,3.08 -1.91,3.65 -2.35,4.11 -2.78,4.57 -3.31,5.33 -3.83,6.09 -4.87,7.85 -5.91,9.60 -6.98,11.59 -8.05,13.58 -7.85,13.96 -7.65,14.34 -7.70,14.40 -7.74,14.47 -7.80,14.52 -7.86,14.57 -7.93,14.60 -8.00,14.64 -8.08,14.66 -8.16,14.68 -8.24,14.68 -8.32,14.67 -8.39,14.66 -8.47,14.64 -8.54,14.60 -8.61,14.56 -8.67,14.51 -8.73,14.45 -8.77,14.39 -8.81,14.32 -8.84,14.25 -8.87,14.17 -8.88,14.09 -8.89,14.02 -8.88,13.94 -8.87,13.86 -8.84,13.79 -8.81,13.71 -8.67,13.58 -8.53,13.44 -8.43,13.41 -8.33,13.37 -8.22,13.38 -8.11,13.38 -8.01,13.41 -7.91,13.45 -7.83,13.51 -7.75,13.58 -7.69,13.67 -7.63,13.76 -7.60,13.86 -7.58,13.96 -7.58,14.07 -7.59,14.17 -7.63,14.27 -7.67,14.37 -7.74,14.45 -7.81,14.53 -7.90,14.58 -8.00,14.64 -8.10,14.66 -8.20,14.68 -8.31,14.67 -8.41,14.65 -8.51,14.61 -8.61,14.56 -8.68,14.49 -8.76,14.41 -8.81,14.32 -8.85,14.22 -8.87,14.12 -8.89,14.01 -8.87,13.91 -8.85,13.80 -8.80,13.71 -8.75,13.62 -8.67,13.55 -8.59,13.47 -8.49,13.43 -8.40,13.39 -8.29,13.38 -8.18,13.37 -8.08,13.39 -7.98,13.42 -7.89,13.47 -7.80,13.53 -7.73,13.61 -7.66,13.69 -7.62,13.79 -7.59,13.89 -7.58,14.00 -7.58,14.10 -7.61,14.21 -7.64,14.31 -7.70,14.40 -7.76,14.48 -7.71,14.41 -7.65,14.34 -7.70,14.40 -7.74,14.47 -7.80,14.52 -7.86,14.57 -7.93,14.60 -8.00,14.64 -8.08,14.66 -8.16,14.68 -8.24,14.68 -8.32,14.67 -8.39,14.66 -8.47,14.64 -8.54,14.60 -8.61,14.56 -8.67,14.51 -8.73,14.45 -8.77,14.39 -8.81,14.32 -8.84,14.25 -8.87,14.17 -8.88,14.10 -8.89,14.02 -8.88,13.94 -8.87,13.86 -8.84,13.79 -8.81,13.71 -9.62,13.00 -10.43,12.29 -9.33,10.25 -8.22,8.21 -7.08,6.36 -5.94,4.52 -5.26,3.65 -4.57,2.78 -4.11,2.35 -3.65,1.91 -3.08,1.37 -2.50,0.82 -1.55,0.10 -0.61,-0.61 -0.52,-0.67 -0.44,-0.73 -0.35,-0.78 -0.25,-0.82 -0.15,-0.84 -0.05,-0.86 0.05,-0.85 0.15,-0.84 0.25,-0.81 0.35,-0.78 0.44,-0.73 0.53,-0.67 0.60,-0.60 0.67,-0.53 0.73,-0.44 0.78,-0.35 0.81,-0.25 0.84,-0.15 0.85,-0.05 0.86,0.05 0.84,0.15 0.82,0.25 0.78,0.35 0.73,0.44 0.67,0.52 0.61,0.61 0.61,0.61 L 0.61,0.61 Z"/></g><g transform="translate(227.09310451901774 172.28045418405745) rotate(0 -2.5320504262608665 4.340655508129544)" stroke="none"><path fill="#1e1e1e" d="M -0.72,-0.48 Q -0.72,-0.48 -0.44,-1.19 -0.15,-1.90 -0.06,-2.01 0.03,-2.12 0.14,-2.20 0.26,-2.28 0.39,-2.34 0.52,-2.39 0.67,-2.41 0.81,-2.43 0.95,-2.41 1.09,-2.40 1.23,-2.35 1.36,-2.30 1.48,-2.22 1.60,-2.14 1.69,-2.04 1.79,-1.93 1.86,-1.81 1.93,-1.68 1.96,-1.54 2.00,-1.40 2.00,-1.26 2.00,-1.12 1.97,-0.98 1.94,-0.84 1.88,-0.71 1.81,-0.59 1.21,0.04 0.61,0.67 -0.03,1.51 -0.67,2.36 -1.36,3.51 -2.05,4.67 -2.80,5.83 -3.54,6.99 -4.46,9.08 -5.38,11.17 -5.43,11.23 -5.48,11.29 -5.55,11.34 -5.61,11.39 -5.68,11.42 -5.76,11.45 -5.83,11.46 -5.91,11.47 -5.99,11.46 -6.07,11.46 -6.14,11.43 -6.22,11.41 -6.29,11.36 -6.35,11.32 -6.41,11.26 -6.46,11.21 -6.50,11.14 -6.54,11.07 -6.56,10.99 -6.58,10.92 -6.59,10.84 -6.59,10.76 -6.57,10.68 -6.55,10.60 -6.52,10.53 -6.49,10.46 -6.04,10.35 -5.60,10.25 -5.52,10.32 -5.44,10.39 -5.38,10.48 -5.33,10.57 -5.30,10.67 -5.28,10.77 -5.29,10.88 -5.30,10.98 -5.34,11.08 -5.39,11.18 -5.46,11.26 -5.53,11.33 -5.62,11.38 -5.72,11.44 -5.82,11.45 -5.93,11.47 -6.03,11.46 -6.14,11.44 -6.23,11.39 -6.33,11.34 -6.40,11.26 -6.47,11.19 -6.52,11.09 -6.56,11.00 -6.58,10.89 -6.59,10.79 -6.57,10.68 -6.55,10.58 -6.49,10.49 -6.44,10.39 -6.36,10.32 -6.28,10.26 -6.18,10.22 -6.08,10.17 -5.97,10.17 -5.87,10.16 -5.77,10.19 -5.66,10.22 -5.57,10.28 -5.49,10.33 -5.42,10.42 -5.36,10.50 -5.32,10.60 -5.29,10.70 -5.29,10.81 -5.28,10.92 -5.32,11.02 -5.35,11.12 -5.41,11.20 -5.48,11.29 -5.56,11.35 -5.65,11.41 -5.75,11.44 -5.86,11.47 -5.96,11.46 -6.07,11.46 -5.72,11.31 -5.38,11.17 -5.43,11.23 -5.48,11.29 -5.55,11.34 -5.61,11.39 -5.68,11.42 -5.76,11.45 -5.83,11.46 -5.91,11.47 -5.99,11.46 -6.07,11.46 -6.14,11.43 -6.22,11.41 -6.29,11.36 -6.35,11.32 -6.41,11.26 -6.46,11.21 -6.50,11.14 -6.54,11.07 -6.56,10.99 -6.58,10.92 -6.59,10.84 -6.59,10.76 -6.57,10.68 -6.55,10.60 -6.52,10.53 -6.49,10.46 -6.16,7.99 -5.84,5.51 -5.11,4.38 -4.37,3.24 -3.55,1.93 -2.72,0.62 -1.44,-0.64 -0.15,-1.90 -0.06,-2.01 0.03,-2.12 0.14,-2.20 0.26,-2.28 0.39,-2.34 0.52,-2.39 0.67,-2.41 0.81,-2.43 0.95,-2.41 1.09,-2.40 1.23,-2.35 1.36,-2.30 1.48,-2.22 1.60,-2.14 1.69,-2.04 1.79,-1.93 1.86,-1.81 1.93,-1.68 1.96,-1.54 2.00,-1.40 2.00,-1.26 2.00,-1.12 1.97,-0.98 1.94,-0.84 1.88,-0.71 1.81,-0.59 1.27,-0.05 0.72,0.48 0.65,0.56 0.59,0.64 0.50,0.70 0.41,0.76 0.32,0.80 0.22,0.84 0.11,0.86 0.01,0.87 -0.09,0.86 -0.19,0.85 -0.29,0.81 -0.39,0.78 -0.48,0.72 -0.56,0.66 -0.64,0.58 -0.71,0.50 -0.76,0.41 -0.81,0.32 -0.84,0.22 -0.86,0.11 -0.86,0.01 -0.87,-0.09 -0.84,-0.19 -0.82,-0.29 -0.77,-0.39 -0.72,-0.48 -0.72,-0.48 L -0.72,-0.48 Z"/></g><g transform="translate(239.39155946612004 169.38670592293582) rotate(0 -6.510958424859041 7.5961181623355)" stroke="none"><path fill="#1e1e1e" d="M 0.43,0.64 Q 0.43,0.64 -0.06,1.24 -0.56,1.85 -1.42,2.47 -2.28,3.10 -3.15,4.11 -4.02,5.11 -5.44,6.82 -6.87,8.53 -8.10,10.07 -9.33,11.61 -9.92,13.27 -10.51,14.93 -10.56,14.98 -10.62,15.04 -10.69,15.08 -10.76,15.12 -10.83,15.14 -10.91,15.17 -10.99,15.17 -11.07,15.17 -11.14,15.16 -11.22,15.14 -11.29,15.11 -11.37,15.08 -11.43,15.03 -11.49,14.98 -11.54,14.92 -11.59,14.85 -11.62,14.78 -11.65,14.71 -11.66,14.63 -11.68,14.55 -11.67,14.47 -11.67,14.39 -11.64,14.32 -11.62,14.24 -11.58,14.18 -11.53,14.11 -11.27,13.99 -11.01,13.86 -10.90,13.88 -10.80,13.90 -10.71,13.95 -10.61,14.00 -10.54,14.08 -10.47,14.16 -10.43,14.26 -10.38,14.36 -10.38,14.46 -10.37,14.57 -10.39,14.67 -10.42,14.77 -10.47,14.86 -10.53,14.95 -10.61,15.02 -10.69,15.09 -10.79,15.13 -10.89,15.16 -11.00,15.17 -11.10,15.17 -11.21,15.14 -11.31,15.11 -11.39,15.05 -11.48,14.99 -11.54,14.90 -11.61,14.82 -11.64,14.71 -11.67,14.61 -11.67,14.51 -11.67,14.40 -11.63,14.30 -11.60,14.20 -11.53,14.12 -11.46,14.03 -11.37,13.98 -11.29,13.92 -11.18,13.89 -11.08,13.86 -10.97,13.87 -10.87,13.88 -10.77,13.92 -10.67,13.96 -10.59,14.03 -10.51,14.10 -10.46,14.20 -10.41,14.29 -10.39,14.39 -10.36,14.50 -10.38,14.60 -10.39,14.71 -10.44,14.80 -10.48,14.90 -10.56,14.97 -10.63,15.05 -10.73,15.10 -10.82,15.15 -10.67,15.04 -10.51,14.93 -10.56,14.98 -10.62,15.04 -10.69,15.08 -10.76,15.12 -10.83,15.14 -10.91,15.17 -10.99,15.17 -11.07,15.17 -11.14,15.16 -11.22,15.14 -11.29,15.11 -11.37,15.08 -11.43,15.03 -11.49,14.98 -11.54,14.92 -11.59,14.85 -11.62,14.78 -11.65,14.71 -11.66,14.63 -11.68,14.55 -11.67,14.47 -11.67,14.39 -11.64,14.32 -11.62,14.24 -11.58,14.18 -11.53,14.11 -11.55,11.96 -11.58,9.81 -10.31,8.24 -9.04,6.67 -7.54,4.96 -6.03,3.25 -4.90,2.08 -3.76,0.92 -2.84,0.37 -1.92,-0.18 -1.17,-0.41 -0.43,-0.64 -0.34,-0.69 -0.26,-0.73 -0.17,-0.75 -0.08,-0.77 0.01,-0.77 0.10,-0.77 0.19,-0.74 0.28,-0.72 0.37,-0.67 0.45,-0.63 0.52,-0.57 0.59,-0.50 0.64,-0.42 0.69,-0.35 0.72,-0.26 0.76,-0.17 0.77,-0.08 0.77,0.01 0.76,0.10 0.75,0.19 0.71,0.28 0.68,0.37 0.62,0.45 0.57,0.52 0.50,0.58 0.43,0.64 0.43,0.64 L 0.43,0.64 Z"/></g><g transform="translate(246.62597979359475 173.00391608667317) rotate(0 -3.6172101637373544 7.234387211027638)" stroke="none"><path fill="#1e1e1e" d="M 0.77,0.38 Q 0.77,0.38 0.57,1.32 0.38,2.27 -0.15,3.64 -0.68,5.01 -1.57,6.71 -2.46,8.41 -3.24,9.93 -4.02,11.44 -5.16,12.77 -6.30,14.09 -6.37,14.18 -6.43,14.26 -6.52,14.33 -6.60,14.39 -6.71,14.42 -6.81,14.45 -6.91,14.44 -7.02,14.44 -7.12,14.40 -7.22,14.36 -7.30,14.30 -7.38,14.23 -7.44,14.14 -7.49,14.05 -7.52,13.94 -7.54,13.84 -7.53,13.74 -7.52,13.63 -7.48,13.53 -7.44,13.44 -7.37,13.36 -7.29,13.28 -7.20,13.23 -7.11,13.18 -7.00,13.16 -6.90,13.14 -6.79,13.15 -6.69,13.17 -6.59,13.22 -6.50,13.27 -6.42,13.34 -6.35,13.42 -6.30,13.51 -6.26,13.61 -6.25,13.71 -6.23,13.82 -6.25,13.92 -6.27,14.03 -6.33,14.12 -6.38,14.21 -6.46,14.28 -6.54,14.35 -6.64,14.39 -6.74,14.43 -6.84,14.44 -6.95,14.45 -7.05,14.42 -7.15,14.40 -7.24,14.34 -7.33,14.28 -7.40,14.20 -7.46,14.11 -7.50,14.01 -7.53,13.91 -7.54,13.81 -7.54,13.70 -7.51,13.60 -7.47,13.50 -7.47,13.50 -7.47,13.50 -7.07,11.79 -6.66,10.08 -5.86,8.55 -5.06,7.01 -4.20,5.45 -3.34,3.88 -2.69,2.47 -2.04,1.05 -1.41,0.33 -0.77,-0.38 -0.71,-0.47 -0.65,-0.56 -0.58,-0.63 -0.50,-0.70 -0.41,-0.75 -0.32,-0.80 -0.22,-0.83 -0.12,-0.85 -0.01,-0.86 0.08,-0.86 0.18,-0.83 0.29,-0.81 0.38,-0.76 0.47,-0.72 0.55,-0.65 0.63,-0.58 0.69,-0.50 0.75,-0.41 0.79,-0.32 0.83,-0.22 0.85,-0.12 0.86,-0.01 0.85,0.08 0.84,0.19 0.81,0.28 0.77,0.38 0.77,0.38 L 0.77,0.38 Z"/></g><g transform="translate(46.16907312370029 105.53933888731555) rotate(0 -2.532050426260838 8.31956350672769)" stroke="none"><path fill="#1e1e1e" d="M 0.59,-0.59 Q 0.59,-0.59 1.19,0.01 1.80,0.61 1.66,1.70 1.51,2.78 0.76,4.28 0.01,5.77 -0.94,7.25 -1.89,8.73 -3.11,10.58 -4.34,12.44 -5.15,14.33 -5.96,16.21 -5.94,16.32 -5.92,16.42 -5.93,16.53 -5.95,16.63 -6.00,16.73 -6.04,16.82 -6.12,16.90 -6.19,16.97 -6.29,17.02 -6.38,17.07 -6.49,17.08 -6.59,17.10 -6.70,17.08 -6.80,17.06 -6.89,17.01 -6.99,16.96 -7.06,16.88 -7.13,16.80 -7.17,16.70 -7.21,16.60 -7.22,16.50 -7.23,16.39 -7.21,16.29 -7.18,16.19 -7.12,16.10 -7.07,16.01 -6.99,15.94 -6.90,15.87 -6.80,15.83 -6.70,15.80 -6.60,15.79 -6.49,15.79 -6.39,15.82 -6.29,15.85 -6.20,15.91 -6.11,15.98 -6.05,16.06 -5.99,16.15 -5.96,16.25 -5.93,16.35 -5.93,16.46 -5.93,16.56 -5.97,16.66 -6.00,16.76 -6.07,16.85 -6.14,16.93 -6.23,16.99 -6.32,17.04 -6.42,17.07 -6.52,17.10 -6.63,17.09 -6.73,17.08 -6.83,17.04 -6.93,17.00 -7.01,16.93 -7.09,16.86 -7.14,16.76 -7.19,16.67 -7.19,16.67 -7.19,16.67 -6.84,13.84 -6.49,11.02 -5.26,9.17 -4.02,7.32 -3.11,5.96 -2.20,4.60 -1.51,3.34 -0.81,2.08 -0.47,1.56 -0.14,1.04 -0.36,0.81 -0.59,0.59 -0.65,0.51 -0.71,0.43 -0.75,0.34 -0.79,0.24 -0.81,0.14 -0.83,0.05 -0.82,-0.05 -0.82,-0.15 -0.79,-0.24 -0.76,-0.34 -0.71,-0.42 -0.65,-0.51 -0.58,-0.58 -0.51,-0.65 -0.42,-0.71 -0.34,-0.76 -0.24,-0.79 -0.15,-0.82 -0.05,-0.82 0.05,-0.83 0.14,-0.81 0.24,-0.79 0.34,-0.75 0.43,-0.71 0.51,-0.65 0.59,-0.59 0.59,-0.59 L 0.59,-0.59 Z"/></g><g transform="translate(59.19098997341831 105.53933888731555) rotate(0 -4.702369901213871 7.234403769251202)" stroke="none"><path fill="#1e1e1e" d="M 0.65,0.49 Q 0.65,0.49 0.17,1.43 -0.30,2.36 -0.73,3.10 -1.16,3.84 -2.02,4.88 -2.88,5.93 -3.58,7.09 -4.28,8.25 -5.02,9.42 -5.76,10.58 -6.93,12.35 -8.09,14.12 -8.08,14.22 -8.07,14.33 -8.09,14.43 -8.12,14.53 -8.17,14.62 -8.23,14.71 -8.31,14.78 -8.39,14.85 -8.49,14.89 -8.59,14.93 -8.70,14.93 -8.80,14.93 -8.91,14.90 -9.01,14.87 -9.10,14.81 -9.18,14.75 -9.25,14.67 -9.31,14.58 -9.34,14.48 -9.37,14.38 -9.37,14.27 -9.37,14.17 -9.34,14.07 -9.30,13.97 -9.23,13.88 -9.17,13.80 -9.08,13.74 -8.99,13.68 -8.89,13.66 -8.79,13.63 -8.68,13.64 -8.57,13.64 -8.48,13.68 -8.38,13.72 -8.30,13.79 -8.22,13.86 -8.16,13.96 -8.11,14.05 -8.09,14.15 -8.07,14.26 -8.08,14.36 -8.09,14.47 -8.14,14.56 -8.19,14.66 -8.26,14.73 -8.33,14.81 -8.43,14.86 -8.52,14.91 -8.63,14.92 -8.73,14.94 -8.84,14.92 -8.94,14.90 -9.04,14.85 -9.13,14.80 -9.20,14.72 -9.27,14.64 -9.32,14.55 -9.36,14.45 -9.36,14.45 -9.36,14.45 -8.66,11.81 -7.95,9.16 -7.21,8.03 -6.47,6.89 -5.63,5.58 -4.80,4.27 -4.01,3.42 -3.22,2.56 -2.70,1.76 -2.18,0.96 -1.42,0.23 -0.65,-0.49 -0.59,-0.56 -0.52,-0.63 -0.43,-0.69 -0.35,-0.74 -0.25,-0.77 -0.16,-0.80 -0.06,-0.81 0.03,-0.82 0.13,-0.80 0.22,-0.79 0.31,-0.75 0.41,-0.71 0.49,-0.65 0.56,-0.59 0.63,-0.51 0.69,-0.44 0.73,-0.35 0.78,-0.26 0.80,-0.16 0.82,-0.06 0.81,0.03 0.81,0.13 0.78,0.22 0.75,0.32 0.70,0.40 0.65,0.49 0.65,0.49 L 0.65,0.49 Z"/></g><g stroke-linecap="round" transform="translate(81.05498641875647 210.8582354828889) rotate(0 28.581609614372923 14.304958975996556)"><path d="M0 0 C14 -0.34, 24.93 -0.37, 57.16 0 M0 0 C11.41 -1.31, 24.07 0.63, 57.16 0 M57.16 0 C55.92 7.69, 55.61 16.2, 57.16 28.61 M57.16 0 C57.96 5.45, 56.61 13.4, 57.16 28.61 M57.16 28.61 C39.52 27.95, 25.5 27.38, 0 28.61 M57.16 28.61 C36.57 28.8, 17.45 27.66, 0 28.61 M0 28.61 C-0.59 23.57, 0.99 13.89, 0 0 M0 28.61 C-0.06 19.94, -1 12.09, 0 0" stroke="#1e1e1e" stroke-width="2" fill="none"/></g><g transform="translate(72.52463526894644 106.37631162410688) rotate(0 -5.425798687382496 7.957832555419827)" stroke="none"><path fill="#1e1e1e" d="M 0.75,0.45 Q 0.75,0.45 0.31,1.60 -0.11,2.75 -0.78,3.85 -1.44,4.95 -2.61,6.33 -3.78,7.71 -4.85,9.07 -5.93,10.43 -6.79,11.61 -7.65,12.80 -8.55,14.23 -9.44,15.66 -9.47,15.76 -9.50,15.87 -9.55,15.96 -9.61,16.05 -9.69,16.11 -9.78,16.18 -9.88,16.22 -9.98,16.25 -10.08,16.25 -10.19,16.26 -10.29,16.23 -10.39,16.19 -10.48,16.13 -10.56,16.07 -10.62,15.98 -10.69,15.90 -10.72,15.80 -10.75,15.69 -10.75,15.59 -10.74,15.48 -10.71,15.38 -10.67,15.28 -10.60,15.20 -10.54,15.12 -10.45,15.06 -10.36,15.00 -10.25,14.98 -10.15,14.95 -10.04,14.96 -9.94,14.97 -9.84,15.01 -9.74,15.05 -9.66,15.13 -9.59,15.20 -9.53,15.29 -9.48,15.38 -9.46,15.49 -9.44,15.59 -9.46,15.70 -9.47,15.80 -9.52,15.90 -9.57,15.99 -9.64,16.07 -9.72,16.14 -9.81,16.19 -9.91,16.23 -10.01,16.25 -10.12,16.26 -10.22,16.24 -10.33,16.22 -10.42,16.17 -10.51,16.12 -10.58,16.04 -10.65,15.96 -10.69,15.86 -10.74,15.76 -10.74,15.66 -10.75,15.55 -10.75,15.55 -10.75,15.55 -10.37,13.33 -9.98,11.10 -9.08,9.87 -8.17,8.64 -7.04,7.24 -5.92,5.84 -4.84,4.65 -3.77,3.46 -3.07,2.43 -2.37,1.40 -1.56,0.47 -0.75,-0.45 -0.69,-0.53 -0.62,-0.62 -0.54,-0.68 -0.45,-0.75 -0.36,-0.79 -0.26,-0.84 -0.16,-0.85 -0.05,-0.87 0.04,-0.87 0.15,-0.86 0.25,-0.83 0.35,-0.80 0.44,-0.74 0.54,-0.69 0.61,-0.62 0.69,-0.54 0.74,-0.45 0.80,-0.36 0.83,-0.26 0.86,-0.16 0.87,-0.05 0.87,0.05 0.86,0.15 0.84,0.25 0.79,0.35 0.75,0.45 0.75,0.45 L 0.75,0.45 Z"/></g><g transform="translate(47.92772537474184 161.35772728410055) rotate(0 -4.340672066353051 5.7875296386903585)" stroke="none"><path fill="#1e1e1e" d="M 0.54,0.54 Q 0.54,0.54 -0.09,1.56 -0.72,2.59 -1.44,3.51 -2.15,4.44 -3.29,6.07 -4.42,7.71 -5.57,9.08 -6.71,10.46 -7.37,11.60 -8.02,12.74 -8.04,12.85 -8.05,12.96 -8.10,13.05 -8.15,13.14 -8.23,13.22 -8.30,13.29 -8.40,13.34 -8.50,13.38 -8.60,13.40 -8.71,13.41 -8.81,13.39 -8.91,13.37 -9.01,13.32 -9.10,13.26 -9.17,13.18 -9.24,13.10 -9.28,13.00 -9.32,12.91 -9.33,12.80 -9.33,12.69 -9.31,12.59 -9.28,12.49 -9.22,12.40 -9.16,12.31 -9.08,12.24 -9.00,12.18 -8.90,12.14 -8.80,12.11 -8.69,12.11 -8.58,12.11 -8.48,12.14 -8.38,12.17 -8.30,12.23 -8.21,12.30 -8.15,12.38 -8.09,12.47 -8.06,12.57 -8.03,12.67 -8.03,12.78 -8.04,12.89 -8.07,12.99 -8.11,13.08 -8.18,13.17 -8.25,13.25 -8.34,13.31 -8.43,13.36 -8.53,13.39 -8.63,13.41 -8.74,13.40 -8.85,13.39 -8.94,13.35 -9.04,13.30 -9.12,13.23 -9.20,13.16 -9.25,13.07 -9.30,12.97 -9.32,12.87 -9.34,12.76 -9.34,12.76 -9.34,12.76 -9.06,10.76 -8.78,8.75 -7.70,7.46 -6.62,6.17 -5.43,4.48 -4.24,2.79 -3.42,1.76 -2.59,0.73 -1.56,0.09 -0.54,-0.54 -0.46,-0.59 -0.39,-0.65 -0.31,-0.69 -0.22,-0.73 -0.13,-0.74 -0.04,-0.76 0.04,-0.75 0.13,-0.75 0.22,-0.72 0.31,-0.69 0.39,-0.65 0.47,-0.60 0.53,-0.53 0.60,-0.47 0.65,-0.39 0.69,-0.31 0.72,-0.22 0.75,-0.13 0.75,-0.04 0.76,0.04 0.74,0.13 0.73,0.22 0.69,0.31 0.65,0.39 0.59,0.46 0.54,0.54 0.54,0.54 L 0.54,0.54 Z"/></g><g transform="translate(56.60900327455386 164.9749374478379) rotate(0 -3.255479212429492 5.064084294298169)" stroke="none"><path fill="#1e1e1e" d="M 0.72,0.51 Q 0.72,0.51 -0.12,2.11 -0.96,3.70 -1.81,4.94 -2.65,6.18 -3.92,7.99 -5.18,9.79 -5.18,9.90 -5.17,10.00 -5.20,10.11 -5.23,10.21 -5.29,10.30 -5.35,10.39 -5.43,10.45 -5.51,10.52 -5.61,10.55 -5.71,10.58 -5.82,10.58 -5.93,10.59 -6.03,10.55 -6.13,10.52 -6.21,10.45 -6.30,10.39 -6.36,10.30 -6.42,10.22 -6.45,10.11 -6.48,10.01 -6.47,9.91 -6.47,9.80 -6.43,9.70 -6.39,9.60 -6.32,9.52 -6.25,9.44 -6.16,9.38 -6.07,9.33 -5.97,9.30 -5.86,9.28 -5.76,9.29 -5.65,9.30 -5.56,9.35 -5.46,9.39 -5.38,9.46 -5.30,9.54 -5.25,9.63 -5.20,9.72 -5.19,9.83 -5.17,9.93 -5.18,10.04 -5.20,10.14 -5.25,10.24 -5.30,10.33 -5.38,10.40 -5.45,10.48 -5.55,10.52 -5.65,10.57 -5.75,10.58 -5.86,10.59 -5.96,10.57 -6.06,10.55 -6.16,10.49 -6.25,10.44 -6.32,10.36 -6.39,10.28 -6.43,10.18 -6.47,10.08 -6.47,10.08 -6.47,10.08 -5.70,7.34 -4.93,4.60 -4.06,3.36 -3.19,2.11 -1.95,0.79 -0.72,-0.51 -0.65,-0.59 -0.58,-0.67 -0.49,-0.73 -0.40,-0.79 -0.30,-0.83 -0.19,-0.87 -0.09,-0.88 0.01,-0.89 0.12,-0.87 0.22,-0.86 0.32,-0.82 0.42,-0.78 0.51,-0.72 0.60,-0.65 0.67,-0.57 0.74,-0.49 0.79,-0.39 0.84,-0.30 0.86,-0.19 0.88,-0.09 0.88,0.01 0.88,0.12 0.85,0.22 0.82,0.33 0.77,0.42 0.72,0.51 0.72,0.51 L 0.72,0.51 Z"/></g><g transform="translate(72.52463526894644 160.6342984979319) rotate(0 -6.872656259719776 8.31956350672769)" stroke="none"><path fill="#1e1e1e" d="M 0.42,0.70 Q 0.42,0.70 -0.50,1.51 -1.43,2.32 -2.45,3.03 -3.48,3.73 -4.42,4.76 -5.36,5.80 -6.37,7.25 -7.38,8.69 -8.25,9.96 -9.12,11.22 -10.12,12.60 -11.12,13.99 -12.06,15.24 -13.00,16.50 -13.05,16.59 -13.10,16.69 -13.18,16.76 -13.26,16.83 -13.35,16.88 -13.45,16.92 -13.55,16.94 -13.66,16.95 -13.76,16.93 -13.87,16.90 -13.96,16.85 -14.05,16.80 -14.12,16.71 -14.19,16.63 -14.23,16.54 -14.27,16.44 -14.27,16.33 -14.28,16.22 -14.25,16.12 -14.22,16.02 -14.17,15.93 -14.11,15.84 -14.02,15.78 -13.94,15.71 -13.84,15.68 -13.74,15.64 -13.63,15.64 -13.52,15.64 -13.42,15.68 -13.32,15.71 -13.24,15.77 -13.15,15.84 -13.09,15.93 -13.03,16.01 -13.00,16.12 -12.97,16.22 -12.98,16.32 -12.99,16.43 -13.02,16.53 -13.06,16.63 -13.13,16.71 -13.20,16.79 -13.29,16.85 -13.38,16.90 -13.48,16.92 -13.59,16.95 -13.69,16.94 -13.80,16.93 -13.90,16.88 -13.99,16.84 -14.07,16.77 -14.15,16.69 -14.20,16.60 -14.25,16.51 -14.27,16.40 -14.28,16.30 -14.27,16.19 -14.25,16.09 -14.25,16.09 -14.25,16.09 -13.83,14.21 -13.41,12.33 -12.42,10.97 -11.44,9.62 -10.55,8.34 -9.66,7.07 -8.51,5.48 -7.36,3.89 -6.15,2.69 -4.93,1.48 -3.83,0.82 -2.72,0.16 -1.57,-0.26 -0.42,-0.70 -0.33,-0.74 -0.24,-0.78 -0.14,-0.80 -0.04,-0.82 0.05,-0.81 0.15,-0.81 0.24,-0.78 0.34,-0.75 0.42,-0.69 0.51,-0.64 0.58,-0.57 0.65,-0.50 0.70,-0.42 0.75,-0.33 0.78,-0.24 0.81,-0.14 0.81,-0.04 0.82,0.05 0.80,0.15 0.78,0.24 0.74,0.33 0.70,0.42 0.64,0.50 0.58,0.58 0.50,0.64 0.42,0.70 0.42,0.70 L 0.42,0.70 Z"/></g><g stroke-linecap="round" transform="translate(84.01953948484476 112.93656023639917) rotate(0 28.056644595494475 24.702053979151284)"><path d="M0 0 C15.06 1.04, 26.57 -0.66, 56.11 0 M0 0 C12.69 -0.01, 26.74 0.2, 56.11 0 M56.11 0 C56.75 17.78, 56.86 32.58, 56.11 49.4 M56.11 0 C57.11 9.75, 57.07 21.02, 56.11 49.4 M56.11 49.4 C38.47 48.49, 22.76 47.68, 0 49.4 M56.11 49.4 C38.18 49.03, 22.5 50.36, 0 49.4 M0 49.4 C1.04 37.13, 0.91 25.16, 0 0 M0 49.4 C0.33 32.5, 0.35 15.58, 0 0" stroke="#1971c2" stroke-width="2" fill="none"/></g><g transform="translate(87.06921300557275 241.63117460447805) rotate(0 -5.184372392576677 7.014182089064207)" stroke="none"><path fill="#1e1e1e" d="M 0.54,0.45 Q 0.54,0.45 -0.10,1.69 -0.75,2.93 -1.71,3.80 -2.67,4.68 -3.15,5.29 -3.63,5.91 -4.78,7.12 -5.92,8.33 -6.49,9.25 -7.06,10.18 -7.49,10.94 -7.92,11.70 -8.01,13.02 -8.10,14.34 -8.14,14.40 -8.19,14.46 -8.25,14.51 -8.31,14.56 -8.39,14.60 -8.46,14.63 -8.53,14.65 -8.61,14.66 -8.69,14.66 -8.77,14.66 -8.85,14.64 -8.92,14.61 -8.99,14.57 -9.06,14.53 -9.12,14.48 -9.17,14.43 -9.22,14.36 -9.26,14.29 -9.28,14.22 -9.31,14.14 -9.32,14.06 -9.32,13.98 -9.31,13.91 -9.30,13.83 -9.27,13.75 -9.24,13.68 -8.81,13.55 -8.39,13.41 -8.30,13.47 -8.21,13.53 -8.15,13.62 -8.09,13.70 -8.05,13.80 -8.02,13.90 -8.02,14.01 -8.02,14.12 -8.05,14.22 -8.09,14.32 -8.15,14.40 -8.22,14.49 -8.30,14.55 -8.39,14.61 -8.49,14.63 -8.60,14.66 -8.70,14.66 -8.81,14.65 -8.91,14.61 -9.01,14.57 -9.09,14.50 -9.17,14.43 -9.22,14.34 -9.28,14.25 -9.30,14.15 -9.32,14.04 -9.31,13.94 -9.30,13.83 -9.25,13.74 -9.21,13.64 -9.14,13.56 -9.06,13.49 -8.97,13.44 -8.88,13.39 -8.77,13.37 -8.67,13.35 -8.56,13.37 -8.46,13.39 -8.36,13.44 -8.27,13.49 -8.20,13.56 -8.12,13.64 -8.08,13.74 -8.03,13.83 -8.02,13.94 -8.01,14.05 -8.03,14.15 -8.06,14.25 -8.11,14.34 -8.17,14.43 -8.25,14.50 -8.33,14.57 -8.43,14.61 -8.53,14.65 -8.63,14.66 -8.74,14.66 -8.42,14.50 -8.10,14.34 -8.14,14.40 -8.19,14.46 -8.25,14.51 -8.31,14.56 -8.39,14.60 -8.46,14.63 -8.53,14.65 -8.61,14.66 -8.69,14.66 -8.77,14.66 -8.85,14.64 -8.92,14.61 -8.99,14.57 -9.06,14.53 -9.12,14.48 -9.17,14.43 -9.22,14.36 -9.26,14.29 -9.28,14.22 -9.31,14.14 -9.32,14.06 -9.32,13.98 -9.31,13.91 -9.30,13.83 -9.27,13.75 -9.24,13.68 -9.74,12.02 -10.25,10.37 -9.78,9.56 -9.31,8.75 -8.59,7.62 -7.86,6.50 -6.77,5.37 -5.69,4.24 -5.05,3.48 -4.42,2.71 -3.58,1.99 -2.74,1.27 -1.64,0.40 -0.54,-0.45 -0.48,-0.51 -0.42,-0.57 -0.34,-0.61 -0.27,-0.66 -0.19,-0.68 -0.10,-0.70 -0.02,-0.71 0.06,-0.71 0.14,-0.69 0.23,-0.67 0.31,-0.63 0.38,-0.60 0.45,-0.54 0.52,-0.49 0.57,-0.42 0.62,-0.35 0.65,-0.27 0.68,-0.19 0.70,-0.10 0.71,-0.02 0.70,0.06 0.69,0.15 0.67,0.23 0.64,0.31 0.59,0.38 0.54,0.45 0.54,0.45 L 0.54,0.45 Z"/></g><g transform="translate(105.97697664015425 241.63117460447805) rotate(0 -5.489345328700296 7.3191550251878255)" stroke="none"><path fill="#1e1e1e" d="M 0.46,0.55 Q 0.46,0.55 -0.41,1.64 -1.28,2.73 -2.60,3.82 -3.91,4.92 -4.76,5.84 -5.60,6.77 -6.30,7.67 -7.00,8.57 -7.50,9.16 -8.00,9.75 -8.27,10.53 -8.55,11.30 -8.93,11.96 -9.30,12.62 -9.80,13.84 -10.30,15.07 -10.33,15.17 -10.35,15.27 -10.41,15.36 -10.46,15.45 -10.55,15.52 -10.63,15.59 -10.73,15.62 -10.83,15.66 -10.93,15.67 -11.04,15.67 -11.14,15.64 -11.24,15.61 -11.33,15.55 -11.42,15.49 -11.48,15.40 -11.54,15.32 -11.58,15.21 -11.61,15.11 -11.61,15.01 -11.60,14.90 -11.57,14.80 -11.53,14.70 -11.47,14.62 -11.40,14.53 -11.31,14.48 -11.22,14.42 -11.12,14.39 -11.02,14.36 -10.91,14.37 -10.80,14.38 -10.71,14.42 -10.61,14.46 -10.53,14.53 -10.45,14.60 -10.40,14.69 -10.34,14.79 -10.32,14.89 -10.30,15.00 -10.31,15.10 -10.33,15.21 -10.37,15.30 -10.42,15.40 -10.50,15.47 -10.57,15.55 -10.66,15.60 -10.76,15.64 -10.86,15.66 -10.97,15.68 -11.07,15.66 -11.18,15.64 -11.27,15.59 -11.36,15.53 -11.44,15.46 -11.51,15.38 -11.55,15.28 -11.59,15.18 -11.60,15.08 -11.61,14.97 -11.61,14.97 -11.61,14.97 -11.63,13.13 -11.65,11.28 -11.35,10.78 -11.05,10.29 -10.55,9.17 -10.06,8.05 -9.58,7.49 -9.11,6.92 -8.33,5.94 -7.55,4.95 -6.57,3.91 -5.58,2.87 -4.25,1.82 -2.92,0.77 -1.69,0.10 -0.46,-0.55 -0.39,-0.60 -0.31,-0.65 -0.23,-0.68 -0.15,-0.71 -0.06,-0.72 0.02,-0.72 0.10,-0.71 0.19,-0.70 0.27,-0.66 0.35,-0.63 0.42,-0.58 0.49,-0.53 0.55,-0.46 0.61,-0.39 0.65,-0.31 0.68,-0.23 0.70,-0.15 0.72,-0.06 0.72,0.02 0.72,0.10 0.69,0.19 0.67,0.27 0.63,0.35 0.58,0.43 0.52,0.49 0.46,0.55 0.46,0.55 L 0.46,0.55 Z"/></g><g transform="translate(127.93435795495543 241.63117460447805) rotate(0 -7.92904505692681 7.3191550251878255)" stroke="none"><path fill="#1e1e1e" d="M 0.47,0.63 Q 0.47,0.63 -0.10,1.32 -0.67,2.01 -1.50,2.62 -2.33,3.23 -3.35,4.01 -4.38,4.79 -5.67,5.82 -6.97,6.85 -7.98,7.93 -8.99,9.01 -9.94,10.17 -10.89,11.32 -11.50,12.02 -12.10,12.71 -13.44,14.04 -14.77,15.38 -14.73,15.47 -14.68,15.57 -14.67,15.67 -14.66,15.78 -14.68,15.88 -14.70,15.99 -14.76,16.08 -14.81,16.17 -14.89,16.24 -14.97,16.31 -15.07,16.35 -15.17,16.39 -15.28,16.39 -15.38,16.40 -15.49,16.37 -15.59,16.34 -15.68,16.29 -15.77,16.23 -15.83,16.14 -15.89,16.06 -15.93,15.96 -15.96,15.86 -15.96,15.75 -15.96,15.64 -15.93,15.54 -15.90,15.44 -15.83,15.36 -15.77,15.27 -15.68,15.21 -15.59,15.15 -15.49,15.12 -15.39,15.09 -15.28,15.10 -15.18,15.11 -15.08,15.14 -14.98,15.18 -14.90,15.25 -14.82,15.32 -14.76,15.41 -14.71,15.50 -14.68,15.61 -14.66,15.71 -14.67,15.81 -14.68,15.92 -14.73,16.02 -14.77,16.11 -14.84,16.19 -14.92,16.27 -15.01,16.32 -15.10,16.37 -15.21,16.39 -15.31,16.40 -15.42,16.39 -15.52,16.37 -15.62,16.32 -15.71,16.27 -15.78,16.19 -15.86,16.12 -15.86,16.12 -15.86,16.12 -15.02,13.50 -14.18,10.89 -13.60,10.22 -13.01,9.56 -11.99,8.34 -10.96,7.13 -9.79,5.93 -8.62,4.73 -7.27,3.71 -5.92,2.68 -4.84,1.92 -3.77,1.16 -2.94,0.62 -2.12,0.08 -1.30,-0.27 -0.47,-0.63 -0.39,-0.68 -0.31,-0.73 -0.21,-0.75 -0.12,-0.78 -0.03,-0.78 0.06,-0.79 0.15,-0.77 0.25,-0.75 0.33,-0.71 0.42,-0.67 0.49,-0.61 0.57,-0.54 0.63,-0.47 0.68,-0.39 0.72,-0.30 0.76,-0.22 0.77,-0.12 0.79,-0.03 0.78,0.06 0.77,0.15 0.74,0.25 0.71,0.34 0.66,0.42 0.61,0.50 0.54,0.56 0.47,0.63 0.47,0.63 L 0.47,0.63 Z"/></g></svg>