<?xml version="1.0" encoding="UTF-8" standalone="no"?>
<!-- Created with Inkscape (http://www.inkscape.org/) -->

<svg
   version="1.1"
   id="svg53"
   width="292"
   height="292"
   viewBox="0 0 292 292"
   sodipodi:docname="lorenz_small_red.svg"
   inkscape:version="1.1.2 (0a00cf5339, 2022-02-04)"
   xmlns:inkscape="http://www.inkscape.org/namespaces/inkscape"
   xmlns:sodipodi="http://sodipodi.sourceforge.net/DTD/sodipodi-0.dtd"
   xmlns="http://www.w3.org/2000/svg"
   xmlns:svg="http://www.w3.org/2000/svg">
  <defs
     id="defs57" />
  <sodipodi:namedview
     id="namedview55"
     pagecolor="#ffffff"
     bordercolor="#666666"
     borderopacity="1.0"
     inkscape:pageshadow="2"
     inkscape:pageopacity="0.0"
     inkscape:pagecheckerboard="0"
     showgrid="false"
     inkscape:zoom="1.3818493"
     inkscape:cx="266.67162"
     inkscape:cy="192.8575"
     inkscape:window-width="1920"
     inkscape:window-height="1016"
     inkscape:window-x="0"
     inkscape:window-y="0"
     inkscape:window-maximized="1"
     inkscape:current-layer="g59" />
  <g
     inkscape:groupmode="layer"
     inkscape:label="Image"
     id="g59">
    <path
       style="fill:#e20000;stroke:none;stroke-width:1.20417;fill-opacity:1"
       d="M 33.647764,184.24059 C 8.866897,147.96476 3.255372,79.653965 56.527127,63.143615 c 8.062206,-2.49867 15.657311,-3.25537 24.08354,-2.88581 38.372673,1.68272 63.178353,31.02093 95.129983,46.915465 l -8.42924,7.22506 c -6.22439,-11.9983 -19.7485,-22.354105 -31.3086,-29.049805 -9.05131,-5.24275 -18.65114,-9.45977 -28.90025,-11.63862 -30.787433,-6.54469 -53.736638,15.61734 -48.842622,46.709305 4.648243,29.53003 30.12538,52.14929 58.476042,58.4929 12.06019,2.69856 26.98922,2.81416 37.11996,-5.42241 17.98077,-14.61871 1.82674,-36.77196 14.65965,-50.66214 6.18826,14.94504 -6.87344,41.10819 10.88576,51.27747 12.62459,7.22867 30.31154,0.44916 42.09803,-5.48261 29.61071,-14.9029 63.62751,-51.71098 53.66535,-87.940085 -5.11655,-18.6102 -32.9812,-11.33962 -45.23612,-6.714 -12.89191,4.86583 -24.81206,12.18205 -36.1253,19.98969 -4.04724,2.79285 -10.27283,9.745275 -15.6543,8.370705 C 167.31021,99.559865 155.13598,86.426265 145.63623,80.310605 118.4877,62.833055 74.573044,45.185483 43.28118,63.135305 12.131838,81.003375 9.833863,116.06249 12.08036,148.11528 c 0.870748,12.42349 6.855215,35.01506 21.567404,36.12531 M 175.74065,138.48186 h 1.20418 c 19.32945,47.0496 74.25075,3.12123 84.68857,-28.90025 6.80841,-20.889815 -10.13676,-31.990035 -29.29643,-26.072825 -6.30145,1.94618 -12.33559,4.58297 -18.06265,7.85689 -9.54431,5.45673 -18.23004,12.208065 -26.49189,19.420125 h -1.20419 l -2.40834,-2.40836 c 13.69991,-16.829215 42.56524,-31.074025 63.82137,-34.392495 23.1756,-3.61807 28.64136,15.90273 22.03885,34.392495 -2.07479,5.80895 -4.93953,11.59141 -8.14746,16.85848 -11.28555,18.52746 -30.57767,35.72432 -51.22087,42.93493 -25.99458,9.07949 -40.00517,-2.30359 -34.92114,-29.68899 m -14.45012,-14.45012 h -2.40835 c -5.37786,-10.10184 -12.5391,-18.45967 -21.67519,-25.409455 -6.68426,-5.08451 -13.71774,-9.09961 -21.67518,-11.82526 -20.271612,-6.94352 -45.769815,3.02129 -45.208668,27.601305 0.683731,29.95269 39.303848,63.33248 69.292198,49.4724 13.87333,-6.41224 10.45467,-19.17532 19.26684,-27.79722 0,8.96751 1.58349,19.53777 -2.9105,27.69125 -8.2727,15.00526 -31.38639,13.27967 -45.2566,8.73631 -28.915048,-9.47326 -62.594553,-47.95274 -44.116939,-79.777925 16.734929,-28.82355 56.792849,-12.21686 76.629729,3.39421 8.13542,6.402365 23.73433,16.465075 18.06266,27.914385 m 97.53833,-18.06266 h -1.20417 c -0.48167,-10.514625 -5.97393,-18.144765 -16.85848,-19.266825 13.77819,-5.61965 18.06145,8.90947 18.06265,19.266825 M 98.673318,89.110615 v 1.20417 C 79.221529,93.243225 76.123422,109.98983 78.202313,126.44009 67.462018,110.71836 81.475868,89.898385 98.673318,89.110615 m -3.61253,6.49569 c 19.443002,-4.4687 39.022562,8.190205 49.616922,23.608725 9.87545,14.37306 4.152,31.41577 -13.49161,35.48831 -19.03491,4.39283 -38.943202,-8.90249 -46.585632,-25.85489 -5.124136,-11.36623 -4.294458,-29.851055 10.46032,-33.242145 m 162.563902,11.566965 -1.20418,1.20417 1.20418,-1.20417 m -26.49189,2.40834 c -0.82727,10.97487 -11.3867,17.46178 -21.67519,14.45013 4.093,-9.27938 11.58418,-14.2129 21.67519,-14.45013 m -50.57544,1.20419 c 2.7094,5.90527 -0.91758,9.13247 -3.61253,14.45012 h -2.40835 c -2.69977,-6.89993 0.3191,-10.38603 6.02088,-14.45012 m -31.3086,4.8167 -1.20417,1.20418 1.20417,-1.20418 m 1.20417,2.40836 6.02089,12.04177 -6.02089,-12.04177 m 33.71697,4.8167 -3.61254,10.8376 h -1.20418 l 4.81672,-10.8376 m -104.76341,4.81671 6.020888,12.04177 c -3.599168,-3.0851 -6.839006,-7.12512 -6.020888,-12.04177 m 105.96758,9.63342 8.42924,13.24595 v 1.20417 c -5.64518,-2.65641 -10.97005,-7.85605 -8.42924,-14.45012 m -98.742522,3.61253 1.20418,2.40836 -1.20418,-2.40836 m 3.61254,3.61253 4.8167,6.02089 -4.8167,-6.02089 m 105.967572,1.20417 -1.20417,1.20419 1.20417,-1.20419 m -98.742512,4.81672 c 17.539682,12.48731 33.234932,11.31565 50.575442,0 -7.09623,13.38683 -25.83515,13.15081 -38.53368,8.34976 -4.2647,-1.61119 -10.721262,-3.69442 -12.041762,-8.34976 m 119.213522,0 -1.20418,1.20417 1.20418,-1.20417 m -20.47101,1.20417 -1.20417,1.20418 1.20417,-1.20418 m 18.06266,0 v 1.20418 l -16.85848,2.40835 v -2.40835 z"
       id="path419" />
  </g>
</svg>
